<?xml  version="1.0" encoding="UTF-8"?>
<!DOCTYPE svg PUBLIC "-//W3C//DTD SVG 1.0//EN" "http://www.w3.org/TR/2001/REC-SVG-20010904/DTD/svg10.dtd" >
<svg xmlns="http://www.w3.org/2000/svg" >
<metadata>
<version>1.0</version>
<id><![CDATA[Corporate E W01 Medium Italic]]></id>
<vendor>Monotype Imaging Inc.</vendor>
<credits>
<name>Fonts.com WebFonts</name>
<URL>http://webfonts.fonts.com</URL>
<role>Home of the Web fonts</role>
</credits>
<license>
<URL>http://webfonts.fonts.com/Legal</URL>
</license>
<copyright><![CDATA[(URW)++,Copyright 2009 by (URW)++ Design & Development]]></copyright>
<trademark><![CDATA[Please refer to the Copyright section for the font trademark attribution notices.]]></trademark>
<licensee>
<name></name>
</licensee>
</metadata>
<defs >
<font horiz-adv-x="487" id="1dae2dfc-11a2-4934-a440-b546aebcc10a">
<font-face font-family="" panose-1="0 0 6 0 0 0 0 0 0 0" ascent="738" descent="-262" units-per-em="1000" alphabetic="0">
</font-face>
<missing-glyph horiz-adv-x="0" />

<glyph unicode="&#xA;" />
<glyph unicode="&#xD;" horiz-adv-x="0" />
<glyph unicode=" " horiz-adv-x="250" />
<glyph unicode="!" horiz-adv-x="209" d="M117 98L92 0H-3L21 98H117ZM251 652L122 183H53L161 652H251Z"  />
<glyph unicode="&quot;" horiz-adv-x="297" d="M268 419L257 667H333L322 419H268ZM139 419L127 667H204L192 419H139Z"  />
<glyph unicode="#" horiz-adv-x="500" d="M223 402L203 278H324L344 402H223ZM492 212H392L358 0H280L314 212H193L159 0H84L118 212H17L27 278H128L148 403H47L57 469H158L190 667H265L233 469H354L386 667H464L432 469H533L522 402H422L402 278H503L492 212Z"  />
<glyph unicode="$" horiz-adv-x="506" d="M233 56Q290 63 323 99T357 191Q357 208 354 221T343 246T322 269T287 295L233 56ZM315 611Q267 605 238 574T208 498Q208 470 221 451T270 409L315 611ZM387 743L371 672Q403 667 423 653T457 612L470 667H526L480 482H424Q426 494 427 501T428 516Q428 593 357 609L307 386Q325 375 336 368T355 356T368 346T380 337Q412 310 426 280T440 207Q440 160 424 121T378 53T309 8T219 -9L201 -89H159L177 -6Q142 -1 113 17T69 61L54 0H-3L49 207H106Q103 190 102 180T101 161Q101 74 191 57L250 318Q214 339 191 357T153 395T133 435T127 482Q127 524 142 559T184 620T248 660T330 676L345 743H387Z"  />
<glyph unicode="%" horiz-adv-x="637" d="M245 619Q225 619 208 607T177 575T156 529T148 472Q148 440 161 422T200 404Q219 404 236 416T267 448T288 494T296 549Q296 582 283 600T245 619ZM250 672Q300 672 328 640T357 551Q357 509 345 473T310 409T259 367T196 351Q145 351 116 382T87 469Q87 511 102 552T143 623Q186 672 250 672ZM484 263Q464 263 447 251T416 219T395 173T387 116Q387 84 400 66T440 48Q459 48 476 60T506 92T527 138T535 193Q535 226 522 244T484 263ZM489 316Q539 316 567 284T596 195Q596 153 584 117T549 53T498 11T434 -5Q383 -5 355 26T326 113Q326 155 341 196T382 267Q425 316 489 316ZM642 667L100 0H40L583 667H642Z"  />
<glyph unicode="&amp;" horiz-adv-x="535" d="M198 310Q165 288 143 269T106 231T86 193T80 153Q80 110 107 84T178 57Q238 57 293 108L198 310ZM241 411Q298 452 321 481T345 542Q345 566 330 580T289 595Q256 595 233 572T210 516Q210 496 216 474T241 411ZM547 338L532 280H480Q444 174 385 111L410 59H478L463 0H344L320 53Q247 -8 164 -8Q127 -8 97 3T44 34T10 83T-2 147Q-2 179 7 206T36 260T88 313T169 370Q157 394 150 412T138 447T131 477T129 507Q129 540 141 568T175 617T227 648T294 660Q353 660 388 630T423 549Q423 498 387 452T270 353L355 170Q378 198 392 222T417 280H356L370 338H547Z"  />
<glyph unicode="&apos;" horiz-adv-x="169" d="M139 419L127 667H204L192 419H139Z"  />
<glyph unicode="(" horiz-adv-x="296" d="M373 672Q314 608 268 532T189 371T140 198T123 19Q123 -41 130 -91T153 -200H90Q70 -144 61 -88T51 34Q51 125 69 216T120 390T201 546T306 672H373Z"  />
<glyph unicode=")" horiz-adv-x="296" d="M-79 -200Q-52 -169 -30 -141T11 -84T46 -27T77 36Q123 136 147 243T171 454Q171 514 164 565T141 672H204Q224 619 233 562T243 438Q243 347 226 258T175 86T95 -69T-13 -200H-79Z"  />
<glyph unicode="*" horiz-adv-x="500" d="M323 659L374 647L346 527L469 538L473 486L351 475L399 362L351 341L303 455L210 374L176 413L269 494L163 557L190 602L296 539L323 659Z"  />
<glyph unicode="+" horiz-adv-x="506" d="M240 365V550H312V365H492V297H312V112H240V297H59V365H240Z"  />
<glyph unicode="&#x2c;" horiz-adv-x="204" d="M127 112L99 0L-12 -126H-80L46 0H-13L15 112H127Z"  />
<glyph unicode="-" horiz-adv-x="200" d="M211 283L198 233H-2L10 283H211Z"  />
<glyph unicode="." horiz-adv-x="205" d="M126 112L98 0H-14L14 112H126Z"  />
<glyph unicode="/" horiz-adv-x="386" d="M451 667L-26 -162H-88L389 667H451Z"  />
<glyph unicode="0" horiz-adv-x="506" d="M334 595Q249 595 192 476Q177 444 164 407T142 330T127 252T121 181Q121 121 145 88T217 55Q297 55 353 169Q369 201 382 239T406 318T421 396T427 467Q427 528 403 561T334 595ZM337 659Q418 659 464 606T510 461Q510 420 504 377T487 290T459 207T423 131Q343 -9 213 -9Q131 -9 85 43T38 186Q38 228 44 272T61 360T88 444T125 520Q204 659 337 659Z"  />
<glyph unicode="1" horiz-adv-x="506" d="M407 657L258 62H356L341 0H72L88 62H175L282 494H173L185 542Q246 544 282 570T343 657H407Z"  />
<glyph unicode="2" horiz-adv-x="506" d="M427 158L383 0H0L17 68Q50 96 85 128T154 192T219 254T274 309Q308 345 332 374T372 428T394 473T401 513Q401 548 379 568T316 589Q219 589 185 461H121Q138 558 191 608T329 659Q401 659 444 622T487 522Q487 495 479 470T453 415T405 351T331 273Q272 214 217 164T112 74H338L365 158H427Z"  />
<glyph unicode="3" horiz-adv-x="506" d="M228 386L252 385Q283 385 309 395T355 422T386 463T398 515Q398 553 375 574T310 595Q217 595 189 481H122Q157 659 320 659Q393 659 437 621T481 519Q481 459 446 415T346 350Q434 319 434 223Q434 173 417 131T369 57T296 9T202 -8Q120 -8 74 31T27 140Q27 152 28 161T31 184H98Q96 172 96 165T96 150Q96 106 124 82T203 58Q234 58 261 70T307 103T337 154T348 219Q348 317 234 317H209L228 386Z"  />
<glyph unicode="4" horiz-adv-x="506" d="M314 340Q322 371 330 403T347 465T364 523T378 570Q345 526 323 498T283 447T247 402T202 347L114 240L289 242L314 340ZM463 246L446 180H351L322 62H398L383 0H159L175 62H244L274 180H24L40 244L393 657H470L368 245L463 246Z"  />
<glyph unicode="5" horiz-adv-x="506" d="M519 650L488 576H260L190 409Q220 430 245 439T303 448Q371 448 410 406T449 289Q449 226 426 165T361 62Q293 -8 194 -8Q122 -8 80 30T37 132Q37 137 37 146T39 165H106Q105 160 105 154T105 145Q105 103 129 81T198 58Q232 58 262 75T315 121T350 191T363 277Q363 328 340 355T274 382Q239 382 208 365T144 311L90 320L221 650H519Z"  />
<glyph unicode="6" horiz-adv-x="506" d="M282 389Q252 389 225 370T176 318T143 244T130 156Q130 109 152 83T212 56Q272 56 317 126Q338 159 350 202T363 283Q363 333 342 361T282 389ZM482 667Q420 614 367 561T258 443Q273 448 282 449T303 450Q335 450 362 438T408 403T438 349T449 280Q449 224 428 169T371 71Q304 -8 207 -8Q170 -8 140 4T89 38T56 93T44 164Q44 241 82 319T200 482Q246 531 298 580T397 667H482Z"  />
<glyph unicode="7" horiz-adv-x="506" d="M555 650L540 584L121 0H32L462 577H213L188 486H126L168 650H555Z"  />
<glyph unicode="8" horiz-adv-x="506" d="M261 309Q233 309 208 297T165 263T135 214T124 154Q124 107 148 81T218 55Q246 55 270 67T312 101T340 152T351 214Q351 259 327 284T261 309ZM334 596Q310 596 289 585T251 555T225 511T215 457Q215 415 236 392T294 368Q318 368 339 379T377 411T402 457T412 513Q412 551 391 573T334 596ZM195 347Q134 384 134 462Q134 504 150 540T193 602T258 644T338 659Q410 659 451 620T493 513Q493 450 459 406T362 338Q396 322 414 290T432 213Q432 165 416 125T370 55T300 9T213 -8Q133 -8 88 34T43 151Q43 226 83 278T195 347Z"  />
<glyph unicode="9" horiz-adv-x="506" d="M334 595Q273 595 229 524Q208 491 196 448T183 366Q183 316 204 288T264 260Q324 260 368 329Q390 362 403 407T416 494Q416 542 394 568T334 595ZM64 -17Q118 28 174 84T288 206Q273 202 264 201T243 199Q211 199 184 211T138 246T108 300T97 370Q97 426 117 482T175 580Q242 659 339 659Q414 659 458 612T502 486Q502 409 464 331T346 168Q322 142 296 116T244 65T194 20T149 -17H64Z"  />
<glyph unicode=":" horiz-adv-x="205" d="M201 411L173 299H61L89 411H201ZM126 112L98 0H-14L14 112H126Z"  />
<glyph unicode=";" horiz-adv-x="204" d="M201 411L173 299H61L89 411H201ZM127 112L99 0L-12 -126H-80L46 0H-13L15 112H127Z"  />
<glyph unicode="&lt;" horiz-adv-x="500" d="M489 496L146 337L489 178V95L56 301V374L489 580V496Z"  />
<glyph unicode="=" horiz-adv-x="506" d="M492 287V223H59V287H492ZM492 439V375H59V439H492Z"  />
<glyph unicode="&gt;" horiz-adv-x="500" d="M57 178L401 337L57 496V580L490 373V301L57 95V178Z"  />
<glyph unicode="?" horiz-adv-x="400" d="M125 190Q137 238 147 268T172 321T213 367T281 421Q318 450 333 472T348 522Q348 553 329 570T274 588Q189 588 163 488H96Q111 574 160 618T290 662Q358 662 398 628T438 534Q438 469 386 417Q378 409 373 405T360 394T339 377T301 349Q277 332 262 317T235 284T216 244T201 190H125ZM198 98L173 0H78L103 98H198Z"  />
<glyph unicode="@" horiz-adv-x="667" d="M373 436Q351 436 332 426T297 397T274 356T265 305Q265 262 287 236T347 209Q368 209 387 220T420 249T442 293T450 348Q450 389 430 412T373 436ZM547 493L507 288Q504 274 503 262T501 243Q501 225 509 215T533 204Q551 204 568 218T599 257T621 313T629 379Q629 429 611 471T560 545T482 593T385 611Q325 611 273 590T183 531T124 441T102 329Q102 269 125 215T193 121Q266 55 384 55Q408 55 435 58T489 66T541 78T588 95L605 35Q551 12 498 2T388 -9Q227 -9 132 85Q84 133 58 197T31 331Q31 403 58 466T131 575T241 648T378 675Q446 675 503 653T603 592T669 499T693 382Q693 335 680 293T644 218T591 167T528 148Q500 148 479 164T454 206Q433 176 401 160T332 143Q302 143 276 155T231 188T202 239T191 304Q191 345 205 381T243 445T299 489T367 505Q442 505 471 443L481 493H547Z"  />
<glyph unicode="A" horiz-adv-x="627" d="M403 390Q400 460 400 479L399 516L398 561V592Q383 560 372 537T349 493T325 446T290 384L228 272H408L403 390ZM469 672L505 65H583L566 0H319L336 65H417L411 208H191L111 65H199L182 0H-55L-38 65H34L383 672H469Z"  />
<glyph unicode="B" horiz-adv-x="567" d="M203 65Q260 65 292 71T350 91Q383 110 401 143T420 215Q420 283 363 306Q348 312 328 314T271 317H217L154 65H203ZM275 381Q319 381 346 385T396 401Q429 418 448 449T467 517Q467 577 417 595Q405 600 386 602T334 604H288L233 381H275ZM325 667Q359 667 383 666T426 662T459 655T486 643Q556 605 556 521Q556 455 519 411T410 349Q510 318 510 212Q510 146 475 95T377 21Q360 15 342 11T301 4T247 1T172 0H-28L-11 65H68L202 604H115L132 667H325Z"  />
<glyph unicode="C" horiz-adv-x="576" d="M636 667L587 472H521Q522 484 522 491T523 505Q523 556 492 584T405 612Q298 612 222 498Q184 441 162 369T140 224Q140 143 176 99T279 54Q346 54 392 96T470 230H547Q480 -14 271 -14Q165 -14 107 50T48 232Q48 281 58 330T86 426T130 513T188 586Q284 681 404 681Q508 681 555 611L569 667H636Z"  />
<glyph unicode="D" horiz-adv-x="619" d="M203 65Q241 65 271 68T325 80T370 101T410 132Q434 156 454 190T490 264T513 347T522 431Q522 488 503 528T449 586Q429 596 402 600T331 604H288L154 65H203ZM336 667Q403 667 443 660T514 635Q614 577 614 426Q614 370 603 317T569 216T517 129T449 63Q425 45 398 33T338 14T264 3T168 0H-28L-11 65H68L202 604H115L132 667H336Z"  />
<glyph unicode="E" horiz-adv-x="517" d="M539 510H474L497 604H288L233 382H451L434 315H216L154 65H377L405 175H471L427 0H-28L-11 65H68L202 604H115L132 667H578L539 510Z"  />
<glyph unicode="F" horiz-adv-x="484" d="M540 510H475L498 604H288L233 382H452L436 315H216L154 65H253L236 0H-28L-11 65H68L202 604H115L132 667H579L540 510Z"  />
<glyph unicode="G" horiz-adv-x="616" d="M637 667L589 472H522Q524 483 524 488T524 502Q524 553 492 582T401 612Q346 612 303 585T222 500Q184 443 163 370T141 225Q141 142 180 99T294 55Q329 55 358 63T417 89L459 247H373L390 311H624L607 247H542L491 53Q435 17 387 2T280 -14Q168 -14 109 49T49 231Q49 277 57 324T82 417T121 502T172 574Q266 681 400 681Q455 681 492 665T557 611L571 667H637Z"  />
<glyph unicode="H" horiz-adv-x="664" d="M504 383L559 604H473L489 667H738L721 604H643L508 65H595L578 0H330L346 65H425L489 320H215L151 65H237L221 0H-28L-11 65H68L202 604H115L132 667H380L364 604H285L230 383H504Z"  />
<glyph unicode="I" horiz-adv-x="314" d="M388 667L371 604H291L157 65H245L228 0H-28L-11 65H69L204 604H115L132 667H388Z"  />
<glyph unicode="J" horiz-adv-x="326" d="M409 667L392 604H315L204 158Q192 110 183 78T164 23T145 -13T122 -40Q71 -91 -29 -91Q-34 -91 -44 -91T-67 -89L-51 -23Q-11 -23 15 -17T59 9T89 64T116 158L227 604H140L157 667H409Z"  />
<glyph unicode="K" horiz-adv-x="620" d="M377 667L361 604H285L222 352L517 604H436L453 667H692L675 604H613L366 398L492 65H569L552 0H310L327 65H403L301 347L201 265L151 65H234L218 0H-28L-11 65H68L202 604H115L132 667H377Z"  />
<glyph unicode="L" horiz-adv-x="492" d="M392 667L375 604H290L155 65H372L400 175H466L423 0H-28L-11 65H68L202 604H115L132 667H392Z"  />
<glyph unicode="M" horiz-adv-x="810" d="M347 667L360 405Q363 354 364 318T367 251T368 194T369 136Q376 151 391 179T426 243T471 321T520 407L671 667H884L867 604H788L654 65H741L724 0H477L494 65H569L634 326Q679 500 709 611Q694 584 683 564T662 525T643 491T623 458Q601 420 580 382T536 306L373 27H298L283 306Q278 400 275 479T270 611L258 560Q246 511 237 473T221 404T207 345T194 292L137 65H220L204 0H-28L-11 65H68L202 604H115L132 667H347Z"  />
<glyph unicode="N" horiz-adv-x="660" d="M423 0L343 278Q324 346 312 390T291 465T275 522T261 576Q248 520 239 482T223 414T210 360T198 310L137 65H223L207 0H-28L-11 65H68L202 604H115L132 667H315L390 411Q407 355 418 318T436 252T450 197T465 135Q473 169 479 195T491 248T505 306T524 380L579 604H493L509 667H744L727 604H649L498 0H423Z"  />
<glyph unicode="O" horiz-adv-x="617" d="M393 612Q292 612 220 499Q202 471 188 437T163 367T146 295T140 225Q140 146 175 101T272 55Q363 55 432 153Q452 181 468 216T497 290T515 367T522 444Q522 522 488 567T393 612ZM396 681Q447 681 487 664T555 615T599 537T614 434Q614 391 607 347T585 261T550 180T505 109Q409 -14 266 -14Q216 -14 176 3T107 52T63 130T48 233Q48 276 56 321T80 410T116 493T164 565Q211 622 270 651T396 681Z"  />
<glyph unicode="P" horiz-adv-x="520" d="M271 343Q327 343 359 350T415 374Q443 394 459 429T475 505Q475 560 445 582T341 604H289L224 343H271ZM337 667Q398 667 432 662T491 644Q565 603 565 508Q565 444 534 391T449 310Q417 293 375 286T266 279H207L154 65H253L236 0H-28L-11 65H68L202 604H115L132 667H337Z"  />
<glyph unicode="Q" horiz-adv-x="617" d="M393 612Q292 612 220 499Q202 471 188 437T163 367T146 295T140 225Q140 146 175 101T273 55Q363 55 432 153Q452 181 468 216T497 290T515 368T522 445Q522 521 487 566T393 612ZM477 0L447 57Q406 19 364 3T269 -14Q166 -14 107 52T48 233Q48 276 56 321T80 410T116 493T164 565Q211 622 270 651T396 681Q446 681 486 664T555 615T599 537T614 434Q614 350 588 268T511 117L588 0H477Z"  />
<glyph unicode="R" horiz-adv-x="583" d="M295 365Q353 365 384 370T439 389Q468 408 485 439T502 509Q502 575 448 595Q433 600 415 602T360 604H287L227 365H295ZM346 667Q382 667 407 666T451 663T483 657T510 647Q592 611 592 508Q592 457 570 414T506 343Q486 330 465 323T409 307L462 65H537L520 0H387L328 301H211L152 65H236L219 0H-28L-11 65H68L202 604H115L132 667H346Z"  />
<glyph unicode="S" horiz-adv-x="496" d="M534 667L488 484H430Q432 496 432 502T433 516Q433 561 406 586T329 612Q301 612 278 604T237 580T210 545T200 500Q200 463 227 438Q233 432 238 428T252 418T272 405T301 388Q345 363 373 343T417 302T440 258T446 204Q446 156 429 116T380 47T306 2T211 -14Q104 -14 55 58L40 0H-19L32 206H91Q88 190 87 180T86 162Q86 112 119 84T211 55Q243 55 270 65T316 93T347 135T358 189Q358 236 327 264Q320 270 315 274T301 283T278 297T239 321Q203 342 179 360T139 398T118 438T112 486Q112 528 128 563T173 625T241 666T327 681Q426 681 463 615L476 667H534Z"  />
<glyph unicode="T" horiz-adv-x="504" d="M557 498H491L517 604H384L249 65H339L322 0H64L81 65H163L297 604H162L136 498H69L111 667H599L557 498Z"  />
<glyph unicode="U" horiz-adv-x="647" d="M377 667L360 604H282L198 268Q193 246 189 230T183 200T180 177T179 156Q179 107 210 81T299 55Q384 55 428 114Q445 137 458 170T486 263L571 604H484L501 667H729L712 604H638L555 271Q546 235 540 213T530 176T522 152T514 132Q482 57 426 22T286 -14Q242 -14 206 -3T145 29T106 79T92 144Q92 168 96 197T112 269L196 604H109L126 667H377Z"  />
<glyph unicode="V" horiz-adv-x="613" d="M200 -6L167 604H88L105 667H350L334 604H252L275 96L561 604H473L489 667H719L702 604H637L287 -6H200Z"  />
<glyph unicode="W" horiz-adv-x="835" d="M148 -3L175 604H96L113 667H353L337 604H259L246 372Q239 214 225 104Q242 146 257 181T287 251T320 322T359 404L488 667H577L571 406Q570 368 569 333T566 261T560 187T553 104Q564 131 573 153T595 204T625 272T671 373L776 604H691L707 667H934L917 604H849L565 -3H479L485 264Q487 333 490 405T501 564Q488 534 476 508T449 450T414 373T362 264L233 -3H148Z"  />
<glyph unicode="X" horiz-adv-x="575" d="M275 667L337 415L483 604H395L411 667H648L631 604H566L355 348L433 65H523L506 0H362L292 282L122 65H210L193 0H-46L-29 65H39L274 348L203 604H115L132 667H275Z"  />
<glyph unicode="Y" horiz-adv-x="553" d="M351 667L335 604H259L313 350L491 604H411L427 667H652L635 604H570L334 280L280 65H370L353 0H95L112 65H194L247 279L174 604H97L114 667H351Z"  />
<glyph unicode="Z" horiz-adv-x="482" d="M548 667L534 611L96 65H350L380 175H446L400 0H-33L-19 56L420 604H202L177 510H112L153 667H548Z"  />
<glyph unicode="[" horiz-adv-x="296" d="M364 667L347 599H263L82 -125H173L155 -194H-11L204 667H364Z"  />
<glyph unicode="\" horiz-adv-x="387" d="M175 667L336 -162H278L116 667H175Z"  />
<glyph unicode="]" horiz-adv-x="296" d="M-70 -194L-53 -126H31L211 598H121L138 667H305L90 -194H-70Z"  />
<glyph unicode="^" horiz-adv-x="500" d="M44 359L218 669H328L502 359H411L272 603L134 359H44Z"  />
<glyph unicode="_" horiz-adv-x="500" d="M523 -61V-138H23V-61H523Z"  />
<glyph unicode="`" horiz-adv-x="500" d="M296 681L367 545H304L197 681H296Z"  />
<glyph unicode="a" horiz-adv-x="465" d="M306 256Q276 250 256 246T221 237T195 229T171 219Q134 203 114 178T94 121Q94 91 112 73T163 55Q192 55 218 70T261 114Q266 122 270 129T277 148T285 175T296 216L306 256ZM86 324L120 437Q158 461 194 471T272 482Q336 482 372 455T409 379Q409 362 406 344T395 294L337 59H406L392 0H248L265 69Q211 -10 131 -10Q76 -10 42 22T7 107Q7 160 43 201T146 266Q162 272 178 277T213 286T258 296T319 307L323 323Q330 352 330 369Q330 419 262 419Q216 419 189 397T143 324H86Z"  />
<glyph unicode="b" horiz-adv-x="501" d="M308 419Q242 419 195 342Q185 325 176 302T160 254T149 204T145 158Q145 110 167 82T228 53Q297 53 343 134Q364 172 377 219T390 309Q390 361 369 390T308 419ZM262 668L198 412Q252 482 329 482Q361 482 388 469T434 433T463 376T474 303Q474 239 452 176T389 67Q324 -10 238 -10Q148 -10 113 72L93 0H17L170 612H97L111 668H262Z"  />
<glyph unicode="c" horiz-adv-x="436" d="M449 472L410 314H350Q352 323 352 329T352 341Q352 378 332 398T276 419Q211 419 164 348Q152 330 143 308T127 261T116 212T112 164Q112 110 134 82T200 53Q278 53 316 155H389Q333 -10 190 -10Q114 -10 70 38T25 172Q25 239 50 305T121 416Q185 482 273 482Q355 482 377 423L389 472H449Z"  />
<glyph unicode="d" horiz-adv-x="515" d="M270 419Q203 419 156 338Q135 302 122 254T109 162Q109 110 130 82T191 53Q258 53 305 136Q327 173 340 220T353 309Q353 360 331 389T270 419ZM530 668L378 59H451L436 0H285L301 62Q243 -10 168 -10Q136 -10 110 3T65 39T36 96T25 169Q25 232 44 289T97 388T174 456T266 482Q355 482 385 399L438 612H365L379 668H530Z"  />
<glyph unicode="e" horiz-adv-x="454" d="M341 286Q345 303 346 313T348 335Q348 375 328 397T273 419Q227 419 191 384T132 283L341 286ZM117 226Q113 203 112 191T111 163Q111 110 134 82T202 53Q242 53 271 75T326 145H397Q341 -10 194 -10Q114 -10 70 37T25 170Q25 202 31 235T48 299T75 358T111 407Q180 482 277 482Q349 482 389 439T429 320Q429 297 427 278T416 229L117 226Z"  />
<glyph unicode="f" horiz-adv-x="314" d="M341 472L327 415H218L136 59H219L204 0H-28L-13 59H53L135 415H67L81 472H149L159 515Q170 566 181 593T209 637Q249 679 317 679Q341 679 360 674T401 657L385 589Q354 616 319 616Q304 616 293 611T272 595T256 564T241 514L231 472H341Z"  />
<glyph unicode="g" horiz-adv-x="463" d="M165 19Q99 19 59 -4T19 -66Q19 -102 52 -122T148 -143Q211 -143 250 -119T290 -56Q290 -20 258 -1T165 19ZM254 421Q232 421 213 412T179 388T157 352T148 307Q148 269 169 248T228 226Q273 226 302 258T332 340Q332 378 312 399T254 421ZM479 408H390Q407 378 407 340Q407 297 388 260T334 198Q311 182 284 175T211 165Q188 157 173 150T148 137T134 124T130 110Q130 98 146 90Q151 88 154 87T164 85T182 81T214 76Q293 64 329 34T366 -51Q366 -86 350 -114T305 -162T234 -193T141 -204Q50 -204 -3 -169T-57 -74Q-57 17 67 51Q33 68 33 97Q33 123 59 142T147 179Q72 217 72 302Q72 341 86 374T125 431T185 468T261 482Q286 482 305 478T347 465H493L479 408Z"  />
<glyph unicode="h" horiz-adv-x="539" d="M224 405Q256 445 289 463T364 482Q415 482 446 453T477 375Q477 355 473 332T458 263L407 59H479L465 0H254L268 59H324L377 270Q381 287 383 298T387 317T389 331T390 344Q390 409 323 409Q267 409 231 362Q223 353 218 344T207 322T197 293T186 253L138 59H200L185 0H-26L-11 59H55L193 612H121L135 668H290L224 405Z"  />
<glyph unicode="i" horiz-adv-x="276" d="M286 660L264 569H165L187 660H286ZM138 59H211L196 0H-26L-11 59H55L144 415H71L86 472H241L138 59Z"  />
<glyph unicode="j" horiz-adv-x="276" d="M290 661L268 570H169L191 661H290ZM142 60Q131 16 123 -13T108 -61T94 -94T76 -122Q48 -160 4 -181T-96 -202Q-100 -202 -106 -202T-120 -201L-104 -137Q-67 -135 -43 -127T0 -97T31 -38T60 60L148 415H76L90 472H245L142 60Z"  />
<glyph unicode="k" horiz-adv-x="528" d="M184 251L383 415H311L325 472H538L524 415H469L321 294L409 59H473L458 0H241L256 59H323L258 245L164 171L136 59H204L190 0H-26L-11 59H55L193 612H121L135 668H288L184 251Z"  />
<glyph unicode="l" horiz-adv-x="278" d="M140 59H212L197 0H-26L-11 59H55L183 612H110L124 668H280L140 59Z"  />
<glyph unicode="m" horiz-adv-x="771" d="M218 401Q250 444 281 463T351 482Q439 482 457 392Q489 439 522 460T599 482Q650 482 680 453T710 374Q710 355 706 332T692 270L640 59H712L698 0H487L501 59H557L617 299Q622 319 624 331T626 353Q626 379 609 394T561 410Q509 410 474 360Q464 346 458 327T441 266L389 59H451L436 0H236L250 59H306L362 284Q366 302 369 312T373 329T374 340T375 351Q375 378 359 394T313 410Q259 410 225 358Q214 342 206 321T189 263L138 59H200L185 0H-26L-11 59H55L144 415H71L86 472H236L218 401Z"  />
<glyph unicode="n" horiz-adv-x="528" d="M219 396Q283 482 362 482Q410 482 439 454T468 377Q468 367 467 358T464 336T458 306T447 262L396 59H469L454 0H243L258 59H314L371 290Q376 308 378 324T381 352Q381 379 365 394T320 410Q295 410 272 397T229 361Q222 352 217 343T207 322T198 295T187 256L138 59H200L185 0H-26L-11 59H55L144 415H72L86 472H238L219 396Z"  />
<glyph unicode="o" horiz-adv-x="471" d="M273 419Q209 419 164 344Q153 326 144 304T127 258T117 210T113 164Q113 110 134 82T197 53Q261 53 306 126Q329 164 343 214T357 309Q357 362 335 390T273 419ZM275 482Q352 482 398 433T444 300Q444 237 422 175T361 68Q295 -10 194 -10Q116 -10 71 39T26 173Q26 235 48 297T108 402Q141 440 184 461T275 482Z"  />
<glyph unicode="p" horiz-adv-x="517" d="M324 419Q260 419 215 348Q204 330 195 307T178 257T166 205T162 158Q162 110 184 82T245 53Q314 53 359 133Q380 170 393 219T406 310Q406 361 384 390T324 419ZM229 472L214 410Q270 482 346 482Q378 482 404 469T450 433T479 377T490 304Q490 241 471 184T419 84T343 16T251 -10Q158 -10 131 72L79 -138H158L143 -197H-81L-66 -138H0L138 415H66L80 472H229Z"  />
<glyph unicode="q" horiz-adv-x="516" d="M269 419Q201 419 155 334Q134 296 122 249T109 160Q109 109 130 81T189 53Q223 53 253 76T306 145Q315 163 323 184T336 228T345 272T349 311Q349 362 328 390T269 419ZM167 -197L182 -138H251L301 60Q243 -10 170 -10Q138 -10 111 3T65 39T36 96T25 168Q25 233 48 297T112 406Q177 482 265 482Q308 482 337 462T385 399L406 472H548L534 415H467L329 -138H402L387 -197H167Z"  />
<glyph unicode="r" horiz-adv-x="398" d="M214 384Q249 436 280 458T350 481Q372 481 389 474T428 446L395 330H339Q343 344 344 352T345 371Q345 391 336 402T310 413Q267 413 233 356T167 174L139 59H219L205 0H-25L-11 59H56L145 415H72L86 472H236L214 384Z"  />
<glyph unicode="s" horiz-adv-x="420" d="M410 472L372 320H316Q318 331 318 337T319 350Q319 383 298 402T238 421Q198 421 175 403T151 353Q151 325 174 308Q178 304 182 302T192 296T208 286T236 270Q253 261 264 254T285 242T300 232T313 222Q354 190 354 135Q354 104 341 78T305 32T251 1T182 -10Q87 -10 55 54L42 0H-15L25 161H82Q80 150 80 145T79 133Q79 95 105 73T177 51Q219 51 244 72T270 127Q270 155 246 175Q241 179 238 181T228 187T210 197T177 216Q144 234 123 249T90 278T72 309T67 345Q67 374 79 399T113 442T164 471T229 482Q311 482 342 425L354 472H410Z"  />
<glyph unicode="t" horiz-adv-x="303" d="M332 472L318 415H209L152 189Q144 157 140 134T135 100Q135 81 146 70T177 59Q191 59 204 63T238 76L220 7Q197 -1 180 -4T144 -8Q99 -8 74 14T48 78Q48 94 51 114T66 174L127 415H61L75 472H141L177 611H259L224 472H332Z"  />
<glyph unicode="u" horiz-adv-x="523" d="M217 472L149 198Q141 166 138 149T135 120Q135 93 152 78T200 62Q227 62 252 75T297 112Q304 121 310 130T321 152T330 180T341 219L390 415H318L332 472H487L384 59H457L442 0H294L314 79Q282 33 246 12T165 -10Q112 -10 81 20T50 101Q50 111 50 119T52 137T57 162T66 197L121 415H48L62 472H217Z"  />
<glyph unicode="v" horiz-adv-x="477" d="M264 472L249 415H184L196 255Q200 204 202 160T207 85Q221 112 232 133T253 174T275 213T299 255L391 415H321L335 472H531L517 415H460L215 -4H142L104 415H37L51 472H264Z"  />
<glyph unicode="w" horiz-adv-x="691" d="M266 472L251 415H185L182 264Q181 204 179 162T175 89Q190 125 199 147T218 189T239 233T270 294L366 472H449L456 289L457 187L456 87Q471 124 480 145T497 184T512 218T533 262L606 415H532L547 472H744L730 415H672L467 -4H383L379 182V258Q379 273 379 285T379 312T379 344T381 390Q369 364 362 348T351 321T343 305T337 293Q335 288 328 273T311 240T294 206T281 182L181 -4H103L105 415H40L54 472H266Z"  />
<glyph unicode="x" horiz-adv-x="484" d="M209 472L260 308L348 415H283L297 472H493L478 415H424L278 255L346 59H428L413 0H280L218 199L100 59H171L157 0H-50L-35 59H22L199 254L144 415H66L81 472H209Z"  />
<glyph unicode="y" horiz-adv-x="470" d="M258 472L244 415H181L187 272Q188 268 188 256T191 225Q194 172 196 138T198 81Q205 96 216 117T241 163T270 216T302 272L383 415H313L327 472H522L508 415H451L206 -12Q188 -43 174 -65T148 -105T126 -134T104 -156Q75 -180 40 -191T-45 -203Q-49 -203 -56 -203T-71 -202L-56 -138Q-24 -138 0 -134T45 -119T82 -87T119 -37L136 -11L99 415H34L49 472H258Z"  />
<glyph unicode="z" horiz-adv-x="414" d="M426 472L414 424L87 59H283L307 144H369L329 0H-34L-22 48L307 415H141L118 341H58L96 472H426Z"  />
<glyph unicode="{" horiz-adv-x="296" d="M55 264Q88 270 105 290T134 353L178 528Q188 567 201 594T235 637T283 660T352 667Q356 667 362 667T376 666L361 605Q334 605 316 601T284 586T262 557T246 509L206 349Q200 322 193 303T176 271T153 248T120 232Q140 219 148 204T156 167Q156 156 154 145T147 113L108 -44Q104 -58 102 -72T100 -95Q100 -118 117 -128T172 -139Q173 -139 176 -139T182 -138L167 -199Q159 -200 151 -200T141 -200Q109 -200 92 -197T59 -185Q42 -176 33 -158T24 -117Q24 -105 27 -84T36 -41L74 113Q79 133 80 140T82 157Q82 193 40 204L55 264Z"  />
<glyph unicode="|" horiz-adv-x="500" d="M315 667V-167H231V667H315Z"  />
<glyph unicode="}" horiz-adv-x="296" d="M238 204Q205 197 188 177T159 114L115 -61Q105 -100 92 -127T58 -170T10 -193T-59 -200Q-62 -200 -68 -200T-83 -199L-68 -138Q-41 -138 -23 -134T9 -119T31 -90T47 -42L87 118Q93 145 100 164T118 196T141 219T173 235Q153 248 145 263T137 300Q137 311 139 322T146 354L185 511Q193 543 193 562Q193 585 176 595T121 606H111L126 667H152Q215 667 242 648T269 584Q269 572 266 551T257 508L218 354Q213 334 212 327T211 310Q211 275 253 263L238 204Z"  />
<glyph unicode="~" horiz-adv-x="667" d="M116 243Q129 269 136 282T153 308Q193 363 256 363Q276 363 301 356T366 330Q388 321 402 315T426 306T444 301T461 300Q489 300 507 314T548 365L598 335Q581 302 569 284T539 252Q500 219 450 219Q440 219 430 221T404 228T366 242T310 266Q274 282 249 282Q223 282 204 266T164 211L116 243Z"  />
<glyph unicode="&#xA0;" horiz-adv-x="250" />
<glyph unicode="&#xA1;" horiz-adv-x="209" d="M94 374L118 472H213L189 374H94ZM-41 -180L88 289H158L50 -180H-41Z"  />
<glyph unicode="&#xA2;" horiz-adv-x="506" d="M308 519Q269 509 242 478Q225 460 212 436T189 383T174 326T168 268Q168 223 182 197T228 160L308 519ZM190 -6L213 96Q150 108 116 154T82 275Q82 315 91 354T117 429T157 495T209 546Q255 582 323 585L344 677H386L365 581Q420 572 434 526L446 575H506L467 417H407Q409 428 409 433T409 446Q409 508 351 520L269 157Q341 165 373 258H446Q395 99 255 93L233 -6H190Z"  />
<glyph unicode="&#xA3;" horiz-adv-x="506" d="M317 304H212Q194 244 162 180T88 62Q120 72 140 75T190 78Q201 78 215 78T253 76Q275 74 285 74T303 74Q348 74 367 95T393 172H452Q451 125 443 97T416 45Q395 19 363 10T272 0H-9L-1 31Q16 53 34 84T70 151T103 226T130 304H60L76 368H149Q151 375 157 392T173 439Q185 478 195 506T216 555T238 593T262 624Q310 676 377 676Q431 676 459 646T487 560Q487 557 487 551T486 538H427Q427 607 374 607Q316 607 281 520Q270 493 259 459T231 368H333L317 304Z"  />
<glyph unicode="&#xA4;" horiz-adv-x="667" d="M352 484Q317 484 287 471T233 435T197 381T183 316Q183 280 196 249T232 195T286 159T352 145Q387 145 417 158T471 195T507 248T520 314Q520 349 507 380T471 434T418 470T352 484ZM167 172Q117 239 117 315Q117 353 129 386T168 456L72 550L112 591L207 496Q245 524 278 536T352 548Q392 548 424 536T495 497L589 590L629 550L535 456Q562 418 574 385T586 314Q586 275 574 242T536 172L631 78L591 37L496 132Q461 106 427 94T353 81Q315 81 281 93T208 132L114 37L74 77L167 172Z"  />
<glyph unicode="&#xA5;" horiz-adv-x="506" d="M338 667L323 606H252L288 350L450 606H376L392 667H607L592 606H529L417 439H518L502 376H374L317 291H457L441 228H296L256 63H346L330 0H72L87 63H169L210 228H66L82 291H221L207 376H79L95 439H196L167 606H95L110 667H338Z"  />
<glyph unicode="&#xA6;" horiz-adv-x="500" d="M315 153V-167H231V153H315ZM315 667V331H231V667H315Z"  />
<glyph unicode="&#xA7;" horiz-adv-x="500" d="M235 361Q193 347 170 325T146 276Q146 256 156 241T199 202Q220 185 240 170T272 146Q311 161 334 185T357 236Q357 253 348 266T307 306Q281 326 266 338T235 361ZM413 478Q416 493 417 502T418 520Q418 556 396 575T332 594Q286 594 257 569T228 506Q228 473 256 449Q261 444 264 441T274 434T291 421T323 397Q356 372 377 354T411 319T428 289T433 256Q433 166 309 113Q335 87 346 62T357 4Q357 -34 343 -65T302 -119T240 -154T161 -167Q85 -167 43 -133T0 -38Q0 -28 0 -19T3 6H70Q69 -6 69 -12T69 -27Q69 -63 93 -82T164 -102Q215 -102 246 -76T277 -7Q277 27 253 51Q248 56 245 60T234 70T212 86T173 117Q142 141 122 159T91 193T75 224T70 257Q70 345 197 392Q169 420 159 441T148 493Q148 529 162 559T201 612T262 646T339 659Q408 659 446 627T485 534Q485 520 484 508T477 478H413Z"  />
<glyph unicode="&#xA8;" horiz-adv-x="500" d="M480 654L458 566H370L392 654H480ZM307 654L285 566H197L219 654H307Z"  />
<glyph unicode="&#xA9;" horiz-adv-x="774" d="M411 641Q349 641 294 617T197 552T132 455T108 337Q108 272 131 216T196 117T292 51T411 26Q473 26 528 50T624 116T688 214T712 334Q712 397 689 453T624 551T528 617T411 641ZM411 680Q482 680 545 653T654 579T728 468T755 333Q755 262 728 199T654 89T545 15T411 -13Q339 -13 276 14T166 89T92 200T65 338Q65 408 92 470T167 579T277 653T411 680ZM551 536V416H504Q501 439 498 450T485 471Q461 498 414 498Q359 498 330 456T300 334Q300 260 329 217T408 174Q464 174 490 221Q497 233 499 244T504 277H553Q552 205 516 167T412 128Q329 128 283 183T236 336Q236 432 282 487T408 543Q437 543 459 536T505 509V536H551Z"  />
<glyph unicode="&#xAA;" horiz-adv-x="304" d="M267 531Q198 519 170 502T142 455Q142 438 153 428T183 418Q200 418 215 426T241 451Q246 459 250 471T261 510L267 531ZM129 572L151 643Q176 658 198 664T248 671Q289 671 312 654T335 606Q335 596 334 586T327 556L293 420H336L326 380H232L241 414Q221 391 204 383T162 374Q127 374 105 394T83 446Q83 478 105 503T170 542Q180 546 190 548T211 554T238 559T275 566L277 574Q279 581 280 588T281 601Q281 629 241 629Q212 629 197 617T170 572H129ZM322 327L311 284H42L53 327H322Z"  />
<glyph unicode="&#xAB;" horiz-adv-x="454" d="M105 0L73 242L221 472H284L145 237L163 0H105ZM261 0L229 242L377 472H440L301 237L319 0H261Z"  />
<glyph unicode="&#xAC;" horiz-adv-x="500" d="M405 188H56V266H489V0H405V188Z"  />
<glyph unicode="&#xAD;" horiz-adv-x="200" d="M211 283L198 233H-2L10 283H211Z"  />
<glyph unicode="&#xAE;" horiz-adv-x="774" d="M411 641Q349 641 294 617T197 552T132 455T108 338Q108 273 131 216T196 117T292 51T411 27Q473 27 528 51T624 117T688 215T712 334Q712 398 689 454T624 551T528 617T411 641ZM411 680Q482 680 545 653T654 579T728 469T755 334Q755 262 728 199T654 89T545 15T411 -12Q339 -12 276 15T166 90T92 201T65 338Q65 408 92 470T167 579T277 653T411 680ZM399 358Q430 358 443 360T468 367Q484 374 492 389T501 426Q501 446 493 460T470 482Q458 487 444 489T397 491H358V358H399ZM554 179H602V136H509L426 313H356V179H404V136H247V179H298V492H247V535H382Q410 535 428 535T460 533T482 529T501 522Q531 509 547 484T564 424Q564 382 545 358T483 320L554 179Z"  />
<glyph unicode="&#xAF;" horiz-adv-x="500" d="M476 629L462 575H208L221 629H476Z"  />
<glyph unicode="&#xB0;" horiz-adv-x="500" d="M329 616Q294 616 270 592T245 534Q245 499 269 475T328 451Q363 451 387 475T412 534Q412 569 388 592T329 616ZM330 675Q360 675 386 664T431 634T462 590T473 535Q473 506 462 480T430 435T384 404T327 392Q297 392 271 403T226 433T195 478T184 534Q184 563 195 588T227 633T273 664T330 675Z"  />
<glyph unicode="&#xB1;" horiz-adv-x="506" d="M464 115V48H31V115H464ZM212 394V577H284V394H464V327H284V143H212V327H31V394H212Z"  />
<glyph unicode="&#xB2;" horiz-adv-x="330" d="M317 525L290 427H48L59 470Q100 504 142 542T218 613Q259 655 276 682T294 731Q294 751 280 763T243 775Q183 775 164 700H120Q141 821 251 821Q297 821 324 799T352 738Q352 706 331 673T256 589Q224 558 190 529T126 475H258L274 525H317Z"  />
<glyph unicode="&#xB3;" horiz-adv-x="330" d="M188 660H204Q242 660 267 680T292 733Q292 755 278 767T238 779Q182 779 166 712H120Q141 822 246 822Q292 822 320 799T348 736Q348 669 270 637Q320 616 320 560Q320 530 309 505T279 461T233 432T175 421Q123 421 94 445T64 512Q64 518 64 524T67 540H113Q111 532 111 528T111 519Q111 493 128 479T176 465Q214 465 238 490T262 557Q262 615 192 615Q190 615 185 615T175 614L188 660Z"  />
<glyph unicode="&#xB4;" horiz-adv-x="500" d="M508 678L322 549H255L389 678H508Z"  />
<glyph unicode="&#xB5;" horiz-adv-x="500" d="M66 480H150V212Q150 186 152 167T158 133T169 107T187 85Q222 52 271 52Q329 52 363 97Q382 121 389 148T397 220V480H481V0H397V80Q374 31 344 10T269 -12Q230 -12 202 4T150 59V-169H66V480Z"  />
<glyph unicode="&#xB6;" horiz-adv-x="498" d="M94 -109L200 314H185Q118 314 78 350T38 446Q38 504 68 555T150 635Q211 667 316 667H608L592 604H514L336 -109H257L435 604H351L174 -109H94Z"  />
<glyph unicode="&#xB7;" horiz-adv-x="205" d="M173 301L145 189H33L61 301H173Z"  />
<glyph unicode="&#xB8;" horiz-adv-x="500" d="M249 0L217 -49Q276 -64 276 -115Q276 -153 248 -178T175 -203Q155 -203 140 -200T102 -185L112 -150Q129 -156 139 -158T162 -161Q187 -161 202 -148T217 -112Q217 -73 165 -73H154L202 0H249Z"  />
<glyph unicode="&#xB9;" horiz-adv-x="330" d="M302 821L214 468H275L264 427H93L103 468H157L220 719H152L160 752Q199 754 221 769T258 821H302Z"  />
<glyph unicode="&#xBA;" horiz-adv-x="309" d="M246 629Q228 629 211 617T181 585T160 538T152 482Q152 450 165 433T203 416Q241 416 267 458Q281 479 289 508T297 564Q297 595 284 612T246 629ZM248 671Q297 671 326 641T356 559Q356 520 344 487T311 428T262 389T200 374Q151 374 122 404T93 486Q93 524 105 558T139 617T188 656T248 671ZM317 327L306 284H37L48 327H317Z"  />
<glyph unicode="&#xBB;" horiz-adv-x="454" d="M346 472L378 230L230 0H167L306 235L288 472H346ZM190 472L222 230L74 0H11L150 235L132 472H190Z"  />
<glyph unicode="&#xBC;" horiz-adv-x="779" d="M625 203Q635 238 643 269T660 329Q637 301 624 284T600 254T581 232T560 206L509 147H611L625 203ZM723 149L713 106H654L638 41H685L675 0H531L542 41H585L601 106H446L456 147L674 394H726L664 149H723ZM695 650L192 0H127L630 650H695ZM302 654L214 301H275L264 260H93L103 301H157L220 553H152L160 586Q199 587 221 602T258 654H302Z"  />
<glyph unicode="&#xBD;" horiz-adv-x="780" d="M702 98L674 0H432L443 43Q483 76 525 114T602 187Q643 229 660 256T678 305Q678 325 664 337T627 349Q596 349 578 331T548 274H505Q526 395 636 395Q681 395 708 373T736 312Q736 296 731 281T715 248T686 210T640 163Q606 130 576 103T510 48H643L659 98H702ZM695 650L192 0H127L630 650H695ZM302 654L214 301H275L264 260H93L103 301H157L220 553H152L160 586Q199 587 221 602T258 654H302Z"  />
<glyph unicode="&#xBE;" horiz-adv-x="779" d="M626 203Q628 213 632 230T642 265T652 301T660 329Q638 301 625 284T601 254T582 232T560 206L510 147H612L626 203ZM724 149L713 106H654L638 41H685L675 0H532L542 41H585L601 106H446L457 147L675 394H726L665 149H724ZM695 650L192 0H128L631 650H695ZM189 493H205Q243 493 268 513T293 566Q293 588 279 600T239 612Q183 612 167 545H121Q142 655 247 655Q293 655 321 631T349 569Q349 534 331 510T271 470Q321 449 321 393Q321 363 310 338T280 294T234 266T176 255Q124 255 95 279T65 345Q65 352 65 357T68 373H114Q112 365 112 361T112 352Q112 327 129 313T177 299Q215 299 239 324T263 390Q263 448 193 448Q191 448 186 448T176 447L189 493Z"  />
<glyph unicode="&#xBF;" horiz-adv-x="400" d="M284 282Q272 234 262 204T236 151T195 106T128 52Q91 23 76 0T61 -50Q61 -81 80 -98T135 -115Q220 -115 246 -16H313Q298 -101 249 -145T119 -189Q51 -189 11 -155T-29 -61Q-29 3 23 55Q30 62 35 67T49 78T70 95T108 123Q132 141 147 156T174 188T193 228T208 282H284ZM211 374L236 472H331L306 374H211Z"  />
<glyph unicode="&#xC0;" horiz-adv-x="627" d="M403 390Q400 460 400 479L399 516L398 561V592Q383 560 372 537T349 493T325 446T290 384L228 272H408L403 390ZM469 672L505 65H583L566 0H319L336 65H417L411 208H191L111 65H199L182 0H-55L-38 65H34L383 672H469ZM378 869L449 733H386L279 869H378Z"  />
<glyph unicode="&#xC1;" horiz-adv-x="627" d="M403 390Q400 460 400 479L399 516L398 561V592Q383 560 372 537T349 493T325 446T290 384L228 272H408L403 390ZM469 672L505 65H583L566 0H319L336 65H417L411 208H191L111 65H199L182 0H-55L-38 65H34L383 672H469ZM617 866L431 737H364L498 866H617Z"  />
<glyph unicode="&#xC2;" horiz-adv-x="627" d="M403 390Q400 460 400 479L399 516L398 561V592Q383 560 372 537T349 493T325 446T290 384L228 272H408L403 390ZM469 672L505 65H583L566 0H319L336 65H417L411 208H191L111 65H199L182 0H-55L-38 65H34L383 672H469ZM485 868L561 733H492L439 816L332 733H258L405 868H485Z"  />
<glyph unicode="&#xC3;" horiz-adv-x="627" d="M403 390Q400 460 400 479L399 516L398 561V592Q383 560 372 537T349 493T325 446T290 384L228 272H408L403 390ZM469 672L505 65H583L566 0H319L336 65H417L411 208H191L111 65H199L182 0H-55L-38 65H34L383 672H469ZM280 753Q326 855 388 855Q401 855 414 850T447 832Q468 818 479 813T500 808Q529 808 555 858L594 847Q574 796 547 770T489 744Q475 744 461 749T423 769Q403 782 392 787T371 792Q341 792 317 742L280 753Z"  />
<glyph unicode="&#xC4;" horiz-adv-x="627" d="M403 390Q400 460 400 479L399 516L398 561V592Q383 560 372 537T349 493T325 446T290 384L228 272H408L403 390ZM469 672L505 65H583L566 0H319L336 65H417L411 208H191L111 65H199L182 0H-55L-38 65H34L383 672H469ZM579 838L557 750H469L491 838H579ZM406 838L384 750H296L318 838H406Z"  />
<glyph unicode="&#xC5;" horiz-adv-x="627" d="M403 390Q400 460 400 479L399 516L398 561V592Q383 560 372 537T349 493T325 446T290 384L228 272H408L403 390ZM469 672L505 65H583L566 0H319L336 65H417L411 208H191L111 65H199L182 0H-55L-38 65H34L383 672H469ZM446 837Q429 837 417 826T405 797Q405 780 417 768T446 756Q463 756 475 768T487 797Q487 814 475 825T446 837ZM446 876Q479 876 502 853T525 797Q525 764 502 741T446 717Q412 717 389 740T366 798Q366 830 389 853T446 876Z"  />
<glyph unicode="&#xC6;" horiz-adv-x="853" d="M541 604L272 267H457L541 604ZM874 510H809L832 604H624L569 382H786L770 315H552L490 65H713L740 175H807L763 0H310L326 65H406L441 203H220L109 65H198L181 0H-59L-42 65H26L517 667H913L874 510Z"  />
<glyph unicode="&#xC7;" horiz-adv-x="576" d="M636 667L587 472H521Q522 484 522 491T523 505Q523 556 492 584T405 612Q298 612 222 498Q184 441 162 369T140 225Q140 143 176 99T279 54Q346 54 392 96T470 230H547Q517 116 453 55T293 -14L266 -55Q333 -70 333 -125Q333 -167 301 -193T218 -220Q199 -220 183 -217T144 -202L154 -160Q173 -167 184 -169T207 -171Q233 -171 248 -157T264 -120Q264 -101 250 -90T209 -79H198L242 -13Q147 -2 98 60T48 232Q48 281 58 330T86 426T130 513T188 586Q237 634 289 657T404 681Q508 681 555 611L569 667H636Z"  />
<glyph unicode="&#xC8;" horiz-adv-x="517" d="M539 510H474L497 604H288L233 382H451L434 315H216L154 65H377L405 175H471L427 0H-28L-11 65H68L202 604H115L132 667H578L539 510ZM341 869L412 733H349L242 869H341Z"  />
<glyph unicode="&#xC9;" horiz-adv-x="517" d="M539 510H474L497 604H288L233 382H451L434 315H216L154 65H377L405 175H471L427 0H-28L-11 65H68L202 604H115L132 667H578L539 510ZM556 866L370 737H303L437 866H556Z"  />
<glyph unicode="&#xCA;" horiz-adv-x="517" d="M539 510H474L497 604H288L233 382H451L434 315H216L154 65H377L405 175H471L427 0H-28L-11 65H68L202 604H115L132 667H578L539 510ZM436 868L512 733H443L390 816L283 733H209L356 868H436Z"  />
<glyph unicode="&#xCB;" horiz-adv-x="517" d="M539 510H474L497 604H288L233 382H451L434 315H216L154 65H377L405 175H471L427 0H-28L-11 65H68L202 604H115L132 667H578L539 510ZM527 838L505 750H417L439 838H527ZM354 838L332 750H244L266 838H354Z"  />
<glyph unicode="&#xCC;" horiz-adv-x="314" d="M388 667L371 604H291L157 65H245L228 0H-28L-11 65H69L204 604H115L132 667H388ZM236 869L307 733H244L137 869H236Z"  />
<glyph unicode="&#xCD;" horiz-adv-x="314" d="M388 667L371 604H291L157 65H245L228 0H-28L-11 65H69L204 604H115L132 667H388ZM466 866L280 737H213L347 866H466Z"  />
<glyph unicode="&#xCE;" horiz-adv-x="314" d="M388 667L371 604H291L157 65H245L228 0H-28L-11 65H69L204 604H115L132 667H388ZM349 868L425 733H356L303 816L196 733H122L269 868H349Z"  />
<glyph unicode="&#xCF;" horiz-adv-x="314" d="M388 667L371 604H291L157 65H245L228 0H-28L-11 65H69L204 604H115L132 667H388ZM442 838L420 750H332L354 838H442ZM269 838L247 750H159L181 838H269Z"  />
<glyph unicode="&#xD0;" horiz-adv-x="619" d="M203 65Q241 65 271 68T325 80T370 100T410 132Q435 156 455 190T491 264T514 346T522 430Q522 487 503 528T449 586Q429 596 402 600T331 604H288L233 382H379L364 321H218L154 65H203ZM336 667Q403 667 443 660T515 635Q614 576 614 426Q614 370 603 317T569 216T517 129T449 63Q425 45 398 33T338 14T264 3T168 0H-28L-11 65H68L131 321H46L62 382H147L202 604H115L132 667H336Z"  />
<glyph unicode="&#xD1;" horiz-adv-x="660" d="M423 0L343 278Q324 346 312 390T291 465T275 522T261 576Q248 520 239 482T223 414T210 360T198 310L137 65H223L207 0H-28L-11 65H68L202 604H115L132 667H315L390 411Q407 355 418 318T436 252T450 197T465 135Q473 169 479 195T491 248T505 306T524 380L579 604H493L509 667H744L727 604H649L498 0H423ZM289 753Q335 855 397 855Q410 855 423 850T456 832Q477 818 488 813T509 808Q538 808 564 858L603 847Q583 796 556 770T498 744Q484 744 470 749T432 769Q412 782 401 787T380 792Q350 792 326 742L289 753Z"  />
<glyph unicode="&#xD2;" horiz-adv-x="617" d="M393 612Q292 612 220 499Q202 471 188 437T163 367T146 295T140 225Q140 146 175 101T272 55Q363 55 432 153Q452 181 468 216T497 290T515 367T522 444Q522 522 488 567T393 612ZM396 681Q447 681 487 664T555 615T599 537T614 434Q614 391 607 347T585 261T550 180T505 109Q409 -14 266 -14Q216 -14 176 3T107 52T63 130T48 233Q48 276 56 321T80 410T116 493T164 565Q211 622 270 651T396 681ZM388 869L459 733H396L289 869H388Z"  />
<glyph unicode="&#xD3;" horiz-adv-x="617" d="M393 612Q292 612 220 499Q202 471 188 437T163 367T146 295T140 225Q140 146 175 101T272 55Q363 55 432 153Q452 181 468 216T497 290T515 367T522 444Q522 522 488 567T393 612ZM396 681Q447 681 487 664T555 615T599 537T614 434Q614 391 607 347T585 261T550 180T505 109Q409 -14 266 -14Q216 -14 176 3T107 52T63 130T48 233Q48 276 56 321T80 410T116 493T164 565Q211 622 270 651T396 681ZM605 866L419 737H352L486 866H605Z"  />
<glyph unicode="&#xD4;" horiz-adv-x="617" d="M393 612Q292 612 220 499Q202 471 188 437T163 367T146 295T140 225Q140 146 175 101T272 55Q363 55 432 153Q452 181 468 216T497 290T515 367T522 444Q522 522 488 567T393 612ZM396 681Q447 681 487 664T555 615T599 537T614 434Q614 391 607 347T585 261T550 180T505 109Q409 -14 266 -14Q216 -14 176 3T107 52T63 130T48 233Q48 276 56 321T80 410T116 493T164 565Q211 622 270 651T396 681ZM483 868L559 733H490L437 816L330 733H256L403 868H483Z"  />
<glyph unicode="&#xD5;" horiz-adv-x="617" d="M393 612Q292 612 220 499Q202 471 188 437T163 367T146 295T140 225Q140 146 175 101T272 55Q363 55 432 153Q452 181 468 216T497 290T515 367T522 444Q522 522 488 567T393 612ZM396 681Q447 681 487 664T555 615T599 537T614 434Q614 391 607 347T585 261T550 180T505 109Q409 -14 266 -14Q216 -14 176 3T107 52T63 130T48 233Q48 276 56 321T80 410T116 493T164 565Q211 622 270 651T396 681ZM275 753Q321 855 383 855Q396 855 409 850T442 832Q463 818 474 813T495 808Q524 808 550 858L589 847Q569 796 542 770T484 744Q470 744 456 749T418 769Q398 782 387 787T366 792Q336 792 312 742L275 753Z"  />
<glyph unicode="&#xD6;" horiz-adv-x="617" d="M393 612Q292 612 220 499Q202 471 188 437T163 367T146 295T140 225Q140 146 175 101T272 55Q363 55 432 153Q452 181 468 216T497 290T515 367T522 444Q522 522 488 567T393 612ZM396 681Q447 681 487 664T555 615T599 537T614 434Q614 391 607 347T585 261T550 180T505 109Q409 -14 266 -14Q216 -14 176 3T107 52T63 130T48 233Q48 276 56 321T80 410T116 493T164 565Q211 622 270 651T396 681ZM574 838L552 750H464L486 838H574ZM401 838L379 750H291L313 838H401Z"  />
<glyph unicode="&#xD7;" horiz-adv-x="506" d="M228 330L77 481L125 529L276 378L426 529L473 482L323 331L473 180L426 132L275 283L125 133L78 180L228 330Z"  />
<glyph unicode="&#xD8;" horiz-adv-x="617" d="M505 537Q486 576 459 594T393 612Q293 612 221 499Q203 471 189 437T164 367T147 295T141 226Q141 219 141 213T142 197L505 537ZM155 137Q192 55 274 55Q364 55 433 153Q453 181 469 216T498 290T516 368T523 445Q523 454 523 460T520 478L155 137ZM-75 0L64 129Q56 158 53 181T49 231Q49 274 57 320T81 410T117 493T165 565Q212 622 271 651T397 681Q453 681 497 659T571 596L648 667H727L596 546Q606 517 610 491T615 435Q615 392 608 348T586 262T551 181T506 110Q409 -14 269 -14Q148 -14 89 79L4 0H-75Z"  />
<glyph unicode="&#xD9;" horiz-adv-x="647" d="M377 667L360 604H282L198 268Q193 246 189 230T183 200T180 177T179 156Q179 107 210 81T299 55Q384 55 428 114Q445 137 458 170T486 263L571 604H484L501 667H729L712 604H638L555 271Q546 235 540 213T530 176T522 152T514 132Q482 57 426 22T286 -14Q242 -14 206 -3T145 29T106 79T92 144Q92 168 96 197T112 269L196 604H109L126 667H377ZM401 869L472 733H409L302 869H401Z"  />
<glyph unicode="&#xDA;" horiz-adv-x="647" d="M377 667L360 604H282L198 268Q193 246 189 230T183 200T180 177T179 156Q179 107 210 81T299 55Q384 55 428 114Q445 137 458 170T486 263L571 604H484L501 667H729L712 604H638L555 271Q546 235 540 213T530 176T522 152T514 132Q482 57 426 22T286 -14Q242 -14 206 -3T145 29T106 79T92 144Q92 168 96 197T112 269L196 604H109L126 667H377ZM623 866L437 737H370L504 866H623Z"  />
<glyph unicode="&#xDB;" horiz-adv-x="647" d="M377 667L360 604H282L198 268Q193 246 189 230T183 200T180 177T179 156Q179 107 210 81T299 55Q384 55 428 114Q445 137 458 170T486 263L571 604H484L501 667H729L712 604H638L555 271Q546 235 540 213T530 176T522 152T514 132Q482 57 426 22T286 -14Q242 -14 206 -3T145 29T106 79T92 144Q92 168 96 197T112 269L196 604H109L126 667H377ZM501 868L577 733H508L455 816L348 733H274L421 868H501Z"  />
<glyph unicode="&#xDC;" horiz-adv-x="647" d="M377 667L360 604H282L198 268Q193 246 189 230T183 200T180 177T179 156Q179 107 210 81T299 55Q384 55 428 114Q445 137 458 170T486 263L571 604H484L501 667H729L712 604H638L555 271Q546 235 540 213T530 176T522 152T514 132Q482 57 426 22T286 -14Q242 -14 206 -3T145 29T106 79T92 144Q92 168 96 197T112 269L196 604H109L126 667H377ZM589 838L567 750H479L501 838H589ZM416 838L394 750H306L328 838H416Z"  />
<glyph unicode="&#xDD;" horiz-adv-x="553" d="M351 667L335 604H259L313 350L491 604H411L427 667H652L635 604H570L334 280L280 65H370L353 0H95L112 65H194L247 279L174 604H97L114 667H351ZM572 866L386 737H319L453 866H572Z"  />
<glyph unicode="&#xDE;" horiz-adv-x="520" d="M242 227Q298 227 330 234T386 258Q414 278 430 313T446 389Q446 444 417 466T313 488H260L195 227H242ZM384 667L367 604H289L275 551H308Q369 551 403 546T462 528Q536 487 536 392Q536 328 505 275T420 194Q388 177 346 170T237 163H178L154 65H253L236 0H-28L-11 65H68L202 604H115L132 667H384Z"  />
<glyph unicode="&#xDF;" horiz-adv-x="495" d="M-41 0L-26 59H39L129 438Q139 481 146 509T161 556T177 588T197 615Q248 674 338 674Q406 674 445 638T485 540Q485 477 450 434T347 373Q453 346 453 226Q453 176 436 129T389 50Q338 -7 255 -7Q234 -7 218 -4T177 8L193 70Q211 62 222 59T248 56Q273 56 294 69T332 104T357 158T366 224Q366 342 234 342L250 404Q282 405 301 409T337 423Q365 441 382 472T399 538Q399 572 381 591T330 611Q279 611 249 560Q244 551 241 543T233 523T225 492T213 443L107 0H-41Z"  />
<glyph unicode="&#xE0;" horiz-adv-x="465" d="M306 256Q276 250 256 246T221 237T195 229T171 219Q134 203 114 178T94 121Q94 91 112 73T163 55Q192 55 218 70T261 114Q266 122 270 129T277 148T285 175T296 216L306 256ZM86 324L120 437Q158 461 194 471T272 482Q336 482 372 455T409 379Q409 362 406 344T395 294L337 59H406L392 0H248L265 69Q211 -10 131 -10Q76 -10 42 22T7 107Q7 160 43 201T146 266Q162 272 178 277T213 286T258 296T319 307L323 323Q330 352 330 369Q330 419 262 419Q216 419 189 397T143 324H86ZM280 681L351 545H288L181 681H280Z"  />
<glyph unicode="&#xE1;" horiz-adv-x="465" d="M306 256Q276 250 256 246T221 237T195 229T171 219Q134 203 114 178T94 121Q94 91 112 73T163 55Q192 55 218 70T261 114Q266 122 270 129T277 148T285 175T296 216L306 256ZM86 324L120 437Q158 461 194 471T272 482Q336 482 372 455T409 379Q409 362 406 344T395 294L337 59H406L392 0H248L265 69Q211 -10 131 -10Q76 -10 42 22T7 107Q7 160 43 201T146 266Q162 272 178 277T213 286T258 296T319 307L323 323Q330 352 330 369Q330 419 262 419Q216 419 189 397T143 324H86ZM480 678L294 549H227L361 678H480Z"  />
<glyph unicode="&#xE2;" horiz-adv-x="465" d="M306 256Q276 250 256 246T221 237T195 229T171 219Q134 203 114 178T94 121Q94 91 112 73T163 55Q192 55 218 70T261 114Q266 122 270 129T277 148T285 175T296 216L306 256ZM86 324L120 437Q158 461 194 471T272 482Q336 482 372 455T409 379Q409 362 406 344T395 294L337 59H406L392 0H248L265 69Q211 -10 131 -10Q76 -10 42 22T7 107Q7 160 43 201T146 266Q162 272 178 277T213 286T258 296T319 307L323 323Q330 352 330 369Q330 419 262 419Q216 419 189 397T143 324H86ZM368 681L444 546H375L322 629L215 546H141L288 681H368Z"  />
<glyph unicode="&#xE3;" horiz-adv-x="465" d="M306 256Q276 250 256 246T221 237T195 229T171 219Q134 203 114 178T94 121Q94 91 112 73T163 55Q192 55 218 70T261 114Q266 122 270 129T277 148T285 175T296 216L306 256ZM86 324L120 437Q158 461 194 471T272 482Q336 482 372 455T409 379Q409 362 406 344T395 294L337 59H406L392 0H248L265 69Q211 -10 131 -10Q76 -10 42 22T7 107Q7 160 43 201T146 266Q162 272 178 277T213 286T258 296T319 307L323 323Q330 352 330 369Q330 419 262 419Q216 419 189 397T143 324H86ZM153 567Q199 669 261 669Q274 669 287 664T320 646Q341 632 352 627T373 622Q402 622 428 672L467 661Q447 610 420 584T362 558Q348 558 334 563T296 583Q276 596 265 601T244 606Q214 606 190 556L153 567Z"  />
<glyph unicode="&#xE4;" horiz-adv-x="465" d="M306 256Q276 250 256 246T221 237T195 229T171 219Q134 203 114 178T94 121Q94 91 112 73T163 55Q192 55 218 70T261 114Q266 122 270 129T277 148T285 175T296 216L306 256ZM86 324L120 437Q158 461 194 471T272 482Q336 482 372 455T409 379Q409 362 406 344T395 294L337 59H406L392 0H248L265 69Q211 -10 131 -10Q76 -10 42 22T7 107Q7 160 43 201T146 266Q162 272 178 277T213 286T258 296T319 307L323 323Q330 352 330 369Q330 419 262 419Q216 419 189 397T143 324H86ZM452 654L430 566H342L364 654H452ZM279 654L257 566H169L191 654H279Z"  />
<glyph unicode="&#xE5;" horiz-adv-x="465" d="M306 256Q276 250 256 246T221 237T195 229T171 219Q134 203 114 178T94 121Q94 91 112 73T163 55Q192 55 218 70T261 114Q266 122 270 129T277 148T285 175T296 216L306 256ZM86 324L120 437Q158 461 194 471T272 482Q336 482 372 455T409 379Q409 362 406 344T395 294L337 59H406L392 0H248L265 69Q211 -10 131 -10Q76 -10 42 22T7 107Q7 160 43 201T146 266Q162 272 178 277T213 286T258 296T319 307L323 323Q330 352 330 369Q330 419 262 419Q216 419 189 397T143 324H86ZM304 654Q287 654 275 643T263 614Q263 597 275 585T304 573Q321 573 333 585T345 614Q345 631 333 642T304 654ZM304 693Q337 693 360 670T383 614Q383 581 360 558T304 534Q270 534 247 557T224 615Q224 647 247 670T304 693Z"  />
<glyph unicode="&#xE6;" horiz-adv-x="709" d="M597 286Q601 303 602 313T604 335Q604 375 584 397T529 419Q482 419 447 385T388 284L597 286ZM294 226Q254 225 226 221T171 209Q135 197 114 173T92 117Q92 89 109 72T156 55Q251 55 287 197L294 226ZM373 226Q369 204 368 191T366 163Q366 109 389 81T457 53Q497 53 526 75T582 145H653Q596 -10 451 -10Q334 -10 304 95Q273 43 230 17T135 -10Q77 -10 42 22T7 108Q7 162 44 203T147 263Q182 273 219 277T307 284L315 316Q318 330 320 338T323 352T324 360T325 369Q325 393 307 406T257 419Q202 419 172 387Q163 378 157 365T140 324H82L117 437Q157 460 194 471T273 482Q368 482 390 419Q449 482 535 482Q605 482 645 439T685 320Q685 297 682 278T671 229L373 226Z"  />
<glyph unicode="&#xE7;" horiz-adv-x="436" d="M449 472L410 314H350Q352 323 352 329T352 341Q352 378 332 398T276 419Q211 419 164 348Q152 330 143 308T127 261T116 212T112 164Q112 110 134 82T200 53Q278 53 316 155H389Q340 5 213 -9L187 -49Q246 -64 246 -115Q246 -153 218 -178T144 -203Q124 -203 109 -200T72 -185L81 -150Q98 -156 109 -158T132 -161Q156 -161 171 -148T187 -111Q187 -93 173 -83T134 -72Q133 -72 130 -72T124 -73L166 -8Q99 0 62 47T25 171Q25 239 50 305T121 416Q185 482 273 482Q355 482 377 423L389 472H449Z"  />
<glyph unicode="&#xE8;" horiz-adv-x="454" d="M341 286Q345 303 346 313T348 335Q348 375 328 397T273 419Q227 419 191 384T132 283L341 286ZM117 226Q113 203 112 191T111 163Q111 110 134 82T202 53Q242 53 271 75T326 145H397Q341 -10 194 -10Q114 -10 70 37T25 170Q25 202 31 235T48 299T75 358T111 407Q180 482 277 482Q349 482 389 439T429 320Q429 297 427 278T416 229L117 226ZM277 681L348 545H285L178 681H277Z"  />
<glyph unicode="&#xE9;" horiz-adv-x="454" d="M341 286Q345 303 346 313T348 335Q348 375 328 397T273 419Q227 419 191 384T132 283L341 286ZM117 226Q113 203 112 191T111 163Q111 110 134 82T202 53Q242 53 271 75T326 145H397Q341 -10 194 -10Q114 -10 70 37T25 170Q25 202 31 235T48 299T75 358T111 407Q180 482 277 482Q349 482 389 439T429 320Q429 297 427 278T416 229L117 226ZM482 678L296 549H229L363 678H482Z"  />
<glyph unicode="&#xEA;" horiz-adv-x="454" d="M341 286Q345 303 346 313T348 335Q348 375 328 397T273 419Q227 419 191 384T132 283L341 286ZM117 226Q113 203 112 191T111 163Q111 110 134 82T202 53Q242 53 271 75T326 145H397Q341 -10 194 -10Q114 -10 70 37T25 170Q25 202 31 235T48 299T75 358T111 407Q180 482 277 482Q349 482 389 439T429 320Q429 297 427 278T416 229L117 226ZM370 681L446 546H377L324 629L217 546H143L290 681H370Z"  />
<glyph unicode="&#xEB;" horiz-adv-x="454" d="M341 286Q345 303 346 313T348 335Q348 375 328 397T273 419Q227 419 191 384T132 283L341 286ZM117 226Q113 203 112 191T111 163Q111 110 134 82T202 53Q242 53 271 75T326 145H397Q341 -10 194 -10Q114 -10 70 37T25 170Q25 202 31 235T48 299T75 358T111 407Q180 482 277 482Q349 482 389 439T429 320Q429 297 427 278T416 229L117 226ZM454 654L432 566H344L366 654H454ZM281 654L259 566H171L193 654H281Z"  />
<glyph unicode="&#xEC;" horiz-adv-x="276" d="M138 59H211L196 0H-26L-11 59H55L144 415H71L86 472H241L138 59ZM185 681L256 545H193L86 681H185Z"  />
<glyph unicode="&#xED;" horiz-adv-x="276" d="M138 59H211L196 0H-26L-11 59H55L144 415H71L86 472H241L138 59ZM397 678L211 549H144L278 678H397Z"  />
<glyph unicode="&#xEE;" horiz-adv-x="276" d="M138 59H211L196 0H-26L-11 59H55L144 415H71L86 472H241L138 59ZM291 681L367 546H298L245 629L138 546H64L211 681H291Z"  />
<glyph unicode="&#xEF;" horiz-adv-x="276" d="M138 59H211L196 0H-26L-11 59H55L144 415H71L86 472H241L138 59ZM378 654L356 566H268L290 654H378ZM205 654L183 566H95L117 654H205Z"  />
<glyph unicode="&#xF0;" horiz-adv-x="471" d="M273 419Q209 419 163 344Q152 326 143 304T127 258T117 210T113 164Q113 110 134 82T197 53Q230 53 256 70T305 126Q328 163 342 213T356 309Q356 362 335 390T273 419ZM314 675L346 624L408 658L432 614L372 579Q411 514 429 456T447 333Q447 259 428 196T376 87T296 16T195 -10Q117 -10 72 39T26 173Q26 235 48 296T107 402Q139 440 183 461T274 482Q294 482 310 478T345 464Q339 480 334 491T325 511T316 528T305 544L244 511L219 554L281 588L250 639L314 675Z"  />
<glyph unicode="&#xF1;" horiz-adv-x="528" d="M219 396Q283 482 362 482Q410 482 439 454T468 377Q468 367 467 358T464 336T458 306T447 262L396 59H469L454 0H243L258 59H314L371 290Q376 308 378 324T381 352Q381 379 365 394T320 410Q295 410 272 397T229 361Q222 352 217 343T207 322T198 295T187 256L138 59H200L185 0H-26L-11 59H55L144 415H72L86 472H238L219 396ZM185 567Q231 669 293 669Q306 669 319 664T352 646Q373 632 384 627T405 622Q434 622 460 672L499 661Q479 610 452 584T394 558Q380 558 366 563T328 583Q308 596 297 601T276 606Q246 606 222 556L185 567Z"  />
<glyph unicode="&#xF2;" horiz-adv-x="471" d="M273 419Q209 419 164 344Q153 326 144 304T127 258T117 210T113 164Q113 110 134 82T197 53Q261 53 306 126Q329 164 343 214T357 309Q357 362 335 390T273 419ZM275 482Q352 482 398 433T444 300Q444 237 422 175T361 68Q295 -10 194 -10Q116 -10 71 39T26 173Q26 235 48 297T108 402Q141 440 184 461T275 482ZM293 681L364 545H301L194 681H293Z"  />
<glyph unicode="&#xF3;" horiz-adv-x="471" d="M273 419Q209 419 164 344Q153 326 144 304T127 258T117 210T113 164Q113 110 134 82T197 53Q261 53 306 126Q329 164 343 214T357 309Q357 362 335 390T273 419ZM275 482Q352 482 398 433T444 300Q444 237 422 175T361 68Q295 -10 194 -10Q116 -10 71 39T26 173Q26 235 48 297T108 402Q141 440 184 461T275 482ZM495 678L309 549H242L376 678H495Z"  />
<glyph unicode="&#xF4;" horiz-adv-x="471" d="M273 419Q209 419 164 344Q153 326 144 304T127 258T117 210T113 164Q113 110 134 82T197 53Q261 53 306 126Q329 164 343 214T357 309Q357 362 335 390T273 419ZM275 482Q352 482 398 433T444 300Q444 237 422 175T361 68Q295 -10 194 -10Q116 -10 71 39T26 173Q26 235 48 297T108 402Q141 440 184 461T275 482ZM380 681L456 546H387L334 629L227 546H153L300 681H380Z"  />
<glyph unicode="&#xF5;" horiz-adv-x="471" d="M273 419Q209 419 164 344Q153 326 144 304T127 258T117 210T113 164Q113 110 134 82T197 53Q261 53 306 126Q329 164 343 214T357 309Q357 362 335 390T273 419ZM275 482Q352 482 398 433T444 300Q444 237 422 175T361 68Q295 -10 194 -10Q116 -10 71 39T26 173Q26 235 48 297T108 402Q141 440 184 461T275 482ZM160 567Q206 669 268 669Q281 669 294 664T327 646Q348 632 359 627T380 622Q409 622 435 672L474 661Q454 610 427 584T369 558Q355 558 341 563T303 583Q283 596 272 601T251 606Q221 606 197 556L160 567Z"  />
<glyph unicode="&#xF6;" horiz-adv-x="471" d="M273 419Q209 419 164 344Q153 326 144 304T127 258T117 210T113 164Q113 110 134 82T197 53Q261 53 306 126Q329 164 343 214T357 309Q357 362 335 390T273 419ZM275 482Q352 482 398 433T444 300Q444 237 422 175T361 68Q295 -10 194 -10Q116 -10 71 39T26 173Q26 235 48 297T108 402Q141 440 184 461T275 482ZM463 654L441 566H353L375 654H463ZM290 654L268 566H180L202 654H290Z"  />
<glyph unicode="&#xF7;" horiz-adv-x="506" d="M322 559V465H227V559H322ZM322 195V101H227V195H322ZM492 365V298H59V365H492Z"  />
<glyph unicode="&#xF8;" horiz-adv-x="471" d="M346 369Q324 419 272 419Q226 419 189 380T129 269Q121 240 117 215T113 160L346 369ZM120 109Q131 79 149 66T198 53Q259 53 305 126Q315 143 324 165T340 210T351 257T355 299Q355 304 355 307T354 319L120 109ZM-70 0L38 95Q30 117 28 134T25 173Q25 234 47 296T107 402Q140 440 183 461T275 482Q317 482 350 466T406 421L464 472H530L428 382Q436 360 439 342T443 300Q443 238 421 176T360 69Q293 -10 194 -10Q107 -10 59 56L-5 0H-70Z"  />
<glyph unicode="&#xF9;" horiz-adv-x="523" d="M217 472L149 198Q141 166 138 149T135 120Q135 93 152 78T200 62Q227 62 252 75T297 112Q304 121 310 130T321 152T330 180T341 219L390 415H318L332 472H487L384 59H457L442 0H294L314 79Q282 33 246 12T165 -10Q112 -10 81 20T50 101Q50 111 50 119T52 137T57 162T66 197L121 415H48L62 472H217ZM303 681L374 545H311L204 681H303Z"  />
<glyph unicode="&#xFA;" horiz-adv-x="523" d="M217 472L149 198Q141 166 138 149T135 120Q135 93 152 78T200 62Q227 62 252 75T297 112Q304 121 310 130T321 152T330 180T341 219L390 415H318L332 472H487L384 59H457L442 0H294L314 79Q282 33 246 12T165 -10Q112 -10 81 20T50 101Q50 111 50 119T52 137T57 162T66 197L121 415H48L62 472H217ZM502 678L316 549H249L383 678H502Z"  />
<glyph unicode="&#xFB;" horiz-adv-x="523" d="M217 472L149 198Q141 166 138 149T135 120Q135 93 152 78T200 62Q227 62 252 75T297 112Q304 121 310 130T321 152T330 180T341 219L390 415H318L332 472H487L384 59H457L442 0H294L314 79Q282 33 246 12T165 -10Q112 -10 81 20T50 101Q50 111 50 119T52 137T57 162T66 197L121 415H48L62 472H217ZM387 681L463 546H394L341 629L234 546H160L307 681H387Z"  />
<glyph unicode="&#xFC;" horiz-adv-x="523" d="M217 472L149 198Q141 166 138 149T135 120Q135 93 152 78T200 62Q227 62 252 75T297 112Q304 121 310 130T321 152T330 180T341 219L390 415H318L332 472H487L384 59H457L442 0H294L314 79Q282 33 246 12T165 -10Q112 -10 81 20T50 101Q50 111 50 119T52 137T57 162T66 197L121 415H48L62 472H217ZM470 654L448 566H360L382 654H470ZM297 654L275 566H187L209 654H297Z"  />
<glyph unicode="&#xFD;" horiz-adv-x="470" d="M258 472L244 415H181L187 272Q188 268 188 256T191 225Q194 172 196 138T198 81Q205 96 216 117T241 163T270 216T302 272L383 415H313L327 472H522L508 415H451L206 -12Q188 -43 174 -65T148 -105T126 -134T104 -156Q75 -180 40 -191T-45 -203Q-49 -203 -56 -203T-71 -202L-56 -138Q-24 -138 0 -134T45 -119T82 -87T119 -37L136 -11L99 415H34L49 472H258ZM490 678L304 549H237L371 678H490Z"  />
<glyph unicode="&#xFE;" horiz-adv-x="517" d="M324 419Q260 419 215 348Q204 331 195 307T178 257T166 205T162 158Q162 110 184 82T245 53Q314 53 359 133Q379 170 392 219T406 309Q406 361 384 390T324 419ZM278 668L214 410Q270 482 346 482Q378 482 404 469T450 433T479 376T490 304Q490 241 471 184T419 84T343 16T251 -10Q158 -10 131 72L79 -138H158L143 -197H-81L-66 -138H0L187 612H115L129 668H278Z"  />
<glyph unicode="&#xFF;" horiz-adv-x="470" d="M258 472L244 415H181L187 272Q188 268 188 256T191 225Q194 172 196 138T198 81Q205 96 216 117T241 163T270 216T302 272L383 415H313L327 472H522L508 415H451L206 -12Q188 -43 174 -65T148 -105T126 -134T104 -156Q75 -180 40 -191T-45 -203Q-49 -203 -56 -203T-71 -202L-56 -138Q-24 -138 0 -134T45 -119T82 -87T119 -37L136 -11L99 415H34L49 472H258ZM460 654L438 566H350L372 654H460ZM287 654L265 566H177L199 654H287Z"  />
<glyph unicode="&#x131;" horiz-adv-x="276" d="M138 59H211L196 0H-26L-11 59H55L144 415H71L86 472H241L138 59Z"  />
<glyph unicode="&#x152;" horiz-adv-x="882" d="M389 612Q289 612 219 498Q201 470 187 437T162 367T146 295T140 225Q140 146 175 101T271 55Q359 55 428 153Q447 181 463 216T491 290T509 367T516 444Q516 521 482 566T389 612ZM905 510H840L863 604H654L599 382H816L799 315H582L519 65H743L770 175H837L793 0H421L440 74Q367 -14 259 -14Q211 -14 172 3T106 53T63 130T48 232Q48 275 56 320T80 409T116 493T163 565Q209 622 267 651T392 681Q433 681 467 669T524 633Q536 620 544 607T564 571L588 667H944L905 510Z"  />
<glyph unicode="&#x153;" horiz-adv-x="762" d="M650 286Q653 303 654 313T656 335Q656 375 636 397T581 419Q535 419 499 384T441 283L650 286ZM269 419Q207 419 162 344Q140 307 126 257T112 163Q112 109 133 81T193 53Q254 53 299 126Q321 164 335 214T349 310Q349 363 328 391T269 419ZM426 226Q421 203 420 190T419 163Q419 109 442 81T510 53Q550 53 579 75T634 145H706Q649 -10 502 -10Q447 -10 415 9T357 76Q292 -10 191 -10Q114 -10 70 39T25 173Q25 234 47 296T106 402Q138 440 181 461T271 482Q322 482 355 461T412 395Q450 440 492 461T586 482Q657 482 697 439T737 320Q737 297 735 278T724 229L426 226Z"  />
<glyph unicode="&#x160;" horiz-adv-x="496" d="M534 667L488 484H430Q432 496 432 502T433 516Q433 561 406 586T329 612Q301 612 278 604T237 580T210 545T200 500Q200 463 227 438Q233 432 238 428T252 418T272 405T301 388Q345 363 373 343T417 302T440 258T446 204Q446 156 429 116T380 47T306 2T211 -14Q104 -14 55 58L40 0H-19L32 206H91Q88 190 87 180T86 162Q86 112 119 84T211 55Q243 55 270 65T316 93T347 135T358 189Q358 236 327 264Q320 270 315 274T301 283T278 297T239 321Q203 342 179 360T139 398T118 438T112 486Q112 528 128 563T173 625T241 666T327 681Q426 681 463 615L476 667H534ZM290 733L214 868H283L336 786L442 868H517L370 733H290Z"  />
<glyph unicode="&#x161;" horiz-adv-x="420" d="M410 472L372 320H316Q318 331 318 337T319 350Q319 383 298 402T238 421Q198 421 175 403T151 353Q151 325 174 308Q178 304 182 302T192 296T208 286T236 270Q253 261 264 254T285 242T300 232T313 222Q354 190 354 135Q354 104 341 78T305 32T251 1T182 -10Q87 -10 55 54L42 0H-15L25 161H82Q80 150 80 145T79 133Q79 95 105 73T177 51Q219 51 244 72T270 127Q270 155 246 175Q241 179 238 181T228 187T210 197T177 216Q144 234 123 249T90 278T72 309T67 345Q67 374 79 399T113 442T164 471T229 482Q311 482 342 425L354 472H410ZM225 546L149 681H218L271 599L377 681H452L305 546H225Z"  />
<glyph unicode="&#x178;" horiz-adv-x="553" d="M351 667L335 604H259L313 350L491 604H411L427 667H652L635 604H570L334 280L280 65H370L353 0H95L112 65H194L247 279L174 604H97L114 667H351ZM544 838L522 750H434L456 838H544ZM371 838L349 750H261L283 838H371Z"  />
<glyph unicode="&#x17D;" horiz-adv-x="482" d="M548 667L534 611L96 65H350L380 175H446L400 0H-33L-19 56L420 604H202L177 510H112L153 667H548ZM298 733L222 868H291L344 786L450 868H525L378 733H298Z"  />
<glyph unicode="&#x17E;" horiz-adv-x="414" d="M426 472L414 424L87 59H283L307 144H369L329 0H-34L-22 48L307 415H141L118 341H58L96 472H426ZM234 546L158 681H227L280 599L386 681H461L314 546H234Z"  />
<glyph unicode="&#x192;" horiz-adv-x="506" d="M162 426H250L294 553Q303 580 310 598T325 630T339 654T357 673Q402 715 473 715Q521 715 556 698L531 626Q504 652 472 652Q440 652 418 627T375 541L335 426H447L427 369H316L183 -18Q174 -45 166 -64T151 -97T137 -120T120 -139Q76 -181 6 -181Q-40 -181 -80 -164L-55 -93Q-39 -106 -25 -112T7 -118Q23 -118 35 -113T59 -94T80 -60T102 -5L231 369H143L162 426Z"  />
<glyph unicode="&#x2C6;" horiz-adv-x="500" d="M390 681L466 546H397L344 629L237 546H163L310 681H390Z"  />
<glyph unicode="&#x2C7;" horiz-adv-x="500" d="M282 546L206 681H275L328 599L434 681H509L362 546H282Z"  />
<glyph unicode="&#x2DA;" horiz-adv-x="500" d="M330 654Q313 654 301 643T289 614Q289 597 301 585T330 573Q347 573 359 585T371 614Q371 631 359 642T330 654ZM330 693Q363 693 386 670T409 614Q409 581 386 558T330 534Q296 534 273 557T250 615Q250 647 273 670T330 693Z"  />
<glyph unicode="&#x2DC;" horiz-adv-x="500" d="M170 567Q216 669 278 669Q291 669 304 664T337 646Q358 632 369 627T390 622Q419 622 445 672L484 661Q464 610 437 584T379 558Q365 558 351 563T313 583Q293 596 282 601T261 606Q231 606 207 556L170 567Z"  />
<glyph unicode="&#x2013;" horiz-adv-x="500" d="M441 283L429 233H68L80 283H441Z"  />
<glyph unicode="&#x2014;" horiz-adv-x="593" d="M604 285L591 231H-2L11 285H604Z"  />
<glyph unicode="&#x2018;" horiz-adv-x="188" d="M91 456L116 555L218 672H283L165 555H218L194 456H91Z"  />
<glyph unicode="&#x2019;" horiz-adv-x="188" d="M258 667L233 568L131 451H66L183 568H130L155 667H258Z"  />
<glyph unicode="&#x201A;" horiz-adv-x="188" d="M117 99L92 0L-10 -117H-75L42 0H-11L14 99H117Z"  />
<glyph unicode="&#x201C;" horiz-adv-x="350" d="M253 456L278 555L380 672H445L327 555H380L356 456H253ZM91 456L116 555L218 672H283L165 555H218L194 456H91Z"  />
<glyph unicode="&#x201D;" horiz-adv-x="350" d="M420 667L395 568L293 451H228L345 568H292L317 667H420ZM258 667L233 568L131 451H66L183 568H130L155 667H258Z"  />
<glyph unicode="&#x201E;" horiz-adv-x="350" d="M279 99L254 0L152 -117H87L204 0H151L176 99H279ZM117 99L92 0L-10 -117H-75L42 0H-11L14 99H117Z"  />
<glyph unicode="&#x2020;" horiz-adv-x="500" d="M393 650L347 467H487L470 399H330L191 -158H110L249 399H109L126 467H266L312 650H393Z"  />
<glyph unicode="&#x2021;" horiz-adv-x="500" d="M393 650L349 474H489L472 406H332L291 240H431L414 172H274L192 -158H111L193 172H53L70 240H210L251 406H111L128 474H268L312 650H393Z"  />
<glyph unicode="&#x2022;" horiz-adv-x="667" d="M360 477Q388 477 412 466T455 436T485 392T496 339Q496 310 485 285T456 241T412 211T358 200Q329 200 304 211T260 240T230 284T219 338Q219 367 230 392T260 436T304 466T360 477Z"  />
<glyph unicode="&#x2026;" horiz-adv-x="614" d="M535 112L507 0H395L423 112H535ZM331 112L303 0H191L218 112H331ZM126 112L98 0H-14L14 112H126Z"  />
<glyph unicode="&#x2030;" horiz-adv-x="939" d="M785 263Q765 263 748 251T717 219T696 173T688 116Q688 84 701 66T741 48Q760 48 777 60T807 92T828 138T836 193Q836 226 823 244T785 263ZM790 316Q840 316 868 284T897 195Q897 153 885 117T850 53T799 11T735 -5Q684 -5 656 26T627 113Q627 155 642 196T683 267Q726 316 790 316ZM245 619Q225 619 208 607T177 575T156 529T148 472Q148 440 161 422T200 404Q219 404 236 416T267 448T288 494T296 549Q296 582 283 600T245 619ZM250 672Q300 672 328 640T357 551Q357 509 345 473T310 409T259 367T196 351Q145 351 116 382T87 469Q87 511 102 552T143 623Q186 672 250 672ZM484 263Q464 263 447 251T416 219T395 173T387 116Q387 84 400 66T440 48Q459 48 476 60T506 92T527 138T535 193Q535 226 522 244T484 263ZM489 316Q539 316 567 284T596 195Q596 153 584 117T549 53T498 11T434 -5Q383 -5 355 26T326 113Q326 155 341 196T382 267Q425 316 489 316ZM642 667L100 0H40L583 667H642Z"  />
<glyph unicode="&#x2039;" horiz-adv-x="298" d="M105 0L73 242L221 472H284L145 237L163 0H105Z"  />
<glyph unicode="&#x203A;" horiz-adv-x="298" d="M190 472L222 230L74 0H11L150 235L132 472H190Z"  />
<glyph unicode="&#x20AC;" horiz-adv-x="506" d="M84 407Q105 465 136 511T205 589T286 639T377 656Q463 656 507 596L519 643H583L536 456H471Q473 470 474 479T475 499Q475 591 380 591Q316 591 264 545T176 407H437L401 350H157Q153 336 150 323T143 292H364L328 236H135Q134 227 134 221T134 207Q134 134 158 95T230 56Q284 56 328 91T402 191H471Q457 146 432 109T374 45T302 4T219 -11Q134 -11 88 44T42 199Q42 209 42 217T44 236H-28L8 292H51Q53 304 56 318T65 350H4L40 407H84Z"  />
<glyph unicode="&#x2122;" horiz-adv-x="769" d="M547 667L556 517Q558 490 559 471T561 437T562 407T563 376Q570 389 579 406T600 443T622 482T644 519L732 667H859L848 626H803L729 328H779L768 286H620L630 328H674L710 472Q715 493 720 510T731 551L747 614Q736 593 724 574Q714 556 704 538T684 503T667 475T658 460L564 302H517L506 460Q503 513 501 551T498 613Q496 605 492 589T483 548Q482 543 479 529T472 500T465 471T460 453L429 328H477L466 286H327L338 328H383L457 626H407L418 667H547ZM370 567H326L341 626H269L195 328H247L236 286H81L92 328H139L214 626H140L126 567H82L107 667H395L370 567Z"  />

</font>
</defs>
</svg>
