<?xml  version="1.0" encoding="UTF-8"?>
<!DOCTYPE svg PUBLIC "-//W3C//DTD SVG 1.0//EN" "http://www.w3.org/TR/2001/REC-SVG-20010904/DTD/svg10.dtd" >
<svg xmlns="http://www.w3.org/2000/svg" >
<metadata>
<version>1.0</version>
<id><![CDATA[Museo W01 900 Italic]]></id>
<vendor>Monotype Imaging Inc.</vendor>
<credits>
<name>Fonts.com WebFonts</name>
<URL>http://webfonts.fonts.com</URL>
<role>Home of the Web fonts</role>
</credits>
<license>
<URL>http://webfonts.fonts.com/Legal</URL>
</license>
<copyright><![CDATA[Copyright (c) 2008-2010 by Jos Buivenga/exljbris. All rights reserved.]]></copyright>
<trademark><![CDATA[Museo is a trademark of Jos Buivenga/exljbris.]]></trademark>
<licensee>
<name></name>
</licensee>
</metadata>
<defs >
<font horiz-adv-x="593" id="2aaa7ce6-0ab5-4007-b3bf-3b76133990f6">
<font-face font-family="" panose-1="2 0 0 0 0 0 0 0 0 0" ascent="755" descent="-245" units-per-em="1000" alphabetic="0">
</font-face>
<missing-glyph horiz-adv-x="0" />

<glyph unicode="&#xA;" />
<glyph unicode="&#xD;" horiz-adv-x="0" />
<glyph unicode=" " horiz-adv-x="260" />
<glyph unicode="!" horiz-adv-x="313" d="M49 150H207L178 0H20L49 150ZM148 715H328L216 221H68L148 715Z"  />
<glyph unicode="&quot;" horiz-adv-x="407" d="M130 730H252L205 490H83L130 730ZM321 730H443L396 490H274L321 730Z"  />
<glyph unicode="#" horiz-adv-x="711" d="M399 300L435 395H327L291 300H399ZM114 180H14L56 300H157L193 395H94L137 515H236L310 715H444L370 515H478L552 715H686L612 515H717L674 395H569L533 300H636L593 180H490L424 0H290L356 180H248L182 0H48L114 180Z"  />
<glyph unicode="$" horiz-adv-x="594" d="M109 223Q127 202 151 185Q171 171 201 159T270 147Q315 147 336 163T357 202Q357 224 337 240T286 271T220 303T154 346T104 408T83 498Q83 549 103 590T156 660T234 705T328 726L346 815H460L441 717Q469 710 494 699T539 673T569 639T580 596Q580 577 575 552L563 494H408L411 509Q412 513 413 518T414 529Q414 549 396 558T350 567Q309 567 286 551T263 511Q263 488 283 473T334 444T400 415T466 375T517 315T538 225Q538 179 522 139T475 67T400 15T300 -10L283 -99H169L187 -4Q140 6 105 23T47 59Q20 79 1 103L109 223Z"  />
<glyph unicode="%" horiz-adv-x="884" d="M582 151Q582 132 595 120T632 108Q655 108 674 125T694 169Q694 188 681 200T644 213Q632 213 621 208T602 194T588 174T582 151ZM454 142Q454 179 471 213T516 274T580 317T656 333Q693 333 723 321T776 288T810 237T822 175Q822 137 805 104T759 44T694 3T619 -12Q582 -12 552 -1T500 31T466 80T454 142ZM264 502Q287 502 306 519T326 563Q326 582 313 594T276 607Q264 607 253 602T234 588T220 568T214 545Q214 526 227 514T264 502ZM710 715H869L195 0H36L710 715ZM251 382Q214 382 184 393T132 425T98 474T86 536Q86 573 103 607T148 668T212 711T288 727Q325 727 355 715T408 682T442 631T454 569Q454 531 437 498T391 438T326 397T251 382Z"  />
<glyph unicode="&amp;" horiz-adv-x="665" d="M191 207Q191 179 211 161T266 142Q316 142 346 167T383 230L395 294H297Q280 294 262 290T228 276T202 249T191 207ZM7 194Q7 223 19 252T52 307T101 351T163 381V383Q145 391 132 407Q120 421 111 443T101 498Q101 560 125 603T189 674T275 714T368 727Q390 727 409 724T444 717Q462 713 476 708L412 578Q407 579 401 580Q396 581 389 581T374 582Q357 582 339 577T307 560T284 533T275 493Q275 468 289 451T335 434H422L440 527H612L594 434H683L655 294H566L553 220Q533 105 457 47T260 -12Q200 -12 153 3T73 46T24 111T7 194Z"  />
<glyph unicode="&apos;" horiz-adv-x="219" d="M130 730H255L208 490H83L130 730Z"  />
<glyph unicode="(" horiz-adv-x="317" d="M92 -95Q66 -35 50 34T33 181Q33 260 45 335T82 481T148 619T247 750H394Q287 618 235 474T183 177Q183 107 194 39T229 -95H92Z"  />
<glyph unicode=")" horiz-adv-x="319" d="M-64 -95Q43 37 95 181T147 478Q147 548 136 616T101 750H238Q264 690 280 621T297 474Q297 316 248 174T83 -95H-64Z"  />
<glyph unicode="*" horiz-adv-x="497" d="M83 399L175 485L176 487L75 508L148 648L241 603L252 715H404L370 603L482 649L502 503L382 478L381 476L440 396L309 308L269 406H267L193 309L83 399Z"  />
<glyph unicode="+" horiz-adv-x="630" d="M232 222H27L52 352H257L300 575H436L393 352H598L573 222H368L325 0H189L232 222Z"  />
<glyph unicode="&#x2c;" horiz-adv-x="282" d="M55 166H215L49 -111H-72L55 166Z"  />
<glyph unicode="-" horiz-adv-x="418" d="M64 362H378L349 212H35L64 362Z"  />
<glyph unicode="." horiz-adv-x="264" d="M27 164H185L154 0H-4L27 164Z"  />
<glyph unicode="/" horiz-adv-x="470" d="M373 750H527L118 -42H-35L373 750Z"  />
<glyph unicode="0" horiz-adv-x="627" d="M223 246Q223 199 236 171T282 143Q306 143 326 159T362 203T390 264T410 335T422 406T426 469Q426 516 413 544T366 572Q330 572 303 537T258 450T232 343T223 246ZM42 238Q42 283 49 337T72 445T113 550T175 640T260 703T371 727Q437 727 482 709T555 658T595 580T608 479Q608 434 601 380T578 272T536 166T474 76T389 12T278 -12Q212 -12 167 6T95 58T55 137T42 238Z"  />
<glyph unicode="1" horiz-adv-x="535" d="M20 150H170L228 448Q230 458 232 468T236 486Q238 495 240 503H238Q234 497 229 491Q224 486 217 479T202 465L152 426L72 534L300 715H459L349 150H500L471 0H-8L20 150Z"  />
<glyph unicode="2" horiz-adv-x="611" d="M59 0Q18 0 5 21T-9 78Q-9 149 21 199T97 285T196 349T295 402T371 453T402 516Q402 542 385 553T338 565Q308 565 290 554T266 520L261 495H101L115 567Q122 606 145 636T203 686T278 716T364 727Q409 727 449 716T519 682T568 623T586 537Q586 476 558 429T487 347T395 284T303 236T232 197T203 162Q203 154 208 152T230 150H361Q382 150 387 172L395 211H555L528 73Q520 35 500 18T441 0H59Z"  />
<glyph unicode="3" horiz-adv-x="586" d="M86 201Q104 184 127 172Q147 161 173 152T231 143Q258 143 279 150T317 171T341 201T350 238Q350 267 324 286T252 305Q246 305 240 305T228 304Q222 303 216 303L195 383L325 523Q334 533 342 541T358 555Q366 562 374 567V569Q366 568 358 567Q351 566 343 566T328 565H273Q252 565 247 543L239 504H84L111 642Q119 680 137 697T194 715H602L578 591L410 414Q433 406 455 393T495 359T524 313T535 252Q535 205 515 158T455 73T358 12T229 -12Q171 -12 128 2T54 33Q19 53 -6 79L86 201Z"  />
<glyph unicode="4" horiz-adv-x="626" d="M321 318L345 443Q347 456 351 472T359 502Q363 519 368 535H366Q356 519 346 505Q338 493 329 480T312 458L206 320V318H321ZM12 279L353 715H570L493 318H599L570 168H464L431 0H258L290 168H-8L12 279Z"  />
<glyph unicode="5" horiz-adv-x="584" d="M84 199Q102 183 125 171Q144 160 170 152T226 143Q251 143 274 150T314 170T342 202T353 245Q353 284 326 302T253 320Q231 320 212 317T179 309Q162 304 149 298L57 336L141 647Q151 682 169 698T227 715H503Q545 715 559 695T566 637L540 504H385L393 543Q395 551 392 558T375 565H302Q281 565 276 543L262 488Q260 480 258 474T254 462Q252 457 250 452H252Q260 453 270 455Q278 456 289 457T314 458Q360 458 400 444T471 402T518 337T536 252Q536 195 511 147T444 63T345 8T224 -12Q165 -12 121 2T48 35Q14 55 -11 82L84 199Z"  />
<glyph unicode="6" horiz-adv-x="618" d="M214 253Q214 230 221 210T242 175T272 152T308 143Q328 143 344 152T371 177T389 212T395 252Q395 268 391 282T376 308T348 326T304 333Q254 333 234 310T214 253ZM36 258Q36 310 49 365T87 472T149 571T233 652T337 707T460 727Q498 727 527 722T577 710Q601 702 620 693L556 552Q543 558 527 562Q513 566 495 569T455 572Q387 572 340 537T267 449H269Q285 461 314 467T371 474Q422 474 460 457T523 410T561 344T574 265Q574 214 555 164T499 75T412 12T295 -12Q243 -12 196 5T114 55T57 139T36 258Z"  />
<glyph unicode="7" horiz-adv-x="565" d="M357 501Q370 520 380 532T397 552Q405 561 411 566V568Q407 567 401 566Q396 565 388 565T365 565H261Q240 565 235 543L227 504H67L94 642Q102 680 120 697T177 715H637L613 593L198 0H10L357 501Z"  />
<glyph unicode="8" horiz-adv-x="610" d="M196 208Q196 176 215 157T275 138Q292 138 310 142T342 156T366 180T375 214Q375 234 365 249T339 275T302 296T261 317Q252 309 241 298T219 273T203 243T196 208ZM374 414Q377 418 385 428T402 453T417 485T424 521Q424 577 361 577Q326 577 302 559T277 508Q277 491 285 478T306 453T336 433T374 414ZM16 182Q16 216 27 244T58 298T104 345T161 387Q135 410 120 439T105 506Q105 546 122 585T172 656T255 707T368 727Q417 727 459 715T532 679T580 622T598 548Q598 512 585 482T554 427T517 384T484 354Q516 331 535 298T555 221Q555 179 535 138T478 63T386 9T262 -12Q202 -12 156 4T79 46T32 108T16 182Z"  />
<glyph unicode="9" horiz-adv-x="616" d="M337 385Q387 385 406 407T426 462Q426 485 419 505T398 540T368 563T332 572Q312 572 296 563T268 538T251 503T245 463Q245 448 249 434T264 409T292 392T337 385ZM88 163Q101 157 117 153Q131 149 148 146T185 143Q254 143 301 179T374 269H372Q356 257 327 251T270 244Q219 244 181 261T117 307T79 373T66 450Q66 501 85 551T141 640T228 703T345 727Q397 727 444 710T526 660T583 575T604 457Q604 405 591 350T553 243T491 144T407 63T303 8T180 -12Q144 -12 115 -7T66 5Q42 12 24 22L88 163Z"  />
<glyph unicode=":" horiz-adv-x="263" d="M26 164H184L152 0H-6L26 164ZM95 515H253L221 351H63L95 515Z"  />
<glyph unicode=";" horiz-adv-x="295" d="M51 166H211L60 -111H-61L51 166ZM123 515H281L249 351H91L123 515Z"  />
<glyph unicode="&lt;" horiz-adv-x="630" d="M38 341L542 564V419L212 288V286L542 156V11L38 234V341Z"  />
<glyph unicode="=" horiz-adv-x="630" d="M60 237H566V107H60V237ZM60 467H566V337H60V467Z"  />
<glyph unicode="&gt;" horiz-adv-x="630" d="M90 156L420 286V288L90 419V564L594 341V234L90 11V156Z"  />
<glyph unicode="?" horiz-adv-x="527" d="M120 150H278L249 0H91L120 150ZM138 271Q144 307 162 334T202 382T250 421T295 454T329 487T343 524Q343 546 326 559T283 573Q263 573 245 566T212 551Q195 541 180 530L101 657Q128 677 161 693Q190 707 228 718T311 730Q352 730 390 719T459 685T507 628T525 550Q525 506 510 473T471 414T420 368T367 330T324 295T302 257L295 221H129L138 271Z"  />
<glyph unicode="@" horiz-adv-x="849" d="M460 229Q460 206 473 192T515 177H554L580 311H543Q504 311 482 285T460 229ZM28 188Q28 273 63 350T162 487T311 580T497 615Q564 615 612 600T692 557T739 493T754 414Q754 397 752 382T747 350L714 177H788L765 58H497Q444 58 405 71T340 107T301 159T288 221Q288 257 303 292T352 354T435 399T556 416H600V418Q600 419 600 420T601 424Q601 437 590 447T562 465T522 476T479 480Q419 480 368 454T280 385T221 291T199 187Q199 148 212 114T251 54T316 13T409 -2L384 -130Q305 -130 240 -108T127 -44T54 56T28 188Z"  />
<glyph unicode="A" horiz-adv-x="687" d="M416 295L403 414Q401 431 400 451T398 490Q397 511 397 532H395Q387 511 378 490Q370 472 361 452T343 414L284 295H416ZM-15 150H4Q15 150 21 154T34 172L335 715H521L610 172Q612 159 616 155T633 150H652L623 0H517Q477 0 461 13T439 58L426 150H218L169 58Q161 42 153 31T134 13T110 3T79 0H-44L-15 150Z"  />
<glyph unicode="B" horiz-adv-x="641" d="M244 166Q244 150 263 150H331Q353 150 372 161Q392 173 403 194T414 239Q414 265 399 281T351 298H269L247 187Q244 173 244 166ZM372 438Q407 438 427 461T447 513Q447 535 433 550T384 565H321L296 438H372ZM45 54Q45 62 46 71T50 93L142 565H77L106 715H409Q458 715 498 705T566 673T611 622T627 551Q627 518 617 490T589 439T551 400T508 376V374Q553 355 575 317T597 228Q597 186 582 151T542 89T486 43T420 14Q394 6 369 3T320 0H115Q77 0 61 14T45 54Z"  />
<glyph unicode="C" horiz-adv-x="709" d="M33 305Q33 389 66 465T156 600T292 692T461 727Q500 727 544 720T627 695T691 649T717 578Q717 563 714 548T709 518L699 466H540L547 500Q551 519 543 531T519 550T486 559T454 562Q408 562 365 545T289 495T237 418T217 318Q217 279 229 249T264 197T316 165T381 153Q438 153 490 174T583 231L656 91Q601 42 522 15T361 -12Q296 -12 237 9T133 71T60 171T33 305Z"  />
<glyph unicode="D" horiz-adv-x="721" d="M244 166Q244 150 263 150H283Q331 150 374 168T451 219T503 299T523 405Q523 487 484 526T364 565H321L247 187Q244 173 244 166ZM45 54Q45 62 46 71T50 93L142 565H77L106 715H384Q460 715 520 697T623 641T687 548T709 418Q709 324 675 247T582 115T445 30T278 0H115Q77 0 61 14T45 54Z"  />
<glyph unicode="E" horiz-adv-x="606" d="M45 54Q45 62 46 71T50 93L142 565H77L106 715H542Q581 715 598 701T616 658Q616 646 613 631L588 504H428L433 528Q435 536 435 540T436 549Q436 559 429 562T414 565H321L296 435H500L470 285H266L247 187Q244 173 244 166Q244 150 263 150H361Q382 150 387 172L395 211H555L527 68Q520 33 501 17T446 0H115Q77 0 61 14T45 54Z"  />
<glyph unicode="F" horiz-adv-x="548" d="M140 565H75L104 715H520Q559 715 576 701T594 658Q594 646 591 631L566 504H406L411 528Q413 536 413 540T414 549Q414 559 407 562T392 565H319L290 415H494L465 265H261L209 0H30L140 565Z"  />
<glyph unicode="G" horiz-adv-x="750" d="M32 297Q32 379 63 456T151 594T288 690T467 727Q533 727 580 712T659 680Q695 660 720 634L619 507Q601 523 577 535Q557 546 528 555T464 564Q413 564 368 545T290 492T237 413T218 315Q218 272 231 241T266 190T318 160T383 150Q418 150 447 159T496 179Q520 191 538 208L543 232Q545 242 545 249Q545 256 541 260T526 265H478L505 404H651Q690 404 707 390T725 347Q725 335 722 320L660 0H510L515 26Q516 30 516 34T519 43Q520 47 522 53H520Q510 43 492 32T449 11T393 -5T327 -12Q266 -12 212 9T118 70T55 167T32 297Z"  />
<glyph unicode="H" horiz-adv-x="776" d="M133 528Q135 536 135 540T136 549Q136 559 129 562T114 565H75L104 715H261Q300 715 317 701T335 658Q335 646 332 631L292 429H534L576 642Q584 684 603 699T658 715H834L805 565H760Q740 565 736 543L630 0H451L505 280H263L209 0H30L133 528Z"  />
<glyph unicode="I" horiz-adv-x="395" d="M10 150H84L165 565H90L119 715H438L409 565H334L253 150H328L299 0H-19L10 150Z"  />
<glyph unicode="J" horiz-adv-x="564" d="M-7 179Q-7 192 -6 204T-2 230L6 272H185L179 239Q176 221 176 208Q176 177 191 165T228 153Q256 153 277 171T306 229L364 528Q367 543 367 547Q367 558 360 561T345 565H179L208 715H492Q531 715 548 701T566 658Q566 646 563 631L481 205Q470 146 444 105T382 38T305 0T221 -12Q175 -12 134 1T62 38T12 98T-7 179Z"  />
<glyph unicode="K" horiz-adv-x="665" d="M133 528Q136 543 136 547Q136 558 129 561T114 565H75L104 715H261Q300 715 317 701T335 658Q335 646 332 631L294 439H318Q343 439 353 444T371 461L541 715H743L544 426Q532 409 521 397T501 377Q491 368 483 363V361Q489 355 495 347Q500 340 505 330T516 305L557 173Q564 150 594 150H625L596 0H494Q456 0 435 9T403 53L338 267Q331 290 292 290H265L209 0H30L133 528Z"  />
<glyph unicode="L" horiz-adv-x="575" d="M45 54Q45 62 46 71T50 93L135 528Q137 536 137 540T138 549Q138 559 131 562T116 565H77L106 715H263Q302 715 319 701T337 658Q337 646 334 631L247 187Q244 173 244 166Q244 150 263 150H356Q377 150 382 172L390 211H550L522 68Q515 33 496 17T441 0H115Q77 0 61 14T45 54Z"  />
<glyph unicode="M" horiz-adv-x="907" d="M-4 150H20Q40 150 46 172L196 715H380L436 430Q439 412 442 394T447 361Q450 343 452 327H454Q462 342 471 359Q479 373 489 391T510 430L678 715H872L812 190Q811 182 811 177T810 166Q810 150 828 150H853L824 0H686Q650 0 633 12T616 54Q616 63 617 72T619 89L646 302Q648 322 652 342T660 381Q664 401 669 422H667Q656 399 645 377Q635 358 624 338T604 302L487 115H347L304 302Q300 318 297 338T292 378Q289 400 287 422H285Q282 402 278 381Q275 363 271 342T262 302L200 68Q190 32 173 16T119 0H-33L-4 150Z"  />
<glyph unicode="N" horiz-adv-x="768" d="M-5 150H37Q59 150 63 172L169 715H326L466 398Q474 381 481 362T493 327L505 291H507Q508 310 510 328Q512 344 514 362T520 398L568 642Q576 684 595 699T650 715H826L797 565H752Q732 565 728 543L622 0H467L324 316Q316 333 309 351T297 386Q291 404 286 423H284Q282 404 280 386Q278 370 276 352T270 316L222 68Q215 32 196 16T141 0H-34L-5 150Z"  />
<glyph unicode="O" horiz-adv-x="804" d="M219 318Q219 280 230 250T262 198T311 165T373 153Q417 153 459 172T534 226T587 304T608 400Q608 437 597 467T565 518T516 550T454 562Q410 562 368 543T292 491T239 414T219 318ZM33 307Q33 392 68 468T162 602T300 693T468 727Q541 727 601 704T704 639T771 539T795 412Q795 326 760 250T664 115T525 22T358 -12Q286 -12 226 12T124 78T57 179T33 307Z"  />
<glyph unicode="P" horiz-adv-x="617" d="M348 371Q371 371 391 380T427 405T450 443T459 491Q459 529 440 547T389 565H319L281 371H348ZM140 565H75L104 715H439Q484 715 521 701T585 659T627 594T642 509Q642 466 630 427T598 356T550 297T493 255Q464 239 432 230T363 221H252L209 0H30L140 565Z"  />
<glyph unicode="Q" horiz-adv-x="804" d="M219 318Q219 280 230 250T262 198T311 165T373 153Q412 153 449 167L373 253L491 363L571 269Q588 298 598 330T608 400Q608 437 597 467T565 518T516 550T454 562Q410 562 368 543T292 491T239 414T219 318ZM33 307Q33 392 68 468T162 602T300 693T468 727Q541 727 601 704T704 639T771 539T795 412Q795 335 766 266T685 140L739 85L619 -27L560 42Q514 16 463 2T358 -12Q286 -12 226 12T124 78T57 179T33 307Z"  />
<glyph unicode="R" horiz-adv-x="659" d="M347 391Q369 391 388 399T421 421T444 455T453 499Q453 534 435 549T384 565H319L285 391H347ZM140 565H75L104 715H428Q472 715 510 703T575 667T619 609T635 529Q635 476 618 437T577 370T528 327T484 306V304Q490 299 495 292Q500 286 505 278T514 259L541 179Q546 164 554 157T579 150H609L580 0H493Q453 0 432 12T397 59L343 214Q338 230 328 235T291 241H256L209 0H30L140 565Z"  />
<glyph unicode="S" horiz-adv-x="575" d="M101 223Q119 202 143 185Q163 171 193 159T262 147Q307 147 328 163T349 202Q349 224 329 240T278 271T212 303T146 346T96 408T75 498Q75 553 97 595T157 667T244 711T347 727Q386 727 426 719T498 694T551 653T572 596Q572 577 567 552L555 494H400L403 509Q404 513 405 518T406 529Q406 549 388 558T342 567Q301 567 278 551T255 511Q255 488 275 473T326 444T392 415T458 375T509 315T530 225Q530 176 512 133T458 58T373 7T258 -12Q191 -12 142 5T59 45Q20 71 -7 103L101 223Z"  />
<glyph unicode="T" horiz-adv-x="669" d="M297 565H239Q218 565 213 543L205 504H50L78 646Q86 685 102 700T157 715H658Q697 715 712 701T727 658Q727 646 724 631L699 504H544L549 528Q552 541 552 549Q552 559 545 562T530 565H476L366 0H187L297 565Z"  />
<glyph unicode="U" horiz-adv-x="776" d="M84 220Q84 248 90 278L139 528Q142 543 142 547Q142 558 135 561T120 565H81L110 715H267Q306 715 323 701T341 658Q341 646 338 631L267 268Q264 251 264 238Q264 196 289 175T360 153Q411 153 448 182T497 268L570 642Q578 684 597 699T652 715H828L799 565H754Q734 565 730 543L672 248Q661 191 634 143T565 61T469 7T348 -12Q285 -12 236 5T154 54T102 127T84 220Z"  />
<glyph unicode="V" horiz-adv-x="706" d="M105 543Q103 556 99 560T82 565H57L86 715H211Q249 715 264 702T284 657L326 323Q328 306 329 286T330 249V208H332Q339 229 348 249Q355 266 364 286T382 323L554 657Q571 689 591 702T649 715H774L745 565H720Q708 565 702 561T689 543L385 0H197L105 543Z"  />
<glyph unicode="W" horiz-adv-x="1036" d="M119 543Q118 556 113 560T95 565H70L99 715H227Q264 715 284 703T305 657L311 283Q311 248 308 229Q306 218 305 208H307Q309 218 313 229Q316 239 321 252T334 283L527 714H670L694 283Q695 266 695 253T693 229Q692 218 691 208H693Q694 218 698 229Q701 239 705 252T717 283L869 657Q883 690 907 702T969 715H1097L1068 565H1043Q1031 565 1024 561T1011 543L769 0H564L539 333Q537 350 537 364T538 388Q539 399 540 409H538Q536 399 532 388Q528 378 523 364T509 333L354 0H149L119 543Z"  />
<glyph unicode="X" horiz-adv-x="655" d="M234 359L151 542Q145 556 136 560T109 565H82L111 715H207Q242 715 265 706T300 667L336 578Q343 561 348 545T357 516Q361 501 364 488H366Q373 501 383 516Q391 529 401 545T426 578L493 667Q510 690 530 702T584 715H710L681 565H644Q631 565 623 561T604 544L446 351L597 0H403L346 140Q341 153 336 168T326 197Q321 212 317 227H315Q307 214 297 199Q289 186 278 171T256 140L149 0H-53L234 359Z"  />
<glyph unicode="Y" horiz-adv-x="630" d="M227 313L120 543Q110 565 83 565H59L88 715H168Q201 715 220 707T255 667L311 544Q317 530 322 516T331 490Q335 476 339 464H341Q349 476 358 490Q366 501 375 515T395 544L490 667Q512 696 535 705T585 715H701L672 565H643Q630 565 622 560T605 546L406 313L345 0H166L227 313Z"  />
<glyph unicode="Z" horiz-adv-x="626" d="M-10 110L326 501Q337 515 349 526T372 547Q383 558 394 566V568Q387 567 378 566Q370 565 361 565T339 565H263Q241 565 237 543L229 504H69L96 642Q104 680 124 697T183 715H658L637 607L295 214Q282 200 271 189T249 168Q238 157 227 149V147Q233 147 242 148Q250 149 260 149T282 150H382Q404 150 408 172L416 211H576L549 73Q541 35 521 18T462 0H-31L-10 110Z"  />
<glyph unicode="[" horiz-adv-x="335" d="M143 677Q151 715 172 732T231 750H404L380 630H300Q279 630 274 608L165 47Q160 25 183 25H263L239 -95H66Q28 -95 14 -78T8 -22L143 677Z"  />
<glyph unicode="\" horiz-adv-x="460" d="M120 750H258L361 -42H223L120 750Z"  />
<glyph unicode="]" horiz-adv-x="336" d="M46 25Q67 25 72 47L181 608Q186 630 163 630H83L107 750H280Q318 750 332 733T338 677L203 -22Q195 -60 174 -77T115 -95H-57L-34 25H46Z"  />
<glyph unicode="^" horiz-adv-x="630" d="M203 715H310L513 241H368L256 541L145 241H0L203 715Z"  />
<glyph unicode="_" horiz-adv-x="574" d="M527 0L502 -130H-93L-69 0H527Z"  />
<glyph unicode="`" horiz-adv-x="430" d="M70 911H220L276 761H162L70 911Z"  />
<glyph unicode="a" horiz-adv-x="571" d="M162 152Q162 134 172 123T200 112Q217 112 235 121T269 144T296 176T311 209L314 223H298Q234 223 198 204T162 152ZM-10 126Q-10 175 15 211T86 272T192 308T324 320H331L333 330Q334 335 335 341T336 354Q336 372 322 384T277 397Q235 397 230 372L225 349H65L76 406Q83 440 104 463T155 501T222 521T300 527Q409 527 459 488T509 373Q509 347 503 319L476 180Q473 166 473 160Q473 145 492 145H530L501 0H359Q327 0 315 13T302 43Q302 50 304 60T308 80H306Q289 54 265 34Q244 17 213 3T140 -12Q107 -12 80 -3T32 25T1 68T-10 126Z"  />
<glyph unicode="b" horiz-adv-x="633" d="M218 221Q218 184 237 158T299 131Q321 131 344 141T385 172T416 222T428 290Q428 332 407 356T347 381Q327 381 305 371T263 340T231 289T218 221ZM108 532Q109 537 110 543T111 553Q111 570 93 570H55L83 715H238Q304 715 304 662Q304 656 303 648T300 632L278 521Q276 511 275 503T271 488Q269 481 267 475H269Q295 500 331 513T404 527Q451 527 488 511T550 466T589 396T603 303Q603 233 579 175T515 76T425 11T321 -12Q301 -12 280 -9T240 3T205 24T177 56H175Q175 51 174 47Q173 40 171 27L166 0H5L108 532Z"  />
<glyph unicode="c" horiz-adv-x="552" d="M14 227Q14 283 36 337T99 433T199 501T331 527Q361 527 399 521T470 500T521 457T531 386L521 335H374L376 344Q380 363 365 374T321 385Q289 385 265 372T224 339T198 293T189 243Q189 225 194 206T213 172T249 146T303 136Q335 136 362 144T409 164Q432 176 451 192L495 60Q474 40 442 24Q415 10 375 -1T281 -12Q213 -12 163 8T80 61T31 137T14 227Z"  />
<glyph unicode="d" horiz-adv-x="654" d="M189 227Q189 181 210 156T265 131Q289 131 313 143T356 177T386 226T398 287Q398 325 380 353T320 381Q296 381 273 370T231 338T201 289T189 227ZM14 212Q14 282 38 340T101 439T192 504T297 527Q316 527 335 524T373 514T406 497T431 470H433Q433 474 434 478Q434 483 436 493L444 532Q447 545 447 553Q447 570 429 570H391L419 715H574Q640 715 640 664Q640 656 639 648T636 632L549 182Q546 168 546 160Q546 145 565 145H603L574 0H434Q402 0 390 13T378 43Q378 48 379 56T382 73H380Q349 34 309 11T212 -12Q118 -12 66 48T14 212Z"  />
<glyph unicode="e" horiz-adv-x="556" d="M361 321Q361 325 362 329Q362 332 362 335T363 341Q363 365 349 381T308 397Q270 397 246 375T209 321H361ZM14 213Q14 280 36 337T98 437T192 503T311 527Q366 527 407 512T475 471T517 407T531 325Q531 307 528 290T521 258Q517 241 512 226H188Q187 225 187 223V216Q187 177 214 154T288 131Q316 131 343 139T393 157Q419 168 441 183L485 55Q458 36 425 21Q397 8 359 -2T277 -12Q211 -12 162 6T80 55T31 127T14 213Z"  />
<glyph unicode="f" horiz-adv-x="367" d="M96 380H33L60 515H123L125 527Q136 592 166 630T233 688T310 713T378 719Q394 719 407 719T430 717Q441 716 450 716L421 575Q414 577 406 577T390 578Q375 578 360 575T331 565T309 548T297 522L296 515H391L364 380H269L196 0H23L96 380Z"  />
<glyph unicode="g" horiz-adv-x="641" d="M193 246Q193 209 211 184T272 159Q300 159 322 173T360 209T383 257T391 308Q391 330 384 345T366 368T340 379T308 383Q281 383 260 372T224 343T201 299T193 246ZM61 -29Q75 -39 95 -46Q112 -52 137 -57T196 -62Q250 -62 285 -41T335 33Q337 42 338 49T342 61Q344 66 345 71H344Q318 44 289 30T218 15Q167 15 130 32T67 78T30 147T18 231Q18 285 36 338T90 433T176 501T293 527Q337 527 364 517T408 493Q426 478 437 460H439V464Q439 466 439 468T441 475Q443 486 459 500T505 515H663L634 370H596Q574 370 571 351L510 42Q496 -27 464 -75T390 -153T299 -196T202 -210Q148 -210 109 -203T43 -186Q11 -175 -11 -162L61 -29Z"  />
<glyph unicode="h" horiz-adv-x="653" d="M109 532Q110 537 111 543T112 553Q112 570 94 570H56L84 715H239Q305 715 305 662Q305 656 304 648T301 632L273 489Q271 478 270 470T266 455Q264 448 262 442H264Q277 457 294 472T334 499T382 519T440 527Q471 527 498 519T545 492T577 447T589 382Q589 355 583 321L555 175Q553 165 553 161Q553 145 570 145H608L580 0H425Q392 0 376 14T359 54Q359 59 359 63T361 73L406 302Q407 307 407 313T408 324Q408 343 399 356T360 370Q334 370 312 358T271 325T241 280T223 228L178 0H5L109 532Z"  />
<glyph unicode="i" horiz-adv-x="338" d="M36 54Q36 59 36 63T38 73L89 332Q92 347 92 353Q92 370 74 370H36L64 515H219Q285 515 285 462Q285 456 284 448T281 432L231 175Q229 165 229 161Q229 145 246 145H284L256 0H102Q69 0 53 14T36 54ZM176 715H321L294 575H149L176 715Z"  />
<glyph unicode="j" horiz-adv-x="315" d="M87 332Q90 347 90 353Q90 370 72 370H34L62 515H217Q283 515 283 464Q283 452 279 432L193 -13Q180 -80 147 -118T72 -177T-9 -202T-76 -208Q-87 -208 -97 -208T-115 -207Q-124 -206 -132 -205L-104 -61Q-102 -62 -98 -62H-83Q-44 -62 -14 -47T25 16L87 332ZM172 715H317L290 575H145L172 715Z"  />
<glyph unicode="k" horiz-adv-x="594" d="M109 532Q110 537 111 543T112 553Q112 570 94 570H56L84 715H239Q305 715 305 662Q305 656 304 648T301 632L245 345H272Q288 345 295 349T308 361L422 515H618L462 315Q454 305 446 297T429 283Q420 276 411 270V268Q415 266 419 261Q427 252 437 227L463 162Q467 151 476 148T501 145H541L513 0H393Q365 0 351 7T327 39L277 178Q272 192 265 196T244 200H217L178 0H5L109 532Z"  />
<glyph unicode="l" horiz-adv-x="325" d="M25 54Q25 59 25 63T27 73L117 532Q120 547 120 553Q120 570 102 570H64L92 715H247Q313 715 313 662Q313 656 312 648T309 632L220 175Q218 165 218 161Q218 145 235 145H274L246 0H91Q58 0 42 14T25 54Z"  />
<glyph unicode="m" horiz-adv-x="954" d="M88 338Q90 346 90 353Q90 360 87 365T72 370H34L62 515H216Q246 515 260 500T275 462Q275 454 274 448T272 438H274Q286 451 302 467T340 496T388 518T446 527Q489 527 523 507T571 440H573Q602 475 650 501T757 527Q815 527 853 496T891 397Q891 381 889 366T884 334L854 175Q852 165 852 161Q852 145 869 145H907L879 0H724Q691 0 675 14T658 54Q658 59 658 63T660 73L706 305Q709 321 709 333Q709 370 672 370Q648 370 628 357T593 322T566 272T549 213L507 0H334L394 305Q397 321 397 333Q397 370 360 370Q335 370 315 357T280 321T254 270T237 213L195 0H22L88 338Z"  />
<glyph unicode="n" horiz-adv-x="670" d="M88 338Q90 346 90 353Q90 360 87 365T72 370H34L62 515H216Q246 515 260 501T275 463Q275 453 273 445T269 429H271Q283 444 300 461T340 493T393 517T457 527Q488 527 515 519T562 492T594 447T606 382Q606 355 600 321L572 175Q570 165 570 161Q570 145 587 145H625L597 0H442Q409 0 393 14T376 54Q376 59 376 63T378 73L423 302Q424 307 424 313T425 324Q425 343 416 356T377 370Q351 370 329 358T288 325T258 280T240 228L195 0H22L88 338Z"  />
<glyph unicode="o" horiz-adv-x="633" d="M188 227Q188 182 215 157T285 132Q311 132 337 142T383 173T417 221T430 285Q430 331 403 357T334 383Q308 383 282 372T235 341T201 291T188 227ZM13 219Q13 287 40 343T114 441T221 504T346 527Q402 527 449 511T531 464T585 391T605 296Q605 228 577 171T503 74T397 11T272 -12Q216 -12 169 4T87 51T33 123T13 219Z"  />
<glyph unicode="p" horiz-adv-x="650" d="M236 222Q236 184 255 158T316 131Q338 131 361 141T403 172T433 222T445 290Q445 332 424 356T365 381Q345 381 323 371T281 340T249 290T236 222ZM86 327Q88 335 89 341T90 355Q90 370 73 370H35L63 515H210Q244 515 256 504T268 477Q268 473 267 469T265 460Q264 456 263 451H265Q294 488 334 507T421 527Q467 527 504 511T567 466T606 396T620 303Q620 233 596 175T532 76T442 11T338 -12Q299 -12 264 1T203 42H201Q200 37 199 30Q198 24 197 16T194 -2L157 -200H-16L86 327Z"  />
<glyph unicode="q" horiz-adv-x="649" d="M189 222Q189 180 210 156T270 131Q291 131 313 142T354 174T385 224T398 290Q398 327 379 354T318 381Q296 381 273 371T232 340T201 290T189 222ZM14 209Q14 281 37 339T101 439T193 504T303 527Q400 527 442 467H444Q449 494 468 504T512 515H673L645 370H607Q585 370 580 348L474 -200H301L340 2Q342 12 343 20T347 34Q349 41 351 46H349Q341 38 329 28T299 9T261 -6T214 -12Q119 -12 67 48T14 209Z"  />
<glyph unicode="r" horiz-adv-x="444" d="M90 348Q92 356 89 363T72 370H34L63 515H216Q278 515 278 468Q278 457 274 435T264 396H266Q279 422 299 445T344 486T397 514T454 524Q458 524 461 524T468 523Q472 522 474 522L441 352Q437 352 432 353Q427 354 421 354T407 355Q387 355 361 350T310 327T264 279T233 195L196 0H23L90 348Z"  />
<glyph unicode="s" horiz-adv-x="492" d="M63 188Q82 168 106 153Q126 140 154 130T214 119Q260 119 260 147Q260 165 240 174T197 192Q171 201 144 213T95 245T58 291T43 358Q43 404 63 436T116 488T189 517T271 527Q310 527 348 520T415 496T460 455T469 394L460 349H314L316 360Q320 379 306 388T266 398Q243 398 230 390T216 367Q216 356 224 349T244 336T270 326T297 316Q321 307 346 296T391 267T425 225T438 164Q438 122 420 89T370 34T298 0T211 -12Q156 -12 115 1T44 32Q11 51 -14 77L63 188Z"  />
<glyph unicode="t" horiz-adv-x="394" d="M62 155Q62 166 63 177T67 200L102 380H36L63 515H134L161 654H329L302 515H410L383 380H275L245 223Q244 218 244 213T243 204Q243 185 250 174T269 157T293 149T317 147Q323 147 328 147T337 148Q341 148 345 149L316 -2Q309 -3 302 -4Q295 -5 287 -5T268 -5Q240 -5 205 1T138 25T84 74T62 155Z"  />
<glyph unicode="u" horiz-adv-x="676" d="M58 133Q58 159 64 194L92 340Q94 350 94 354Q94 370 77 370H39L67 515H222Q255 515 271 501T288 461Q288 456 288 452T286 442L241 213Q240 208 240 202T239 191Q239 172 247 159T282 145Q308 145 330 157T371 190T401 235T419 287L464 515H637L571 177Q569 169 569 162Q569 155 572 150T587 145H625L597 0H443Q413 0 399 14T384 52Q384 62 386 70T390 86H388Q376 71 359 54T318 22T266 -2T202 -12Q172 -12 146 -4T101 23T70 68T58 133Z"  />
<glyph unicode="v" horiz-adv-x="582" d="M63 354Q60 370 44 370H31L60 515H155Q184 515 201 500T222 465L254 241Q256 227 256 213T258 186Q259 172 259 158H261Q266 173 271 188Q276 201 282 215T294 241L416 473Q438 515 491 515H607L578 370H565Q547 370 538 354L338 0H127L63 354Z"  />
<glyph unicode="w" horiz-adv-x="862" d="M72 354Q71 364 67 367T53 370H38L67 515H182Q244 515 244 462L248 211Q248 200 248 191T246 173Q245 164 244 157H246Q248 164 251 173Q253 181 256 190T265 211L395 513H543L555 211Q555 200 555 191T554 173Q553 164 553 157H555Q556 164 559 173Q561 181 563 190T571 211L673 466Q684 492 699 503T744 515H881L852 370H837Q828 370 823 367T812 354L639 0H442L430 238Q429 249 429 258T429 276V293H427Q425 285 422 276Q420 268 417 259T408 238L304 0H107L72 354Z"  />
<glyph unicode="x" horiz-adv-x="556" d="M170 261L120 353Q115 363 109 366T89 370H40L69 515H181Q212 515 228 504T254 469L280 409Q282 404 283 398T287 387Q289 381 290 375H292Q295 381 299 387Q302 392 306 398T313 409L354 469Q371 494 387 504T432 515H574L545 370H496Q482 370 475 368T460 355L371 250L485 0H307L258 108Q254 117 252 125Q251 129 250 134H248Q246 129 243 125Q241 121 238 117T232 108L151 0H-43L170 261Z"  />
<glyph unicode="y" horiz-adv-x="569" d="M57 -210Q26 -210 0 -202T-45 -183Q-67 -171 -85 -155L-17 -33Q-16 -34 -11 -39T3 -51T27 -63T60 -68Q81 -68 101 -58T142 -15L153 2L60 354Q57 364 54 367T41 370H22L50 515H169Q213 515 221 473L256 265Q258 254 259 240T260 214V185H262Q268 199 273 214Q278 226 283 240T294 265L392 473Q401 493 421 504T461 515H597L569 370H550Q541 370 535 367T523 354L283 -61Q259 -103 231 -131T174 -177T115 -202T57 -210Z"  />
<glyph unicode="z" horiz-adv-x="541" d="M-5 101L233 328Q246 341 258 351T279 369Q290 378 298 384V386Q290 385 283 385Q277 384 271 384T259 384H213Q192 384 187 362L180 327H40L62 442Q70 480 91 497T150 515H544L525 413L286 186Q272 173 260 163T239 146Q228 137 220 131V129Q226 129 234 130Q241 131 250 131T273 132H321Q332 132 338 139T347 157L353 188H493L471 73Q463 35 442 18T383 0H-25L-5 101Z"  />
<glyph unicode="{" horiz-adv-x="367" d="M59 38Q59 57 63 77L79 160Q82 175 82 186Q82 212 71 226T47 247Q32 255 13 256L42 406Q66 407 87 418Q105 427 121 447T146 505L166 608Q176 657 203 688T267 734T348 753T436 753L412 629Q397 632 380 631T347 624T319 607T304 577L278 445Q271 411 254 389T217 354Q195 339 169 331V329Q186 323 200 309Q212 297 222 276T232 222Q232 208 229 190L208 83Q206 73 206 66Q206 49 215 40T238 28T267 24T295 26L271 -98Q265 -99 258 -99Q252 -100 244 -100T227 -100Q209 -100 181 -96T125 -76T79 -34T59 38Z"  />
<glyph unicode="|" horiz-adv-x="351" d="M107 802H251V-165H107V802Z"  />
<glyph unicode="}" horiz-adv-x="367" d="M-33 26Q-18 22 -1 23T32 31T60 49T75 78L103 217Q110 251 127 273T164 308Q186 323 212 331V333Q194 339 180 353Q168 365 159 385T149 440Q149 454 152 472L172 577Q173 581 173 589Q173 605 164 614T141 627T112 631T84 629L108 753Q140 757 177 753T246 732T299 688T320 617Q320 597 316 578L302 502Q299 487 299 476Q299 450 309 436T333 415Q348 407 368 406L339 256Q315 255 294 244Q276 235 259 215T235 157L213 47Q203 -3 176 -33T112 -79T30 -99T-57 -98L-33 26Z"  />
<glyph unicode="~" horiz-adv-x="608" d="M36 191Q36 394 210 394Q245 394 269 382T311 354T346 327T382 314Q406 314 421 333T437 390H570Q570 187 397 187Q362 187 338 199T296 227T261 254T224 267Q201 267 186 248T170 191H36Z"  />
<glyph unicode="&#xA0;" horiz-adv-x="260" />
<glyph unicode="&#xA1;" horiz-adv-x="294" d="M71 293H219L139 -200H-41L71 293ZM109 514H267L238 364H80L109 514Z"  />
<glyph unicode="&#xA2;" horiz-adv-x="609" d="M215 80Q143 103 97 164T51 316Q51 388 76 445T140 543T228 610T324 642L340 726H450L433 635Q484 621 513 593T560 537Q579 504 587 467L432 411Q430 431 420 447Q412 461 396 472T352 484Q331 484 309 472T268 439T237 387T225 321Q225 276 247 254T303 232Q331 232 352 242T387 267Q404 283 416 303L562 241Q540 197 506 161Q477 130 432 103T323 69L307 -12H197L215 80Z"  />
<glyph unicode="&#xA3;" horiz-adv-x="596" d="M19 150H73L102 299H53L75 411H123L145 521Q154 567 177 605T236 670T315 712T409 727Q456 727 491 713T552 682Q581 662 603 637L497 531Q485 542 470 551Q457 559 441 565T404 572Q375 572 351 555T321 506L302 411H467L445 299H281L252 150H345Q366 150 371 172L379 211H539L512 73Q504 35 484 18T425 0H-10L19 150Z"  />
<glyph unicode="&#xA4;" horiz-adv-x="506" d="M253 222Q310 222 341 262T372 365Q372 395 364 421T341 467T304 498T253 509Q224 509 202 498T165 468T141 422T133 365Q133 334 141 308T164 263T202 233T253 222ZM19 168L88 239Q50 294 50 365Q50 436 88 489L19 560L64 603L131 534Q155 552 185 563T253 574Q289 574 320 563T375 534L442 603L487 560L418 489Q455 435 455 365Q455 330 445 298T417 240L487 168L442 125L374 194Q325 157 253 157Q181 157 132 194L64 125L19 168Z"  />
<glyph unicode="&#xA5;" horiz-adv-x="690" d="M231 179H72L90 275H249L257 313L239 352H105L124 448H194L150 543Q140 565 113 565H89L118 715H198Q231 715 250 707T285 667L341 544Q347 530 352 516T361 490Q365 476 369 464H371Q379 476 388 490Q396 501 405 515T425 544L520 667Q542 696 565 705T615 715H731L702 565H673Q660 565 652 560T635 546L551 448H620L601 352H469L436 313L428 275H586L568 179H410L375 0H196L231 179Z"  />
<glyph unicode="&#xA7;" horiz-adv-x="529" d="M70 118Q84 106 103 97Q120 89 143 83T197 76Q265 76 292 117T314 226L292 486H418L440 223Q445 166 432 115T389 24T310 -39T197 -62Q146 -62 106 -50T39 -21Q7 -3 -16 20L70 118ZM102 442Q97 499 110 550T153 641T232 704T345 727Q396 727 435 714T502 686Q534 668 558 645L472 547Q457 558 438 568Q421 576 398 582T345 589Q277 589 250 548T228 439L250 179H124L102 442Z"  />
<glyph unicode="&#xA8;" horiz-adv-x="522" d="M116 911H228L201 771H89L116 911ZM319 911H431L404 771H292L319 911Z"  />
<glyph unicode="&#xA9;" horiz-adv-x="815" d="M247 355Q247 395 261 429T298 488T353 527T419 542Q468 542 499 524T549 484Q570 458 581 427L481 388Q476 401 468 412Q461 421 451 429T423 437Q400 437 382 415T364 355Q364 314 380 294T423 273Q440 273 450 280T468 297Q476 308 481 322L581 283Q570 251 549 225Q531 203 500 186T419 168Q384 168 353 182T299 222T261 281T247 355ZM171 358Q171 302 190 254T242 169T320 112T417 91Q470 91 516 112T595 169T648 253T668 358Q668 413 649 461T596 546T516 602T417 623Q365 623 320 603T242 546T190 462T171 358ZM58 358Q58 434 86 501T163 618T277 697T417 726Q493 726 559 697T674 619T751 502T780 358Q780 281 752 214T674 97T559 17T417 -12Q343 -12 278 17T163 96T86 214T58 358Z"  />
<glyph unicode="&#xAA;" horiz-adv-x="440" d="M61 353H399L382 268H45L61 353ZM224 473Q241 473 256 486T277 525H270Q246 525 224 518T201 492Q201 473 224 473ZM176 384Q139 384 111 407T83 474Q83 511 103 533T153 568T216 585T274 589H288Q289 595 289 601T290 611Q290 621 285 628T263 636Q241 636 239 623L237 611H130L139 657Q146 690 182 707T275 725Q314 725 340 717T381 695T403 662T410 622Q410 611 409 602T406 584L393 514Q388 493 408 493H426L406 390H331Q311 390 296 398T279 439H277Q265 423 250 411Q237 400 219 392T176 384Z"  />
<glyph unicode="&#xAB;" horiz-adv-x="641" d="M9 282L200 488H364L162 275L292 77H139L9 282ZM269 282L482 488H649L422 275L552 77H399L269 282Z"  />
<glyph unicode="&#xAC;" horiz-adv-x="651" d="M70 467H576V132H441V337H70V467Z"  />
<glyph unicode="&#xAD;" horiz-adv-x="418" d="M64 362H378L349 212H35L64 362Z"  />
<glyph unicode="&#xAE;" horiz-adv-x="815" d="M422 377Q462 377 462 419Q462 460 424 460H395V377H422ZM287 534H450Q507 534 539 503T572 419Q572 398 566 382T550 355T530 338T514 330V328Q515 327 517 324Q519 322 521 318T527 308L590 187H472L423 305H395V187H287V534ZM171 358Q171 302 190 254T242 169T320 112T417 91Q470 91 516 112T595 169T648 253T668 358Q668 413 649 461T596 546T516 602T417 623Q365 623 320 603T242 546T190 462T171 358ZM58 358Q58 434 86 501T163 618T277 697T417 726Q493 726 559 697T674 619T751 502T780 358Q780 281 752 214T674 97T559 17T417 -12Q343 -12 278 17T163 96T86 214T58 358Z"  />
<glyph unicode="&#xAF;" horiz-adv-x="471" d="M107 889H382L361 782H86L107 889Z"  />
<glyph unicode="&#xB0;" horiz-adv-x="410" d="M245 503Q272 503 290 520T309 564Q309 586 296 599T259 612Q230 612 214 592T197 549Q197 528 210 516T245 503ZM234 385Q200 385 170 396T118 429T84 478T71 539Q71 576 87 611T131 672T195 714T271 730Q305 730 335 718T387 685T422 636T435 574Q435 536 419 502T374 441T310 400T234 385Z"  />
<glyph unicode="&#xB1;" horiz-adv-x="630" d="M576 -70V-200H50V-70H576ZM40 352H245V575H381V352H586V222H381V0H245V222H40V352Z"  />
<glyph unicode="&#xB2;" horiz-adv-x="419" d="M88 268Q59 268 51 277T43 312Q43 368 61 404T107 463T166 501T226 528T271 553T290 587Q290 610 261 610Q243 610 234 604T223 589L219 569H109L120 628Q124 652 140 670T179 700T228 718T278 724Q305 724 331 717T376 694T408 656T420 600Q420 560 403 532T358 484T301 450T243 424T199 401T181 376Q181 372 183 372T193 371H274Q284 371 286 382L292 413H402L384 321Q374 268 321 268H88Z"  />
<glyph unicode="&#xB3;" horiz-adv-x="397" d="M199 264Q155 264 125 274T74 298Q51 313 37 332L112 416Q122 405 134 397Q145 390 160 385T198 379Q225 379 242 393T260 427Q260 443 244 450T205 457H175L161 509L249 598Q253 603 258 607T267 614Q271 618 276 621V625Q270 624 265 623Q260 622 254 622T242 621H208Q201 621 199 613L193 582H93L109 666Q114 692 126 703T167 715H430L415 636L310 535Q345 523 367 495T389 428Q389 399 376 370T337 317T277 279T199 264Z"  />
<glyph unicode="&#xB4;" horiz-adv-x="430" d="M223 911H382L237 761H113L223 911Z"  />
<glyph unicode="&#xB5;" horiz-adv-x="706" d="M102 340Q104 349 103 359T87 370H49L77 515H232Q265 515 281 501T298 461Q298 456 298 452T296 442L251 213Q250 208 250 202T249 191Q249 172 257 159T292 145Q318 145 340 157T381 190T411 235T429 287L474 515H647L581 177Q579 169 579 162Q579 155 582 150T597 145H635L607 0H453Q423 0 409 14T394 52Q394 62 396 70T400 86H398Q386 71 369 54T328 22T276 -2T212 -12Q193 -12 173 -7H171Q171 -22 170 -37Q169 -50 168 -65T164 -96L144 -200H-3L102 340Z"  />
<glyph unicode="&#xB6;" horiz-adv-x="675" d="M495 515H615L505 -50H385L495 515ZM260 241Q223 241 189 256T127 300T84 366T68 451Q68 505 91 553T152 637T238 694T337 715H709L680 565H443L323 -50H203L260 241Z"  />
<glyph unicode="&#xB7;" horiz-adv-x="263" d="M67 377H225L194 213H36L67 377Z"  />
<glyph unicode="&#xB8;" horiz-adv-x="425" d="M189 29L257 12L256 5L237 -37Q246 -39 257 -43T277 -56T293 -77T300 -107Q300 -137 287 -156T255 -188T212 -205T167 -210Q151 -210 138 -209T115 -206Q104 -204 93 -201L110 -114Q116 -117 123 -119Q136 -124 153 -124Q170 -124 182 -118T195 -97Q195 -86 185 -82T160 -78Q155 -78 151 -78T142 -79Q138 -80 133 -80L189 29Z"  />
<glyph unicode="&#xB9;" horiz-adv-x="394" d="M64 376H154L183 525Q185 532 186 537T188 547Q189 551 190 555H188Q187 553 185 550Q183 546 176 542L147 520L90 599L237 715H346L280 376H369L348 268H43L64 376Z"  />
<glyph unicode="&#xBA;" horiz-adv-x="452" d="M67 353H405L388 268H50L67 353ZM262 488Q276 488 289 493T314 509T332 535T339 570Q339 594 325 608T288 623Q274 623 260 617T235 600T217 574T210 539Q210 515 224 502T262 488ZM252 385Q217 385 188 395T136 425T102 471T90 531Q90 574 107 609T154 670T221 710T297 725Q332 725 362 715T413 685T447 639T459 579Q459 536 441 501T394 440T328 400T252 385Z"  />
<glyph unicode="&#xBB;" horiz-adv-x="641" d="M213 290L83 488H236L366 283L153 77H-14L213 290ZM473 290L343 488H496L626 283L435 77H271L473 290Z"  />
<glyph unicode="&#xBC;" horiz-adv-x="959" d="M652 204H658Q660 204 663 204T669 205H718L737 303Q738 308 739 313T742 323Q743 327 744 332H742Q739 327 736 322Q734 317 731 313T724 303L669 225Q666 220 663 217T657 211L652 206V204ZM527 172L731 448H890L843 205H906L886 101H823L803 0H676L696 101H514L527 172ZM73 376H163L192 525Q194 532 195 537T197 547Q198 551 199 555H197Q196 553 194 550Q192 546 185 542L156 520L99 599L246 715H355L289 376H371L350 268H52L73 376ZM652 715H774L374 0H252L652 715Z"  />
<glyph unicode="&#xBD;" horiz-adv-x="966" d="M540 44Q540 100 558 136T604 195T663 233T723 260T768 285T787 319Q787 342 758 342Q740 342 731 336T720 321L716 301H606L617 360Q621 384 637 402T676 432T725 450T775 456Q802 456 828 449T873 426T905 388T917 332Q917 292 900 264T855 216T798 182T740 156T696 133T678 108Q678 104 680 104T690 103H771Q781 103 783 114L789 145H899L881 53Q871 0 818 0H585Q556 0 548 9T540 44ZM70 376H160L189 525Q191 532 192 537T194 547Q195 551 196 555H194Q193 553 191 550Q189 546 182 542L153 520L96 599L243 715H352L286 376H370L349 268H49L70 376ZM635 715H757L357 0H235L635 715Z"  />
<glyph unicode="&#xBE;" horiz-adv-x="951" d="M644 204H650Q652 204 655 204T661 205H710L729 303Q730 308 731 313T734 323Q735 327 736 332H734Q731 327 728 322Q726 317 723 313T716 303L661 225Q658 220 655 217T649 211L644 206V204ZM519 172L723 448H882L835 205H898L878 101H815L795 0H668L688 101H506L519 172ZM209 264Q165 264 135 274T84 298Q61 313 47 332L122 416Q132 405 144 397Q155 390 170 385T208 379Q235 379 252 393T270 427Q270 443 254 450T215 457H185L171 509L259 598Q263 603 268 607T277 614Q281 618 286 621V625Q280 624 275 623Q270 622 264 622T252 621H218Q211 621 209 613L203 582H103L119 666Q124 692 136 703T177 715H440L425 636L320 535Q355 523 377 495T399 428Q399 399 386 370T347 317T287 279T209 264ZM639 715H761L361 0H239L639 715Z"  />
<glyph unicode="&#xBF;" horiz-adv-x="514" d="M381 365H223L252 515H410L381 365ZM363 244Q356 208 339 181T299 133T251 94T206 61T172 29T158 -9Q158 -31 175 -44T218 -58Q238 -58 256 -52T289 -37Q306 -27 321 -15L400 -142Q373 -163 340 -179Q311 -193 273 -204T190 -215Q149 -215 111 -204T42 -170T-6 -113T-24 -35Q-24 9 -9 42T30 101T81 147T134 185T177 220T199 258L206 294H372L363 244Z"  />
<glyph unicode="&#xC0;" horiz-adv-x="687" d="M292 911H442L498 761H384L292 911ZM416 295L403 414Q401 431 400 451T398 490Q397 511 397 532H395Q387 511 378 490Q370 472 361 452T343 414L284 295H416ZM-15 150H4Q15 150 21 154T34 172L335 715H521L610 172Q612 159 616 155T633 150H652L623 0H517Q477 0 461 13T439 58L426 150H218L169 58Q161 42 153 31T134 13T110 3T79 0H-44L-15 150Z"  />
<glyph unicode="&#xC1;" horiz-adv-x="687" d="M489 911H648L503 761H379L489 911ZM416 295L403 414Q401 431 400 451T398 490Q397 511 397 532H395Q387 511 378 490Q370 472 361 452T343 414L284 295H416ZM-15 150H4Q15 150 21 154T34 172L335 715H521L610 172Q612 159 616 155T633 150H652L623 0H517Q477 0 461 13T439 58L426 150H218L169 58Q161 42 153 31T134 13T110 3T79 0H-44L-15 150Z"  />
<glyph unicode="&#xC2;" horiz-adv-x="687" d="M397 911H537L607 761H489L458 843H456L393 761H270L397 911ZM416 295L403 414Q401 431 400 451T398 490Q397 511 397 532H395Q387 511 378 490Q370 472 361 452T343 414L284 295H416ZM-15 150H4Q15 150 21 154T34 172L335 715H521L610 172Q612 159 616 155T633 150H652L623 0H517Q477 0 461 13T439 58L426 150H218L169 58Q161 42 153 31T134 13T110 3T79 0H-44L-15 150Z"  />
<glyph unicode="&#xC3;" horiz-adv-x="687" d="M235 761Q242 805 257 834T293 881T336 906T384 914Q415 914 433 905T464 884T486 864T514 854Q532 854 546 868T566 911H667Q659 867 644 838T609 791T566 766T518 758Q486 758 468 767T438 788T415 808T388 818Q370 818 356 804T336 761H235ZM416 295L403 414Q401 431 400 451T398 490Q397 511 397 532H395Q387 511 378 490Q370 472 361 452T343 414L284 295H416ZM-15 150H4Q15 150 21 154T34 172L335 715H521L610 172Q612 159 616 155T633 150H652L623 0H517Q477 0 461 13T439 58L426 150H218L169 58Q161 42 153 31T134 13T110 3T79 0H-44L-15 150Z"  />
<glyph unicode="&#xC4;" horiz-adv-x="687" d="M295 911H407L380 771H268L295 911ZM498 911H610L583 771H471L498 911ZM416 295L403 414Q401 431 400 451T398 490Q397 511 397 532H395Q387 511 378 490Q370 472 361 452T343 414L284 295H416ZM-15 150H4Q15 150 21 154T34 172L335 715H521L610 172Q612 159 616 155T633 150H652L623 0H517Q477 0 461 13T439 58L426 150H218L169 58Q161 42 153 31T134 13T110 3T79 0H-44L-15 150Z"  />
<glyph unicode="&#xC5;" horiz-adv-x="687" d="M447 797Q464 797 477 809T490 840Q490 868 461 868Q444 868 432 856T419 823Q419 797 447 797ZM442 747Q425 747 409 751T379 765T359 787T351 820Q351 845 361 863T388 894T425 912T465 918Q482 918 498 914T528 900T549 876T557 842Q557 817 546 799T519 770T482 753T442 747ZM416 295L403 414Q401 431 400 451T398 490Q397 511 397 532H395Q387 511 378 490Q370 472 361 452T343 414L284 295H416ZM-15 150H4Q15 150 21 154T34 172L335 715H521L610 172Q612 159 616 155T633 150H652L623 0H517Q477 0 461 13T439 58L426 150H218L169 58Q161 42 153 31T134 13T110 3T79 0H-44L-15 150Z"  />
<glyph unicode="&#xC6;" horiz-adv-x="957" d="M467 435L493 565H440L366 435H467ZM-49 0L-20 150H0Q11 150 16 154T29 172L360 715H893Q932 715 949 701T967 658Q967 646 964 631L939 504H779L784 528Q786 536 786 540T787 549Q787 559 780 562T765 565H672L647 435H851L821 285H617L598 187Q595 173 595 166Q595 150 614 150H712Q733 150 738 172L746 211H906L878 68Q871 33 852 17T797 0H466Q428 0 412 14T396 54Q396 62 397 71T401 93L438 285H279L150 58Q132 26 114 13T61 0H-49Z"  />
<glyph unicode="&#xC7;" horiz-adv-x="711" d="M282 -3Q230 8 185 33T107 98T54 189T34 305Q34 389 67 465T157 600T293 692T462 727Q501 727 545 720T628 695T692 649T718 578Q718 563 715 548T710 518L700 466H541L548 500Q552 519 544 531T520 550T487 559T455 562Q409 562 366 545T290 495T238 418T218 318Q218 279 230 249T265 197T317 165T382 153Q439 153 491 174T584 231L657 91Q602 42 523 15T362 -12H358L347 -37Q356 -39 367 -43T387 -56T403 -77T410 -107Q410 -137 397 -156T365 -188T322 -205T277 -210Q261 -210 248 -209T225 -206Q214 -204 203 -201L220 -114Q226 -117 233 -119Q246 -124 263 -124Q280 -124 292 -118T305 -97Q305 -86 295 -82T270 -78Q265 -78 261 -78T252 -79Q248 -80 243 -80L282 -3Z"  />
<glyph unicode="&#xC8;" horiz-adv-x="606" d="M238 911H388L444 761H330L238 911ZM45 54Q45 62 46 71T50 93L142 565H77L106 715H542Q581 715 598 701T616 658Q616 646 613 631L588 504H428L433 528Q435 536 435 540T436 549Q436 559 429 562T414 565H321L296 435H500L470 285H266L247 187Q244 173 244 166Q244 150 263 150H361Q382 150 387 172L395 211H555L527 68Q520 33 501 17T446 0H115Q77 0 61 14T45 54Z"  />
<glyph unicode="&#xC9;" horiz-adv-x="606" d="M435 911H594L449 761H325L435 911ZM45 54Q45 62 46 71T50 93L142 565H77L106 715H542Q581 715 598 701T616 658Q616 646 613 631L588 504H428L433 528Q435 536 435 540T436 549Q436 559 429 562T414 565H321L296 435H500L470 285H266L247 187Q244 173 244 166Q244 150 263 150H361Q382 150 387 172L395 211H555L527 68Q520 33 501 17T446 0H115Q77 0 61 14T45 54Z"  />
<glyph unicode="&#xCA;" horiz-adv-x="606" d="M343 911H483L553 761H435L404 843H402L339 761H216L343 911ZM45 54Q45 62 46 71T50 93L142 565H77L106 715H542Q581 715 598 701T616 658Q616 646 613 631L588 504H428L433 528Q435 536 435 540T436 549Q436 559 429 562T414 565H321L296 435H500L470 285H266L247 187Q244 173 244 166Q244 150 263 150H361Q382 150 387 172L395 211H555L527 68Q520 33 501 17T446 0H115Q77 0 61 14T45 54Z"  />
<glyph unicode="&#xCB;" horiz-adv-x="606" d="M241 911H353L326 771H214L241 911ZM444 911H556L529 771H417L444 911ZM45 54Q45 62 46 71T50 93L142 565H77L106 715H542Q581 715 598 701T616 658Q616 646 613 631L588 504H428L433 528Q435 536 435 540T436 549Q436 559 429 562T414 565H321L296 435H500L470 285H266L247 187Q244 173 244 166Q244 150 263 150H361Q382 150 387 172L395 211H555L527 68Q520 33 501 17T446 0H115Q77 0 61 14T45 54Z"  />
<glyph unicode="&#xCC;" horiz-adv-x="395" d="M139 911H289L345 761H231L139 911ZM10 150H84L165 565H90L119 715H438L409 565H334L253 150H328L299 0H-19L10 150Z"  />
<glyph unicode="&#xCD;" horiz-adv-x="395" d="M336 911H495L350 761H226L336 911ZM10 150H84L165 565H90L119 715H438L409 565H334L253 150H328L299 0H-19L10 150Z"  />
<glyph unicode="&#xCE;" horiz-adv-x="395" d="M244 911H384L454 761H336L305 843H303L240 761H117L244 911ZM10 150H84L165 565H90L119 715H438L409 565H334L253 150H328L299 0H-19L10 150Z"  />
<glyph unicode="&#xCF;" horiz-adv-x="395" d="M142 911H254L227 771H115L142 911ZM345 911H457L430 771H318L345 911ZM10 150H84L165 565H90L119 715H438L409 565H334L253 150H328L299 0H-19L10 150Z"  />
<glyph unicode="&#xD0;" horiz-adv-x="722" d="M245 166Q245 150 264 150H284Q332 150 375 168T452 219T504 299T524 405Q524 487 485 526T365 565H322L294 424H384L357 284H267L248 187Q245 173 245 166ZM46 54Q46 62 47 71T51 93L88 284H41L68 424H115L143 565H78L107 715H385Q461 715 521 697T624 641T688 548T710 418Q710 324 676 247T583 115T446 30T279 0H116Q78 0 62 14T46 54Z"  />
<glyph unicode="&#xD1;" horiz-adv-x="768" d="M272 761Q279 805 294 834T330 881T373 906T421 914Q452 914 470 905T501 884T523 864T551 854Q569 854 583 868T603 911H704Q696 867 681 838T646 791T603 766T555 758Q523 758 505 767T475 788T452 808T425 818Q407 818 393 804T373 761H272ZM-5 150H37Q59 150 63 172L169 715H326L466 398Q474 381 481 362T493 327L505 291H507Q508 310 510 328Q512 344 514 362T520 398L568 642Q576 684 595 699T650 715H826L797 565H752Q732 565 728 543L622 0H467L324 316Q316 333 309 351T297 386Q291 404 286 423H284Q282 404 280 386Q278 370 276 352T270 316L222 68Q215 32 196 16T141 0H-34L-5 150Z"  />
<glyph unicode="&#xD2;" horiz-adv-x="804" d="M337 911H487L543 761H429L337 911ZM219 318Q219 280 230 250T262 198T311 165T373 153Q417 153 459 172T534 226T587 304T608 400Q608 437 597 467T565 518T516 550T454 562Q410 562 368 543T292 491T239 414T219 318ZM33 307Q33 392 68 468T162 602T300 693T468 727Q541 727 601 704T704 639T771 539T795 412Q795 326 760 250T664 115T525 22T358 -12Q286 -12 226 12T124 78T57 179T33 307Z"  />
<glyph unicode="&#xD3;" horiz-adv-x="804" d="M534 911H693L548 761H424L534 911ZM219 318Q219 280 230 250T262 198T311 165T373 153Q417 153 459 172T534 226T587 304T608 400Q608 437 597 467T565 518T516 550T454 562Q410 562 368 543T292 491T239 414T219 318ZM33 307Q33 392 68 468T162 602T300 693T468 727Q541 727 601 704T704 639T771 539T795 412Q795 326 760 250T664 115T525 22T358 -12Q286 -12 226 12T124 78T57 179T33 307Z"  />
<glyph unicode="&#xD4;" horiz-adv-x="804" d="M442 911H582L652 761H534L503 843H501L438 761H315L442 911ZM219 318Q219 280 230 250T262 198T311 165T373 153Q417 153 459 172T534 226T587 304T608 400Q608 437 597 467T565 518T516 550T454 562Q410 562 368 543T292 491T239 414T219 318ZM33 307Q33 392 68 468T162 602T300 693T468 727Q541 727 601 704T704 639T771 539T795 412Q795 326 760 250T664 115T525 22T358 -12Q286 -12 226 12T124 78T57 179T33 307Z"  />
<glyph unicode="&#xD5;" horiz-adv-x="804" d="M280 761Q287 805 302 834T338 881T381 906T429 914Q460 914 478 905T509 884T531 864T559 854Q577 854 591 868T611 911H712Q704 867 689 838T654 791T611 766T563 758Q531 758 513 767T483 788T460 808T433 818Q415 818 401 804T381 761H280ZM219 318Q219 280 230 250T262 198T311 165T373 153Q417 153 459 172T534 226T587 304T608 400Q608 437 597 467T565 518T516 550T454 562Q410 562 368 543T292 491T239 414T219 318ZM33 307Q33 392 68 468T162 602T300 693T468 727Q541 727 601 704T704 639T771 539T795 412Q795 326 760 250T664 115T525 22T358 -12Q286 -12 226 12T124 78T57 179T33 307Z"  />
<glyph unicode="&#xD6;" horiz-adv-x="804" d="M340 911H452L425 771H313L340 911ZM543 911H655L628 771H516L543 911ZM219 318Q219 280 230 250T262 198T311 165T373 153Q417 153 459 172T534 226T587 304T608 400Q608 437 597 467T565 518T516 550T454 562Q410 562 368 543T292 491T239 414T219 318ZM33 307Q33 392 68 468T162 602T300 693T468 727Q541 727 601 704T704 639T771 539T795 412Q795 326 760 250T664 115T525 22T358 -12Q286 -12 226 12T124 78T57 179T33 307Z"  />
<glyph unicode="&#xD7;" horiz-adv-x="689" d="M254 287L72 483L164 575L343 383L523 575L615 483L432 287L615 92L523 0L343 192L164 0L72 92L254 287Z"  />
<glyph unicode="&#xD8;" horiz-adv-x="804" d="M296 171Q329 153 373 153Q417 153 459 172T534 226T587 304T608 400Q608 426 603 448T587 488L296 171ZM532 543Q497 562 454 562Q410 562 368 543T292 491T239 414T219 318Q219 265 241 226L532 543ZM114 87Q75 129 54 185T33 307Q33 392 68 468T162 602T300 693T468 727Q522 727 569 714T655 676L716 743L777 696L714 628Q753 586 774 532T795 412Q795 326 760 250T664 115T525 22T358 -12Q304 -12 258 1T174 38L114 -28L53 20L114 87Z"  />
<glyph unicode="&#xD9;" horiz-adv-x="776" d="M329 911H479L535 761H421L329 911ZM84 220Q84 248 90 278L139 528Q142 543 142 547Q142 558 135 561T120 565H81L110 715H267Q306 715 323 701T341 658Q341 646 338 631L267 268Q264 251 264 238Q264 196 289 175T360 153Q411 153 448 182T497 268L570 642Q578 684 597 699T652 715H828L799 565H754Q734 565 730 543L672 248Q661 191 634 143T565 61T469 7T348 -12Q285 -12 236 5T154 54T102 127T84 220Z"  />
<glyph unicode="&#xDA;" horiz-adv-x="776" d="M526 911H685L540 761H416L526 911ZM84 220Q84 248 90 278L139 528Q142 543 142 547Q142 558 135 561T120 565H81L110 715H267Q306 715 323 701T341 658Q341 646 338 631L267 268Q264 251 264 238Q264 196 289 175T360 153Q411 153 448 182T497 268L570 642Q578 684 597 699T652 715H828L799 565H754Q734 565 730 543L672 248Q661 191 634 143T565 61T469 7T348 -12Q285 -12 236 5T154 54T102 127T84 220Z"  />
<glyph unicode="&#xDB;" horiz-adv-x="776" d="M434 911H574L644 761H526L495 843H493L430 761H307L434 911ZM84 220Q84 248 90 278L139 528Q142 543 142 547Q142 558 135 561T120 565H81L110 715H267Q306 715 323 701T341 658Q341 646 338 631L267 268Q264 251 264 238Q264 196 289 175T360 153Q411 153 448 182T497 268L570 642Q578 684 597 699T652 715H828L799 565H754Q734 565 730 543L672 248Q661 191 634 143T565 61T469 7T348 -12Q285 -12 236 5T154 54T102 127T84 220Z"  />
<glyph unicode="&#xDC;" horiz-adv-x="776" d="M332 911H444L417 771H305L332 911ZM535 911H647L620 771H508L535 911ZM84 220Q84 248 90 278L139 528Q142 543 142 547Q142 558 135 561T120 565H81L110 715H267Q306 715 323 701T341 658Q341 646 338 631L267 268Q264 251 264 238Q264 196 289 175T360 153Q411 153 448 182T497 268L570 642Q578 684 597 699T652 715H828L799 565H754Q734 565 730 543L672 248Q661 191 634 143T565 61T469 7T348 -12Q285 -12 236 5T154 54T102 127T84 220Z"  />
<glyph unicode="&#xDD;" horiz-adv-x="630" d="M446 911H605L460 761H336L446 911ZM227 313L120 543Q110 565 83 565H59L88 715H168Q201 715 220 707T255 667L311 544Q317 530 322 516T331 490Q335 476 339 464H341Q349 476 358 490Q366 501 375 515T395 544L490 667Q512 696 535 705T585 715H701L672 565H643Q630 565 622 560T605 546L406 313L345 0H166L227 313Z"  />
<glyph unicode="&#xDE;" horiz-adv-x="618" d="M328 265Q352 265 372 274T406 301T428 341T436 390Q436 422 419 440T368 459H298L261 265H328ZM136 543Q138 551 134 558T118 565H75L104 715H275Q337 715 337 666Q337 655 334 642L327 609H415Q463 609 501 594T566 552T607 486T622 403Q622 341 599 289T537 198T447 137T339 115H231L209 0H30L136 543Z"  />
<glyph unicode="&#xDF;" horiz-adv-x="647" d="M-3 145H26Q47 145 52 167L124 537Q133 584 159 619T221 679T302 715T391 727Q437 727 477 715T546 681T593 628T610 558Q610 514 594 487T558 439T522 404T505 369Q505 348 520 330T553 292T587 246T602 185Q602 144 584 109T536 48T468 8T387 -7Q353 -7 328 -4T286 3Q266 7 252 14L280 153Q291 149 305 145Q317 142 334 140T371 137Q380 137 390 139T409 146T423 161T429 184Q429 205 414 222T379 259T345 302T329 356Q329 394 345 421T382 468T419 505T436 541Q436 560 423 571T383 583Q352 583 327 569T293 515L207 73Q199 35 179 18T120 0H-31L-3 145Z"  />
<glyph unicode="&#xE0;" horiz-adv-x="571" d="M174 715H324L380 565H266L174 715ZM162 152Q162 134 172 123T200 112Q217 112 235 121T269 144T296 176T311 209L314 223H298Q234 223 198 204T162 152ZM-10 126Q-10 175 15 211T86 272T192 308T324 320H331L333 330Q334 335 335 341T336 354Q336 372 322 384T277 397Q235 397 230 372L225 349H65L76 406Q83 440 104 463T155 501T222 521T300 527Q409 527 459 488T509 373Q509 347 503 319L476 180Q473 166 473 160Q473 145 492 145H530L501 0H359Q327 0 315 13T302 43Q302 50 304 60T308 80H306Q289 54 265 34Q244 17 213 3T140 -12Q107 -12 80 -3T32 25T1 68T-10 126Z"  />
<glyph unicode="&#xE1;" horiz-adv-x="571" d="M371 715H530L385 565H261L371 715ZM162 152Q162 134 172 123T200 112Q217 112 235 121T269 144T296 176T311 209L314 223H298Q234 223 198 204T162 152ZM-10 126Q-10 175 15 211T86 272T192 308T324 320H331L333 330Q334 335 335 341T336 354Q336 372 322 384T277 397Q235 397 230 372L225 349H65L76 406Q83 440 104 463T155 501T222 521T300 527Q409 527 459 488T509 373Q509 347 503 319L476 180Q473 166 473 160Q473 145 492 145H530L501 0H359Q327 0 315 13T302 43Q302 50 304 60T308 80H306Q289 54 265 34Q244 17 213 3T140 -12Q107 -12 80 -3T32 25T1 68T-10 126Z"  />
<glyph unicode="&#xE2;" horiz-adv-x="571" d="M279 715H419L489 565H371L340 647H338L275 565H152L279 715ZM162 152Q162 134 172 123T200 112Q217 112 235 121T269 144T296 176T311 209L314 223H298Q234 223 198 204T162 152ZM-10 126Q-10 175 15 211T86 272T192 308T324 320H331L333 330Q334 335 335 341T336 354Q336 372 322 384T277 397Q235 397 230 372L225 349H65L76 406Q83 440 104 463T155 501T222 521T300 527Q409 527 459 488T509 373Q509 347 503 319L476 180Q473 166 473 160Q473 145 492 145H530L501 0H359Q327 0 315 13T302 43Q302 50 304 60T308 80H306Q289 54 265 34Q244 17 213 3T140 -12Q107 -12 80 -3T32 25T1 68T-10 126Z"  />
<glyph unicode="&#xE3;" horiz-adv-x="571" d="M117 565Q124 609 139 638T175 685T218 710T266 718Q297 718 315 709T346 688T368 668T396 658Q414 658 428 672T448 715H549Q541 671 526 642T491 595T448 570T400 562Q368 562 350 571T320 592T297 612T270 622Q252 622 238 608T218 565H117ZM162 152Q162 134 172 123T200 112Q217 112 235 121T269 144T296 176T311 209L314 223H298Q234 223 198 204T162 152ZM-10 126Q-10 175 15 211T86 272T192 308T324 320H331L333 330Q334 335 335 341T336 354Q336 372 322 384T277 397Q235 397 230 372L225 349H65L76 406Q83 440 104 463T155 501T222 521T300 527Q409 527 459 488T509 373Q509 347 503 319L476 180Q473 166 473 160Q473 145 492 145H530L501 0H359Q327 0 315 13T302 43Q302 50 304 60T308 80H306Q289 54 265 34Q244 17 213 3T140 -12Q107 -12 80 -3T32 25T1 68T-10 126Z"  />
<glyph unicode="&#xE4;" horiz-adv-x="571" d="M177 715H289L262 575H150L177 715ZM380 715H492L465 575H353L380 715ZM162 152Q162 134 172 123T200 112Q217 112 235 121T269 144T296 176T311 209L314 223H298Q234 223 198 204T162 152ZM-10 126Q-10 175 15 211T86 272T192 308T324 320H331L333 330Q334 335 335 341T336 354Q336 372 322 384T277 397Q235 397 230 372L225 349H65L76 406Q83 440 104 463T155 501T222 521T300 527Q409 527 459 488T509 373Q509 347 503 319L476 180Q473 166 473 160Q473 145 492 145H530L501 0H359Q327 0 315 13T302 43Q302 50 304 60T308 80H306Q289 54 265 34Q244 17 213 3T140 -12Q107 -12 80 -3T32 25T1 68T-10 126Z"  />
<glyph unicode="&#xE5;" horiz-adv-x="571" d="M329 601Q346 601 359 613T372 644Q372 672 343 672Q326 672 314 660T301 627Q301 601 329 601ZM324 551Q307 551 291 555T261 569T241 591T233 624Q233 649 243 667T270 698T307 716T347 722Q364 722 380 718T410 704T431 680T439 646Q439 621 428 603T401 574T364 557T324 551ZM162 152Q162 134 172 123T200 112Q217 112 235 121T269 144T296 176T311 209L314 223H298Q234 223 198 204T162 152ZM-10 126Q-10 175 15 211T86 272T192 308T324 320H331L333 330Q334 335 335 341T336 354Q336 372 322 384T277 397Q235 397 230 372L225 349H65L76 406Q83 440 104 463T155 501T222 521T300 527Q409 527 459 488T509 373Q509 347 503 319L476 180Q473 166 473 160Q473 145 492 145H530L501 0H359Q327 0 315 13T302 43Q302 50 304 60T308 80H306Q289 54 265 34Q244 17 213 3T140 -12Q107 -12 80 -3T32 25T1 68T-10 126Z"  />
<glyph unicode="&#xE6;" horiz-adv-x="847" d="M165 153Q165 139 175 130T207 120Q224 120 241 128T272 150T296 179T309 211L311 223H295Q281 223 259 221T216 211T180 190T165 153ZM652 320V327Q652 330 652 333T653 341Q653 365 639 381T598 397Q560 397 536 375T500 320H652ZM-9 131Q-9 170 6 199T48 249T107 284T176 306T245 317T309 320H329Q332 338 332 347Q332 373 316 385T277 397Q260 397 245 392T227 372L222 349H62L73 406Q80 445 104 468T161 505T230 522T300 527Q341 527 379 514T446 474H448Q482 499 520 513T601 527Q656 527 697 512T765 471T807 407T821 325Q821 307 818 289T811 257Q807 240 802 224H479Q478 223 478 221V214Q478 175 507 151T582 127Q610 127 637 135T685 153Q710 164 731 179L775 55Q748 36 715 21Q687 8 649 -2T567 -12Q491 -12 438 12T353 79H351Q347 72 335 57T300 27T243 0T162 -12Q129 -12 98 -2T43 27T5 72T-9 131Z"  />
<glyph unicode="&#xE7;" horiz-adv-x="553" d="M185 0Q142 12 110 35T57 88T26 153T15 227Q15 283 37 337T100 433T200 501T332 527Q362 527 400 521T471 500T522 457T532 386L522 335H375L377 344Q381 363 366 374T322 385Q290 385 266 372T225 339T199 293T190 243Q190 225 195 206T214 172T250 146T304 136Q336 136 363 144T410 164Q433 176 452 192L496 60Q475 40 443 24Q416 10 376 -1T282 -12Q276 -12 271 -12T259 -11L248 -37Q257 -39 268 -43T288 -56T304 -77T311 -107Q311 -137 298 -156T266 -188T223 -205T178 -210Q162 -210 149 -209T126 -206Q115 -204 104 -201L121 -114Q127 -117 134 -119Q147 -124 164 -124Q181 -124 193 -118T206 -97Q206 -86 196 -82T171 -78Q166 -78 162 -78T153 -79Q149 -80 144 -80L185 0Z"  />
<glyph unicode="&#xE8;" horiz-adv-x="556" d="M188 715H338L394 565H280L188 715ZM361 321Q361 325 362 329Q362 332 362 335T363 341Q363 365 349 381T308 397Q270 397 246 375T209 321H361ZM14 213Q14 280 36 337T98 437T192 503T311 527Q366 527 407 512T475 471T517 407T531 325Q531 307 528 290T521 258Q517 241 512 226H188Q187 225 187 223V216Q187 177 214 154T288 131Q316 131 343 139T393 157Q419 168 441 183L485 55Q458 36 425 21Q397 8 359 -2T277 -12Q211 -12 162 6T80 55T31 127T14 213Z"  />
<glyph unicode="&#xE9;" horiz-adv-x="556" d="M385 715H544L399 565H275L385 715ZM361 321Q361 325 362 329Q362 332 362 335T363 341Q363 365 349 381T308 397Q270 397 246 375T209 321H361ZM14 213Q14 280 36 337T98 437T192 503T311 527Q366 527 407 512T475 471T517 407T531 325Q531 307 528 290T521 258Q517 241 512 226H188Q187 225 187 223V216Q187 177 214 154T288 131Q316 131 343 139T393 157Q419 168 441 183L485 55Q458 36 425 21Q397 8 359 -2T277 -12Q211 -12 162 6T80 55T31 127T14 213Z"  />
<glyph unicode="&#xEA;" horiz-adv-x="556" d="M293 715H433L503 565H385L354 647H352L289 565H166L293 715ZM361 321Q361 325 362 329Q362 332 362 335T363 341Q363 365 349 381T308 397Q270 397 246 375T209 321H361ZM14 213Q14 280 36 337T98 437T192 503T311 527Q366 527 407 512T475 471T517 407T531 325Q531 307 528 290T521 258Q517 241 512 226H188Q187 225 187 223V216Q187 177 214 154T288 131Q316 131 343 139T393 157Q419 168 441 183L485 55Q458 36 425 21Q397 8 359 -2T277 -12Q211 -12 162 6T80 55T31 127T14 213Z"  />
<glyph unicode="&#xEB;" horiz-adv-x="556" d="M191 715H303L276 575H164L191 715ZM394 715H506L479 575H367L394 715ZM361 321Q361 325 362 329Q362 332 362 335T363 341Q363 365 349 381T308 397Q270 397 246 375T209 321H361ZM14 213Q14 280 36 337T98 437T192 503T311 527Q366 527 407 512T475 471T517 407T531 325Q531 307 528 290T521 258Q517 241 512 226H188Q187 225 187 223V216Q187 177 214 154T288 131Q316 131 343 139T393 157Q419 168 441 183L485 55Q458 36 425 21Q397 8 359 -2T277 -12Q211 -12 162 6T80 55T31 127T14 213Z"  />
<glyph unicode="&#xEC;" horiz-adv-x="338" d="M61 715H211L267 565H153L61 715ZM36 54Q36 59 36 63T38 73L89 332Q92 347 92 353Q92 370 74 370H36L64 515H219Q285 515 285 462Q285 456 284 448T281 432L231 175Q229 165 229 161Q229 145 246 145H284L256 0H102Q69 0 53 14T36 54Z"  />
<glyph unicode="&#xED;" horiz-adv-x="338" d="M258 715H417L272 565H148L258 715ZM36 54Q36 59 36 63T38 73L89 332Q92 347 92 353Q92 370 74 370H36L64 515H219Q285 515 285 462Q285 456 284 448T281 432L231 175Q229 165 229 161Q229 145 246 145H284L256 0H102Q69 0 53 14T36 54Z"  />
<glyph unicode="&#xEE;" horiz-adv-x="338" d="M166 715H306L376 565H258L227 647H225L162 565H39L166 715ZM36 54Q36 59 36 63T38 73L89 332Q92 347 92 353Q92 370 74 370H36L64 515H219Q285 515 285 462Q285 456 284 448T281 432L231 175Q229 165 229 161Q229 145 246 145H284L256 0H102Q69 0 53 14T36 54Z"  />
<glyph unicode="&#xEF;" horiz-adv-x="338" d="M64 715H176L149 575H37L64 715ZM267 715H379L352 575H240L267 715ZM36 54Q36 59 36 63T38 73L89 332Q92 347 92 353Q92 370 74 370H36L64 515H219Q285 515 285 462Q285 456 284 448T281 432L231 175Q229 165 229 161Q229 145 246 145H284L256 0H102Q69 0 53 14T36 54Z"  />
<glyph unicode="&#xF0;" horiz-adv-x="580" d="M185 204Q185 174 199 153T251 132Q278 132 300 144T337 177T360 221T369 269Q369 298 352 315T299 332Q270 332 249 321T213 292T192 251T185 204ZM10 202Q10 251 30 298T86 382T174 441T289 464Q303 464 317 462T342 456Q354 452 365 448H367Q359 467 340 490T298 531L94 454L110 532L226 575Q203 587 175 598T126 614L196 738Q252 724 308 699T407 643L583 709L568 631L461 591Q501 545 527 483T553 347Q553 295 537 233T484 116T390 25T250 -12Q190 -12 145 5T70 51T25 119T10 202Z"  />
<glyph unicode="&#xF1;" horiz-adv-x="670" d="M186 565Q193 609 208 638T244 685T287 710T335 718Q366 718 384 709T415 688T437 668T465 658Q483 658 497 672T517 715H618Q610 671 595 642T560 595T517 570T469 562Q437 562 419 571T389 592T366 612T339 622Q321 622 307 608T287 565H186ZM88 338Q90 346 90 353Q90 360 87 365T72 370H34L62 515H216Q246 515 260 501T275 463Q275 453 273 445T269 429H271Q283 444 300 461T340 493T393 517T457 527Q488 527 515 519T562 492T594 447T606 382Q606 355 600 321L572 175Q570 165 570 161Q570 145 587 145H625L597 0H442Q409 0 393 14T376 54Q376 59 376 63T378 73L423 302Q424 307 424 313T425 324Q425 343 416 356T377 370Q351 370 329 358T288 325T258 280T240 228L195 0H22L88 338Z"  />
<glyph unicode="&#xF2;" horiz-adv-x="633" d="M218 715H368L424 565H310L218 715ZM188 227Q188 182 215 157T285 132Q311 132 337 142T383 173T417 221T430 285Q430 331 403 357T334 383Q308 383 282 372T235 341T201 291T188 227ZM13 219Q13 287 40 343T114 441T221 504T346 527Q402 527 449 511T531 464T585 391T605 296Q605 228 577 171T503 74T397 11T272 -12Q216 -12 169 4T87 51T33 123T13 219Z"  />
<glyph unicode="&#xF3;" horiz-adv-x="633" d="M415 715H574L429 565H305L415 715ZM188 227Q188 182 215 157T285 132Q311 132 337 142T383 173T417 221T430 285Q430 331 403 357T334 383Q308 383 282 372T235 341T201 291T188 227ZM13 219Q13 287 40 343T114 441T221 504T346 527Q402 527 449 511T531 464T585 391T605 296Q605 228 577 171T503 74T397 11T272 -12Q216 -12 169 4T87 51T33 123T13 219Z"  />
<glyph unicode="&#xF4;" horiz-adv-x="633" d="M323 715H463L533 565H415L384 647H382L319 565H196L323 715ZM188 227Q188 182 215 157T285 132Q311 132 337 142T383 173T417 221T430 285Q430 331 403 357T334 383Q308 383 282 372T235 341T201 291T188 227ZM13 219Q13 287 40 343T114 441T221 504T346 527Q402 527 449 511T531 464T585 391T605 296Q605 228 577 171T503 74T397 11T272 -12Q216 -12 169 4T87 51T33 123T13 219Z"  />
<glyph unicode="&#xF5;" horiz-adv-x="633" d="M161 565Q168 609 183 638T219 685T262 710T310 718Q341 718 359 709T390 688T412 668T440 658Q458 658 472 672T492 715H593Q585 671 570 642T535 595T492 570T444 562Q412 562 394 571T364 592T341 612T314 622Q296 622 282 608T262 565H161ZM188 227Q188 182 215 157T285 132Q311 132 337 142T383 173T417 221T430 285Q430 331 403 357T334 383Q308 383 282 372T235 341T201 291T188 227ZM13 219Q13 287 40 343T114 441T221 504T346 527Q402 527 449 511T531 464T585 391T605 296Q605 228 577 171T503 74T397 11T272 -12Q216 -12 169 4T87 51T33 123T13 219Z"  />
<glyph unicode="&#xF6;" horiz-adv-x="633" d="M221 715H333L306 575H194L221 715ZM424 715H536L509 575H397L424 715ZM188 227Q188 182 215 157T285 132Q311 132 337 142T383 173T417 221T430 285Q430 331 403 357T334 383Q308 383 282 372T235 341T201 291T188 227ZM13 219Q13 287 40 343T114 441T221 504T346 527Q402 527 449 511T531 464T585 391T605 296Q605 228 577 171T503 74T397 11T272 -12Q216 -12 169 4T87 51T33 123T13 219Z"  />
<glyph unicode="&#xF7;" horiz-adv-x="630" d="M240 135H386V0H240V135ZM40 352H586V222H40V352ZM240 575H386V440H240V575Z"  />
<glyph unicode="&#xF8;" horiz-adv-x="629" d="M250 137Q256 135 265 134T283 132Q309 132 334 142T380 173T413 221T426 285Q426 293 424 302T419 319L250 137ZM372 374Q364 378 353 380T332 383Q306 383 281 372T235 341T201 291T188 227Q188 216 191 206T197 187L372 374ZM78 60Q49 90 31 130T13 219Q13 287 40 343T113 441T216 504T334 527Q375 527 413 518T482 493L542 557L598 511L540 449Q567 420 584 381T601 296Q601 228 574 171T501 74T398 11T280 -12Q241 -12 205 -4T139 18L77 -48L21 -1L78 60Z"  />
<glyph unicode="&#xF9;" horiz-adv-x="676" d="M241 715H391L447 565H333L241 715ZM58 133Q58 159 64 194L92 340Q94 350 94 354Q94 370 77 370H39L67 515H222Q255 515 271 501T288 461Q288 456 288 452T286 442L241 213Q240 208 240 202T239 191Q239 172 247 159T282 145Q308 145 330 157T371 190T401 235T419 287L464 515H637L571 177Q569 169 569 162Q569 155 572 150T587 145H625L597 0H443Q413 0 399 14T384 52Q384 62 386 70T390 86H388Q376 71 359 54T318 22T266 -2T202 -12Q172 -12 146 -4T101 23T70 68T58 133Z"  />
<glyph unicode="&#xFA;" horiz-adv-x="676" d="M438 715H597L452 565H328L438 715ZM58 133Q58 159 64 194L92 340Q94 350 94 354Q94 370 77 370H39L67 515H222Q255 515 271 501T288 461Q288 456 288 452T286 442L241 213Q240 208 240 202T239 191Q239 172 247 159T282 145Q308 145 330 157T371 190T401 235T419 287L464 515H637L571 177Q569 169 569 162Q569 155 572 150T587 145H625L597 0H443Q413 0 399 14T384 52Q384 62 386 70T390 86H388Q376 71 359 54T318 22T266 -2T202 -12Q172 -12 146 -4T101 23T70 68T58 133Z"  />
<glyph unicode="&#xFB;" horiz-adv-x="676" d="M346 715H486L556 565H438L407 647H405L342 565H219L346 715ZM58 133Q58 159 64 194L92 340Q94 350 94 354Q94 370 77 370H39L67 515H222Q255 515 271 501T288 461Q288 456 288 452T286 442L241 213Q240 208 240 202T239 191Q239 172 247 159T282 145Q308 145 330 157T371 190T401 235T419 287L464 515H637L571 177Q569 169 569 162Q569 155 572 150T587 145H625L597 0H443Q413 0 399 14T384 52Q384 62 386 70T390 86H388Q376 71 359 54T318 22T266 -2T202 -12Q172 -12 146 -4T101 23T70 68T58 133Z"  />
<glyph unicode="&#xFC;" horiz-adv-x="676" d="M244 715H356L329 575H217L244 715ZM447 715H559L532 575H420L447 715ZM58 133Q58 159 64 194L92 340Q94 350 94 354Q94 370 77 370H39L67 515H222Q255 515 271 501T288 461Q288 456 288 452T286 442L241 213Q240 208 240 202T239 191Q239 172 247 159T282 145Q308 145 330 157T371 190T401 235T419 287L464 515H637L571 177Q569 169 569 162Q569 155 572 150T587 145H625L597 0H443Q413 0 399 14T384 52Q384 62 386 70T390 86H388Q376 71 359 54T318 22T266 -2T202 -12Q172 -12 146 -4T101 23T70 68T58 133Z"  />
<glyph unicode="&#xFD;" horiz-adv-x="569" d="M376 715H535L390 565H266L376 715ZM57 -210Q26 -210 0 -202T-45 -183Q-67 -171 -85 -155L-17 -33Q-16 -34 -11 -39T3 -51T27 -63T60 -68Q81 -68 101 -58T142 -15L153 2L60 354Q57 364 54 367T41 370H22L50 515H169Q213 515 221 473L256 265Q258 254 259 240T260 214V185H262Q268 199 273 214Q278 226 283 240T294 265L392 473Q401 493 421 504T461 515H597L569 370H550Q541 370 535 367T523 354L283 -61Q259 -103 231 -131T174 -177T115 -202T57 -210Z"  />
<glyph unicode="&#xFE;" horiz-adv-x="632" d="M218 222Q218 184 237 158T298 131Q320 131 343 141T385 172T415 222T427 290Q427 332 406 356T347 381Q327 381 305 371T263 340T231 290T218 222ZM108 532Q111 547 111 553Q111 570 93 570H55L83 715H238Q304 715 304 662Q304 656 303 648T300 632L282 541Q280 530 277 519T272 498Q269 487 266 477H268Q295 501 331 514T403 527Q449 527 486 511T549 466T588 396T602 303Q602 233 578 175T514 76T424 11T320 -12Q281 -12 246 1T185 42H183Q182 37 181 30Q180 24 179 16T176 -2L139 -200H-34L108 532Z"  />
<glyph unicode="&#xFF;" horiz-adv-x="569" d="M182 715H294L267 575H155L182 715ZM385 715H497L470 575H358L385 715ZM57 -210Q26 -210 0 -202T-45 -183Q-67 -171 -85 -155L-17 -33Q-16 -34 -11 -39T3 -51T27 -63T60 -68Q81 -68 101 -58T142 -15L153 2L60 354Q57 364 54 367T41 370H22L50 515H169Q213 515 221 473L256 265Q258 254 259 240T260 214V185H262Q268 199 273 214Q278 226 283 240T294 265L392 473Q401 493 421 504T461 515H597L569 370H550Q541 370 535 367T523 354L283 -61Q259 -103 231 -131T174 -177T115 -202T57 -210Z"  />
<glyph unicode="&#x152;" horiz-adv-x="999" d="M214 313Q214 274 226 242T259 186T311 149T379 136Q412 136 432 139Q443 141 453 143L535 572Q527 573 516 575Q507 577 495 578T465 579Q417 579 372 558T292 501T235 417T214 313ZM32 306Q32 391 68 467T164 600T300 690T458 723Q491 723 513 722T552 719T585 716T623 715H935Q974 715 991 701T1009 658Q1009 646 1006 631L981 504H821L826 528Q828 536 828 540T829 549Q829 559 822 562T807 565H714L689 435H893L863 285H659L640 187Q637 173 637 166Q637 150 656 150H754Q775 150 780 172L788 211H948L920 68Q913 33 894 17T839 0H499Q482 0 469 -1T441 -4T408 -7T365 -8Q292 -8 231 15T126 81T57 180T32 306Z"  />
<glyph unicode="&#x153;" horiz-adv-x="965" d="M188 227Q188 182 214 157T283 132Q309 132 334 142T380 173T413 221T426 285Q426 331 400 357T332 383Q303 383 277 372T231 341T200 291T188 227ZM770 323V330Q770 333 770 336T771 341Q771 365 757 381T716 397Q678 397 654 376T618 323H770ZM13 219Q13 287 39 343T109 441T212 504T334 527Q394 527 443 506T527 447H529Q567 485 615 506T719 527Q774 527 815 512T883 471T925 407T939 325Q939 307 936 289T929 257Q925 240 920 224H596Q595 223 595 221V214Q595 177 622 155T696 132Q724 132 751 140T801 158Q827 169 849 184L893 55Q866 36 833 21Q805 8 767 -2T685 -12Q616 -12 568 10T486 71H484Q440 30 387 9T280 -12Q222 -12 173 4T89 51T33 123T13 219Z"  />
<glyph unicode="&#x160;" horiz-adv-x="575" d="M245 911H361L392 829H394L457 911H582L454 761H314L245 911ZM101 223Q119 202 143 185Q163 171 193 159T262 147Q307 147 328 163T349 202Q349 224 329 240T278 271T212 303T146 346T96 408T75 498Q75 553 97 595T157 667T244 711T347 727Q386 727 426 719T498 694T551 653T572 596Q572 577 567 552L555 494H400L403 509Q404 513 405 518T406 529Q406 549 388 558T342 567Q301 567 278 551T255 511Q255 488 275 473T326 444T392 415T458 375T509 315T530 225Q530 176 512 133T458 58T373 7T258 -12Q191 -12 142 5T59 45Q20 71 -7 103L101 223Z"  />
<glyph unicode="&#x161;" horiz-adv-x="492" d="M161 715H277L308 633H310L373 715H498L370 565H230L161 715ZM63 188Q82 168 106 153Q126 140 154 130T214 119Q260 119 260 147Q260 165 240 174T197 192Q171 201 144 213T95 245T58 291T43 358Q43 404 63 436T116 488T189 517T271 527Q310 527 348 520T415 496T460 455T469 394L460 349H314L316 360Q320 379 306 388T266 398Q243 398 230 390T216 367Q216 356 224 349T244 336T270 326T297 316Q321 307 346 296T391 267T425 225T438 164Q438 122 420 89T370 34T298 0T211 -12Q156 -12 115 1T44 32Q11 51 -14 77L63 188Z"  />
<glyph unicode="&#x178;" horiz-adv-x="630" d="M252 911H364L337 771H225L252 911ZM455 911H567L540 771H428L455 911ZM227 313L120 543Q110 565 83 565H59L88 715H168Q201 715 220 707T255 667L311 544Q317 530 322 516T331 490Q335 476 339 464H341Q349 476 358 490Q366 501 375 515T395 544L490 667Q512 696 535 705T585 715H701L672 565H643Q630 565 622 560T605 546L406 313L345 0H166L227 313Z"  />
<glyph unicode="&#x17D;" horiz-adv-x="626" d="M270 911H386L417 829H419L482 911H607L479 761H339L270 911ZM-10 110L326 501Q337 515 349 526T372 547Q383 558 394 566V568Q387 567 378 566Q370 565 361 565T339 565H263Q241 565 237 543L229 504H69L96 642Q104 680 124 697T183 715H658L637 607L295 214Q282 200 271 189T249 168Q238 157 227 149V147Q233 147 242 148Q250 149 260 149T282 150H382Q404 150 408 172L416 211H576L549 73Q541 35 521 18T462 0H-31L-10 110Z"  />
<glyph unicode="&#x17E;" horiz-adv-x="541" d="M196 715H312L343 633H345L408 715H533L405 565H265L196 715ZM-5 101L233 328Q246 341 258 351T279 369Q290 378 298 384V386Q290 385 283 385Q277 384 271 384T259 384H213Q192 384 187 362L180 327H40L62 442Q70 480 91 497T150 515H544L525 413L286 186Q272 173 260 163T239 146Q228 137 220 131V129Q226 129 234 130Q241 131 250 131T273 132H321Q332 132 338 139T347 157L353 188H493L471 73Q463 35 442 18T383 0H-25L-5 101Z"  />
<glyph unicode="&#x192;" horiz-adv-x="447" d="M0 -56Q-13 -56 -24 -56T-43 -55Q-53 -54 -62 -53L-21 93Q-18 92 -14 92Q-10 91 -5 91T6 91Q18 91 33 93T64 102T91 121T109 155L152 310H90L117 445H191L218 542Q234 600 266 634T337 688T417 713T493 719Q505 719 516 719T536 717Q546 716 555 716L514 570Q510 570 506 571Q502 571 498 571T487 572Q475 572 460 570T429 562T401 542T382 508L364 445H459L432 310H325L273 126Q256 64 222 28T149 -27T70 -51T0 -56Z"  />
<glyph unicode="&#x2C6;" horiz-adv-x="525" d="M204 911H344L414 761H296L265 843H263L200 761H77L204 911Z"  />
<glyph unicode="&#x2C9;" horiz-adv-x="471" d="M107 889H382L361 782H86L107 889Z"  />
<glyph unicode="&#x2DC;" horiz-adv-x="592" d="M86 761Q93 805 108 834T144 881T187 906T235 914Q266 914 284 905T315 884T337 864T365 854Q383 854 397 868T417 911H518Q510 867 495 838T460 791T417 766T369 758Q337 758 319 767T289 788T266 808T239 818Q221 818 207 804T187 761H86Z"  />
<glyph unicode="&#x3BC;" horiz-adv-x="706" d="M102 340Q104 349 103 359T87 370H49L77 515H232Q265 515 281 501T298 461Q298 456 298 452T296 442L251 213Q250 208 250 202T249 191Q249 172 257 159T292 145Q318 145 340 157T381 190T411 235T429 287L474 515H647L581 177Q579 169 579 162Q579 155 582 150T597 145H635L607 0H453Q423 0 409 14T394 52Q394 62 396 70T400 86H398Q386 71 369 54T328 22T276 -2T212 -12Q193 -12 173 -7H171Q171 -22 170 -37Q169 -50 168 -65T164 -96L144 -200H-3L102 340Z"  />
<glyph unicode="&#x2013;" horiz-adv-x="705" d="M64 352H660L635 222H39L64 352Z"  />
<glyph unicode="&#x2014;" horiz-adv-x="905" d="M64 352H860L835 222H39L64 352Z"  />
<glyph unicode="&#x2018;" horiz-adv-x="250" d="M199 730H311L208 475H61L199 730Z"  />
<glyph unicode="&#x2019;" horiz-adv-x="243" d="M170 730H317L179 475H67L170 730Z"  />
<glyph unicode="&#x201A;" horiz-adv-x="265" d="M50 166H197L59 -89H-53L50 166Z"  />
<glyph unicode="&#x201C;" horiz-adv-x="442" d="M199 730H311L208 475H61L199 730ZM391 730H503L400 475H253L391 730Z"  />
<glyph unicode="&#x201D;" horiz-adv-x="435" d="M170 730H317L179 475H67L170 730ZM362 730H509L371 475H259L362 730Z"  />
<glyph unicode="&#x201E;" horiz-adv-x="457" d="M50 166H197L59 -89H-53L50 166ZM242 166H389L251 -89H139L242 166Z"  />
<glyph unicode="&#x2020;" horiz-adv-x="497" d="M182 385H52L77 515H207L246 715H411L372 515H503L478 385H347L262 -50H97L182 385Z"  />
<glyph unicode="&#x2021;" horiz-adv-x="510" d="M143 150H14L38 280H168L189 385H59L84 515H214L253 715H418L379 515H510L485 385H354L333 280H464L439 150H308L269 -50H104L143 150Z"  />
<glyph unicode="&#x2022;" horiz-adv-x="458" d="M228 105Q189 105 156 119T97 159T57 218T42 291Q42 330 56 363T96 422T155 462T228 477Q267 477 300 463T359 423T399 364T414 291Q414 252 400 219T360 160T301 120T228 105Z"  />
<glyph unicode="&#x2026;" horiz-adv-x="912" d="M27 164H185L154 0H-4L27 164ZM351 164H509L478 0H320L351 164ZM675 164H833L802 0H644L675 164Z"  />
<glyph unicode="&#x2030;" horiz-adv-x="1290" d="M587 151Q587 132 600 120T637 108Q660 108 679 125T699 169Q699 188 686 200T649 213Q637 213 626 208T607 194T593 174T587 151ZM991 151Q991 132 1004 120T1041 108Q1064 108 1083 125T1103 169Q1103 188 1090 200T1053 213Q1041 213 1030 208T1011 194T997 174T991 151ZM459 142Q459 179 475 213T518 274T582 317T661 333Q698 333 728 321T781 288T815 237T827 175Q827 137 810 104T764 44T699 3T624 -12Q587 -12 557 -1T505 31T471 80T459 142ZM863 142Q863 179 879 213T922 274T986 317T1065 333Q1102 333 1132 321T1185 288T1219 237T1231 175Q1231 137 1214 104T1168 44T1103 3T1028 -12Q991 -12 961 -1T909 31T875 80T863 142ZM269 502Q292 502 311 519T331 563Q331 582 318 594T281 607Q269 607 258 602T239 588T225 568T219 545Q219 526 232 514T269 502ZM715 715H874L200 0H41L715 715ZM256 382Q219 382 189 393T137 425T103 474T91 536Q91 573 107 607T150 668T214 711T293 727Q330 727 360 715T413 682T447 631T459 569Q459 531 442 498T396 438T331 397T256 382Z"  />
<glyph unicode="&#x2039;" horiz-adv-x="366" d="M9 282L200 488H364L162 275L292 77H139L9 282Z"  />
<glyph unicode="&#x203A;" horiz-adv-x="368" d="M200 290L70 488H223L353 283L162 77H-2L200 290Z"  />
<glyph unicode="&#x20AC;" horiz-adv-x="626" d="M45 323H100Q101 335 104 357T110 391H58L77 482H140Q165 536 203 581T289 658T393 709T512 727Q541 727 566 724T612 716Q634 711 653 705L586 565L561 570Q550 572 536 573T507 575Q399 575 336 482H553L514 391H293Q289 379 286 358T282 323H489L450 232H298Q329 143 435 143Q453 143 470 145T501 150Q517 154 532 158V5Q518 0 500 -4Q485 -7 465 -9T418 -12Q359 -12 307 5T215 53T146 130T107 232H26L45 323Z"  />
<glyph unicode="&#x2122;" horiz-adv-x="1113" d="M266 606H236Q230 606 230 600V571H124V671Q124 697 133 706T172 715H485Q513 715 522 706T532 671V571H430V600Q430 606 424 606H392V268H266V606ZM531 377H551Q559 377 559 384L586 715H704L777 540Q779 534 781 527T786 512Q788 504 790 496H792Q793 504 796 512Q798 519 800 526T805 540L878 715H996L1023 384Q1023 377 1031 377H1052V268H952Q925 268 914 275T900 312L892 442Q891 447 891 453T892 464Q892 469 893 474H891L840 349H742L691 474H689Q690 469 690 464V442L682 312Q680 283 669 276T630 268H531V377Z"  />
<glyph unicode="&#x2219;" horiz-adv-x="263" d="M67 377H225L194 213H36L67 377Z"  />

</font>
</defs>
</svg>
