<?xml  version="1.0" encoding="UTF-8"?>
<!DOCTYPE svg PUBLIC "-//W3C//DTD SVG 1.0//EN" "http://www.w3.org/TR/2001/REC-SVG-20010904/DTD/svg10.dtd" >
<svg xmlns="http://www.w3.org/2000/svg" >
<metadata>
<version>1.0</version>
<id><![CDATA[Corporate E W01 Medium]]></id>
<vendor>Monotype Imaging Inc.</vendor>
<credits>
<name>Fonts.com WebFonts</name>
<URL>http://webfonts.fonts.com</URL>
<role>Home of the Web fonts</role>
</credits>
<license>
<URL>http://webfonts.fonts.com/Legal</URL>
</license>
<copyright><![CDATA[Copyright 2009 by (URW)++ Design & Development GmbH]]></copyright>
<trademark><![CDATA[Please refer to the Copyright section for the font trademark attribution notices.]]></trademark>
<licensee>
<name></name>
</licensee>
</metadata>
<defs >
<font horiz-adv-x="493" id="6c126a85-bb93-4cee-ad24-2fef63c4d37f">
<font-face font-family="" panose-1="0 0 6 0 0 0 0 0 0 0" ascent="737" descent="-263" units-per-em="1000" alphabetic="0">
</font-face>
<missing-glyph horiz-adv-x="0" />

<glyph unicode="&#xA;" />
<glyph unicode="&#xD;" horiz-adv-x="0" />
<glyph unicode=" " horiz-adv-x="250" />
<glyph unicode="!" horiz-adv-x="210" d="M151 650L139 181H68L59 650H151ZM155 98V0H56V98H155Z"  />
<glyph unicode="&quot;" horiz-adv-x="298" d="M58 419L46 667H123L111 419H58ZM187 419L176 667H252L241 419H187Z"  />
<glyph unicode="#" horiz-adv-x="500" d="M467 212H367L333 0H255L289 212H168L134 0H59L93 212H-8L2 278H103L123 403H22L32 469H133L165 667H240L208 469H329L361 667H439L407 469H508L497 402H397L377 278H478L467 212ZM198 402L178 278H299L319 402H198Z"  />
<glyph unicode="$" horiz-adv-x="505" d="M276 746V675Q337 666 375 622V669H433V483H378Q375 594 276 612V388Q306 374 325 366T358 350T379 338T397 326Q463 275 463 181Q463 96 414 47T276 -7V-88H232V-6Q192 -1 163 13T107 57V0H45V212H107Q106 146 138 106T232 55V313Q207 324 190 332T160 346T138 359T120 371Q54 420 54 505Q54 580 100 625T232 675V746H276ZM276 55Q325 62 351 92T377 172Q377 231 331 264Q323 270 312 276T276 294V55ZM232 613Q184 607 158 582T132 515Q132 465 173 437Q182 431 194 424T232 406V613Z"  />
<glyph unicode="%" horiz-adv-x="599" d="M464 667H526L135 0H74L464 667ZM445 316Q472 316 496 304T537 269T565 218T575 154Q575 120 565 91T538 41T497 7T446 -5Q417 -5 393 7T352 41T324 92T314 157Q314 190 324 218T352 269T394 303T445 316ZM445 261Q415 261 396 231T376 156Q376 109 395 80T445 50Q475 50 494 79T513 155Q513 201 494 231T445 261ZM156 672Q183 672 207 660T248 625T276 574T286 510Q286 476 276 447T249 397T208 363T157 351Q129 351 105 363T63 397T35 448T25 513Q25 546 35 574T63 625T105 659T156 672ZM156 617Q127 617 108 587T88 512Q88 465 107 436T157 406Q186 406 205 435T224 511Q224 557 205 587T156 617Z"  />
<glyph unicode="&amp;" horiz-adv-x="548" d="M521 280H463Q463 174 422 122L464 59H534V0H403L366 55Q331 20 295 6T207 -8Q119 -8 68 39T16 167Q16 223 45 270T138 369Q115 401 102 423T80 462T70 493T67 525Q67 555 78 579T108 622T154 650T213 660Q276 660 314 625T353 531Q353 486 329 446T249 361L379 179Q390 195 395 216T403 279H352V338H521V280ZM204 424Q276 484 276 535Q276 562 259 578T214 595Q185 595 168 578T150 534Q150 513 161 490T204 424ZM183 309Q102 250 102 171Q102 120 133 89T217 58Q250 58 276 70T327 108L183 309Z"  />
<glyph unicode="&apos;" horiz-adv-x="169" d="M58 419L46 667H123L111 419H58Z"  />
<glyph unicode="(" horiz-adv-x="259" d="M244 670Q189 591 163 485T137 235Q137 93 163 -11T244 -197H179Q150 -159 132 -125T99 -47Q89 -19 82 15T69 85T61 160T58 235Q58 375 89 486T179 670H244Z"  />
<glyph unicode=")" horiz-adv-x="259" d="M14 -197Q69 -117 95 -12T121 238Q121 380 95 485T14 670H79Q108 632 126 598T159 520Q179 463 189 388T200 238Q200 98 170 -12T79 -197H14Z"  />
<glyph unicode="*" horiz-adv-x="500" d="M225 650H274V541L378 575L393 527L289 494L353 405L314 376L250 465L185 376L145 405L210 494L106 527L121 575L225 541V650Z"  />
<glyph unicode="+" horiz-adv-x="505" d="M217 365V550H289V365H469V297H289V112H217V297H36V365H217Z"  />
<glyph unicode="&#x2c;" horiz-adv-x="206" d="M163 112V0L84 -126H24L113 0H48V112H163Z"  />
<glyph unicode="-" horiz-adv-x="200" d="M200 283V233H0V283H200Z"  />
<glyph unicode="." horiz-adv-x="211" d="M161 112V0H49V112H161Z"  />
<glyph unicode="/" horiz-adv-x="354" d="M280 667H343L10 -162H-52L280 667Z"  />
<glyph unicode="0" horiz-adv-x="505" d="M253 659Q359 659 416 572T474 326Q474 166 417 79T253 -8Q147 -8 90 79T32 329Q32 407 47 468T90 571T160 636T253 659ZM253 595Q120 595 120 328Q120 56 253 56Q386 56 386 324Q386 595 253 595Z"  />
<glyph unicode="1" horiz-adv-x="505" d="M307 657V62H397V0H128V62H221V493H108V542Q171 544 201 570T241 657H307Z"  />
<glyph unicode="2" horiz-adv-x="505" d="M384 74V158H448V0H52V68Q105 122 150 174T233 278Q289 354 313 404T338 495Q338 537 310 563T237 589Q186 589 156 556T121 462H58Q60 555 110 607T249 659Q288 659 321 648T377 616T413 566T426 502Q426 454 401 400T314 268Q273 214 234 168T146 74H384Z"  />
<glyph unicode="3" horiz-adv-x="505" d="M191 385Q199 384 205 384T214 384Q274 384 307 413T341 494Q341 539 314 566T242 593Q194 593 166 564T133 481H64Q65 521 79 554T117 610T175 646T251 659Q290 659 322 648T377 615T412 565T425 499Q425 396 331 354Q452 318 452 194Q452 149 437 112T393 49T326 7T240 -8Q196 -8 160 5T99 41T59 98T44 170V184H115Q117 124 149 92T237 60Q294 60 329 97T364 194Q364 254 328 286T220 318Q218 318 209 318T191 316V385Z"  />
<glyph unicode="4" horiz-adv-x="505" d="M460 244V178H362V62H426V0H209V62H279V178H24V242L285 657H362V244H460ZM279 396Q280 450 281 493T283 568Q278 560 274 551T264 534Q253 512 245 498T230 470T213 439T188 396L97 244H279V396Z"  />
<glyph unicode="5" horiz-adv-x="505" d="M425 650L412 576H172L146 408Q175 430 202 439T264 448Q307 448 342 433T403 389T442 320T456 232Q456 179 441 135T397 59T330 10T243 -8Q202 -8 169 4T111 39T74 94T61 165H127Q132 114 161 86T238 58Q267 58 291 70T332 104T358 157T368 226Q368 298 335 340T244 382Q177 382 124 311L67 320L117 650H425Z"  />
<glyph unicode="6" horiz-adv-x="505" d="M380 671Q327 614 285 558T209 445Q225 449 235 450T261 452Q302 452 336 436T395 390T433 320T447 230Q447 178 432 135T391 60T328 10T248 -8Q206 -8 170 9T108 57T67 130T52 222Q52 313 111 423T292 671H380ZM250 390Q198 390 169 347T139 225Q139 145 168 101T250 56Q302 56 331 100T360 223Q360 302 331 346T250 390Z"  />
<glyph unicode="7" horiz-adv-x="505" d="M459 650V584L169 0H80L378 570H124V486H60V650H459Z"  />
<glyph unicode="8" horiz-adv-x="505" d="M148 342Q66 379 66 483Q66 523 79 555T116 611T175 646T252 659Q294 659 328 647T387 611T424 555T438 482Q438 379 357 342Q453 302 453 189Q453 145 439 109T398 46T334 6T252 -8Q207 -8 170 6T107 46T67 108T52 189Q52 303 148 342ZM252 596Q206 596 181 567T155 484Q155 428 180 398T253 368Q298 368 323 397T349 481Q349 536 324 566T252 596ZM254 308Q201 308 171 275T141 184Q141 124 170 90T253 55Q305 55 334 89T364 182Q364 242 335 275T254 308Z"  />
<glyph unicode="9" horiz-adv-x="505" d="M126 -21Q178 36 220 92T296 205Q281 201 270 200T244 198Q203 198 169 214T110 260T72 330T58 421Q58 473 73 516T114 591T176 641T257 659Q299 659 335 642T397 594T438 521T453 429Q453 366 428 301T347 151Q318 106 285 64T213 -21H126ZM255 595Q203 595 174 551T145 427Q145 348 174 304T255 260Q307 260 336 303T366 425Q366 506 337 550T255 595Z"  />
<glyph unicode=":" horiz-adv-x="211" d="M161 411V299H49V411H161ZM161 112V0H49V112H161Z"  />
<glyph unicode=";" horiz-adv-x="206" d="M163 112V0L84 -126H24L113 0H48V112H163ZM165 411V299H49V411H165Z"  />
<glyph unicode="&lt;" horiz-adv-x="500" d="M466 497L118 337L466 177V98L33 303V372L466 577V497Z"  />
<glyph unicode="=" horiz-adv-x="505" d="M469 439V375H36V439H469ZM469 287V223H36V287H469Z"  />
<glyph unicode="&gt;" horiz-adv-x="500" d="M34 177L382 337L34 497V577L467 371V302L34 97V177Z"  />
<glyph unicode="?" horiz-adv-x="394" d="M122 184V214Q122 250 126 274T138 319Q143 331 148 340T162 360T186 386T225 424Q251 449 262 470T273 515Q273 547 252 566T195 586Q153 586 127 561T96 487H26Q28 529 38 556T71 607Q96 633 130 646T205 660Q277 660 320 621T363 517Q363 492 356 468T334 424Q328 416 323 409T309 395T290 377T261 351Q242 334 230 320T211 290T202 254T199 207Q199 202 199 197T200 184H122ZM219 98V0H121V98H219Z"  />
<glyph unicode="@" horiz-adv-x="667" d="M519 493L479 288Q476 274 475 262T473 243Q473 225 481 215T505 204Q523 204 540 218T571 257T593 313T601 379Q601 429 583 471T532 545T454 593T357 611Q297 611 245 590T155 531T96 441T74 329Q74 269 97 215T165 121Q238 55 356 55Q380 55 407 58T461 66T513 78T560 95L577 35Q523 12 470 2T360 -9Q199 -9 104 85Q56 133 30 197T3 331Q3 403 30 466T103 575T213 648T350 675Q418 675 475 653T575 592T641 499T665 382Q665 335 652 293T616 218T563 167T500 148Q472 148 451 164T426 206Q405 176 373 160T304 143Q274 143 248 155T203 188T174 239T163 304Q163 345 177 381T215 445T271 489T339 505Q375 505 403 489T443 443L453 493H519ZM345 436Q323 436 304 426T269 397T246 356T237 305Q237 262 259 236T319 209Q340 209 359 220T392 249T414 293T422 348Q422 389 402 412T345 436Z"  />
<glyph unicode="A" horiz-adv-x="662" d="M378 673L570 65H655V0H404V65H478L434 208H204L158 65H231V0H7V65H87L290 673H378ZM372 416Q367 431 362 451T350 494T338 541T325 588Q316 558 311 539T300 502T288 465T272 416L224 274H415L372 416Z"  />
<glyph unicode="B" horiz-adv-x="566" d="M213 667Q263 667 294 667T346 664T381 657T409 647Q452 627 475 590T498 502Q498 447 473 413T393 358Q460 342 495 300T530 192Q530 136 503 92T427 24Q412 17 396 13T358 5T305 1T231 0H28V65H111V602H28V667H213ZM246 383Q292 383 316 386T357 400Q406 429 406 492Q406 528 391 553T348 589Q333 594 310 596T243 599H199V383H246ZM249 67Q278 67 299 68T336 71T363 78T384 88Q436 119 436 191Q436 229 421 257T377 300Q368 305 358 308T333 313T298 315T247 316H199V67H249Z"  />
<glyph unicode="C" horiz-adv-x="584" d="M543 668V472H475Q471 501 466 518T452 552Q435 580 401 596T325 612Q232 612 183 540T133 330Q133 198 180 126T315 54Q387 54 427 99T475 230H546Q545 115 483 51T311 -14Q246 -14 196 9T110 77T56 185T37 330Q37 411 56 475T111 585T198 655T313 680Q364 680 402 666T476 619V668H543Z"  />
<glyph unicode="D" horiz-adv-x="628" d="M233 667Q280 667 312 666T368 660T410 648T449 629Q516 588 553 511T590 334Q590 280 579 232T546 143T493 73T422 26Q404 18 388 13T351 5T302 1T233 0H28V65H111V602H28V667H233ZM250 67Q279 67 299 68T336 72T364 79T391 91Q442 120 470 183T498 334Q498 426 468 490T381 581Q369 587 357 590T330 596T296 599T250 600H200V67H250Z"  />
<glyph unicode="E" horiz-adv-x="521" d="M415 510V600H200V382H425V315H200V67H424V175H490V0H28V65H111V602H28V667H482V510H415Z"  />
<glyph unicode="F" horiz-adv-x="497" d="M415 510V600H200V382H425V315H200V65H301V0H28V65H111V602H28V667H482V510H415Z"  />
<glyph unicode="G" horiz-adv-x="628" d="M541 668V472H474Q469 539 430 576T322 613Q229 613 180 540T131 327Q131 196 180 125T323 54Q368 54 400 66T465 107V247H384V311H620V247H551V80Q503 32 448 9T323 -14Q186 -14 112 77T37 333Q37 413 56 477T111 586T198 655T312 680Q364 680 402 666T475 619V668H541Z"  />
<glyph unicode="H" horiz-adv-x="678" d="M480 384V602H397V667H650V602H566V65H650V0H397V65H480V319H197V65H281V0H28V65H111V602H28V667H281V602H197V384H480Z"  />
<glyph unicode="I" horiz-adv-x="313" d="M285 667V602H201V65H285V0H28V65H111V602H28V667H285Z"  />
<glyph unicode="J" horiz-adv-x="326" d="M301 667V602H217V158Q217 84 211 45T189 -19Q168 -54 129 -72T37 -90Q29 -90 22 -90T3 -89V-24Q49 -23 74 -14T112 16Q117 24 120 33T124 57T126 96T127 158V602H44V667H301Z"  />
<glyph unicode="K" horiz-adv-x="645" d="M276 667V602H195V347L443 602H376V667H610V602H529L334 397L550 65H633V0H379V65H444L278 344L193 257V65H273V0H28V65H111V602H28V667H276Z"  />
<glyph unicode="L" horiz-adv-x="506" d="M426 67V175H494V0H28V65H111V602H28V667H283V602H200V67H426Z"  />
<glyph unicode="M" horiz-adv-x="826" d="M243 667L325 405Q338 363 346 333T363 275T381 212T405 128Q411 148 415 162T422 184L448 268Q449 273 455 290T468 329T483 372T495 407L586 667H797V602H714V65H797V0H543V65H626V326V391Q626 402 626 424T627 475T627 534T628 596Q603 523 579 451T531 306L433 27H354L267 306L179 591V324V65H262V0H28V65H111V602H28V667H243Z"  />
<glyph unicode="N" horiz-adv-x="676" d="M215 667L358 411Q386 358 405 321T440 255T470 199T501 139Q500 172 500 203T500 264Q500 301 500 322T499 353T499 369T499 380V602H416V667H650V602H567V0H488L334 278L177 572L179 436V373Q180 350 180 334T180 310V65H263V0H28V65H111V602H28V667H215Z"  />
<glyph unicode="O" horiz-adv-x="632" d="M316 681Q380 681 431 657T519 587T575 477T595 334Q595 254 576 190T520 81T432 11T317 -14Q252 -14 200 10T112 80T57 191T37 338Q37 416 57 479T113 587T201 656T316 681ZM316 613Q228 613 180 541T132 337Q132 200 179 127T316 54Q404 54 452 127T500 334Q500 468 452 540T316 613Z"  />
<glyph unicode="P" horiz-adv-x="532" d="M200 65H291V0H28V65H111V602H28V667H243Q282 667 309 666T355 662T389 654T418 642Q463 619 488 575T513 474Q513 413 485 366T405 298Q392 292 378 289T347 283T308 279T257 278H200V65ZM253 345Q278 345 295 345T325 348T347 353T366 362Q420 393 420 473Q420 515 404 544T359 588Q351 591 342 593T321 597T292 599T251 600H200V345H253Z"  />
<glyph unicode="Q" horiz-adv-x="632" d="M562 0L507 65Q462 23 417 5T316 -14Q252 -14 201 10T113 80T57 189T37 334Q37 413 56 477T112 586T200 656T316 681Q380 681 431 657T519 587T575 477T595 334Q595 219 553 131L673 0H562ZM316 613Q228 613 180 541T132 337Q132 200 179 127T316 54Q404 54 452 127T500 334Q500 468 452 540T316 613Z"  />
<glyph unicode="R" horiz-adv-x="606" d="M243 667Q290 667 321 666T374 663T411 655T441 643Q487 620 511 580T536 485Q536 418 501 371T404 310L521 65H598V0H450L320 299H197V65H277V0H28V65H111V602H28V667H243ZM272 367Q300 367 318 367T350 370T374 376T394 386Q443 415 443 485Q443 562 382 588Q374 591 365 593T342 597T311 599T268 600H200V367H272Z"  />
<glyph unicode="S" horiz-adv-x="484" d="M425 667V483H369Q365 544 330 577T234 611Q182 611 151 585T119 513Q119 472 149 448Q157 442 166 436T189 423T225 406T280 381Q309 368 329 358T364 339T389 322T410 304Q456 258 456 183Q456 139 442 103T400 41T336 1T252 -13Q197 -13 159 4T86 59V0H28V206H86Q87 136 128 97T243 57Q302 57 335 87T368 172Q368 214 346 239T265 290Q224 308 195 320T147 343T114 361T91 377Q28 428 28 506Q28 545 42 577T81 632T143 667T222 680Q313 680 366 617V667H425Z"  />
<glyph unicode="T" horiz-adv-x="523" d="M511 667V498H444V600H305V65H388V0H134V65H217V600H78V498H11V667H511Z"  />
<glyph unicode="U" horiz-adv-x="670" d="M279 667V602H196V276Q196 213 201 178T217 121Q234 89 267 72T345 55Q396 55 432 77T483 138Q489 155 491 183T494 270V602H412V667H647V602H563V270Q563 231 562 203T557 155T549 119T535 89Q506 39 455 13T337 -14Q263 -14 208 16T128 100Q121 114 117 128T111 161T108 209T107 279V602H24V667H279Z"  />
<glyph unicode="V" horiz-adv-x="656" d="M252 667V602H178L335 102L500 602H427V667H651V602H571L367 -6H279L85 602H4V667H252Z"  />
<glyph unicode="W" horiz-adv-x="867" d="M255 667V602H174L221 373Q230 328 236 294T247 231T256 173T267 111Q273 139 277 159T286 198T295 234T304 276T317 330T335 405L402 667H483L545 405Q587 216 608 111Q620 169 627 205T640 269T651 318T663 373L713 602H636V667H863V602H781L644 -3H559L496 264Q494 272 490 290T480 336Q469 390 458 444T434 553Q426 516 418 480T401 408Q388 352 380 317T367 264L302 -3H217L88 602H4V667H255Z"  />
<glyph unicode="X" horiz-adv-x="612" d="M197 667L317 415L421 602H352V667H585V602H503L352 354L507 65H595V0H433L297 287L174 65H250V0H8V65H93L261 347L128 602H41V667H197Z"  />
<glyph unicode="Y" horiz-adv-x="582" d="M257 667V602H184L300 358L419 602H345V667H581V602H494L333 281V65H416V0H161V65H244V279L84 602H0V667H257Z"  />
<glyph unicode="Z" horiz-adv-x="478" d="M385 67V173H453V0H20V55L338 600H106V511H38V667H446V611L129 67H385Z"  />
<glyph unicode="[" horiz-adv-x="259" d="M242 667V599H155V-125H242V-194H79V667H242Z"  />
<glyph unicode="\" horiz-adv-x="354" d="M343 -162L11 667H73L406 -162H343Z"  />
<glyph unicode="]" horiz-adv-x="259" d="M18 -194V-126H105V598H18V667H181V-194H18Z"  />
<glyph unicode="^" horiz-adv-x="500" d="M23 361L198 669H303L478 361H391L250 606L109 361H23Z"  />
<glyph unicode="_" horiz-adv-x="500" d="M500 -63V-136H0V-63H500Z"  />
<glyph unicode="`" horiz-adv-x="500" d="M230 549L93 668H196L314 549H230Z"  />
<glyph unicode="a" horiz-adv-x="476" d="M53 323L65 422Q130 482 223 482Q268 482 304 468T360 426Q367 416 372 406T379 381T383 344T384 288V59H454V0H308V69Q282 27 251 9T174 -10Q142 -10 116 0T71 28T41 71T30 126Q30 174 56 210T134 268Q150 275 164 280T196 290T238 300T300 312V329Q300 357 297 371T287 394Q267 420 216 420Q187 420 165 412T131 386Q124 376 122 365T114 323H53ZM300 258Q272 252 253 247T218 238T192 228T169 217Q116 189 116 134Q116 99 137 78T195 57Q226 57 251 73T289 115Q295 129 297 150T300 215V258Z"  />
<glyph unicode="b" horiz-adv-x="524" d="M169 669V400Q214 482 299 482Q339 482 373 464T433 412T473 334T487 236Q487 183 473 138T434 60T374 9T299 -10Q215 -10 169 72L167 0H89V610H17V669H169ZM287 420Q232 420 202 373T172 239Q172 148 201 100T287 52Q341 52 371 100T401 236Q401 324 371 372T287 420Z"  />
<glyph unicode="c" horiz-adv-x="440" d="M400 474V315H337Q332 365 308 391T241 418Q187 418 156 370T125 233Q125 148 154 101T238 54Q318 54 335 155H408Q401 77 355 34T234 -10Q189 -10 153 7T90 55T50 131T36 229Q36 284 50 330T91 410T154 463T232 482Q298 482 337 432V474H400Z"  />
<glyph unicode="d" horiz-adv-x="530" d="M435 669V59H506V0H355V72Q310 -10 224 -10Q184 -10 150 8T90 60T51 138T36 236Q36 289 50 334T90 412T149 463T224 482Q310 482 355 400V610H283V669H435ZM237 420Q182 420 152 373T122 239Q122 148 151 100T237 52Q292 52 322 100T352 236Q352 324 322 372T237 420Z"  />
<glyph unicode="e" horiz-adv-x="471" d="M125 227Q126 184 130 159T144 114Q174 52 242 52Q331 52 348 146H427Q425 111 411 83T371 34T313 2T241 -10Q194 -10 157 7T92 56T51 132T36 232Q36 287 51 333T93 412T158 463T241 482Q284 482 320 465T381 418T420 344T434 247Q434 242 434 238T433 227H125ZM342 285Q339 420 242 420Q194 420 164 385T127 285H342Z"  />
<glyph unicode="f" horiz-adv-x="317" d="M297 472V410H185V59H272V0H28V59H100V410H31V472H100V515Q100 540 101 558T105 589T112 613T125 633Q161 678 232 678Q278 678 316 661V589Q293 603 277 608T243 614Q200 614 189 575Q188 570 187 566T186 556T185 539T185 511V472H297Z"  />
<glyph unicode="g" horiz-adv-x="471" d="M455 417H351Q400 380 400 315Q400 286 391 262T362 221Q345 204 321 193T251 169Q221 161 203 155T174 143T159 131T155 118Q155 104 167 98T209 89Q276 83 313 75T377 54Q441 22 441 -51Q441 -125 387 -164T232 -204Q129 -204 73 -168T16 -65Q16 -20 42 7T127 50Q92 61 79 72T66 104Q66 130 90 148T166 179Q110 199 84 232T58 318Q58 363 81 399T146 455Q183 472 256 472H298Q312 471 321 471T335 471H455V417ZM232 414Q190 414 164 389T138 322Q138 279 163 253T231 227Q271 227 296 253T321 322Q321 364 297 389T232 414ZM230 23Q166 23 128 1T89 -59Q89 -100 126 -122T232 -144Q295 -144 330 -122T366 -59Q366 -19 331 2T230 23Z"  />
<glyph unicode="h" horiz-adv-x="555" d="M185 405Q229 482 317 482Q359 482 393 465T444 418Q450 407 454 398T459 373T461 334T462 268V59H534V0H311V59H377V278Q377 318 376 335T370 364Q362 386 342 398T292 410Q262 410 238 395T200 353Q191 336 188 315T185 253V59H251V0H28V59H100V610H28V669H185V405Z"  />
<glyph unicode="i" horiz-adv-x="280" d="M185 59H257V0H28V59H100V413H28V472H185V59ZM186 659V569H84V659H186Z"  />
<glyph unicode="j" horiz-adv-x="290" d="M200 60Q200 25 200 5T199 -27T197 -47T195 -63Q184 -129 137 -165T14 -202Q12 -202 8 -202T-1 -201V-154Q35 -151 58 -141T94 -110Q101 -97 105 -88T111 -62T113 -18T114 60V413H42V472H200V60ZM201 659V569H99V659H201Z"  />
<glyph unicode="k" horiz-adv-x="544" d="M184 246L350 413H286V472H500V413H433L318 294L464 59H532V0H311V59H363L257 243L182 164V59H247V0H28V59H100V610H28V669H184V246Z"  />
<glyph unicode="l" horiz-adv-x="282" d="M187 59H258V0H28V59H100V610H28V669H187V59Z"  />
<glyph unicode="m" horiz-adv-x="795" d="M179 400Q206 445 235 463T309 482Q403 482 434 401Q455 443 486 462T565 482Q612 482 645 461T693 403Q696 395 697 389T700 370T701 337T702 280V59H773V0H558V59H617V277Q617 305 617 321T615 346T613 360T608 371Q588 410 536 410Q478 410 453 358Q450 351 448 344T445 326T444 301T443 266V59H502V0H299V59H358V265Q358 297 358 315T356 343T354 358T349 370Q332 410 280 410Q252 410 230 397T197 358Q190 342 188 322T185 263V59H244V0H28V59H100V413H28V472H179V400Z"  />
<glyph unicode="n" horiz-adv-x="544" d="M181 395Q204 440 236 461T314 482Q358 482 391 462T440 405Q444 396 446 387T449 363T450 327T451 268V59H523V0H307V59H366V278Q366 323 365 340T358 370Q350 390 332 400T290 410Q264 410 241 397T204 361Q198 352 195 343T189 321T186 293T185 255V59H244V0H28V59H100V413H28V472H181V395Z"  />
<glyph unicode="o" horiz-adv-x="487" d="M243 484Q285 484 322 468T388 423Q450 358 450 236Q450 114 388 49Q361 20 323 4T243 -12Q201 -12 163 4T98 49Q36 114 36 240Q36 297 52 344T98 423Q126 452 163 468T243 484ZM243 422Q186 422 156 375T126 239Q126 146 155 99T243 51Q300 51 330 98T360 237Q360 328 330 375T243 422Z"  />
<glyph unicode="p" horiz-adv-x="535" d="M180 400Q225 482 311 482Q351 482 385 464T445 412T485 334T499 236Q499 183 485 138T445 60T386 9T311 -10Q225 -10 180 72V-138H255V-197H28V-138H100V413H28V472H180V400ZM298 420Q244 420 214 373T183 239Q183 148 212 100T298 52Q353 52 383 100T413 236Q413 324 383 372T298 420Z"  />
<glyph unicode="q" horiz-adv-x="535" d="M506 472V413H435V-138H506V-197H280V-138H355V72Q310 -10 224 -10Q184 -10 150 8T90 60T51 138T36 236Q36 289 50 334T90 412T149 463T224 482Q309 482 355 400V472H506ZM237 420Q182 420 152 373T122 239Q122 148 151 100T237 52Q292 52 322 100T352 236Q352 324 322 372T237 420Z"  />
<glyph unicode="r" horiz-adv-x="380" d="M179 399Q205 443 230 460T293 477Q319 477 338 468T379 435V330H317Q313 377 302 393T265 410Q242 410 223 392T195 345Q189 324 187 294T185 205V59H267V0H28V59H100V413H28V472H179V399Z"  />
<glyph unicode="s" horiz-adv-x="404" d="M300 321Q298 370 272 396T200 423Q165 423 143 405T121 358Q121 335 138 320T202 287Q229 277 248 269T282 255T307 242T328 229Q350 213 362 189T374 134Q374 102 362 76T329 30T279 0T215 -11Q173 -11 144 5T90 56L86 -2H31V160H86Q94 109 126 79T206 49Q243 49 265 68T288 119Q288 132 285 141T272 159T246 176T204 194Q150 214 120 229T75 257Q36 293 36 346Q36 375 47 400T78 443T125 472T184 483Q253 483 298 431L302 475H357V321H300Z"  />
<glyph unicode="t" horiz-adv-x="316" d="M286 472V411H174V195Q174 170 174 154T175 127T177 109T180 96Q185 78 199 68T233 58Q247 58 261 62T292 76V7Q269 -1 252 -4T213 -8Q128 -8 102 51Q97 62 95 70T91 92T90 129T89 192V411H21V472H89V611H174V472H286Z"  />
<glyph unicode="u" horiz-adv-x="548" d="M177 218Q177 184 177 165T178 136T181 119T186 106Q206 62 261 62Q289 62 312 74T350 110Q360 127 364 151T369 219V413H297V472H454V59H526V0H376V79Q356 36 321 13T240 -10Q190 -10 153 15T101 83Q98 92 97 100T94 122T93 156T92 211V413H20V472H177V218Z"  />
<glyph unicode="v" horiz-adv-x="517" d="M227 472V413H168L218 254Q226 230 231 213T242 179T254 140T269 86Q291 159 323 254L376 413H316V472H514V413H443L297 -4H224L75 413H3V472H227Z"  />
<glyph unicode="w" horiz-adv-x="732" d="M215 472V413H157L190 264Q200 218 209 176T226 91Q239 140 251 190T278 294L330 472H418L468 289Q476 255 482 231T493 186T503 141T517 87Q520 101 522 113T526 130Q529 141 531 152T536 174Q543 204 546 221T556 262L592 413H535V472H729V413H656L550 -4H466L415 182Q405 221 392 274T363 395Q360 382 357 370T353 353L338 289L324 235Q313 191 310 182L257 -4H175L72 413H3V472H215Z"  />
<glyph unicode="x" horiz-adv-x="528" d="M185 472L272 311L340 415H293V472H499V413H416L302 256L429 59H519V0H360L253 195L165 57H222V0H9V59H89L221 250L119 413H41V472H185Z"  />
<glyph unicode="y" horiz-adv-x="509" d="M225 472V413H165L215 259Q220 244 223 235T228 219T231 207T236 192L241 175L256 124Q264 95 266 91Q271 111 278 133T290 176Q292 182 295 193T303 217T310 240T317 259L369 413H310V472H508V413H436L290 -12Q277 -49 269 -72T253 -111T237 -137T219 -158Q171 -204 84 -204Q81 -204 74 -204T59 -203V-142Q94 -142 118 -137T159 -121T188 -89T213 -38L220 -14L75 413H0V472H225Z"  />
<glyph unicode="z" horiz-adv-x="391" d="M310 62V144H374V0H12V49L254 410H84V341H21V472H361V423L116 62H310Z"  />
<glyph unicode="{" horiz-adv-x="259" d="M248 606Q220 606 202 602T174 587T159 560T154 518V351Q154 304 142 279T97 236Q129 218 141 192T154 118V-43Q154 -72 158 -88T173 -114Q184 -125 201 -129T248 -133V-194Q201 -194 179 -191T137 -178Q108 -163 95 -132T81 -47V116Q81 159 69 180T24 209V267Q55 275 68 295T81 355V530Q81 603 115 635T225 667Q229 667 234 667T248 666V606Z"  />
<glyph unicode="|" horiz-adv-x="500" d="M290 667V-167H210V667H290Z"  />
<glyph unicode="}" horiz-adv-x="259" d="M11 -133Q39 -133 57 -129T85 -115T100 -89T105 -46V121Q105 169 117 194T162 237Q130 255 118 281T105 355V515Q105 544 101 561T86 587Q75 598 58 602T11 606V667H31Q71 667 99 659T145 634T170 588T178 519V357Q178 314 190 293T235 263V206Q204 198 191 178T178 117V-57Q178 -130 144 -162T34 -194H11V-133Z"  />
<glyph unicode="~" horiz-adv-x="667" d="M93 243Q109 276 124 299T155 335T190 355T232 361Q252 361 277 354T343 328Q365 318 379 312T403 303T421 298T438 297Q466 297 485 311T527 363L574 335Q558 303 546 285T517 253Q498 237 475 229T429 220Q418 220 408 222T382 229T344 243T288 267Q251 284 226 284Q200 284 181 268T140 213L93 243Z"  />
<glyph unicode="&#xA0;" horiz-adv-x="250" />
<glyph unicode="&#xA1;" horiz-adv-x="210" d="M59 -178L72 291H142L152 -178H59ZM56 374V472H155V374H56Z"  />
<glyph unicode="&#xA2;" horiz-adv-x="505" d="M288 677V583Q336 574 368 535V576H429V417H365Q362 460 342 487T288 520V156Q351 170 365 257H436Q431 188 391 144T288 93V-7H242V93Q202 97 170 116T116 166T81 239T68 332Q68 384 80 427T115 503T170 556T242 583V677H288ZM242 517Q153 483 153 336Q153 186 242 158V517Z"  />
<glyph unicode="&#xA3;" horiz-adv-x="505" d="M311 304H202Q198 244 180 180T134 62Q147 68 158 71T183 77T211 80T246 81Q262 81 277 80T315 77Q327 76 339 76T359 75Q424 75 424 138Q424 146 424 153T421 172H482Q484 160 485 152T486 130Q486 50 444 19Q428 8 407 4T339 0H48V31Q61 54 72 85T93 153T108 227T117 304H46V368H123Q128 412 131 442T138 492T143 526T149 551Q186 676 297 676Q357 676 392 640T431 538H371Q364 573 349 590T304 607Q272 607 252 585T222 514Q220 504 219 497T217 477T213 438T207 368H311V304Z"  />
<glyph unicode="&#xA4;" horiz-adv-x="667" d="M150 172Q99 238 99 315Q99 353 111 386T150 456L54 550L94 591L189 497Q227 524 260 536T334 548Q374 548 406 537T477 497L571 591L611 550L517 456Q544 418 556 385T568 314Q568 275 556 242T518 172L613 78L573 37L478 132Q411 81 335 81Q297 81 263 93T190 132L96 37L56 78L150 172ZM334 484Q299 484 269 471T215 435T179 381T165 316Q165 280 178 249T214 195T268 159T334 145Q369 145 399 158T453 195T489 248T502 314Q502 349 489 380T453 434T400 470T334 484Z"  />
<glyph unicode="&#xA5;" horiz-adv-x="505" d="M236 667V602H173L261 354L353 602H290V667H505V602H424L358 441H466V376H333L298 291H425V226H295V65H378V0H123V65H206V226H77V291H202L168 376H36V441H143L78 602H0V667H236Z"  />
<glyph unicode="&#xA6;" horiz-adv-x="500" d="M290 667V332H210V667H290ZM290 153V-167H210V153H290Z"  />
<glyph unicode="&#xA7;" horiz-adv-x="500" d="M367 476Q367 595 262 595Q218 595 192 573T165 516Q165 481 199 454Q204 450 209 447T224 437T255 419T310 388Q332 375 348 366T376 348T396 333T412 318Q442 286 442 239Q442 198 422 169T357 114Q395 84 409 57T424 -8Q424 -43 411 -72T374 -122T317 -154T244 -166Q202 -166 168 -155T110 -122T72 -71T58 -5V7H127Q133 -102 241 -102Q288 -102 315 -78T343 -13Q343 13 330 30T282 70Q278 72 246 91T151 147Q103 177 82 207T61 275Q61 314 81 342T150 395Q115 421 100 447T84 510Q84 542 97 569T133 617T188 648T259 659Q344 659 388 615T434 486V476H367ZM202 359Q137 333 137 284Q137 269 142 258T164 232T214 198T304 147Q333 159 349 180T366 227Q366 249 355 263T309 298Q301 302 288 310T259 327T228 344T202 359Z"  />
<glyph unicode="&#xA8;" horiz-adv-x="500" d="M211 659V557H112V659H211ZM388 659V557H289V659H388Z"  />
<glyph unicode="&#xA9;" horiz-adv-x="765" d="M523 536V416H476Q471 459 450 478T386 498Q330 498 301 456T271 334Q271 258 300 216T383 173Q468 173 476 277H525Q524 205 488 167T382 128Q300 128 254 182T207 334Q207 431 253 487T379 543Q408 543 430 536T476 509V536H523ZM383 680Q454 680 517 653T626 579T700 468T727 333Q727 262 700 199T626 89T517 15T383 -13Q311 -13 248 14T138 89T64 200T37 338Q37 408 64 470T139 579T249 653T383 680ZM383 641Q321 641 266 617T169 552T104 455T80 337Q80 272 103 216T168 117T264 51T383 26Q445 26 500 50T596 116T660 214T684 334Q684 397 661 453T596 551T500 617T383 641Z"  />
<glyph unicode="&#xAA;" horiz-adv-x="327" d="M304 336V293H22V336H304ZM44 579L53 641Q93 677 152 677Q210 677 237 644Q242 638 245 632T250 617T252 595T253 560V427H296V387H201V420Q184 399 166 390T122 381Q82 381 57 404T31 465Q31 523 97 551Q106 555 114 558T132 563T158 569T196 577V585Q196 615 187 625T150 636Q118 636 105 625T87 579H44ZM196 540Q138 529 114 513T89 470Q89 450 101 438T134 426Q153 426 168 435T190 459Q193 467 194 479T196 517V540Z"  />
<glyph unicode="&#xAB;" horiz-adv-x="356" d="M273 0L172 236L273 472H333L243 236L333 0H273ZM136 0L34 236L136 472H195L105 236L195 0H136Z"  />
<glyph unicode="&#xAC;" horiz-adv-x="500" d="M386 192H33V267H466V0H386V192Z"  />
<glyph unicode="&#xAD;" horiz-adv-x="200" d="M200 283V233H0V283H200Z"  />
<glyph unicode="&#xAE;" horiz-adv-x="765" d="M354 535Q385 535 405 535T439 532T463 527T483 517Q536 488 536 424Q536 342 455 320L526 179H574V136H481L398 313H328V179H376V136H219V179H270V492H219V535H354ZM371 358Q403 358 417 360T443 368Q473 385 473 425Q473 466 442 482Q431 487 416 489T369 491H330V358H371ZM383 680Q454 680 517 653T626 579T700 469T727 334Q727 262 700 199T626 89T517 15T383 -12Q311 -12 248 15T138 90T64 201T37 338Q37 408 64 470T139 579T249 653T383 680ZM383 641Q321 641 266 617T169 552T104 455T80 338Q80 273 103 216T168 117T264 51T383 27Q445 27 500 51T596 117T660 215T684 334Q684 398 661 454T596 551T500 617T383 641Z"  />
<glyph unicode="&#xAF;" horiz-adv-x="500" d="M386 628V574H114V628H386Z"  />
<glyph unicode="&#xB0;" horiz-adv-x="500" d="M250 675Q280 675 306 664T351 634T382 589T394 534Q394 505 383 479T352 434T306 403T250 392Q220 392 194 403T148 433T117 479T105 536Q105 564 116 589T148 634T194 664T250 675ZM250 616Q233 616 218 610T191 592T173 566T166 535Q166 500 190 476T250 451Q285 451 309 475T333 534Q333 568 309 592T250 616Z"  />
<glyph unicode="&#xB1;" horiz-adv-x="505" d="M217 394V577H289V394H469V327H289V143H217V327H36V394H217ZM469 115V48H36V115H469Z"  />
<glyph unicode="&#xB2;" horiz-adv-x="329" d="M242 476V526H287V428H39V471Q79 510 111 547T167 617T202 677T215 722Q215 746 199 761T156 776Q124 776 107 757T87 701H43Q45 758 76 790T163 822Q212 822 243 796T274 727Q274 698 259 667T205 587Q182 558 158 531T105 476H242Z"  />
<glyph unicode="&#xB3;" horiz-adv-x="329" d="M124 660L141 659Q215 659 215 722Q215 748 199 763T157 778Q100 778 94 712H46Q48 763 79 792T162 822Q211 822 241 796T272 726Q272 669 219 640Q289 617 289 544Q289 490 253 456T157 422Q102 422 68 452T34 531V541H83Q86 467 155 467Q189 467 209 488T230 544Q230 579 209 597T146 615H124V660Z"  />
<glyph unicode="&#xB4;" horiz-adv-x="500" d="M304 668H407L269 549H186L304 668Z"  />
<glyph unicode="&#xB5;" horiz-adv-x="500" d="M44 480H124V210Q124 184 126 165T132 130T144 104T162 82Q197 49 247 49Q276 49 300 60T342 95Q361 119 368 146T376 219V480H456V0H376V82Q353 33 322 11T245 -12Q205 -12 176 5T124 60V-168H44V480Z"  />
<glyph unicode="&#xB6;" horiz-adv-x="482" d="M176 315Q171 314 167 314T161 314Q120 314 86 327T28 363T-9 418T-23 488Q-23 538 -1 578T61 640Q84 653 119 660T197 667H473V611H404V-99H340V611H240V-99H176V315Z"  />
<glyph unicode="&#xB7;" horiz-adv-x="211" d="M161 301V189H49V301H161Z"  />
<glyph unicode="&#xB8;" horiz-adv-x="500" d="M295 0L277 -45Q311 -50 329 -69T348 -117Q348 -152 324 -173T259 -195Q244 -195 231 -193T195 -183V-141Q215 -146 223 -147T241 -148Q264 -148 277 -138T291 -110Q291 -70 236 -70H216L246 0H295Z"  />
<glyph unicode="&#xB9;" horiz-adv-x="329" d="M200 821V469H256V428H85V469H142V719H73V753Q111 753 130 769T155 821H200Z"  />
<glyph unicode="&#xBA;" horiz-adv-x="308" d="M295 336V293H13V336H295ZM155 680Q214 680 248 640T283 532Q283 464 249 424T155 384Q95 384 61 424T26 534Q26 600 61 640T155 680ZM154 638Q122 638 105 611T87 534Q87 481 104 454T155 426Q187 426 204 453T222 532Q222 583 205 610T154 638Z"  />
<glyph unicode="&#xBB;" horiz-adv-x="356" d="M82 472L184 236L82 0H23L113 236L23 472H82ZM220 472L322 236L220 0H161L250 236L161 472H220Z"  />
<glyph unicode="&#xBC;" horiz-adv-x="776" d="M200 654V302H256V261H85V302H142V552H73V586Q111 586 130 602T155 654H200ZM604 650L224 0H162L542 650H604ZM741 149V105H681V41H720V0H582V41H625V105H468V145L630 393H681V149H741ZM625 236V261Q626 264 626 270T626 286Q626 299 626 304T627 322Q609 292 598 273T574 234L521 149H625V236Z"  />
<glyph unicode="&#xBD;" horiz-adv-x="776" d="M200 654V302H256V261H85V302H142V552H73V586Q111 586 130 602T155 654H200ZM604 650L224 0H162L542 650H604ZM689 48V98H734V0H486V43Q515 71 546 105T601 172Q633 214 647 243T662 294Q662 318 646 333T603 348Q539 348 534 273H490Q492 330 523 362T610 394Q659 394 690 368T721 299Q721 270 706 239T652 159Q629 130 604 103T552 48H689Z"  />
<glyph unicode="&#xBE;" horiz-adv-x="776" d="M124 493Q129 492 134 492T141 492Q215 492 215 555Q215 581 199 596T157 611Q100 611 94 545H46Q48 596 79 625T162 655Q211 655 241 629T272 558Q272 502 219 473Q289 450 289 378Q289 324 253 290T157 256Q102 256 68 286T34 364V374H83Q86 301 155 301Q188 301 209 322T230 377Q230 412 209 430T146 448Q142 448 137 448T124 447V493ZM604 650L224 0H162L542 650H604ZM741 149V105H681V41H720V0H582V41H625V105H469V145L630 393H681V149H741ZM625 236V261Q626 264 626 270T626 286Q626 299 626 304T627 322Q610 293 599 275T574 234L521 149H625V236Z"  />
<glyph unicode="&#xBF;" horiz-adv-x="394" d="M271 289V261Q271 223 268 198T255 150T224 105T168 48Q142 23 131 2T120 -42Q120 -74 141 -94T198 -114Q240 -114 266 -89T297 -15H367Q365 -57 355 -84T322 -135Q297 -161 263 -174T188 -188Q116 -188 73 -149T30 -46Q30 -20 37 3T59 47Q65 56 70 63T84 78T103 96T132 122Q151 138 163 152T182 182T191 217T194 264V289H271ZM174 374V472H272V374H174Z"  />
<glyph unicode="&#xC0;" horiz-adv-x="662" d="M378 673L570 65H655V0H404V65H478L434 208H204L158 65H231V0H7V65H87L290 673H378ZM372 416Q367 431 362 451T350 494T338 541T325 588Q316 558 311 539T300 502T288 465T272 416L224 274H415L372 416ZM282 739L145 858H248L366 739H282Z"  />
<glyph unicode="&#xC1;" horiz-adv-x="662" d="M378 673L570 65H655V0H404V65H478L434 208H204L158 65H231V0H7V65H87L290 673H378ZM372 416Q367 431 362 451T350 494T338 541T325 588Q316 558 311 539T300 502T288 465T272 416L224 274H415L372 416ZM369 858H472L334 739H251L369 858Z"  />
<glyph unicode="&#xC2;" horiz-adv-x="662" d="M378 673L570 65H655V0H404V65H478L434 208H204L158 65H231V0H7V65H87L290 673H378ZM372 416Q367 431 362 451T350 494T338 541T325 588Q316 558 311 539T300 502T288 465T272 416L224 274H415L372 416ZM265 859H351L467 739H390L308 815L226 739H149L265 859Z"  />
<glyph unicode="&#xC3;" horiz-adv-x="662" d="M378 673L570 65H655V0H404V65H478L434 208H204L158 65H231V0H7V65H87L290 673H378ZM372 416Q367 431 362 451T350 494T338 541T325 588Q316 558 311 539T300 502T288 465T272 416L224 274H415L372 416ZM149 763Q163 810 185 831T242 853Q258 853 273 848T312 830Q339 816 352 811T376 806Q391 806 401 817T422 854L470 835Q442 743 375 743Q360 743 342 749T293 772Q271 783 261 787T241 791Q227 791 217 781T197 744L149 763Z"  />
<glyph unicode="&#xC4;" horiz-adv-x="662" d="M378 673L570 65H655V0H404V65H478L434 208H204L158 65H231V0H7V65H87L290 673H378ZM372 416Q367 431 362 451T350 494T338 541T325 588Q316 558 311 539T300 502T288 465T272 416L224 274H415L372 416ZM290 850V748H191V850H290ZM467 850V748H368V850H467Z"  />
<glyph unicode="&#xC5;" horiz-adv-x="662" d="M378 673L570 65H655V0H404V65H478L434 208H204L158 65H231V0H7V65H87L290 673H378ZM372 416Q367 431 362 451T350 494T338 541T325 588Q316 558 311 539T300 502T288 465T272 416L224 274H415L372 416ZM334 878Q367 878 390 855T413 799Q413 766 390 743T334 719Q300 719 277 742T254 800Q254 832 277 855T334 878ZM334 840Q317 840 305 828T293 799Q293 782 305 770T334 758Q351 758 362 770T374 799Q374 816 363 828T334 840Z"  />
<glyph unicode="&#xC6;" horiz-adv-x="886" d="M778 514V600H562V382H774V315H562V67H789V168H855V0H389V65H472V202H240L162 65H238V0H0V65H85L436 667H844V514H778ZM472 605L279 269H472V605Z"  />
<glyph unicode="&#xC7;" horiz-adv-x="584" d="M543 668V472H475Q471 501 466 518T452 552Q435 580 401 596T325 612Q232 612 183 540T133 330Q133 199 180 127T315 54Q387 54 427 99T475 230H546Q548 124 492 60T332 -14L316 -51Q354 -58 375 -78T396 -131Q396 -169 369 -193T297 -218Q280 -218 263 -215T223 -205V-159Q243 -162 253 -163T271 -164Q298 -164 313 -153T328 -122Q328 -102 313 -91T268 -79Q264 -79 259 -79T247 -80L275 -12Q224 -4 195 9T138 46Q88 91 63 163T37 330Q37 411 56 475T111 585T198 655T313 680Q364 680 402 666T476 619V668H543Z"  />
<glyph unicode="&#xC8;" horiz-adv-x="521" d="M415 510V600H200V382H425V315H200V67H424V175H490V0H28V65H111V602H28V667H482V510H415ZM228 739L91 858H194L312 739H228Z"  />
<glyph unicode="&#xC9;" horiz-adv-x="521" d="M415 510V600H200V382H425V315H200V67H424V175H490V0H28V65H111V602H28V667H482V510H415ZM307 858H410L272 739H189L307 858Z"  />
<glyph unicode="&#xCA;" horiz-adv-x="521" d="M415 510V600H200V382H425V315H200V67H424V175H490V0H28V65H111V602H28V667H482V510H415ZM203 859H289L405 739H328L246 815L164 739H87L203 859Z"  />
<glyph unicode="&#xCB;" horiz-adv-x="521" d="M415 510V600H200V382H425V315H200V67H424V175H490V0H28V65H111V602H28V667H482V510H415ZM228 850V748H129V850H228ZM405 850V748H306V850H405Z"  />
<glyph unicode="&#xCC;" horiz-adv-x="313" d="M285 667V602H201V65H285V0H28V65H111V602H28V667H285ZM115 739L-22 858H81L199 739H115Z"  />
<glyph unicode="&#xCD;" horiz-adv-x="313" d="M285 667V602H201V65H285V0H28V65H111V602H28V667H285ZM207 858H310L172 739H89L207 858Z"  />
<glyph unicode="&#xCE;" horiz-adv-x="313" d="M285 667V602H201V65H285V0H28V65H111V602H28V667H285ZM115 859H201L317 739H240L158 815L76 739H-1L115 859Z"  />
<glyph unicode="&#xCF;" horiz-adv-x="313" d="M285 667V602H201V65H285V0H28V65H111V602H28V667H285ZM128 850V748H29V850H128ZM305 850V748H206V850H305Z"  />
<glyph unicode="&#xD0;" horiz-adv-x="628" d="M233 667Q280 667 312 666T368 660T410 648T448 629Q516 588 553 511T590 334Q590 280 579 232T545 143T492 73T422 26Q404 18 388 13T351 5T302 1T233 0H28V65H111V319H28V384H111V602H28V667H233ZM250 67Q279 67 299 68T336 72T364 79T391 91Q442 120 470 183T498 334Q498 425 468 490T381 581Q369 587 357 590T330 596T296 599T250 600H200V384H352V319H200V67H250Z"  />
<glyph unicode="&#xD1;" horiz-adv-x="676" d="M215 667L358 411Q386 358 405 321T440 255T470 199T501 139Q500 172 500 203T500 264Q500 301 500 322T499 353T499 369T499 380V602H416V667H650V602H567V0H488L334 278L177 572L179 436V373Q180 350 180 334T180 310V65H263V0H28V65H111V602H28V667H215ZM153 764Q167 811 189 832T246 854Q262 854 277 849T316 831Q343 817 356 812T380 807Q395 807 405 818T426 855L474 836Q446 744 379 744Q364 744 346 750T297 773Q275 784 265 788T245 792Q231 792 221 782T201 745L153 764Z"  />
<glyph unicode="&#xD2;" horiz-adv-x="632" d="M316 681Q380 681 431 657T519 587T575 477T595 334Q595 254 576 190T520 81T432 11T317 -14Q252 -14 200 10T112 80T57 191T37 338Q37 416 57 479T113 587T201 656T316 681ZM316 613Q228 613 180 541T132 337Q132 200 179 127T316 54Q404 54 452 127T500 334Q500 468 452 540T316 613ZM274 739L137 858H240L358 739H274Z"  />
<glyph unicode="&#xD3;" horiz-adv-x="632" d="M316 681Q380 681 431 657T519 587T575 477T595 334Q595 254 576 190T520 81T432 11T317 -14Q252 -14 200 10T112 80T57 191T37 338Q37 416 57 479T113 587T201 656T316 681ZM316 613Q228 613 180 541T132 337Q132 200 179 127T316 54Q404 54 452 127T500 334Q500 468 452 540T316 613ZM350 858H453L315 739H232L350 858Z"  />
<glyph unicode="&#xD4;" horiz-adv-x="632" d="M316 681Q380 681 431 657T519 587T575 477T595 334Q595 254 576 190T520 81T432 11T317 -14Q252 -14 200 10T112 80T57 191T37 338Q37 416 57 479T113 587T201 656T316 681ZM316 613Q228 613 180 541T132 337Q132 200 179 127T316 54Q404 54 452 127T500 334Q500 468 452 540T316 613ZM248 859H334L450 739H373L291 815L209 739H132L248 859Z"  />
<glyph unicode="&#xD5;" horiz-adv-x="632" d="M316 681Q380 681 431 657T519 587T575 477T595 334Q595 254 576 190T520 81T432 11T317 -14Q252 -14 200 10T112 80T57 191T37 338Q37 416 57 479T113 587T201 656T316 681ZM316 613Q228 613 180 541T132 337Q132 200 179 127T316 54Q404 54 452 127T500 334Q500 468 452 540T316 613ZM137 763Q151 810 173 831T230 853Q246 853 261 848T300 830Q327 816 340 811T364 806Q379 806 389 817T410 854L458 835Q430 743 363 743Q348 743 330 749T281 772Q259 783 249 787T229 791Q215 791 205 781T185 744L137 763Z"  />
<glyph unicode="&#xD6;" horiz-adv-x="632" d="M316 681Q380 681 431 657T519 587T575 477T595 334Q595 254 576 190T520 81T432 11T317 -14Q252 -14 200 10T112 80T57 191T37 338Q37 416 57 479T113 587T201 656T316 681ZM316 613Q228 613 180 541T132 337Q132 200 179 127T316 54Q404 54 452 127T500 334Q500 468 452 540T316 613ZM272 850V748H173V850H272ZM449 850V748H350V850H449Z"  />
<glyph unicode="&#xD7;" horiz-adv-x="505" d="M205 331L55 481L102 529L253 378L404 529L451 481L300 331L451 180L404 133L252 283L102 133L55 180L205 331Z"  />
<glyph unicode="&#xD8;" horiz-adv-x="632" d="M643 667L542 553Q568 509 581 452T595 329Q595 250 576 187T520 79T433 10T319 -14Q195 -14 119 73L55 0H-17L87 118Q63 161 50 217T37 339Q37 417 56 480T112 588T199 657T313 681Q435 681 510 598L571 667H643ZM454 535Q403 613 314 613Q228 613 181 541T133 338Q133 295 137 262T153 191L454 535ZM176 137Q225 54 318 54Q404 54 452 126T500 328Q500 373 495 409T478 481L176 137Z"  />
<glyph unicode="&#xD9;" horiz-adv-x="670" d="M279 667V602H196V276Q196 213 201 178T217 121Q234 89 267 72T345 55Q396 55 432 77T483 138Q489 155 491 183T494 270V602H412V667H647V602H563V270Q563 231 562 203T557 155T549 119T535 89Q506 39 455 13T337 -14Q263 -14 208 16T128 100Q121 114 117 128T111 161T108 209T107 279V602H24V667H279ZM293 739L156 858H259L377 739H293Z"  />
<glyph unicode="&#xDA;" horiz-adv-x="670" d="M279 667V602H196V276Q196 213 201 178T217 121Q234 89 267 72T345 55Q396 55 432 77T483 138Q489 155 491 183T494 270V602H412V667H647V602H563V270Q563 231 562 203T557 155T549 119T535 89Q506 39 455 13T337 -14Q263 -14 208 16T128 100Q121 114 117 128T111 161T108 209T107 279V602H24V667H279ZM370 858H473L335 739H252L370 858Z"  />
<glyph unicode="&#xDB;" horiz-adv-x="670" d="M279 667V602H196V276Q196 213 201 178T217 121Q234 89 267 72T345 55Q396 55 432 77T483 138Q489 155 491 183T494 270V602H412V667H647V602H563V270Q563 231 562 203T557 155T549 119T535 89Q506 39 455 13T337 -14Q263 -14 208 16T128 100Q121 114 117 128T111 161T108 209T107 279V602H24V667H279ZM269 859H355L471 739H394L312 815L230 739H153L269 859Z"  />
<glyph unicode="&#xDC;" horiz-adv-x="670" d="M279 667V602H196V276Q196 213 201 178T217 121Q234 89 267 72T345 55Q396 55 432 77T483 138Q489 155 491 183T494 270V602H412V667H647V602H563V270Q563 231 562 203T557 155T549 119T535 89Q506 39 455 13T337 -14Q263 -14 208 16T128 100Q121 114 117 128T111 161T108 209T107 279V602H24V667H279ZM295 850V748H196V850H295ZM472 850V748H373V850H472Z"  />
<glyph unicode="&#xDD;" horiz-adv-x="582" d="M257 667V602H184L300 358L419 602H345V667H581V602H494L333 281V65H416V0H161V65H244V279L84 602H0V667H257ZM328 858H431L293 739H210L328 858Z"  />
<glyph unicode="&#xDE;" horiz-adv-x="532" d="M200 65H291V0H28V65H111V602H28V667H283V602H200V549H242Q281 549 308 548T354 544T389 537T418 525Q463 502 488 457T513 355Q513 294 485 247T405 178Q392 173 378 169T347 163T308 160T256 159H200V65ZM253 226Q278 226 295 226T325 229T347 234T366 243Q420 274 420 354Q420 442 359 470Q351 473 342 475T321 479T292 481T251 482H200V226H253Z"  />
<glyph unicode="&#xDF;" horiz-adv-x="514" d="M227 404Q261 405 276 408T306 419Q354 447 354 509Q354 553 330 579T267 606Q241 606 220 594T190 561Q187 552 185 543T181 519T180 483T179 428V0H23V59H95V428Q95 464 96 489T99 534T106 566T118 592Q140 630 179 651T269 672Q306 672 337 661T391 629T425 579T438 515Q438 413 339 376Q408 359 445 309T483 181Q483 139 471 105T437 45T385 6T318 -8Q278 -8 246 9V73Q265 64 277 61T303 57Q347 57 372 90T397 180Q397 258 353 300T227 342V404Z"  />
<glyph unicode="&#xE0;" horiz-adv-x="476" d="M53 323L65 422Q130 482 223 482Q268 482 304 468T360 426Q367 416 372 406T379 381T383 344T384 288V59H454V0H308V69Q282 27 251 9T174 -10Q142 -10 116 0T71 28T41 71T30 126Q30 174 56 210T134 268Q150 275 164 280T196 290T238 300T300 312V329Q300 357 297 371T287 394Q267 420 216 420Q187 420 165 412T131 386Q124 376 122 365T114 323H53ZM300 258Q272 252 253 247T218 238T192 228T169 217Q116 189 116 134Q116 99 137 78T195 57Q226 57 251 73T289 115Q295 129 297 150T300 215V258ZM212 549L75 668H178L296 549H212Z"  />
<glyph unicode="&#xE1;" horiz-adv-x="476" d="M53 323L65 422Q130 482 223 482Q268 482 304 468T360 426Q367 416 372 406T379 381T383 344T384 288V59H454V0H308V69Q282 27 251 9T174 -10Q142 -10 116 0T71 28T41 71T30 126Q30 174 56 210T134 268Q150 275 164 280T196 290T238 300T300 312V329Q300 357 297 371T287 394Q267 420 216 420Q187 420 165 412T131 386Q124 376 122 365T114 323H53ZM300 258Q272 252 253 247T218 238T192 228T169 217Q116 189 116 134Q116 99 137 78T195 57Q226 57 251 73T289 115Q295 129 297 150T300 215V258ZM272 668H375L237 549H154L272 668Z"  />
<glyph unicode="&#xE2;" horiz-adv-x="476" d="M53 323L65 422Q130 482 223 482Q268 482 304 468T360 426Q367 416 372 406T379 381T383 344T384 288V59H454V0H308V69Q282 27 251 9T174 -10Q142 -10 116 0T71 28T41 71T30 126Q30 174 56 210T134 268Q150 275 164 280T196 290T238 300T300 312V329Q300 357 297 371T287 394Q267 420 216 420Q187 420 165 412T131 386Q124 376 122 365T114 323H53ZM300 258Q272 252 253 247T218 238T192 228T169 217Q116 189 116 134Q116 99 137 78T195 57Q226 57 251 73T289 115Q295 129 297 150T300 215V258ZM180 669H266L382 549H305L223 625L141 549H64L180 669Z"  />
<glyph unicode="&#xE3;" horiz-adv-x="476" d="M53 323L65 422Q130 482 223 482Q268 482 304 468T360 426Q367 416 372 406T379 381T383 344T384 288V59H454V0H308V69Q282 27 251 9T174 -10Q142 -10 116 0T71 28T41 71T30 126Q30 174 56 210T134 268Q150 275 164 280T196 290T238 300T300 312V329Q300 357 297 371T287 394Q267 420 216 420Q187 420 165 412T131 386Q124 376 122 365T114 323H53ZM300 258Q272 252 253 247T218 238T192 228T169 217Q116 189 116 134Q116 99 137 78T195 57Q226 57 251 73T289 115Q295 129 297 150T300 215V258ZM67 574Q81 621 103 642T160 664Q176 664 191 659T230 641Q257 627 270 622T294 617Q309 617 319 628T340 665L388 646Q360 554 293 554Q278 554 260 560T211 583Q189 594 179 598T159 602Q145 602 135 592T115 555L67 574Z"  />
<glyph unicode="&#xE4;" horiz-adv-x="476" d="M53 323L65 422Q130 482 223 482Q268 482 304 468T360 426Q367 416 372 406T379 381T383 344T384 288V59H454V0H308V69Q282 27 251 9T174 -10Q142 -10 116 0T71 28T41 71T30 126Q30 174 56 210T134 268Q150 275 164 280T196 290T238 300T300 312V329Q300 357 297 371T287 394Q267 420 216 420Q187 420 165 412T131 386Q124 376 122 365T114 323H53ZM300 258Q272 252 253 247T218 238T192 228T169 217Q116 189 116 134Q116 99 137 78T195 57Q226 57 251 73T289 115Q295 129 297 150T300 215V258ZM186 659V557H87V659H186ZM363 659V557H264V659H363Z"  />
<glyph unicode="&#xE5;" horiz-adv-x="476" d="M53 323L65 422Q130 482 223 482Q268 482 304 468T360 426Q367 416 372 406T379 381T383 344T384 288V59H454V0H308V69Q282 27 251 9T174 -10Q142 -10 116 0T71 28T41 71T30 126Q30 174 56 210T134 268Q150 275 164 280T196 290T238 300T300 312V329Q300 357 297 371T287 394Q267 420 216 420Q187 420 165 412T131 386Q124 376 122 365T114 323H53ZM300 258Q272 252 253 247T218 238T192 228T169 217Q116 189 116 134Q116 99 137 78T195 57Q226 57 251 73T289 115Q295 129 297 150T300 215V258ZM226 694Q259 694 282 671T305 615Q305 582 282 559T226 535Q192 535 169 558T146 616Q146 648 169 671T226 694ZM226 656Q209 656 197 644T185 615Q185 598 197 586T226 574Q243 574 254 586T266 615Q266 632 255 644T226 656Z"  />
<glyph unicode="&#xE6;" horiz-adv-x="719" d="M375 224Q377 139 407 96T498 53Q545 53 574 79T614 154H678Q675 118 660 88T621 37T564 3T495 -10Q381 -10 329 90Q306 41 266 16T173 -10Q109 -10 70 26T30 122Q30 170 57 207T135 264Q150 270 165 274T197 282T238 287T293 291V317Q293 333 293 344T291 362T289 375T284 386Q265 420 206 420Q124 420 115 372V331H53V425Q121 482 218 482Q271 482 304 467T358 418Q385 451 417 466T493 482Q536 482 571 466T631 418T669 344T683 249Q683 244 683 238T682 224H375ZM597 286Q589 420 492 420Q444 420 416 386T379 286H597ZM293 226Q114 224 114 129Q114 97 135 77T191 57Q240 57 266 93T293 195V226Z"  />
<glyph unicode="&#xE7;" horiz-adv-x="440" d="M400 474V315H337Q332 365 308 391T241 418Q186 418 156 370T125 233Q125 148 154 101T238 54Q318 54 335 155H408Q405 120 393 91T360 40T313 5T253 -9L238 -45Q272 -51 290 -69T309 -117Q309 -152 285 -173T220 -195Q205 -195 192 -193T156 -183V-141Q174 -146 183 -147T202 -148Q225 -148 238 -138T252 -109Q252 -69 197 -69Q193 -69 189 -69T177 -70L205 -8Q125 5 81 67T36 230Q36 285 50 331T91 410T153 463T232 482Q299 482 337 432V474H400Z"  />
<glyph unicode="&#xE8;" horiz-adv-x="471" d="M125 227Q126 184 130 159T144 114Q174 52 242 52Q331 52 348 146H427Q425 111 411 83T371 34T313 2T241 -10Q194 -10 157 7T92 56T51 132T36 232Q36 287 51 333T93 412T158 463T241 482Q284 482 320 465T381 418T420 344T434 247Q434 242 434 238T433 227H125ZM342 285Q339 420 242 420Q194 420 164 385T127 285H342ZM230 549L93 668H196L314 549H230Z"  />
<glyph unicode="&#xE9;" horiz-adv-x="470" d="M125 227Q126 184 130 159T144 114Q174 52 242 52Q331 52 348 146H427Q425 111 411 83T371 34T313 2T241 -10Q194 -10 157 7T92 56T51 132T36 232Q36 287 51 333T93 412T158 463T241 482Q284 482 320 465T381 418T420 344T434 247Q434 242 434 238T433 227H125ZM342 285Q339 420 242 420Q194 420 164 385T127 285H342ZM298 668H401L263 549H180L298 668Z"  />
<glyph unicode="&#xEA;" horiz-adv-x="471" d="M125 227Q126 184 130 159T144 114Q174 52 242 52Q331 52 348 146H427Q425 111 411 83T371 34T313 2T241 -10Q194 -10 157 7T92 56T51 132T36 232Q36 287 51 333T93 412T158 463T241 482Q284 482 320 465T381 418T420 344T434 247Q434 242 434 238T433 227H125ZM342 285Q339 420 242 420Q194 420 164 385T127 285H342ZM198 669H284L400 549H323L241 625L159 549H82L198 669Z"  />
<glyph unicode="&#xEB;" horiz-adv-x="471" d="M125 227Q126 184 130 159T144 114Q174 52 242 52Q331 52 348 146H427Q425 111 411 83T371 34T313 2T241 -10Q194 -10 157 7T92 56T51 132T36 232Q36 287 51 333T93 412T158 463T241 482Q284 482 320 465T381 418T420 344T434 247Q434 242 434 238T433 227H125ZM342 285Q339 420 242 420Q194 420 164 385T127 285H342ZM204 659V557H105V659H204ZM381 659V557H282V659H381Z"  />
<glyph unicode="&#xEC;" horiz-adv-x="280" d="M185 59H257V0H28V59H100V413H28V472H185V59ZM127 549L-10 668H93L211 549H127Z"  />
<glyph unicode="&#xED;" horiz-adv-x="280" d="M185 59H257V0H28V59H100V413H28V472H185V59ZM193 668H296L158 549H75L193 668Z"  />
<glyph unicode="&#xEE;" horiz-adv-x="280" d="M185 59H257V0H28V59H100V413H28V472H185V59ZM105 669H191L307 549H230L148 625L66 549H-11L105 669Z"  />
<glyph unicode="&#xEF;" horiz-adv-x="280" d="M185 59H257V0H28V59H100V413H28V472H185V59ZM110 659V557H11V659H110ZM287 659V557H188V659H287Z"  />
<glyph unicode="&#xF0;" horiz-adv-x="479" d="M213 672Q218 667 221 665T227 658T236 649T249 634L259 623L307 661L336 622L290 587Q307 564 319 548T341 519T358 496T373 474Q442 367 442 241Q442 185 428 139T387 60T324 9T243 -10Q197 -10 159 8T94 58T51 136T36 237Q36 291 51 336T93 413T158 464T241 482Q254 482 263 481T286 477Q281 484 277 490T267 503T255 519T235 542L192 508L163 546L204 580Q203 581 200 584T195 590L175 612Q172 616 169 619T162 626L213 672ZM239 420Q185 420 155 373T124 242Q124 154 155 104T243 54Q295 54 324 103T354 238Q354 323 324 371T239 420Z"  />
<glyph unicode="&#xF1;" horiz-adv-x="544" d="M181 395Q204 440 236 461T314 482Q358 482 391 462T440 405Q444 396 446 387T449 363T450 327T451 268V59H523V0H307V59H366V278Q366 323 365 340T358 370Q350 390 332 400T290 410Q264 410 241 397T204 361Q198 352 195 343T189 321T186 293T185 255V59H244V0H28V59H100V413H28V472H181V395ZM106 574Q120 621 142 642T199 664Q215 664 230 659T269 641Q296 627 309 622T333 617Q348 617 358 628T379 665L427 646Q399 554 332 554Q317 554 299 560T250 583Q228 594 218 598T198 602Q184 602 174 592T154 555L106 574Z"  />
<glyph unicode="&#xF2;" horiz-adv-x="487" d="M243 484Q285 484 322 468T388 423Q450 358 450 236Q450 114 388 49Q361 20 323 4T243 -12Q201 -12 163 4T98 49Q36 114 36 240Q36 297 52 344T98 423Q126 452 163 468T243 484ZM243 422Q186 422 156 375T126 239Q126 146 155 99T243 51Q300 51 330 98T360 237Q360 328 330 375T243 422ZM230 549L93 668H196L314 549H230Z"  />
<glyph unicode="&#xF3;" horiz-adv-x="487" d="M243 484Q285 484 322 468T388 423Q450 358 450 236Q450 114 388 49Q361 20 323 4T243 -12Q201 -12 163 4T98 49Q36 114 36 240Q36 297 52 344T98 423Q126 452 163 468T243 484ZM243 422Q186 422 156 375T126 239Q126 146 155 99T243 51Q300 51 330 98T360 237Q360 328 330 375T243 422ZM303 668H406L268 549H185L303 668Z"  />
<glyph unicode="&#xF4;" horiz-adv-x="487" d="M243 484Q285 484 322 468T388 423Q450 358 450 236Q450 114 388 49Q361 20 323 4T243 -12Q201 -12 163 4T98 49Q36 114 36 240Q36 297 52 344T98 423Q126 452 163 468T243 484ZM243 422Q186 422 156 375T126 239Q126 146 155 99T243 51Q300 51 330 98T360 237Q360 328 330 375T243 422ZM201 669H287L403 549H326L244 625L162 549H85L201 669Z"  />
<glyph unicode="&#xF5;" horiz-adv-x="487" d="M243 484Q285 484 322 468T388 423Q450 358 450 236Q450 114 388 49Q361 20 323 4T243 -12Q201 -12 163 4T98 49Q36 114 36 240Q36 297 52 344T98 423Q126 452 163 468T243 484ZM243 422Q186 422 156 375T126 239Q126 146 155 99T243 51Q300 51 330 98T360 237Q360 328 330 375T243 422ZM87 574Q101 621 123 642T180 664Q196 664 211 659T250 641Q277 627 290 622T314 617Q329 617 339 628T360 665L408 646Q380 554 313 554Q298 554 280 560T231 583Q209 594 199 598T179 602Q165 602 155 592T135 555L87 574Z"  />
<glyph unicode="&#xF6;" horiz-adv-x="487" d="M243 484Q285 484 322 468T388 423Q450 358 450 236Q450 114 388 49Q361 20 323 4T243 -12Q201 -12 163 4T98 49Q36 114 36 240Q36 297 52 344T98 423Q126 452 163 468T243 484ZM243 422Q186 422 156 375T126 239Q126 146 155 99T243 51Q300 51 330 98T360 237Q360 328 330 375T243 422ZM205 659V557H106V659H205ZM382 659V557H283V659H382Z"  />
<glyph unicode="&#xF7;" horiz-adv-x="505" d="M469 365V298H36V365H469ZM299 195V101H204V195H299ZM299 559V465H204V559H299Z"  />
<glyph unicode="&#xF8;" horiz-adv-x="487" d="M494 472L416 388Q451 329 451 236Q451 180 436 134T394 56T329 6T243 -12Q156 -12 98 51L51 0H-14L69 89Q52 121 45 155T37 234Q37 358 100 424Q128 453 165 468T244 484Q286 484 322 469T386 425L430 472H494ZM334 371Q302 422 245 422Q188 422 158 375T127 240Q127 219 128 201T134 157L334 371ZM151 106Q182 51 243 51Q300 51 330 99T361 235Q361 258 359 276T351 321L151 106Z"  />
<glyph unicode="&#xF9;" horiz-adv-x="548" d="M177 218Q177 184 177 165T178 136T181 119T186 106Q206 62 261 62Q289 62 312 74T350 110Q360 127 364 151T369 219V413H297V472H454V59H526V0H376V79Q356 36 321 13T240 -10Q190 -10 153 15T101 83Q98 92 97 100T94 122T93 156T92 211V413H20V472H177V218ZM254 549L117 668H220L338 549H254Z"  />
<glyph unicode="&#xFA;" horiz-adv-x="548" d="M177 218Q177 184 177 165T178 136T181 119T186 106Q206 62 261 62Q289 62 312 74T350 110Q360 127 364 151T369 219V413H297V472H454V59H526V0H376V79Q356 36 321 13T240 -10Q190 -10 153 15T101 83Q98 92 97 100T94 122T93 156T92 211V413H20V472H177V218ZM321 668H424L286 549H203L321 668Z"  />
<glyph unicode="&#xFB;" horiz-adv-x="548" d="M177 218Q177 184 177 165T178 136T181 119T186 106Q206 62 261 62Q289 62 312 74T350 110Q360 127 364 151T369 219V413H297V472H454V59H526V0H376V79Q356 36 321 13T240 -10Q190 -10 153 15T101 83Q98 92 97 100T94 122T93 156T92 211V413H20V472H177V218ZM219 669H305L421 549H344L262 625L180 549H103L219 669Z"  />
<glyph unicode="&#xFC;" horiz-adv-x="548" d="M177 218Q177 184 177 165T178 136T181 119T186 106Q206 62 261 62Q289 62 312 74T350 110Q360 127 364 151T369 219V413H297V472H454V59H526V0H376V79Q356 36 321 13T240 -10Q190 -10 153 15T101 83Q98 92 97 100T94 122T93 156T92 211V413H20V472H177V218ZM224 659V557H125V659H224ZM401 659V557H302V659H401Z"  />
<glyph unicode="&#xFD;" horiz-adv-x="509" d="M225 472V413H165L215 259Q220 244 223 235T228 219T231 207T236 192L241 175L256 124Q264 95 266 91Q271 111 278 133T290 176Q292 182 295 193T303 217T310 240T317 259L369 413H310V472H508V413H436L290 -12Q277 -49 269 -72T253 -111T237 -137T219 -158Q171 -204 84 -204Q81 -204 74 -204T59 -203V-142Q94 -142 118 -137T159 -121T188 -89T213 -38L220 -14L75 413H0V472H225ZM304 668H407L269 549H186L304 668Z"  />
<glyph unicode="&#xFE;" horiz-adv-x="535" d="M180 400Q225 482 311 482Q351 482 385 464T445 412T484 334T499 236Q499 183 485 138T445 60T386 9T311 -10Q225 -10 180 72V-138H255V-197H28V-138H100V610H28V669H180V400ZM298 420Q244 420 214 373T183 239Q183 148 212 100T298 52Q353 52 383 100T413 236Q413 324 383 372T298 420Z"  />
<glyph unicode="&#xFF;" horiz-adv-x="509" d="M225 472V413H165L215 259Q220 244 223 235T228 219T231 207T236 192L241 175L256 124Q264 95 266 91Q271 111 278 133T290 176Q292 182 295 193T303 217T310 240T317 259L369 413H310V472H508V413H436L290 -12Q277 -49 269 -72T253 -111T237 -137T219 -158Q171 -204 84 -204Q81 -204 74 -204T59 -203V-142Q94 -142 118 -137T159 -121T188 -89T213 -38L220 -14L75 413H0V472H225ZM218 659V557H119V659H218ZM395 659V557H296V659H395Z"  />
<glyph unicode="&#x131;" horiz-adv-x="280" d="M185 59H257V0H28V59H100V413H28V472H185V59Z"  />
<glyph unicode="&#x152;" horiz-adv-x="900" d="M793 514V600H576V383H789V316H576V67H802V168H868V0H499V80Q457 30 413 9T310 -13Q247 -13 197 11T111 79T56 187T37 330Q37 409 56 473T112 584T198 655T311 680Q429 680 499 590V667H859V514H793ZM314 612Q229 612 181 538T132 333Q132 199 178 127T312 55Q397 55 444 128T491 336Q491 468 445 540T314 612Z"  />
<glyph unicode="&#x153;" horiz-adv-x="782" d="M436 218Q438 140 470 97T559 53Q604 53 634 81T673 157H739Q737 121 722 91T683 38T626 3T557 -10Q448 -10 392 85Q362 35 325 13T236 -10Q192 -10 156 8T93 57T51 133T36 230Q36 284 51 330T94 410T160 463T242 482Q296 482 332 459T395 384Q427 437 464 459T553 482Q596 482 631 465T691 417T731 344T745 249Q745 244 745 237T744 218H436ZM659 279Q657 345 629 382T552 420Q504 420 475 384T438 279H659ZM242 420Q188 420 157 371T125 237Q125 149 154 101T237 52Q291 52 321 100T351 235Q351 325 323 372T242 420Z"  />
<glyph unicode="&#x160;" horiz-adv-x="484" d="M425 667V483H369Q365 544 330 577T234 611Q182 611 151 585T119 513Q119 472 149 448Q157 442 166 436T189 423T225 406T280 381Q309 368 329 358T364 339T389 322T410 304Q456 258 456 183Q456 139 442 103T400 41T336 1T252 -13Q197 -13 159 4T86 59V0H28V206H86Q87 136 128 97T243 57Q302 57 335 87T368 172Q368 214 346 239T265 290Q224 308 195 320T147 343T114 361T91 377Q28 428 28 506Q28 545 42 577T81 632T143 667T222 680Q313 680 366 617V667H425ZM253 739H167L51 859H128L210 783L292 859H369L253 739Z"  />
<glyph unicode="&#x161;" horiz-adv-x="404" d="M300 321Q298 370 272 396T200 423Q165 423 143 405T121 358Q121 335 138 320T202 287Q229 277 248 269T282 255T307 242T328 229Q350 213 362 189T374 134Q374 102 362 76T329 30T279 0T215 -11Q173 -11 144 5T90 56L86 -2H31V160H86Q94 109 126 79T206 49Q243 49 265 68T288 119Q288 132 285 141T272 159T246 176T204 194Q150 214 120 229T75 257Q36 293 36 346Q36 375 47 400T78 443T125 472T184 483Q253 483 298 431L302 475H357V321H300ZM239 549H153L37 669H114L196 593L278 669H355L239 549Z"  />
<glyph unicode="&#x178;" horiz-adv-x="582" d="M257 667V602H184L300 358L419 602H345V667H581V602H494L333 281V65H416V0H161V65H244V279L84 602H0V667H257ZM250 850V748H151V850H250ZM427 850V748H328V850H427Z"  />
<glyph unicode="&#x17D;" horiz-adv-x="478" d="M385 67V173H453V0H20V55L338 600H106V511H38V667H446V611L129 67H385ZM260 739H174L58 859H135L217 783L299 859H376L260 739Z"  />
<glyph unicode="&#x17E;" horiz-adv-x="391" d="M310 62V144H374V0H12V49L254 410H84V341H21V472H361V423L116 62H310ZM235 549H149L33 669H110L192 593L274 669H351L235 549Z"  />
<glyph unicode="&#x192;" horiz-adv-x="505" d="M133 433H232L257 560Q267 609 277 634T305 677Q326 699 356 710T421 722Q468 722 501 705L487 633Q469 647 453 653T419 659Q399 659 384 650T359 622Q354 614 351 600T341 555L318 433H425V376H306L229 -22Q224 -48 220 -65T210 -96T197 -119T181 -139Q138 -184 65 -184Q18 -184 -15 -167L-1 -95Q34 -121 66 -121Q104 -121 124 -90Q130 -80 133 -66T145 -17L221 376H133V433Z"  />
<glyph unicode="&#x2C6;" horiz-adv-x="500" d="M207 669H293L409 549H332L250 625L168 549H91L207 669Z"  />
<glyph unicode="&#x2C7;" horiz-adv-x="500" d="M293 549H207L91 669H168L250 593L332 669H409L293 549Z"  />
<glyph unicode="&#x2DA;" horiz-adv-x="500" d="M250 694Q283 694 306 671T329 615Q329 582 306 559T250 535Q216 535 193 558T170 616Q170 648 193 671T250 694ZM250 656Q233 656 221 644T209 615Q209 598 221 586T250 574Q267 574 278 586T290 615Q290 632 279 644T250 656Z"  />
<glyph unicode="&#x2DC;" horiz-adv-x="500" d="M91 574Q105 621 127 642T184 664Q200 664 215 659T254 641Q281 627 294 622T318 617Q333 617 343 628T364 665L412 646Q384 554 317 554Q302 554 284 560T235 583Q213 594 203 598T183 602Q169 602 159 592T139 555L91 574Z"  />
<glyph unicode="&#x2013;" horiz-adv-x="500" d="M431 283V233H70V283H431Z"  />
<glyph unicode="&#x2014;" horiz-adv-x="593" d="M593 285V231H0V285H593Z"  />
<glyph unicode="&#x2018;" horiz-adv-x="205" d="M43 434V546L122 672H180L93 546H158V434H43Z"  />
<glyph unicode="&#x2019;" horiz-adv-x="194" d="M153 667V568L76 451H22L108 568H49V667H153Z"  />
<glyph unicode="&#x201A;" horiz-adv-x="194" d="M153 99V0L76 -117H22L108 0H49V99H153Z"  />
<glyph unicode="&#x201C;" horiz-adv-x="350" d="M38 456V555L108 672H163L83 555H142V456H38ZM200 456V555L270 672H325L245 555H304V456H200Z"  />
<glyph unicode="&#x201D;" horiz-adv-x="350" d="M150 667V568L80 451H25L105 568H46V667H150ZM312 667V568L242 451H187L267 568H208V667H312Z"  />
<glyph unicode="&#x201E;" horiz-adv-x="350" d="M150 99V0L80 -117H25L105 0H46V99H150ZM312 99V0L242 -117H187L267 0H208V99H312Z"  />
<glyph unicode="&#x2020;" horiz-adv-x="500" d="M290 650V467H431V399H290V-156H209V399H68V467H209V650H290Z"  />
<glyph unicode="&#x2021;" horiz-adv-x="500" d="M290 650V474H431V406H290V240H431V172H290V-156H209V172H68V240H209V406H68V474H209V650H290Z"  />
<glyph unicode="&#x2022;" horiz-adv-x="667" d="M337 477Q365 477 389 466T432 436T462 392T473 339Q473 310 462 285T433 241T389 211T335 200Q306 200 281 211T237 240T207 284T196 338Q196 367 207 392T237 436T281 466T337 477Z"  />
<glyph unicode="&#x2026;" horiz-adv-x="633" d="M161 112V0H49V112H161ZM372 112V0H260V112H372ZM583 112V0H471V112H583Z"  />
<glyph unicode="&#x2030;" horiz-adv-x="905" d="M464 667H526L135 0H74L464 667ZM445 316Q472 316 496 304T537 269T565 218T575 154Q575 120 565 91T538 41T497 7T446 -5Q417 -5 393 7T352 41T324 92T314 157Q314 190 324 218T352 269T394 303T445 316ZM445 261Q415 261 396 231T376 156Q376 109 395 80T445 50Q475 50 494 79T513 155Q513 201 494 231T445 261ZM156 672Q183 672 207 660T248 625T276 574T286 510Q286 476 276 447T249 397T208 363T157 351Q129 351 105 363T63 397T35 448T25 513Q25 546 35 574T63 625T105 659T156 672ZM156 617Q127 617 108 587T88 512Q88 465 107 436T157 406Q186 406 205 435T224 511Q224 557 205 587T156 617ZM752 316Q779 316 803 304T844 269T871 218T881 154Q881 120 872 91T845 41T804 7T753 -5Q724 -5 700 7T659 41T631 92T621 157Q621 190 631 218T659 269T701 303T752 316ZM752 261Q723 261 704 231T684 156Q684 109 703 80T752 50Q781 50 800 79T819 155Q819 201 800 231T752 261Z"  />
<glyph unicode="&#x2039;" horiz-adv-x="218" d="M136 0L31 236L136 472H195L106 236L195 0H136Z"  />
<glyph unicode="&#x203A;" horiz-adv-x="218" d="M82 472L187 236L82 0H23L113 236L23 472H82Z"  />
<glyph unicode="&#x20AC;" horiz-adv-x="505" d="M419 407L398 350H157V323V292H374L352 236H162Q175 146 212 100T308 54Q361 54 394 89T438 191H507Q504 145 489 108T446 45T383 4T303 -11Q207 -11 146 53T70 236H-3L19 292H65V318V350H0L22 407H71Q78 454 87 481T111 536Q177 655 302 655Q345 655 379 641T442 596V643H506V455H441Q438 483 434 499T422 531Q408 558 380 573T316 589Q189 589 162 407H419Z"  />
<glyph unicode="&#x2122;" horiz-adv-x="863" d="M323 667V567H275V625H195V330H246V289H82V330H134V625H54V567H6V667H323ZM503 667L554 519Q566 483 577 447T601 373Q604 383 610 400T624 442Q624 443 627 452T636 474T645 499T653 520L710 667H847V626H795V330H847V289H682V330H735V474Q735 502 735 535T736 608L681 461L620 304H567L512 461Q501 493 489 528T463 604V572V545V509V473V330H515V289H363V330H415V626H362V667H503Z"  />

</font>
</defs>
</svg>
