<?xml  version="1.0" encoding="UTF-8"?>
<!DOCTYPE svg PUBLIC "-//W3C//DTD SVG 1.0//EN" "http://www.w3.org/TR/2001/REC-SVG-20010904/DTD/svg10.dtd" >
<svg xmlns="http://www.w3.org/2000/svg" >
<metadata>
<version>1.0</version>
<id><![CDATA[Corporate E W01 Light]]></id>
<vendor>Monotype Imaging Inc.</vendor>
<credits>
<name>Fonts.com WebFonts</name>
<URL>http://webfonts.fonts.com</URL>
<role>Home of the Web fonts</role>
</credits>
<license>
<URL>http://webfonts.fonts.com/Legal</URL>
</license>
<copyright><![CDATA[Copyright 2009 by (URW)++ Design & Development GmbH]]></copyright>
<trademark><![CDATA[Please refer to the Copyright section for the font trademark attribution notices.]]></trademark>
<licensee>
<name></name>
</licensee>
</metadata>
<defs >
<font horiz-adv-x="472" id="755fbb6a-f571-4ae1-9f06-e230b207172b">
<font-face font-family="" panose-1="0 0 4 0 0 0 0 0 0 0" ascent="738" descent="-262" units-per-em="1000" alphabetic="0">
</font-face>
<missing-glyph horiz-adv-x="0" />

<glyph unicode="&#xA;" />
<glyph unicode="&#xD;" horiz-adv-x="0" />
<glyph unicode=" " horiz-adv-x="250" />
<glyph unicode="!" horiz-adv-x="194" d="M127 650L116 162H74L67 650H127ZM135 74V0H60V74H135Z"  />
<glyph unicode="&quot;" horiz-adv-x="250" d="M40 400L33 667H91L83 400H40ZM167 400L160 667H218L210 400H167Z"  />
<glyph unicode="#" horiz-adv-x="500" d="M480 215H366L332 0H279L313 215H158L124 0H71L105 215H-9L-2 262H112L137 416H23L30 463H144L176 667H230L197 463H352L384 667H437L405 463H519L512 415H398L373 262H487L480 215ZM190 415L166 262H320L344 415H190Z"  />
<glyph unicode="$" horiz-adv-x="493" d="M263 739V674Q294 672 323 656T370 615V667H417V490H375Q374 551 345 587T263 629V374Q292 361 311 353T343 338T364 325T382 312Q442 264 442 179Q442 96 395 47T263 -8V-78H232V-7Q146 1 100 65V0H53V203H100Q100 53 232 38V326Q195 341 171 353T129 379Q64 426 64 508Q64 580 109 625T230 675V739H263ZM264 38Q320 43 350 78T381 172Q381 240 330 276Q320 284 307 291T264 312V38ZM230 629Q176 624 147 594T117 515Q117 457 162 424Q173 416 188 408T230 388V629Z"  />
<glyph unicode="%" horiz-adv-x="547" d="M451 667H497L104 0H59L451 667ZM399 314Q424 314 446 301T484 266T511 215T521 152Q521 119 512 90T486 40T447 7T399 -6Q373 -6 351 6T313 40T287 91T277 154Q277 186 287 215T313 266T352 301T399 314ZM399 270Q384 270 371 261T348 236T333 199T327 153Q327 103 347 71T399 38Q430 38 450 71T471 152Q471 203 451 236T399 270ZM149 673Q174 673 196 660T234 625T260 574T270 511Q270 478 261 449T235 399T196 366T148 353Q122 353 100 365T62 399T37 450T27 512Q27 545 37 574T63 625T102 660T149 673ZM148 629Q133 629 121 620T98 595T83 558T77 512Q77 462 97 430T149 397Q179 397 199 430T220 511Q220 562 200 595T148 629Z"  />
<glyph unicode="&amp;" horiz-adv-x="528" d="M509 342V298H458V278Q458 221 444 178T399 94L435 44H507V0H402L362 56Q321 24 282 10T189 -5Q100 -5 47 40T-6 164Q-6 224 27 274T139 380Q118 411 104 433T82 473T71 505T68 536Q68 591 105 625T202 660Q261 660 295 629T330 545Q330 486 284 438Q277 430 270 424T255 410T236 394T209 373L373 133Q393 162 401 195T410 273Q410 278 410 283T409 298H362V342H509ZM185 410Q233 445 254 476T275 543Q275 577 256 595T202 614Q167 614 146 595T124 542Q124 530 126 520T134 496T152 462T185 410ZM165 345Q133 319 112 297T77 252T57 209T51 162Q51 106 89 73T191 40Q234 40 269 52T337 93L165 345Z"  />
<glyph unicode="&apos;" horiz-adv-x="125" d="M41 400L34 667H92L84 400H41Z"  />
<glyph unicode="(" horiz-adv-x="250" d="M228 672Q207 645 187 602T152 513Q145 489 140 457T130 387T124 311T121 232Q121 159 127 98T146 -15T180 -113T229 -200H188Q159 -167 141 -135T108 -60Q88 -3 77 75T66 234Q66 383 97 495T187 672H228Z"  />
<glyph unicode=")" horiz-adv-x="250" d="M22 -200Q77 -125 103 -18T129 241Q129 386 103 490T21 672H62Q122 609 153 498T184 238Q184 -59 63 -200H22Z"  />
<glyph unicode="*" horiz-adv-x="500" d="M230 650H271V537L378 572L391 533L284 498L350 407L317 383L251 474L184 383L151 407L217 498L110 533L123 572L230 537V650Z"  />
<glyph unicode="+" horiz-adv-x="493" d="M220 358V557H273V358H463V308H273V110H220V308H30V358H220Z"  />
<glyph unicode="&#x2c;" horiz-adv-x="183" d="M140 83V0L69 -121H27L104 0H50V83H140Z"  />
<glyph unicode="-" horiz-adv-x="183" d="M183 281V237H0V281H183Z"  />
<glyph unicode="." horiz-adv-x="194" d="M139 83V0H55V83H139Z"  />
<glyph unicode="/" horiz-adv-x="310" d="M245 667H290L-1 -194H-45L245 667Z"  />
<glyph unicode="0" horiz-adv-x="493" d="M246 659Q349 659 404 572T460 326Q460 166 405 79T246 -8Q144 -8 89 79T33 328Q33 406 47 467T89 571T156 636T246 659ZM246 611Q170 611 131 540T91 329Q91 40 246 40Q323 40 362 112T402 325Q402 467 363 539T246 611Z"  />
<glyph unicode="1" horiz-adv-x="493" d="M282 658V47H377V0H133V47H229V517H116V551Q180 555 206 579T235 658H282Z"  />
<glyph unicode="2" horiz-adv-x="493" d="M384 50V134H432V0H61V40Q115 100 164 161T256 284Q310 362 333 414T357 507Q357 554 326 582T244 611Q187 611 153 575T114 472H68Q71 560 120 609T250 659Q287 659 317 648T369 618T403 571T415 510Q415 437 344 324T128 50H384Z"  />
<glyph unicode="3" horiz-adv-x="493" d="M210 376L236 375Q292 375 325 408T358 497Q358 550 328 580T247 611Q191 611 160 579T123 486H73Q74 525 86 557T122 611T177 646T248 659Q323 659 368 616T413 501Q413 392 314 353Q439 318 439 191Q439 149 425 112T384 46Q331 -8 240 -8Q151 -8 102 41T54 180H103Q105 113 141 77T240 40Q303 40 342 81T381 189Q381 252 343 289T240 326Q233 326 227 326T210 324V376Z"  />
<glyph unicode="4" horiz-adv-x="493" d="M440 230V185H345V47H407V0H225V47H292V185H31V227L298 658H345V230H440ZM292 403Q292 408 292 420T293 450V496L294 543Q294 548 294 559T295 589L242 496Q234 482 228 471T216 450T204 429T189 403L86 230H292V403Z"  />
<glyph unicode="5" horiz-adv-x="493" d="M402 650L394 600H169L136 418Q165 438 189 446T247 455Q289 455 324 439T383 394T421 323T435 232Q435 178 421 134T381 58T318 9T236 -8Q198 -8 168 3T116 34T82 84T70 148H119Q126 97 156 69T234 40Q265 40 291 54T337 93T366 153T377 230Q377 312 340 359T240 407Q167 407 115 330L77 335L127 650H402Z"  />
<glyph unicode="6" horiz-adv-x="493" d="M376 681Q352 657 327 628T277 567T231 503T193 443Q209 447 220 448T245 450Q285 450 317 435T373 390T408 321T421 230Q421 177 408 133T371 58T314 9T240 -8Q159 -8 114 51Q89 84 76 127T62 219Q62 265 76 313T120 417T197 538T313 681H376ZM242 406Q182 406 150 359T117 226Q117 136 149 88T241 40Q301 40 333 88T366 225Q366 311 334 358T242 406Z"  />
<glyph unicode="7" horiz-adv-x="493" d="M455 650V616L157 0H97L392 600H120V517H72V650H455Z"  />
<glyph unicode="8" horiz-adv-x="493" d="M157 342Q78 380 78 485Q78 566 123 612T246 659Q324 659 369 613T414 485Q414 380 335 342Q430 301 430 183Q430 141 417 106T379 45T321 6T246 -8Q205 -8 172 6T114 45T77 105T63 183Q63 241 87 281T157 342ZM247 611Q195 611 167 579T138 489Q138 427 165 395T247 362Q300 362 328 394T356 487Q356 547 328 579T247 611ZM246 316Q188 316 155 280T121 180Q121 114 154 77T247 40Q305 40 338 77T372 178Q372 243 339 279T246 316Z"  />
<glyph unicode="9" horiz-adv-x="493" d="M119 -31Q143 -7 168 22T217 82T262 146T301 207Q285 203 274 202T249 200Q209 200 177 216T121 261T86 330T73 421Q73 474 86 518T123 593T180 642T254 659Q335 659 380 600Q405 567 418 524T432 432Q432 386 418 337T372 231T294 109T181 -31H119ZM253 611Q193 611 161 563T128 425Q128 339 160 292T252 244Q312 244 344 291T377 425Q377 515 345 563T253 611Z"  />
<glyph unicode=":" horiz-adv-x="194" d="M139 389V306H55V389H139ZM139 83V0H55V83H139Z"  />
<glyph unicode=";" horiz-adv-x="183" d="M140 83V0L69 -121H27L104 0H50V83H140ZM142 389V306H53V389H142Z"  />
<glyph unicode="&lt;" horiz-adv-x="500" d="M466 503L89 335L466 168V116L33 312V359L466 555V503Z"  />
<glyph unicode="=" horiz-adv-x="493" d="M463 430V382H30V430H463ZM463 284V236H30V284H463Z"  />
<glyph unicode="&gt;" horiz-adv-x="500" d="M34 168L411 335L34 503V555L467 358V312L34 116V168Z"  />
<glyph unicode="?" horiz-adv-x="378" d="M123 169V179V208Q123 288 149 334Q155 344 159 350T170 365T191 386T227 420Q256 446 269 470T282 524Q282 565 256 589T187 613Q136 613 105 584T66 499H20Q21 535 34 564T70 615T124 648T192 660Q225 660 252 650T298 622T329 579T340 522Q340 473 313 432Q308 424 303 418T291 405T272 388T243 363Q222 346 208 329T186 292T174 249T170 197V169H123ZM195 74V0H121V74H195Z"  />
<glyph unicode="@" horiz-adv-x="667" d="M511 494L468 276Q466 262 464 249T462 229Q462 207 473 195T503 182Q526 182 547 198T584 242T611 304T621 379Q621 435 601 482T544 562T458 615T349 634Q286 634 231 611T136 547T72 451T49 333Q49 273 70 219T131 122Q175 76 230 54T361 32Q421 32 470 44T578 86L593 46Q535 17 479 4T362 -9Q199 -9 102 90Q55 138 30 201T4 334Q4 406 30 468T103 576T213 648T349 675Q416 675 473 653T573 591T639 497T663 380Q663 333 650 290T615 215T563 163T500 143Q470 143 451 160T427 207Q381 140 306 140Q275 140 249 152T205 185T176 237T165 303Q165 346 178 383T216 447T272 491T341 507Q425 507 454 429L466 494H511ZM343 461Q316 461 293 449T252 415T224 365T214 303Q214 249 241 217T313 184Q339 184 361 197T399 233T425 287T434 356Q434 405 410 433T343 461Z"  />
<glyph unicode="A" horiz-adv-x="632" d="M342 676L538 49H623V0H405V49H481L431 213H189L136 49H210V0H8V49H83L295 676H342ZM369 413L315 597Q305 566 295 534T277 475T263 432T257 413L205 262H417L369 413Z"  />
<glyph unicode="B" horiz-adv-x="536" d="M188 667Q234 667 263 667T311 665T343 660T370 651Q417 633 441 595T466 504Q466 449 441 414T360 356Q428 340 463 298T498 189Q498 135 473 92T404 25Q390 17 375 13T340 5T292 1T225 0H31V49H114V618H31V667H188ZM216 374Q246 374 266 375T302 378T327 384T349 394Q404 427 404 497Q404 583 334 608Q325 611 315 613T292 616T259 617T212 618H171V374H216ZM223 49Q257 49 280 50T321 53T351 60T375 70Q436 104 436 185Q436 230 417 263T363 311Q353 315 343 317T317 321T278 323T217 324H171V49H223Z"  />
<glyph unicode="C" horiz-adv-x="556" d="M513 669V492H461Q458 520 453 537T439 568Q421 597 386 613T308 629Q211 629 159 551T106 330Q106 193 156 116T298 38Q349 38 389 63T446 131Q454 151 458 169T464 220H515Q515 202 515 189T513 166T509 146T502 125Q479 59 425 23T294 -14Q174 -14 109 76T43 333Q43 413 61 477T112 587T194 656T302 680Q355 680 394 663T465 611V669H513Z"  />
<glyph unicode="D" horiz-adv-x="617" d="M236 667Q280 667 312 665T369 657T413 642T453 619Q512 577 543 503T575 334Q575 231 538 153T432 35Q414 25 396 18T356 7T304 2T236 0H31V49H114V618H31V667H236ZM236 49Q261 49 275 49T299 49T314 51T330 54Q412 70 456 130Q483 166 498 220T513 335Q513 429 481 497T390 594Q375 601 361 605T330 613T291 617T236 618H171V49H236Z"  />
<glyph unicode="E" horiz-adv-x="495" d="M406 522V619H171V373H412V324H171V49H412V157H462V0H31V49H114V618H31V667H457V522H406Z"  />
<glyph unicode="F" horiz-adv-x="473" d="M406 522V619H171V373H413V324H171V49H267V0H31V49H114V618H31V667H457V522H406Z"  />
<glyph unicode="G" horiz-adv-x="598" d="M511 669V492H460Q455 558 415 594T305 630Q208 630 157 552T105 326Q105 186 158 112T312 37Q363 37 398 52T460 102V242H374V292H590V242H517V84Q478 33 429 10T310 -14Q247 -14 198 9T114 78T61 188T43 335Q43 415 61 479T112 587T194 656T302 680Q356 680 394 664T463 612V669H511Z"  />
<glyph unicode="H" horiz-adv-x="649" d="M479 375V618H396V667H619V618H536V49H619V0H396V49H479V329H171V49H253V0H31V49H114V618H31V667H253V618H171V375H479Z"  />
<glyph unicode="I" horiz-adv-x="286" d="M256 667V618H173V49H256V0H31V49H114V618H31V667H256Z"  />
<glyph unicode="J" horiz-adv-x="301" d="M275 667V618H192V169Q192 127 191 98T186 49T176 15T160 -11Q137 -40 103 -52T8 -64V-16Q51 -15 75 -6T114 23Q120 32 123 42T129 69T132 109T133 169V618H50V667H275Z"  />
<glyph unicode="K" horiz-adv-x="612" d="M253 667V618H171V339L442 618H367V667H586V618H508L276 384L516 49H601V0H366V49H444L238 348L171 280V49H253V0H31V49H114V618H31V667H253Z"  />
<glyph unicode="L" horiz-adv-x="484" d="M420 49V157H470V0H31V49H114V618H31V667H253V618H171V49H420Z"  />
<glyph unicode="M" horiz-adv-x="774" d="M205 667L291 383Q313 311 334 241T377 99Q402 170 426 240T476 383L574 667H744V617H661V49H744V0H522V49H604V329V399V469Q604 475 604 492T605 534V617Q573 521 549 449T508 326L405 49H336L249 331Q227 403 206 474T163 617V537Q164 512 164 495T164 472V401V331V49H247V0H31V49H114V617H31V667H205Z"  />
<glyph unicode="N" horiz-adv-x="646" d="M187 667L338 394Q389 297 426 226T489 104Q489 133 489 151T488 182T488 209T487 241Q487 283 487 305T486 340T486 358T486 372V618H403V667H619V618H536V0H492L329 294Q324 302 314 322T287 374Q255 434 224 493T160 612Q161 584 161 567T162 535T163 504T164 460L165 389Q166 363 166 345T166 319V49H249V0H31V49H114V618H31V667H187Z"  />
<glyph unicode="O" horiz-adv-x="606" d="M303 681Q363 681 411 657T493 587T545 478T563 334Q563 254 545 190T493 80T412 11T304 -14Q243 -14 195 10T113 79T61 190T43 338Q43 410 60 474T110 584Q142 630 193 655T303 681ZM303 630Q210 630 158 552T105 337Q105 194 157 116T303 37Q397 37 449 115T501 334Q501 403 488 458T449 551T386 610T303 630Z"  />
<glyph unicode="P" horiz-adv-x="511" d="M171 49H259V0H31V49H114V618H31V667H221Q264 667 292 666T340 663T374 656T402 644Q443 621 466 579T489 482Q489 425 464 383T393 320Q368 309 335 305T244 300H171V49ZM241 349Q266 349 284 349T316 351T340 355T360 362Q392 376 409 407T427 484Q427 530 409 561T356 607Q347 610 338 612T316 616T284 617T237 618H171V349H241Z"  />
<glyph unicode="Q" horiz-adv-x="606" d="M556 0L491 76Q458 32 409 9T302 -14Q242 -14 195 10T113 80T61 189T43 334Q43 414 61 478T113 587T195 656T303 681Q363 681 411 657T493 587T545 478T563 334Q563 215 520 125L635 0H556ZM303 630Q210 630 158 552T105 337Q105 194 157 116T303 37Q397 37 449 115T501 334Q501 403 488 458T449 551T386 610T303 630Z"  />
<glyph unicode="R" horiz-adv-x="586" d="M230 667Q280 667 311 667T362 664T395 658T423 647Q468 627 492 589T516 500Q516 428 476 381T363 323L503 49H575V0H459L302 318H171V49H253V0H31V49H114V618H31V667H230ZM267 367Q297 367 316 367T350 370T375 376T397 386Q424 400 439 428T454 495Q454 578 387 605Q377 609 367 611T343 615T308 617T256 618H171V367H267Z"  />
<glyph unicode="S" horiz-adv-x="484" d="M428 667V492H383Q380 556 342 593T240 630Q180 630 144 599T108 514Q108 491 114 474T136 442T179 413T247 380Q286 364 310 353T351 334T379 318T402 300Q455 255 455 178Q455 135 441 100T399 40T335 0T253 -14Q197 -14 157 4T84 63V0H36V191H84Q85 116 126 77T245 37Q314 37 352 72T391 170Q391 195 385 213T365 248T328 277T270 306Q232 322 205 334T158 356T125 374T101 392Q45 439 45 510Q45 547 59 578T98 633T157 668T234 681Q327 681 377 612V667H428Z"  />
<glyph unicode="T" horiz-adv-x="473" d="M459 667V521H411V618H264V49H346V0H125V49H208V618H63V521H14V667H459Z"  />
<glyph unicode="U" horiz-adv-x="653" d="M248 667V617H166V275Q166 237 167 209T173 159T183 122T198 94Q218 66 252 52T330 37Q382 37 420 57T477 116Q482 126 485 139T490 170T493 213T494 274V617H411V667H627V617H544V275Q544 222 543 190T539 138T531 104T515 76Q487 31 440 9T328 -14Q259 -14 209 11T134 83Q126 97 122 113T114 150T110 202T109 276V617H26V667H248Z"  />
<glyph unicode="V" horiz-adv-x="622" d="M219 667V618H143L307 82L489 618H415V667H617V618H542L327 -11H281L84 618H6V667H219Z"  />
<glyph unicode="W" horiz-adv-x="846" d="M229 667V618H148L199 360Q211 289 223 219T248 80L324 385L397 667H460L529 388L562 234L595 80Q609 151 623 221T653 363L708 618H634V667H840V618H760L621 -6H567L496 285Q478 363 461 440T425 597Q403 508 385 430T350 285L276 -6H219L90 618H6V667H229Z"  />
<glyph unicode="X" horiz-adv-x="577" d="M169 667L296 398L413 618H333V667H554V618H474L322 353L477 49H561V0H433L285 308L148 49H232V0H6V49H91L260 353L125 618H42V667H169Z"  />
<glyph unicode="Y" horiz-adv-x="562" d="M226 667V618H149L283 345L421 618H343V667H559V618H478L307 289V49H390V0H167V49H250V287L86 618H3V667H226Z"  />
<glyph unicode="Z" horiz-adv-x="469" d="M393 49V160H443V0H21V32L363 618H97V524H47V667H437V633L94 49H393Z"  />
<glyph unicode="[" horiz-adv-x="250" d="M225 667V623H144V-150H225V-194H92V667H225Z"  />
<glyph unicode="\" horiz-adv-x="310" d="M310 -194L20 667H64L355 -194H310Z"  />
<glyph unicode="]" horiz-adv-x="250" d="M25 -194V-150H106V623H25V667H158V-194H25Z"  />
<glyph unicode="^" horiz-adv-x="500" d="M33 376L216 668H284L467 376H409L249 627L91 376H33Z"  />
<glyph unicode="_" horiz-adv-x="500" d="M500 -72V-121H0V-72H500Z"  />
<glyph unicode="`" horiz-adv-x="500" d="M249 558L127 669H190L295 558H249Z"  />
<glyph unicode="a" horiz-adv-x="455" d="M60 329L76 433Q114 459 147 470T217 482Q262 482 296 466T345 420Q350 411 352 403T356 383T358 350T359 296V44H429V0H312V73Q274 -10 180 -10Q115 -10 75 28T34 129Q34 224 133 265Q148 271 161 276T192 285T236 295T305 309V329Q305 358 303 374T294 401Q285 418 264 426T213 435Q179 435 154 424T117 394Q115 389 114 386T110 376T106 358T99 329H60ZM305 266Q271 260 248 255T208 246T178 236T151 224Q89 195 89 131Q89 89 115 64T184 38Q221 38 249 56T292 107Q300 123 302 149T305 226V266Z"  />
<glyph unicode="b" horiz-adv-x="492" d="M147 669V400Q192 482 275 482Q314 482 346 464T403 413T440 335T453 236Q453 182 440 137T403 60T347 9T275 -10Q192 -10 147 72V0H93V625H22V669H147ZM271 435Q211 435 177 383T143 239Q143 191 150 158T173 98Q189 70 215 54T271 37Q300 37 327 53T369 98Q385 125 392 158T399 236Q399 325 369 374Q353 402 327 418T271 435Z"  />
<glyph unicode="c" horiz-adv-x="418" d="M371 472V318H324Q316 435 223 435Q164 435 129 380T93 234Q93 143 127 90T220 37Q266 37 294 70T328 161H379Q378 123 366 92T332 38T282 3T218 -10Q177 -10 144 7T88 56T52 132T39 231Q39 286 52 332T90 411T147 463T221 482Q285 482 324 428V472H371Z"  />
<glyph unicode="d" horiz-adv-x="497" d="M400 669V44H470V0H346V72Q299 -10 216 -10Q177 -10 145 8T89 59T52 137T39 236Q39 290 52 335T89 413T145 464T217 482Q300 482 346 400V625H274V669H400ZM221 435Q161 435 127 383T93 239Q93 191 100 158T122 98Q139 70 165 54T221 37Q250 37 277 53T320 98Q336 124 343 157T350 236Q350 325 320 374Q303 402 277 418T221 435Z"  />
<glyph unicode="e" horiz-adv-x="438" d="M91 237Q91 192 96 163T113 109Q150 37 222 37Q268 37 298 64T339 142H390Q382 73 336 32T220 -10Q135 -10 87 53T39 225Q39 282 53 329T92 410T153 463T230 482Q267 482 298 466T352 419T386 347T399 254V237H91ZM342 281Q336 435 229 435Q175 435 139 394T94 281H342Z"  />
<glyph unicode="f" horiz-adv-x="298" d="M269 472V428H156V44H245V0H31V44H102V428H37V472H102V525Q102 550 103 568T106 598T112 620T122 638Q151 681 219 681Q260 681 296 668V614Q256 637 219 637Q172 637 160 595Q159 590 158 586T157 573T156 552T156 517V472H269Z"  />
<glyph unicode="g" horiz-adv-x="458" d="M440 428L330 429Q379 389 379 325Q379 299 371 276T345 234Q329 217 306 204T238 174Q204 162 183 153T149 137T133 124T129 109Q129 95 143 88T192 78Q259 73 300 64T365 38Q417 2 417 -63Q417 -132 368 -168T225 -205Q127 -205 73 -170T18 -69Q18 27 138 51Q69 63 69 103Q69 129 98 150T181 182Q125 195 96 230T67 320Q67 350 77 377T107 425Q130 450 163 461T245 472Q247 472 251 472T267 472T299 472T356 471L440 469V428ZM227 434Q179 434 151 405T123 328Q123 277 150 248T226 219Q271 219 298 249T326 328Q326 376 299 405T227 434ZM224 30Q152 30 110 4T67 -67Q67 -112 108 -137T225 -162Q294 -162 331 -137T368 -64Q368 -18 331 6T224 30Z"  />
<glyph unicode="h" horiz-adv-x="523" d="M156 401Q199 482 287 482Q328 482 360 466T410 423Q416 412 420 403T425 379T427 337T428 265V44H499V0H303V44H374V286Q374 327 373 347T367 379Q359 405 336 420T280 435Q246 435 218 417T173 366Q163 346 160 321T156 247V44H227V0H31V44H102V625H31V669H156V401Z"  />
<glyph unicode="i" horiz-adv-x="253" d="M156 44H227V0H31V44H102V428H31V472H156V44ZM162 653V582H86V653H162Z"  />
<glyph unicode="j" horiz-adv-x="269" d="M174 44Q174 -1 173 -31T167 -83T153 -120T130 -151Q104 -176 75 -187T0 -198V-173Q64 -165 94 -121Q103 -106 107 -95T114 -68T117 -26T118 45V428H47V472H174V44ZM180 653V582H104V653H180Z"  />
<glyph unicode="k" horiz-adv-x="517" d="M156 247L344 428H273V472H470V428H405L270 298L427 44H506V0H314V44H364L233 268L156 194V44H217V0H31V44H102V625H31V669H156V247Z"  />
<glyph unicode="l" horiz-adv-x="256" d="M159 44H230V0H31V44H102V625H31V669H159V44Z"  />
<glyph unicode="m" horiz-adv-x="749" d="M153 407Q191 482 274 482Q321 482 352 461T394 399Q430 482 521 482Q567 482 600 462T646 404Q649 396 650 390T653 371T654 336T654 276V44H725V0H529V44H600V276Q600 310 600 329T598 360T595 378T590 391Q570 435 514 435Q482 435 457 419T418 372Q410 356 408 332T405 260V44H476V0H280V44H351V261Q351 302 351 324T349 359T346 378T340 392Q317 435 265 435Q233 435 210 419T172 371Q163 351 160 327T156 258V44H227V0H31V44H102V428H31V472H153V407Z"  />
<glyph unicode="n" horiz-adv-x="513" d="M155 398Q196 482 286 482Q331 482 364 461T409 402Q412 394 413 387T415 366T416 329T417 265V44H488V0H292V44H363V286Q363 310 363 327T361 356T358 376T353 391Q345 412 325 423T279 435Q250 435 225 421T182 381Q174 369 169 358T161 332T157 297T156 247V44H227V0H31V44H102V428H31V472H155V398Z"  />
<glyph unicode="o" horiz-adv-x="449" d="M225 485Q311 485 360 419T410 236Q410 179 397 133T360 54T302 5T225 -13Q137 -13 88 54T39 240Q39 296 52 341T89 418T147 467T225 485ZM225 439Q161 439 126 387T91 239Q91 139 125 86T225 33Q289 33 323 85T358 236Q358 334 324 386T225 439Z"  />
<glyph unicode="p" horiz-adv-x="501" d="M156 400Q201 482 284 482Q323 482 355 464T412 413T449 335T462 236Q462 182 449 137T412 59T356 8T284 -10Q201 -10 156 72V-153H229V-197H31V-153H102V428H31V472H156V400ZM280 435Q220 435 186 383T152 239Q152 191 159 158T181 98Q198 70 224 54T280 37Q309 37 335 53T378 98Q394 124 401 157T408 236Q408 329 374 382T280 435Z"  />
<glyph unicode="q" horiz-adv-x="501" d="M470 472V428H400V-153H470V-197H272V-153H346V72Q300 -10 217 -10Q178 -10 146 8T89 59T52 137T39 236Q39 290 52 335T89 412T145 463T217 482Q300 482 346 400V472H470ZM221 435Q162 435 128 383T93 239Q93 191 100 158T123 98Q139 70 165 54T221 37Q250 37 277 53T320 98Q336 124 343 157T350 236Q350 325 320 374Q304 402 277 418T221 435Z"  />
<glyph unicode="r" horiz-adv-x="349" d="M152 402Q172 442 199 460T261 479Q323 479 347 421V338H295Q295 364 294 377T290 400Q280 431 244 431Q218 431 197 412T167 361Q164 349 162 337T158 309T157 270T156 214V44H237V0H31V44H102V428H31V472H152V402Z"  />
<glyph unicode="s" horiz-adv-x="384" d="M296 320Q295 376 265 407T181 438Q142 438 117 417T92 364Q92 328 124 306Q132 301 137 298T153 289T183 274T237 249Q269 234 291 220T326 191T344 159T350 121Q350 92 339 68T308 27T261 0T201 -10Q161 -10 131 6T75 57L67 -3H33V153H69Q77 100 113 68T200 35Q243 35 269 57T296 116Q296 155 261 178Q254 182 249 185T234 192T207 205T158 229Q136 240 122 247T98 260T82 271T68 284Q38 314 38 359Q38 386 48 408T77 447T121 473T177 483Q244 483 292 432L300 475H333V320H296Z"  />
<glyph unicode="t" horiz-adv-x="295" d="M259 472V429H146V197Q146 163 146 142T148 107T152 84T158 67Q164 55 179 47T213 39Q239 39 270 58V10Q250 1 235 -2T199 -6Q125 -6 104 46Q99 56 97 64T94 88T92 129T92 202V429H25V472H92V611H146V472H259Z"  />
<glyph unicode="u" horiz-adv-x="514" d="M147 218Q147 178 147 156T148 122T151 103T157 88Q179 37 239 37Q269 37 295 51T339 90Q347 102 352 113T360 140T364 174T365 221V428H294V472H419V44H489V0H367V78Q352 38 316 14T233 -10Q186 -10 152 12T103 76Q100 85 98 94T95 117T94 152T93 208V428H22V472H147V218Z"  />
<glyph unicode="v" horiz-adv-x="489" d="M197 472V428H136L192 246L247 63L308 246L368 428H304V472H484V428H417L270 -4H222L78 428H6V472H197Z"  />
<glyph unicode="w" horiz-adv-x="692" d="M186 472V428H123L161 259Q172 210 181 164T199 73Q213 124 227 175T257 281L317 472H378L433 278Q451 213 464 165T489 68Q493 84 495 94T499 114T503 133T509 162Q513 180 515 192T519 210Q521 221 524 233T530 256L571 428H510V472H687V428H617L510 -4H462L403 199Q386 262 374 309T353 388Q347 410 344 425Q338 402 332 380T319 333T303 275T282 199L221 -4H173L69 428H6V472H186Z"  />
<glyph unicode="x" horiz-adv-x="510" d="M161 472L254 295L335 428H286V472H472V428H390L277 259L403 44H496V0H362L245 218L140 44H198V0H14V44H87L221 256L122 428H46V472H161Z"  />
<glyph unicode="y" horiz-adv-x="483" d="M193 472V428H132L188 251Q193 235 201 209T218 156T234 107T245 74Q260 119 274 162T302 251L361 428H300V472H480V428H409L264 -19Q253 -52 246 -72T233 -107T221 -130T207 -150Q187 -175 157 -188T89 -201Q87 -201 83 -201T73 -200V-158Q101 -156 121 -150T156 -131T183 -95T207 -37L216 -7L77 428H3V472H193Z"  />
<glyph unicode="z" horiz-adv-x="366" d="M308 44V123H352V0H8V27L275 428H63V361H19V472H345V445L79 44H308Z"  />
<glyph unicode="{" horiz-adv-x="250" d="M244 624Q217 623 200 618T171 602T156 574T151 530V345Q151 298 139 274T96 233Q127 216 139 191T151 118V-59Q151 -87 155 -105T171 -135T199 -151T244 -157V-200H232Q195 -200 170 -192T128 -167T105 -121T98 -51V118Q98 163 85 184T40 214V254Q72 263 85 284T98 347V532Q98 602 129 634T229 667H244V624Z"  />
<glyph unicode="|" horiz-adv-x="500" d="M276 667V-167H224V667H276Z"  />
<glyph unicode="}" horiz-adv-x="250" d="M7 667H22Q91 667 122 635T153 532V347Q153 305 166 284T211 254V214Q179 205 166 184T153 118V-51Q153 -92 146 -120T123 -166T82 -192T19 -200H7V-157Q34 -156 51 -151T80 -135T95 -106T100 -59V118Q100 166 112 191T155 233Q124 249 112 273T100 345V530Q100 556 96 573T80 602T52 618T7 624V667Z"  />
<glyph unicode="~" horiz-adv-x="667" d="M94 245Q123 302 153 326T226 351Q247 351 273 342T341 312Q362 301 377 294T403 284T423 279T441 277Q471 277 493 294T539 353L573 333Q544 279 511 254T436 228Q425 228 415 230T389 237T353 252T298 279Q272 291 255 296T222 302Q194 302 172 284T127 224L94 245Z"  />
<glyph unicode="&#xA0;" horiz-adv-x="250" />
<glyph unicode="&#xA1;" horiz-adv-x="194" d="M67 -178L78 310H121L127 -178H67ZM60 398V472H135V398H60Z"  />
<glyph unicode="&#xA2;" horiz-adv-x="493" d="M274 683V577Q330 568 360 522V567H408V413H360Q358 464 335 495T274 529V133Q312 139 336 171T364 255H416Q416 221 405 191T374 139T330 102T274 85V-22H241V85Q165 92 121 156T76 325Q76 431 120 498T241 576V683H274ZM241 528Q188 517 159 465T130 329Q130 273 144 230T185 160Q196 149 208 143T241 133V528Z"  />
<glyph unicode="&#xA3;" horiz-adv-x="493" d="M301 315H190Q187 282 180 245T161 172T135 101T104 40Q116 43 125 44T149 46T186 47T244 48Q254 48 267 48T289 47L344 46Q427 46 427 117Q427 123 427 129T425 146H471Q472 135 472 129T473 115Q473 86 463 61T434 21Q426 14 418 10T397 4T368 1T323 0H59V34Q71 55 83 90T105 165T123 244T133 315H56V358H139Q147 423 151 458T159 513T164 540T170 560Q205 675 300 675Q352 675 382 645T417 560H370Q364 595 348 610T303 626Q238 626 218 534Q215 523 214 515T210 491T205 444T196 358H301V315Z"  />
<glyph unicode="&#xA4;" horiz-adv-x="667" d="M158 151Q105 216 105 295Q105 334 117 368T158 437L65 529L95 559L187 468Q224 497 258 509T333 522Q374 522 408 510T478 468L570 559L600 529L509 437Q536 402 548 368T561 293Q561 254 549 220T509 151L601 59L571 28L479 120Q412 68 334 68Q295 68 261 80T189 120L98 28L68 59L158 151ZM333 475Q296 475 264 461T207 423T168 366T154 297Q154 259 168 226T206 168T262 129T333 115Q370 115 402 129T459 167T498 225T512 295Q512 332 498 365T460 422T403 461T333 475Z"  />
<glyph unicode="&#xA5;" horiz-adv-x="493" d="M213 667V618H131L246 347L367 618H286V667H491V618H421L340 438H452V389H317L272 288H419V238H272V49H355V0H132V49H215V238H74V288H215L171 389H41V438H150L74 618H2V667H213Z"  />
<glyph unicode="&#xA6;" horiz-adv-x="500" d="M276 667V339H224V667H276ZM276 153V-167H224V153H276Z"  />
<glyph unicode="&#xA7;" horiz-adv-x="500" d="M372 488Q372 613 258 613Q209 613 179 586T148 517Q148 475 180 449Q186 444 191 440T207 430T239 412T296 379Q337 356 363 339T403 305T423 272T429 234Q429 193 409 165T341 110Q378 81 393 53T409 -13Q409 -47 397 -75T362 -123T308 -155T240 -166Q162 -166 117 -125T71 -13H123Q125 -37 129 -52T143 -80Q157 -99 184 -110T241 -121Q292 -121 324 -92T356 -14Q356 34 312 66Q305 71 300 74T286 84T259 100T212 129Q183 146 165 157T136 176T117 190T103 205Q75 237 75 278Q75 316 97 343T168 396Q130 420 113 448T95 513Q95 545 107 571T141 617T193 648T260 659Q306 659 341 643T399 595Q414 574 420 550T426 488H372ZM211 370Q128 334 128 279Q128 267 131 257T142 238T165 217T201 193Q224 179 251 163T300 135Q335 151 355 176T375 231Q375 255 363 270T316 308Q306 314 293 322T264 339T235 356T211 370Z"  />
<glyph unicode="&#xA8;" horiz-adv-x="500" d="M207 644V569H139V644H207ZM360 644V569H292V644H360Z"  />
<glyph unicode="&#xA9;" horiz-adv-x="775" d="M521 539V429H482Q480 446 477 456T469 474Q458 491 437 500T388 510Q329 510 297 465T264 337Q264 258 297 213T388 167Q477 167 484 274H522Q523 205 489 168T389 131Q308 131 263 186T218 339Q218 435 263 490T385 546Q416 546 438 538T484 509V539H521ZM388 679Q459 679 522 652T631 578T705 468T732 333Q732 262 705 199T632 89T523 15T389 -12Q317 -12 254 15T144 90T70 201T43 338Q43 408 70 470T145 578T254 652T388 679ZM388 648Q324 648 268 624T169 557T102 458T77 338Q77 271 101 213T168 112T267 44T389 19Q453 19 509 43T607 111T673 211T698 333Q698 398 674 455T607 555T509 623T388 648Z"  />
<glyph unicode="&#xAA;" horiz-adv-x="312" d="M290 327V294H22V327H290ZM43 578L54 644Q79 660 100 667T146 674Q175 674 197 664T230 636Q233 631 235 626T237 613T238 593T239 561V415H285V384H203V417Q187 397 168 388T122 378Q80 378 54 401T27 462Q27 520 92 546Q102 550 110 552T129 557T156 563T198 571V581Q198 616 187 628T143 641Q123 641 108 635T86 618Q83 613 81 607T74 578H43ZM198 540Q160 534 135 527T95 511T74 491T68 463Q68 440 83 426T125 411Q148 411 165 421T190 450Q195 460 196 475T198 520V540Z"  />
<glyph unicode="&#xAB;" horiz-adv-x="306" d="M246 0L145 236L246 472H280L191 236L280 0H246ZM136 0L36 236L136 472H170L81 236L170 0H136Z"  />
<glyph unicode="&#xAC;" horiz-adv-x="500" d="M414 219H33V267H466V0H414V219Z"  />
<glyph unicode="&#xAD;" horiz-adv-x="183" d="M183 281V237H0V281H183Z"  />
<glyph unicode="&#xAE;" horiz-adv-x="775" d="M358 538Q392 538 413 538T448 535T471 530T491 521Q542 494 542 434Q542 390 518 364T447 329L532 174H579V139H505L401 326H324V174H376V139H229V174H282V503H229V538H358ZM381 361Q400 361 413 361T435 363T451 367T464 374Q496 392 496 434Q496 479 459 494Q447 499 430 501T375 503H324V361H381ZM388 679Q459 679 522 652T631 578T705 468T732 333Q732 262 705 199T632 89T522 15T388 -12Q316 -12 253 15T144 90T70 201T43 338Q43 408 70 470T145 578T254 652T388 679ZM388 648Q324 648 268 624T169 557T102 458T77 337Q77 271 101 213T168 112T266 44T388 19Q452 19 508 43T607 111T673 211T698 333Q698 398 674 455T607 555T509 623T388 648Z"  />
<glyph unicode="&#xAF;" horiz-adv-x="500" d="M361 619V580H139V619H361Z"  />
<glyph unicode="&#xB0;" horiz-adv-x="500" d="M251 673Q279 673 304 663T348 634T377 592T388 539Q388 511 378 487T348 444T304 416T251 405Q222 405 197 415T153 444T124 487T113 541Q113 568 124 592T153 634T197 662T251 673ZM251 627Q233 627 217 620T188 602T168 574T161 540Q161 521 168 505T187 477T215 458T251 451Q288 451 314 476T340 539Q340 576 314 601T251 627Z"  />
<glyph unicode="&#xB1;" horiz-adv-x="493" d="M220 358V557H273V358H463V308H273V110H220V308H30V358H220ZM463 92V42H30V92H463Z"  />
<glyph unicode="&#xB2;" horiz-adv-x="333" d="M250 463V512H287V428H47V455Q60 467 75 483T106 519T139 558T170 599Q203 644 218 675T233 729Q233 755 215 771T165 787Q130 787 110 766T87 706H51Q53 760 84 790T169 821Q217 821 246 796T276 730Q276 688 232 620T100 463H250Z"  />
<glyph unicode="&#xB3;" horiz-adv-x="333" d="M141 656Q146 655 151 655T161 655Q195 655 215 673T235 724Q235 753 217 770T168 787Q98 787 93 714H54Q56 764 86 792T168 821Q217 821 246 795T276 726Q276 695 263 676T219 639Q292 618 292 543Q292 489 257 456T163 422Q109 422 76 451T42 528Q42 530 42 533T43 540H80Q83 456 163 456Q201 456 225 480T249 542Q249 578 226 599T163 621Q158 621 154 621T141 619V656Z"  />
<glyph unicode="&#xB4;" horiz-adv-x="500" d="M309 669H373L248 558H205L309 669Z"  />
<glyph unicode="&#xB5;" horiz-adv-x="500" d="M55 480H107V201Q107 173 109 153T116 116T128 88T148 64Q187 27 245 27Q312 27 354 80Q375 107 384 137T393 212V480H445V0H393V96Q368 39 333 13T243 -14Q198 -14 166 4T107 65V-165H55V480Z"  />
<glyph unicode="&#xB6;" horiz-adv-x="457" d="M178 313H162Q121 313 87 326T29 362T-9 417T-23 488Q-23 538 -1 578T61 640Q85 653 119 660T194 667H455V626H382V-101H336V626H224V-101H178V313Z"  />
<glyph unicode="&#xB7;" horiz-adv-x="194" d="M139 286V203H55V286H139Z"  />
<glyph unicode="&#xB8;" horiz-adv-x="500" d="M283 0L260 -47Q329 -53 329 -107Q329 -137 307 -154T245 -172Q230 -172 217 -171T187 -164V-135Q205 -137 211 -137T225 -138Q250 -138 265 -129T281 -104Q281 -83 254 -75Q247 -73 238 -72T209 -70L246 0H283Z"  />
<glyph unicode="&#xB9;" horiz-adv-x="333" d="M193 822V461H252V428H92V461H153V732H81V758Q123 760 139 774T157 822H193Z"  />
<glyph unicode="&#xBA;" horiz-adv-x="279" d="M274 327V294H6V327H274ZM140 680Q195 680 227 641T259 532Q259 463 227 424T140 384Q84 384 53 424T21 534Q21 601 53 640T140 680ZM140 647Q102 647 82 618T61 534Q61 477 81 447T140 417Q178 417 198 447T219 532Q219 587 199 617T140 647Z"  />
<glyph unicode="&#xBB;" horiz-adv-x="306" d="M59 472L159 236L59 0H25L114 236L25 472H59ZM168 472L269 236L168 0H134L223 236L134 472H168Z"  />
<glyph unicode="&#xBC;" horiz-adv-x="772" d="M193 655V294H252V261H92V294H153V566H81V592Q123 594 139 607T157 655H193ZM595 650L213 0H167L550 650H595ZM730 142V109H670V33H709V0H588V33H630V109H466V137L635 394H670V142H730ZM630 241V267Q631 272 631 278T631 293V319V333Q617 309 602 286T572 239L510 142H630V241Z"  />
<glyph unicode="&#xBD;" horiz-adv-x="772" d="M193 655V294H252V261H92V294H153V566H81V592Q123 594 139 607T157 655H193ZM595 650L213 0H167L550 650H595ZM688 35V85H725V0H485V27Q497 38 512 54T543 90T577 131T608 172Q641 217 656 248T671 302Q671 328 653 344T603 360Q568 360 548 339T525 279H489Q491 333 522 363T607 394Q655 394 684 369T714 303Q714 261 670 194T538 35H688Z"  />
<glyph unicode="&#xBE;" horiz-adv-x="772" d="M141 489Q146 488 151 488T161 488Q195 488 215 507T235 558Q235 587 217 604T168 621Q98 621 93 548H54Q56 598 86 626T168 655Q217 655 246 629T276 560Q276 528 263 509T219 472Q292 451 292 376Q292 322 257 289T163 256Q109 256 76 284T42 361Q42 363 42 366T43 373H80Q83 290 163 290Q201 290 225 314T249 376Q249 411 226 432T163 454Q156 454 141 451V489ZM596 650L213 0H167L550 650H596ZM731 142V109H671V33H709V0H588V33H631V109H466V137L636 394H671V142H731ZM631 241V267Q632 272 632 278T632 293V319V333L605 291L588 265L572 239L510 142H631V241Z"  />
<glyph unicode="&#xBF;" horiz-adv-x="378" d="M254 303V262Q254 187 228 138Q222 127 218 121T207 106T186 85T150 51Q121 24 108 0T95 -53Q95 -94 121 -118T190 -142Q241 -142 272 -113T311 -27H357Q355 -63 342 -92T307 -143T253 -176T185 -188Q152 -188 125 -178T78 -150T48 -107T37 -50Q37 -1 64 40Q69 48 74 54T86 67T105 83T134 108Q174 142 190 178T207 270V303H254ZM183 398V472H257V398H183Z"  />
<glyph unicode="&#xC0;" horiz-adv-x="632" d="M342 676L538 49H623V0H405V49H481L431 213H189L136 49H210V0H8V49H83L295 676H342ZM369 413L315 597Q305 566 295 534T277 475T263 432T257 413L205 262H417L369 413ZM275 738L153 849H216L321 738H275Z"  />
<glyph unicode="&#xC1;" horiz-adv-x="632" d="M342 676L538 49H623V0H405V49H481L431 213H189L136 49H210V0H8V49H83L295 676H342ZM369 413L315 597Q305 566 295 534T277 475T263 432T257 413L205 262H417L369 413ZM366 849H430L305 738H262L366 849Z"  />
<glyph unicode="&#xC2;" horiz-adv-x="632" d="M342 676L538 49H623V0H405V49H481L431 213H189L136 49H210V0H8V49H83L295 676H342ZM369 413L315 597Q305 566 295 534T277 475T263 432T257 413L205 262H417L369 413ZM258 849H320L425 738H381L289 818L197 738H153L258 849Z"  />
<glyph unicode="&#xC3;" horiz-adv-x="632" d="M342 676L538 49H623V0H405V49H481L431 213H189L136 49H210V0H8V49H83L295 676H342ZM369 413L315 597Q305 566 295 534T277 475T263 432T257 413L205 262H417L369 413ZM156 760Q174 843 239 843Q255 843 268 838T299 818Q320 801 332 795T357 789Q373 789 383 801T403 842L437 828Q418 744 355 744Q338 744 323 751T281 777Q264 790 255 794T235 799Q218 799 209 789T189 747L156 760Z"  />
<glyph unicode="&#xC4;" horiz-adv-x="632" d="M342 676L538 49H623V0H405V49H481L431 213H189L136 49H210V0H8V49H83L295 676H342ZM369 413L315 597Q305 566 295 534T277 475T263 432T257 413L205 262H417L369 413ZM267 824V749H199V824H267ZM420 824V749H352V824H420Z"  />
<glyph unicode="&#xC5;" horiz-adv-x="632" d="M342 676L538 49H623V0H405V49H481L431 213H189L136 49H210V0H8V49H83L295 676H342ZM369 413L315 597Q305 566 295 534T277 475T263 432T257 413L205 262H417L369 413ZM319 865Q348 865 369 844T390 794Q390 765 369 744T319 723Q290 723 269 744T248 795Q248 824 269 844T319 865ZM319 835Q302 835 290 824T278 795Q278 777 290 765T319 753Q336 753 348 765T360 794Q360 811 348 823T319 835Z"  />
<glyph unicode="&#xC6;" horiz-adv-x="861" d="M768 524V618H533V373H775V324H533V49H778V154H828V0H392V49H475V216H239L142 49H220V0H3V49H85L451 667H818V524H768ZM475 618L269 266H475V618Z"  />
<glyph unicode="&#xC7;" horiz-adv-x="556" d="M513 669V492H461Q458 520 453 537T439 568Q421 597 386 613T308 629Q211 629 159 551T106 330Q106 193 156 116T298 38Q349 38 389 63T446 131Q454 151 458 169T464 220H515Q517 120 465 58T316 -13L296 -55Q375 -62 375 -126Q375 -161 350 -181T280 -202Q263 -202 249 -200T214 -193V-158Q231 -161 240 -162T257 -163Q284 -163 301 -152T318 -123Q318 -98 289 -88Q281 -85 270 -84T238 -81L274 -13Q225 -8 194 5T134 47Q89 92 66 165T43 333Q43 413 61 477T112 587T194 656T302 680Q355 680 394 663T465 611V669H513Z"  />
<glyph unicode="&#xC8;" horiz-adv-x="495" d="M406 522V619H171V373H412V324H171V49H412V157H462V0H31V49H114V618H31V667H457V522H406ZM247 738L125 849H188L293 738H247Z"  />
<glyph unicode="&#xC9;" horiz-adv-x="495" d="M406 522V619H171V373H412V324H171V49H412V157H462V0H31V49H114V618H31V667H457V522H406ZM305 849H369L244 738H201L305 849Z"  />
<glyph unicode="&#xCA;" horiz-adv-x="495" d="M406 522V619H171V373H412V324H171V49H412V157H462V0H31V49H114V618H31V667H457V522H406ZM201 849H263L368 738H324L232 818L140 738H96L201 849Z"  />
<glyph unicode="&#xCB;" horiz-adv-x="495" d="M406 522V619H171V373H412V324H171V49H412V157H462V0H31V49H114V618H31V667H457V522H406ZM208 824V749H140V824H208ZM361 824V749H293V824H361Z"  />
<glyph unicode="&#xCC;" horiz-adv-x="286" d="M256 667V618H173V49H256V0H31V49H114V618H31V667H256ZM119 738L-3 849H60L165 738H119Z"  />
<glyph unicode="&#xCD;" horiz-adv-x="286" d="M256 667V618H173V49H256V0H31V49H114V618H31V667H256ZM193 849H257L132 738H89L193 849Z"  />
<glyph unicode="&#xCE;" horiz-adv-x="286" d="M256 667V618H173V49H256V0H31V49H114V618H31V667H256ZM106 849H168L273 738H229L137 818L45 738H1L106 849Z"  />
<glyph unicode="&#xCF;" horiz-adv-x="286" d="M256 667V618H173V49H256V0H31V49H114V618H31V667H256ZM108 824V749H40V824H108ZM261 824V749H193V824H261Z"  />
<glyph unicode="&#xD0;" horiz-adv-x="617" d="M235 667Q279 667 311 665T369 657T413 642T453 619Q512 577 543 503T575 334Q575 231 538 152T432 35Q414 25 396 18T355 7T303 2T235 0H31V49H114V329H31V376H114V618H31V667H235ZM235 49Q260 49 275 49T299 49T314 51T330 54Q412 70 456 130Q483 166 498 220T513 335Q513 429 481 497T390 594Q375 601 361 605T330 613T290 617T235 618H171V376H344V329H171V49H235Z"  />
<glyph unicode="&#xD1;" horiz-adv-x="646" d="M187 667L338 394Q389 297 426 226T489 104Q489 133 489 151T488 182T488 209T487 241Q487 283 487 305T486 340T486 358T486 372V618H403V667H619V618H536V0H492L329 294Q324 302 314 322T287 374Q255 434 224 493T160 612Q161 584 161 567T162 535T163 504T164 460L165 389Q166 363 166 345T166 319V49H249V0H31V49H114V618H31V667H187ZM155 760Q173 843 238 843Q254 843 267 838T298 818Q319 801 331 795T356 789Q372 789 382 801T402 842L436 828Q417 744 354 744Q337 744 322 751T280 777Q263 790 254 794T234 799Q217 799 208 789T188 747L155 760Z"  />
<glyph unicode="&#xD2;" horiz-adv-x="606" d="M303 681Q363 681 411 657T493 587T545 478T563 334Q563 254 545 190T493 80T412 11T304 -14Q243 -14 195 10T113 79T61 190T43 338Q43 410 60 474T110 584Q142 630 193 655T303 681ZM303 630Q210 630 158 552T105 337Q105 194 157 116T303 37Q397 37 449 115T501 334Q501 403 488 458T449 551T386 610T303 630ZM273 738L151 849H214L319 738H273Z"  />
<glyph unicode="&#xD3;" horiz-adv-x="606" d="M303 681Q363 681 411 657T493 587T545 478T563 334Q563 254 545 190T493 80T412 11T304 -14Q243 -14 195 10T113 79T61 190T43 338Q43 410 60 474T110 584Q142 630 193 655T303 681ZM303 630Q210 630 158 552T105 337Q105 194 157 116T303 37Q397 37 449 115T501 334Q501 403 488 458T449 551T386 610T303 630ZM343 849H407L282 738H239L343 849Z"  />
<glyph unicode="&#xD4;" horiz-adv-x="606" d="M303 681Q363 681 411 657T493 587T545 478T563 334Q563 254 545 190T493 80T412 11T304 -14Q243 -14 195 10T113 79T61 190T43 338Q43 410 60 474T110 584Q142 630 193 655T303 681ZM303 630Q210 630 158 552T105 337Q105 194 157 116T303 37Q397 37 449 115T501 334Q501 403 488 458T449 551T386 610T303 630ZM240 849H302L407 738H363L271 818L179 738H135L240 849Z"  />
<glyph unicode="&#xD5;" horiz-adv-x="606" d="M303 681Q363 681 411 657T493 587T545 478T563 334Q563 254 545 190T493 80T412 11T304 -14Q243 -14 195 10T113 79T61 190T43 338Q43 410 60 474T110 584Q142 630 193 655T303 681ZM303 630Q210 630 158 552T105 337Q105 194 157 116T303 37Q397 37 449 115T501 334Q501 403 488 458T449 551T386 610T303 630ZM143 760Q161 843 226 843Q242 843 255 838T286 818Q307 801 319 795T344 789Q360 789 370 801T390 842L424 828Q405 744 342 744Q325 744 310 751T268 777Q251 790 242 794T222 799Q205 799 196 789T176 747L143 760Z"  />
<glyph unicode="&#xD6;" horiz-adv-x="606" d="M303 681Q363 681 411 657T493 587T545 478T563 334Q563 254 545 190T493 80T412 11T304 -14Q243 -14 195 10T113 79T61 190T43 338Q43 410 60 474T110 584Q142 630 193 655T303 681ZM303 630Q210 630 158 552T105 337Q105 194 157 116T303 37Q397 37 449 115T501 334Q501 403 488 458T449 551T386 610T303 630ZM251 824V749H183V824H251ZM404 824V749H336V824H404Z"  />
<glyph unicode="&#xD7;" horiz-adv-x="493" d="M212 333L56 489L91 524L247 368L403 524L438 489L282 333L438 177L403 142L247 298L91 142L56 177L212 333Z"  />
<glyph unicode="&#xD8;" horiz-adv-x="606" d="M609 667L514 555Q540 510 551 458T563 335Q563 254 545 190T494 80T413 10T305 -14Q188 -14 115 78L50 0H-3L92 114Q66 159 55 211T43 333Q43 414 61 478T112 588T193 657T301 681Q419 681 490 591L555 667H609ZM452 545Q400 630 302 630Q256 630 220 610T158 550T119 456T105 332Q105 235 134 164L452 545ZM153 124Q179 81 217 59T304 37Q350 37 386 57T448 117T487 211T501 335Q501 385 494 426T472 505L153 124Z"  />
<glyph unicode="&#xD9;" horiz-adv-x="653" d="M248 667V617H166V275Q166 237 167 209T173 159T183 122T198 94Q218 66 252 52T330 37Q382 37 420 57T477 116Q482 126 485 139T490 170T493 213T494 274V617H411V667H627V617H544V275Q544 222 543 190T539 138T531 104T515 76Q487 31 440 9T328 -14Q259 -14 209 11T134 83Q126 97 122 113T114 150T110 202T109 276V617H26V667H248ZM296 738L174 849H237L342 738H296Z"  />
<glyph unicode="&#xDA;" horiz-adv-x="653" d="M248 667V617H166V275Q166 237 167 209T173 159T183 122T198 94Q218 66 252 52T330 37Q382 37 420 57T477 116Q482 126 485 139T490 170T493 213T494 274V617H411V667H627V617H544V275Q544 222 543 190T539 138T531 104T515 76Q487 31 440 9T328 -14Q259 -14 209 11T134 83Q126 97 122 113T114 150T110 202T109 276V617H26V667H248ZM364 849H428L303 738H260L364 849Z"  />
<glyph unicode="&#xDB;" horiz-adv-x="653" d="M248 667V617H166V275Q166 237 167 209T173 159T183 122T198 94Q218 66 252 52T330 37Q382 37 420 57T477 116Q482 126 485 139T490 170T493 213T494 274V617H411V667H627V617H544V275Q544 222 543 190T539 138T531 104T515 76Q487 31 440 9T328 -14Q259 -14 209 11T134 83Q126 97 122 113T114 150T110 202T109 276V617H26V667H248ZM265 849H327L432 738H388L296 818L204 738H160L265 849Z"  />
<glyph unicode="&#xDC;" horiz-adv-x="653" d="M248 667V617H166V275Q166 237 167 209T173 159T183 122T198 94Q218 66 252 52T330 37Q382 37 420 57T477 116Q482 126 485 139T490 170T493 213T494 274V617H411V667H627V617H544V275Q544 222 543 190T539 138T531 104T515 76Q487 31 440 9T328 -14Q259 -14 209 11T134 83Q126 97 122 113T114 150T110 202T109 276V617H26V667H248ZM274 824V749H206V824H274ZM427 824V749H359V824H427Z"  />
<glyph unicode="&#xDD;" horiz-adv-x="562" d="M226 667V618H149L283 345L421 618H343V667H559V618H478L307 289V49H390V0H167V49H250V287L86 618H3V667H226ZM325 849H389L264 738H221L325 849Z"  />
<glyph unicode="&#xDE;" horiz-adv-x="511" d="M171 49H259V0H31V49H114V618H31V667H254V618H171V539H221Q264 539 293 538T341 535T374 527T402 515Q443 493 466 450T489 353Q489 297 464 255T393 192Q370 181 336 177T244 172H171V49ZM241 221Q266 221 284 221T316 223T340 227T360 234Q392 248 409 279T427 356Q427 402 409 433T356 479Q347 482 338 484T316 488T284 489T237 490H171V221H241Z"  />
<glyph unicode="&#xDF;" horiz-adv-x="488" d="M204 402Q236 402 256 405T294 418Q323 432 338 459T354 522Q354 570 327 598T253 627Q211 627 186 605T153 541Q151 527 150 497T148 419V0H25V44H96V419Q96 470 97 499T100 545T105 573T116 596Q136 634 171 654T254 674Q325 674 367 633T409 523Q409 415 296 380Q373 366 414 316T455 185Q455 143 443 108T408 47T356 7T288 -7Q244 -7 220 10V56Q241 46 254 43T284 39Q338 39 369 77T401 181Q401 264 350 310T204 356V402Z"  />
<glyph unicode="&#xE0;" horiz-adv-x="455" d="M60 329L76 433Q114 459 147 470T217 482Q262 482 296 466T345 420Q350 411 352 403T356 383T358 350T359 296V44H429V0H312V73Q274 -10 180 -10Q115 -10 75 28T34 129Q34 224 133 265Q148 271 161 276T192 285T236 295T305 309V329Q305 358 303 374T294 401Q285 418 264 426T213 435Q179 435 154 424T117 394Q115 389 114 386T110 376T106 358T99 329H60ZM305 266Q271 260 248 255T208 246T178 236T151 224Q89 195 89 131Q89 89 115 64T184 38Q221 38 249 56T292 107Q300 123 302 149T305 226V266ZM225 558L103 669H166L271 558H225Z"  />
<glyph unicode="&#xE1;" horiz-adv-x="455" d="M60 329L76 433Q114 459 147 470T217 482Q262 482 296 466T345 420Q350 411 352 403T356 383T358 350T359 296V44H429V0H312V73Q274 -10 180 -10Q115 -10 75 28T34 129Q34 224 133 265Q148 271 161 276T192 285T236 295T305 309V329Q305 358 303 374T294 401Q285 418 264 426T213 435Q179 435 154 424T117 394Q115 389 114 386T110 376T106 358T99 329H60ZM305 266Q271 260 248 255T208 246T178 236T151 224Q89 195 89 131Q89 89 115 64T184 38Q221 38 249 56T292 107Q300 123 302 149T305 226V266ZM275 669H339L214 558H171L275 669Z"  />
<glyph unicode="&#xE2;" horiz-adv-x="455" d="M60 329L76 433Q114 459 147 470T217 482Q262 482 296 466T345 420Q350 411 352 403T356 383T358 350T359 296V44H429V0H312V73Q274 -10 180 -10Q115 -10 75 28T34 129Q34 224 133 265Q148 271 161 276T192 285T236 295T305 309V329Q305 358 303 374T294 401Q285 418 264 426T213 435Q179 435 154 424T117 394Q115 389 114 386T110 376T106 358T99 329H60ZM305 266Q271 260 248 255T208 246T178 236T151 224Q89 195 89 131Q89 89 115 64T184 38Q221 38 249 56T292 107Q300 123 302 149T305 226V266ZM184 669H246L351 558H307L215 638L123 558H79L184 669Z"  />
<glyph unicode="&#xE3;" horiz-adv-x="455" d="M60 329L76 433Q114 459 147 470T217 482Q262 482 296 466T345 420Q350 411 352 403T356 383T358 350T359 296V44H429V0H312V73Q274 -10 180 -10Q115 -10 75 28T34 129Q34 224 133 265Q148 271 161 276T192 285T236 295T305 309V329Q305 358 303 374T294 401Q285 418 264 426T213 435Q179 435 154 424T117 394Q115 389 114 386T110 376T106 358T99 329H60ZM305 266Q271 260 248 255T208 246T178 236T151 224Q89 195 89 131Q89 89 115 64T184 38Q221 38 249 56T292 107Q300 123 302 149T305 226V266ZM78 580Q96 663 161 663Q177 663 190 658T221 638Q242 621 254 615T279 609Q295 609 305 621T325 662L359 648Q340 564 277 564Q260 564 245 571T203 597Q186 610 177 614T157 619Q140 619 131 609T111 567L78 580Z"  />
<glyph unicode="&#xE4;" horiz-adv-x="455" d="M60 329L76 433Q114 459 147 470T217 482Q262 482 296 466T345 420Q350 411 352 403T356 383T358 350T359 296V44H429V0H312V73Q274 -10 180 -10Q115 -10 75 28T34 129Q34 224 133 265Q148 271 161 276T192 285T236 295T305 309V329Q305 358 303 374T294 401Q285 418 264 426T213 435Q179 435 154 424T117 394Q115 389 114 386T110 376T106 358T99 329H60ZM305 266Q271 260 248 255T208 246T178 236T151 224Q89 195 89 131Q89 89 115 64T184 38Q221 38 249 56T292 107Q300 123 302 149T305 226V266ZM172 644V569H104V644H172ZM325 644V569H257V644H325Z"  />
<glyph unicode="&#xE5;" horiz-adv-x="455" d="M60 329L76 433Q114 459 147 470T217 482Q262 482 296 466T345 420Q350 411 352 403T356 383T358 350T359 296V44H429V0H312V73Q274 -10 180 -10Q115 -10 75 28T34 129Q34 224 133 265Q148 271 161 276T192 285T236 295T305 309V329Q305 358 303 374T294 401Q285 418 264 426T213 435Q179 435 154 424T117 394Q115 389 114 386T110 376T106 358T99 329H60ZM305 266Q271 260 248 255T208 246T178 236T151 224Q89 195 89 131Q89 89 115 64T184 38Q221 38 249 56T292 107Q300 123 302 149T305 226V266ZM216 685Q245 685 266 664T287 614Q287 585 266 564T216 543Q187 543 166 564T145 615Q145 644 166 664T216 685ZM216 655Q199 655 187 644T175 615Q175 597 187 585T216 573Q233 573 245 585T257 614Q257 631 245 643T216 655Z"  />
<glyph unicode="&#xE6;" horiz-adv-x="693" d="M350 238Q351 200 353 176T363 131Q391 37 480 37Q531 37 563 69T602 157H649Q647 121 634 91T598 38T546 3T483 -10Q425 -10 384 20T320 107Q300 50 261 20T169 -10Q109 -10 71 26T33 119Q33 167 61 204T140 260Q155 266 169 270T202 277T243 282T299 288V315Q299 335 299 347T298 366T296 379T293 390Q285 411 262 423T202 435Q173 435 151 429T102 407V342H58V428Q116 482 204 482Q261 482 294 463T344 405Q369 445 401 463T479 482Q518 482 550 466T605 421T641 352T654 262Q654 259 654 253T653 238H350ZM596 283Q594 355 563 395T478 435Q427 435 394 395T353 283H596ZM299 241Q87 234 87 123Q87 85 112 61T177 37Q235 37 267 81T299 206V241Z"  />
<glyph unicode="&#xE7;" horiz-adv-x="418" d="M371 472V318H323Q315 435 223 435Q163 435 128 380T93 234Q93 143 127 90T220 37Q266 37 294 69T327 161H379Q378 127 367 97T338 45T293 8T237 -9L218 -47Q288 -53 288 -107Q288 -137 266 -154T204 -172Q190 -172 177 -171T146 -164V-135Q162 -137 169 -137T184 -138Q209 -138 224 -129T240 -104Q240 -84 213 -74Q206 -72 197 -72T168 -69L200 -9Q125 0 82 64T39 230Q39 285 52 331T90 411T147 463T220 482Q284 482 323 428V472H371Z"  />
<glyph unicode="&#xE8;" horiz-adv-x="438" d="M91 237Q91 192 96 163T113 109Q150 37 222 37Q268 37 298 64T339 142H390Q382 73 336 32T220 -10Q135 -10 87 53T39 225Q39 282 53 329T92 410T153 463T230 482Q267 482 298 466T352 419T386 347T399 254V237H91ZM342 281Q336 435 229 435Q175 435 139 394T94 281H342ZM239 558L117 669H180L285 558H239Z"  />
<glyph unicode="&#xE9;" horiz-adv-x="438" d="M91 237Q91 192 96 163T113 109Q150 37 222 37Q268 37 298 64T339 142H390Q382 73 336 32T220 -10Q135 -10 87 53T39 225Q39 282 53 329T92 410T153 463T230 482Q267 482 298 466T352 419T386 347T399 254V237H91ZM342 281Q336 435 229 435Q175 435 139 394T94 281H342ZM283 669H347L222 558H179L283 669Z"  />
<glyph unicode="&#xEA;" horiz-adv-x="438" d="M91 237Q91 192 96 163T113 109Q150 37 222 37Q268 37 298 64T339 142H390Q382 73 336 32T220 -10Q135 -10 87 53T39 225Q39 282 53 329T92 410T153 463T230 482Q267 482 298 466T352 419T386 347T399 254V237H91ZM342 281Q336 435 229 435Q175 435 139 394T94 281H342ZM198 669H260L365 558H321L229 638L137 558H93L198 669Z"  />
<glyph unicode="&#xEB;" horiz-adv-x="438" d="M91 237Q91 192 96 163T113 109Q150 37 222 37Q268 37 298 64T339 142H390Q382 73 336 32T220 -10Q135 -10 87 53T39 225Q39 282 53 329T92 410T153 463T230 482Q267 482 298 466T352 419T386 347T399 254V237H91ZM342 281Q336 435 229 435Q175 435 139 394T94 281H342ZM184 644V569H116V644H184ZM337 644V569H269V644H337Z"  />
<glyph unicode="&#xEC;" horiz-adv-x="253" d="M156 44H227V0H31V44H102V428H31V472H156V44ZM109 558L-13 669H50L155 558H109Z"  />
<glyph unicode="&#xED;" horiz-adv-x="253" d="M156 44H227V0H31V44H102V428H31V472H156V44ZM180 669H244L119 558H76L180 669Z"  />
<glyph unicode="&#xEE;" horiz-adv-x="253" d="M156 44H227V0H31V44H102V428H31V472H156V44ZM105 669H167L272 558H228L136 638L44 558H0L105 669Z"  />
<glyph unicode="&#xEF;" horiz-adv-x="253" d="M156 44H227V0H31V44H102V428H31V472H156V44ZM92 644V569H24V644H92ZM245 644V569H177V644H245Z"  />
<glyph unicode="&#xF0;" horiz-adv-x="444" d="M188 673L231 617L285 661L309 630L256 587Q285 547 299 527T325 489Q366 425 385 363T405 233Q405 178 392 133T356 57T300 8T227 -10Q184 -10 150 8T91 58T53 137T39 241Q39 296 52 341T89 417T147 465T223 482Q237 482 248 481T277 474Q269 486 269 486Q261 497 252 509T235 533Q233 536 228 542T218 556L169 517L145 547L194 586L149 641L188 673ZM221 435Q161 435 127 383T92 242Q92 148 128 93T225 37Q254 37 277 51T317 92T343 156T352 239Q352 330 317 382T221 435Z"  />
<glyph unicode="&#xF1;" horiz-adv-x="513" d="M155 398Q196 482 286 482Q331 482 364 461T409 402Q412 394 413 387T415 366T416 329T417 265V44H488V0H292V44H363V286Q363 310 363 327T361 356T358 376T353 391Q345 412 325 423T279 435Q250 435 225 421T182 381Q174 369 169 358T161 332T157 297T156 247V44H227V0H31V44H102V428H31V472H155V398ZM115 580Q133 663 198 663Q214 663 227 658T258 638Q279 621 291 615T316 609Q332 609 342 621T362 662L396 648Q377 564 314 564Q297 564 282 571T240 597Q223 610 214 614T194 619Q177 619 168 609T148 567L115 580Z"  />
<glyph unicode="&#xF2;" horiz-adv-x="449" d="M225 485Q311 485 360 419T410 236Q410 179 397 133T360 54T302 5T225 -13Q137 -13 88 54T39 240Q39 296 52 341T89 418T147 467T225 485ZM225 439Q161 439 126 387T91 239Q91 139 125 86T225 33Q289 33 323 85T358 236Q358 334 324 386T225 439ZM238 558L116 669H179L284 558H238Z"  />
<glyph unicode="&#xF3;" horiz-adv-x="449" d="M225 485Q311 485 360 419T410 236Q410 179 397 133T360 54T302 5T225 -13Q137 -13 88 54T39 240Q39 296 52 341T89 418T147 467T225 485ZM225 439Q161 439 126 387T91 239Q91 139 125 86T225 33Q289 33 323 85T358 236Q358 334 324 386T225 439ZM285 669H349L224 558H181L285 669Z"  />
<glyph unicode="&#xF4;" horiz-adv-x="449" d="M225 485Q311 485 360 419T410 236Q410 179 397 133T360 54T302 5T225 -13Q137 -13 88 54T39 240Q39 296 52 341T89 418T147 467T225 485ZM225 439Q161 439 126 387T91 239Q91 139 125 86T225 33Q289 33 323 85T358 236Q358 334 324 386T225 439ZM195 669H257L362 558H318L226 638L134 558H90L195 669Z"  />
<glyph unicode="&#xF5;" horiz-adv-x="449" d="M225 485Q311 485 360 419T410 236Q410 179 397 133T360 54T302 5T225 -13Q137 -13 88 54T39 240Q39 296 52 341T89 418T147 467T225 485ZM225 439Q161 439 126 387T91 239Q91 139 125 86T225 33Q289 33 323 85T358 236Q358 334 324 386T225 439ZM90 580Q108 663 173 663Q189 663 202 658T233 638Q254 621 266 615T291 609Q307 609 317 621T337 662L371 648Q352 564 289 564Q272 564 257 571T215 597Q198 610 189 614T169 619Q152 619 143 609T123 567L90 580Z"  />
<glyph unicode="&#xF6;" horiz-adv-x="449" d="M225 485Q311 485 360 419T410 236Q410 179 397 133T360 54T302 5T225 -13Q137 -13 88 54T39 240Q39 296 52 341T89 418T147 467T225 485ZM225 439Q161 439 126 387T91 239Q91 139 125 86T225 33Q289 33 323 85T358 236Q358 334 324 386T225 439ZM183 644V569H115V644H183ZM336 644V569H268V644H336Z"  />
<glyph unicode="&#xF7;" horiz-adv-x="493" d="M463 358V308H30V358H463ZM284 185V110H209V185H284ZM284 557V482H209V557H284Z"  />
<glyph unicode="&#xF8;" horiz-adv-x="449" d="M456 472L380 389Q411 330 411 240Q411 182 398 135T361 55T302 5T224 -13Q135 -13 82 61L26 0H-17L66 91Q52 122 46 155T39 232Q39 290 52 337T89 417T148 467T226 485Q310 485 363 418L412 472H456ZM329 381Q292 439 226 439Q161 439 126 385T91 231Q91 201 93 179T103 132L329 381ZM117 99Q152 33 224 33Q289 33 324 87T359 242Q359 276 356 300T344 349L117 99Z"  />
<glyph unicode="&#xF9;" horiz-adv-x="514" d="M147 218Q147 178 147 156T148 122T151 103T157 88Q179 37 239 37Q269 37 295 51T339 90Q347 102 352 113T360 140T364 174T365 221V428H294V472H419V44H489V0H367V78Q352 38 316 14T233 -10Q186 -10 152 12T103 76Q100 85 98 94T95 117T94 152T93 208V428H22V472H147V218ZM256 558L134 669H197L302 558H256Z"  />
<glyph unicode="&#xFA;" horiz-adv-x="514" d="M147 218Q147 178 147 156T148 122T151 103T157 88Q179 37 239 37Q269 37 295 51T339 90Q347 102 352 113T360 140T364 174T365 221V428H294V472H419V44H489V0H367V78Q352 38 316 14T233 -10Q186 -10 152 12T103 76Q100 85 98 94T95 117T94 152T93 208V428H22V472H147V218ZM310 669H374L249 558H206L310 669Z"  />
<glyph unicode="&#xFB;" horiz-adv-x="514" d="M147 218Q147 178 147 156T148 122T151 103T157 88Q179 37 239 37Q269 37 295 51T339 90Q347 102 352 113T360 140T364 174T365 221V428H294V472H419V44H489V0H367V78Q352 38 316 14T233 -10Q186 -10 152 12T103 76Q100 85 98 94T95 117T94 152T93 208V428H22V472H147V218ZM219 669H281L386 558H342L250 638L158 558H114L219 669Z"  />
<glyph unicode="&#xFC;" horiz-adv-x="514" d="M147 218Q147 178 147 156T148 122T151 103T157 88Q179 37 239 37Q269 37 295 51T339 90Q347 102 352 113T360 140T364 174T365 221V428H294V472H419V44H489V0H367V78Q352 38 316 14T233 -10Q186 -10 152 12T103 76Q100 85 98 94T95 117T94 152T93 208V428H22V472H147V218ZM208 644V569H140V644H208ZM361 644V569H293V644H361Z"  />
<glyph unicode="&#xFD;" horiz-adv-x="483" d="M193 472V428H132L188 251Q193 235 201 209T218 156T234 107T245 74Q260 119 274 162T302 251L361 428H300V472H480V428H409L264 -19Q253 -52 246 -72T233 -107T221 -130T207 -150Q187 -175 157 -188T89 -201Q87 -201 83 -201T73 -200V-158Q101 -156 121 -150T156 -131T183 -95T207 -37L216 -7L77 428H3V472H193ZM305 669H369L244 558H201L305 669Z"  />
<glyph unicode="&#xFE;" horiz-adv-x="501" d="M156 400Q201 482 284 482Q323 482 355 464T412 413T449 335T462 236Q462 182 449 137T412 60T356 9T284 -10Q201 -10 156 72V-153H229V-197H31V-153H102V625H31V669H156V400ZM280 435Q220 435 186 383T152 239Q152 191 159 158T181 98Q198 70 224 54T280 37Q309 37 336 53T378 98Q394 124 401 157T408 236Q408 325 378 374Q362 402 336 418T280 435Z"  />
<glyph unicode="&#xFF;" horiz-adv-x="483" d="M193 472V428H132L188 251Q193 235 201 209T218 156T234 107T245 74Q260 119 274 162T302 251L361 428H300V472H480V428H409L264 -19Q253 -52 246 -72T233 -107T221 -130T207 -150Q187 -175 157 -188T89 -201Q87 -201 83 -201T73 -200V-158Q101 -156 121 -150T156 -131T183 -95T207 -37L216 -7L77 428H3V472H193ZM203 644V569H135V644H203ZM356 644V569H288V644H356Z"  />
<glyph unicode="&#x131;" horiz-adv-x="253" d="M156 44H227V0H31V44H102V428H31V472H156V44Z"  />
<glyph unicode="&#x152;" horiz-adv-x="879" d="M788 524V618H552V373H795V324H552V49H795V154H845V0H495V96Q451 36 407 11T300 -14Q240 -14 193 9T112 77T60 185T42 327Q42 408 60 473T112 585T194 656T302 681Q364 681 413 655T495 578V667H838V524H788ZM303 630Q257 630 220 609T158 549T118 454T104 327Q104 189 155 113T299 36Q391 36 442 116T494 339Q494 478 444 554T303 630Z"  />
<glyph unicode="&#x153;" horiz-adv-x="748" d="M403 225Q406 134 440 86T534 37Q582 37 613 70T652 161H702Q700 123 687 92T651 38T599 3T535 -10Q425 -10 374 104Q343 44 306 17T218 -10Q178 -10 145 7T89 57T52 133T39 230Q39 285 52 331T91 411T150 463T226 482Q280 482 316 454T377 363Q406 425 442 453T531 482Q570 482 602 466T659 419T696 348T709 257Q709 252 709 244T708 225H403ZM652 269Q650 345 618 390T531 435Q425 435 403 269H652ZM226 435Q196 435 172 421T131 381T104 318T94 236Q94 191 103 155T128 92T168 51T219 37Q248 37 271 51T312 91T338 153T347 234Q347 330 315 382T226 435Z"  />
<glyph unicode="&#x160;" horiz-adv-x="484" d="M428 667V492H383Q380 556 342 593T240 630Q180 630 144 599T108 514Q108 491 114 474T136 442T179 413T247 380Q286 364 310 353T351 334T379 318T402 300Q455 255 455 178Q455 135 441 100T399 40T335 0T253 -14Q197 -14 157 4T84 63V0H36V191H84Q85 116 126 77T245 37Q314 37 352 72T391 170Q391 195 385 213T365 248T328 277T270 306Q232 322 205 334T158 356T125 374T101 392Q45 439 45 510Q45 547 59 578T98 633T157 668T234 681Q327 681 377 612V667H428ZM244 738H182L77 849H121L213 770L305 849H349L244 738Z"  />
<glyph unicode="&#x161;" horiz-adv-x="384" d="M296 320Q295 376 265 407T181 438Q142 438 117 417T92 364Q92 328 124 306Q132 301 137 298T153 289T183 274T237 249Q269 234 291 220T326 191T344 159T350 121Q350 92 339 68T308 27T261 0T201 -10Q161 -10 131 6T75 57L67 -3H33V153H69Q77 100 113 68T200 35Q243 35 269 57T296 116Q296 155 261 178Q254 182 249 185T234 192T207 205T158 229Q136 240 122 247T98 260T82 271T68 284Q38 314 38 359Q38 386 48 408T77 447T121 473T177 483Q244 483 292 432L300 475H333V320H296ZM224 558H162L57 669H101L193 590L285 669H329L224 558Z"  />
<glyph unicode="&#x178;" horiz-adv-x="562" d="M226 667V618H149L283 345L421 618H343V667H559V618H478L307 289V49H390V0H167V49H250V287L86 618H3V667H226ZM232 824V749H164V824H232ZM385 824V749H317V824H385Z"  />
<glyph unicode="&#x17D;" horiz-adv-x="469" d="M393 49V160H443V0H21V32L363 618H97V524H47V667H437V633L94 49H393ZM244 738H182L77 849H121L213 770L305 849H349L244 738Z"  />
<glyph unicode="&#x17E;" horiz-adv-x="366" d="M308 44V123H352V0H8V27L275 428H63V361H19V472H345V445L79 44H308ZM214 558H152L47 669H91L183 590L275 669H319L214 558Z"  />
<glyph unicode="&#x192;" horiz-adv-x="493" d="M147 423H245L271 559Q281 609 289 632T313 673Q352 715 420 715Q460 715 493 703L483 649Q448 672 411 672Q363 672 344 630Q342 625 340 621T336 608T331 587T324 552L299 423H404V379H291L214 -16Q209 -42 205 -59T196 -89T186 -111T172 -130Q135 -172 66 -172Q46 -172 28 -169T-8 -159L3 -105Q39 -129 75 -129Q118 -129 139 -94Q142 -89 144 -84T148 -69T154 -46T162 -8L237 379H147V423Z"  />
<glyph unicode="&#x2C6;" horiz-adv-x="500" d="M219 669H281L386 558H342L250 638L158 558H114L219 669Z"  />
<glyph unicode="&#x2C7;" horiz-adv-x="500" d="M281 558H219L114 669H158L250 590L342 669H386L281 558Z"  />
<glyph unicode="&#x2DA;" horiz-adv-x="500" d="M250 685Q279 685 300 664T321 614Q321 585 300 564T250 543Q221 543 200 564T179 615Q179 644 200 664T250 685ZM250 655Q233 655 221 644T209 615Q209 597 221 585T250 573Q267 573 279 585T291 614Q291 631 279 643T250 655Z"  />
<glyph unicode="&#x2DC;" horiz-adv-x="500" d="M111 580Q129 663 194 663Q210 663 223 658T254 638Q275 621 287 615T312 609Q328 609 338 621T358 662L392 648Q373 564 310 564Q293 564 278 571T236 597Q219 610 210 614T190 619Q173 619 164 609T144 567L111 580Z"  />
<glyph unicode="&#x2013;" horiz-adv-x="500" d="M409 281V237H92V281H409Z"  />
<glyph unicode="&#x2014;" horiz-adv-x="533" d="M533 285V235H0V285H533Z"  />
<glyph unicode="&#x2018;" horiz-adv-x="183" d="M43 468V551L114 672H153L79 551H133V468H43Z"  />
<glyph unicode="&#x2019;" horiz-adv-x="183" d="M140 667V584L69 462H30L104 584H50V667H140Z"  />
<glyph unicode="&#x201A;" horiz-adv-x="183" d="M140 83V0L69 -121H30L104 0H50V83H140Z"  />
<glyph unicode="&#x201C;" horiz-adv-x="328" d="M43 468V551L114 672H153L79 551H133V468H43ZM187 468V551L258 672H297L223 551H277V468H187Z"  />
<glyph unicode="&#x201D;" horiz-adv-x="328" d="M140 667V584L69 462H30L104 584H50V667H140ZM285 667V584L214 462H175L249 584H195V667H285Z"  />
<glyph unicode="&#x201E;" horiz-adv-x="328" d="M140 83V0L69 -121H30L104 0H50V83H140ZM285 83V0L214 -121H175L249 0H195V83H285Z"  />
<glyph unicode="&#x2020;" horiz-adv-x="500" d="M276 650V467H417V421H276V-159H224V421H83V467H224V650H276Z"  />
<glyph unicode="&#x2021;" horiz-adv-x="500" d="M276 650V467H417V421H276V224H417V178H276V-159H224V178H83V224H224V421H83V467H224V650H276Z"  />
<glyph unicode="&#x2022;" horiz-adv-x="667" d="M337 477Q365 477 389 466T432 436T462 392T473 339Q473 310 462 285T433 241T389 211T335 200Q306 200 281 211T237 240T207 284T196 338Q196 367 207 392T237 436T281 466T337 477Z"  />
<glyph unicode="&#x2026;" horiz-adv-x="583" d="M139 83V0H55V83H139ZM333 83V0H249V83H333ZM527 83V0H443V83H527Z"  />
<glyph unicode="&#x2030;" horiz-adv-x="831" d="M451 667H497L104 0H59L451 667ZM399 314Q424 314 446 301T484 266T511 215T521 152Q521 119 512 90T486 40T447 7T399 -6Q373 -6 351 6T313 40T287 91T277 154Q277 186 287 215T313 266T352 301T399 314ZM399 270Q384 270 371 261T348 236T333 199T327 153Q327 103 347 71T399 38Q430 38 450 71T471 152Q471 203 451 236T399 270ZM149 673Q174 673 196 660T234 625T260 574T270 511Q270 478 261 449T235 399T196 366T148 353Q122 353 100 365T62 399T37 450T27 512Q27 545 37 574T63 625T102 660T149 673ZM148 629Q133 629 121 620T98 595T83 558T77 512Q77 462 97 430T149 397Q179 397 199 430T220 511Q220 562 200 595T148 629ZM683 314Q708 314 730 301T769 266T795 215T805 152Q805 119 796 90T770 40T731 7T683 -6Q657 -6 635 6T597 40T571 91T561 153Q561 186 571 215T597 266T636 301T683 314ZM683 270Q668 270 655 261T632 236T617 199T611 153Q611 103 631 71T683 38Q714 38 734 71T755 152Q755 203 735 236T683 270Z"  />
<glyph unicode="&#x2039;" horiz-adv-x="196" d="M137 0L31 236L137 472H171L82 236L171 0H137Z"  />
<glyph unicode="&#x203A;" horiz-adv-x="196" d="M59 472L165 236L59 0H25L114 236L25 472H59Z"  />
<glyph unicode="&#x20AC;" horiz-adv-x="493" d="M-7 252L11 297H56V314Q56 324 56 334T57 359H-7L11 404H62Q65 433 74 465T98 526Q162 652 290 652Q337 652 372 636T437 585V641H480V472H433Q430 499 426 515T413 545Q398 572 367 587T297 603Q225 603 182 555T122 404H407L389 359H117L116 312V297H367L349 252H119Q146 38 287 38Q333 38 369 62T421 129Q431 155 435 191H487Q481 96 427 42T285 -12Q188 -12 129 57T59 252H-7Z"  />
<glyph unicode="&#x2122;" horiz-adv-x="792" d="M289 667V579H252V634H167V321H219V288H74V321H126V634H43V579H6V667H289ZM447 667L500 506Q514 467 526 431T551 356Q566 394 580 431T609 506L670 667H781V634H730V321H781V288H637V321H688V475V618Q684 607 682 600T677 586T672 572T665 554Q659 539 656 529T650 513Q645 498 641 488T635 472L571 315H523L468 475Q457 508 446 543T422 616V476V321H473V288H333V321H384V634H331V667H447Z"  />

</font>
</defs>
</svg>
