<?xml  version="1.0" encoding="UTF-8"?>
<!DOCTYPE svg PUBLIC "-//W3C//DTD SVG 1.0//EN" "http://www.w3.org/TR/2001/REC-SVG-20010904/DTD/svg10.dtd" >
<svg xmlns="http://www.w3.org/2000/svg" >
<metadata>
<version>1.0</version>
<id><![CDATA[Corporate E W01 Demi Italic]]></id>
<vendor>Monotype Imaging Inc.</vendor>
<credits>
<name>Fonts.com WebFonts</name>
<URL>http://webfonts.fonts.com</URL>
<role>Home of the Web fonts</role>
</credits>
<license>
<URL>http://webfonts.fonts.com/Legal</URL>
</license>
<copyright><![CDATA[(URW)++,Copyright 2009 by (URW)++ Design & Development]]></copyright>
<trademark><![CDATA[Please refer to the Copyright section for the font trademark attribution notices.]]></trademark>
<licensee>
<name></name>
</licensee>
</metadata>
<defs >
<font horiz-adv-x="498" id="7ac2e13a-6340-4a8e-8069-7583776fa97a">
<font-face font-family="" panose-1="0 0 7 0 0 0 0 0 0 0" ascent="737" descent="-263" units-per-em="1000" alphabetic="0">
</font-face>
<missing-glyph horiz-adv-x="0" />

<glyph unicode="&#xA;" />
<glyph unicode="&#xD;" horiz-adv-x="0" />
<glyph unicode=" " horiz-adv-x="250" />
<glyph unicode="!" horiz-adv-x="217" d="M130 111L102 0H-6L22 111H130ZM263 651L136 193H51L155 651H263Z"  />
<glyph unicode="&quot;" horiz-adv-x="324" d="M281 430L267 667H355L341 430H281ZM150 430L136 667H223L209 430H150Z"  />
<glyph unicode="#" horiz-adv-x="500" d="M230 394L213 287H316L333 394H230ZM489 210H396L362 0H271L304 210H201L168 0H81L114 210H21L33 287H126L143 395H50L62 472H156L187 667H274L243 472H345L376 667H468L437 472H530L518 394H425L408 287H501L489 210Z"  />
<glyph unicode="$" horiz-adv-x="512" d="M241 64Q292 72 322 104T352 188Q352 204 349 216T339 239T320 261T290 284L241 64ZM312 602Q267 596 241 569T215 501Q215 475 227 458T271 418L312 602ZM391 748L375 672Q404 666 424 654T459 618L472 667H532L485 478H425Q426 489 426 495T427 508Q427 583 359 601L313 393Q331 382 343 375T363 362T378 352T390 341Q422 313 436 283T451 207Q451 160 435 121T389 54T318 8T225 -10L206 -94H159L178 -6Q108 5 72 59L57 0H-6L47 214H111Q108 197 107 187T106 169Q106 83 194 65L248 309Q228 321 215 329T192 345T175 358T161 371Q119 417 119 480Q119 523 134 558T177 620T243 661T328 677L344 748H391Z"  />
<glyph unicode="%" horiz-adv-x="662" d="M248 613Q229 613 212 602T182 572T162 528T154 476Q154 444 167 427T205 410Q223 410 240 421T269 451T289 495T297 547Q297 579 284 596T248 613ZM254 672Q306 672 335 640T365 550Q365 508 352 472T317 409T264 367T199 351Q146 351 116 383T86 472Q86 514 99 550T134 614T188 656T254 672ZM506 257Q487 257 470 246T439 216T419 172T411 120Q411 88 424 71T462 54Q481 54 497 65T527 95T547 139T555 191Q555 223 542 240T506 257ZM511 316Q564 316 593 284T623 194Q623 152 610 116T575 53T522 11T456 -5Q403 -5 373 27T343 116Q343 158 356 194T391 258T445 300T511 316ZM660 667L117 0H48L591 667H660Z"  />
<glyph unicode="&amp;" horiz-adv-x="545" d="M199 301Q143 263 120 229T96 155Q96 114 120 90T185 66Q214 66 239 77T292 113L199 301ZM249 417Q301 453 322 479T344 535Q344 558 330 571T293 584Q263 584 243 563T222 511Q222 491 228 471T249 417ZM559 336L542 270H488Q471 225 449 186T400 117L425 68H492L475 0H348L325 49Q285 18 249 5T168 -9Q91 -9 45 33T-1 148Q-1 241 84 313Q100 327 117 339T164 368Q154 390 147 407T136 440T130 469T128 498Q128 534 140 563T175 614T229 647T298 659Q360 659 396 628T433 543Q433 490 398 445T283 349L364 185Q409 238 427 336H559Z"  />
<glyph unicode="&apos;" horiz-adv-x="193" d="M151 430L137 667H224L210 430H151Z"  />
<glyph unicode="(" horiz-adv-x="290" d="M374 672Q315 606 269 529T190 367T140 194T123 19Q123 -39 129 -90T152 -200H76Q57 -140 49 -85T40 34Q40 123 57 212T108 384T188 540T293 672H374Z"  />
<glyph unicode=")" horiz-adv-x="290" d="M-85 -200Q-58 -169 -36 -140T5 -82T40 -23T72 41Q118 143 142 248T166 453Q166 512 159 564T137 672H212Q231 616 240 559T249 439Q249 350 232 262T182 93T102 -63T-5 -200H-85Z"  />
<glyph unicode="*" horiz-adv-x="500" d="M321 659L378 645L350 529L470 538L474 480L355 470L401 360L347 338L301 448L210 370L172 415L263 493L161 555L192 605L294 542L321 659Z"  />
<glyph unicode="+" horiz-adv-x="512" d="M238 369V546H321V369H495V291H321V113H238V291H62V369H238Z"  />
<glyph unicode="&#x2c;" horiz-adv-x="214" d="M143 128L111 0L-4 -129H-77L52 0H-16L16 128H143Z"  />
<glyph unicode="-" horiz-adv-x="210" d="M220 284L207 230H-3L10 284H220Z"  />
<glyph unicode="." horiz-adv-x="215" d="M142 128L110 0H-16L16 128H142Z"  />
<glyph unicode="/" horiz-adv-x="417" d="M474 667L-4 -144H-76L403 667H474Z"  />
<glyph unicode="0" horiz-adv-x="512" d="M336 586Q261 586 209 478Q193 446 180 408T157 331T142 253T136 182Q136 125 157 95T220 64Q291 64 343 167Q359 198 372 237T396 317T412 397T418 469Q418 524 397 555T336 586ZM339 659Q422 659 469 606T517 458Q517 417 511 373T493 286T465 202T428 127Q349 -9 216 -9Q132 -9 85 43T37 188Q37 231 43 276T61 365T89 450T127 526Q206 659 339 659Z"  />
<glyph unicode="1" horiz-adv-x="512" d="M417 656L271 71H370L353 0H67L85 71H170L272 481H163L177 537Q237 538 276 566T344 656H417Z"  />
<glyph unicode="2" horiz-adv-x="512" d="M439 171L391 0H-4L17 84Q95 147 159 205T277 318Q338 380 365 424T392 505Q392 538 371 557T314 577Q222 577 189 456H116Q154 659 330 659Q405 659 449 621T494 518Q494 491 486 465T460 410T413 348T340 274Q281 217 229 171T127 87H342L368 171H439Z"  />
<glyph unicode="3" horiz-adv-x="512" d="M223 391Q264 391 288 395T332 413Q361 430 376 455T391 510Q391 545 369 565T309 586Q220 586 196 478H119Q134 568 185 613T322 659Q397 659 442 620T488 517Q488 460 454 416T358 351Q442 320 442 226Q442 175 424 133T375 59T300 10T205 -8Q121 -8 73 33T25 145Q25 155 26 163T29 185H106Q105 175 105 170T105 159Q105 116 131 92T205 68Q234 68 259 79T302 111T330 159T340 221Q340 269 312 291T223 313Q221 313 215 313T201 312L223 391Z"  />
<glyph unicode="4" horiz-adv-x="512" d="M312 343Q321 378 328 407T343 462T358 512T374 563Q348 528 330 504T294 457T256 409T207 348L124 246H288L312 343ZM478 252L459 176H362L336 70H414L396 0H155L172 70H244L270 176H22L41 252L387 656H482L381 252H478Z"  />
<glyph unicode="5" horiz-adv-x="512" d="M531 650L493 563H258L193 404Q224 426 251 435T310 444Q379 444 419 401T459 284Q459 222 435 163T368 61Q297 -8 195 -8Q119 -8 74 31T29 138Q29 143 29 153T31 175H109V154Q109 112 132 90T200 68Q233 68 261 83T311 125T345 188T357 266Q357 315 335 341T270 368Q237 368 208 352T145 300L81 312L214 650H531Z"  />
<glyph unicode="6" horiz-adv-x="512" d="M284 382Q256 382 231 364T186 315T154 245T142 162Q142 116 162 91T218 65Q274 65 316 133Q336 165 347 206T358 285Q358 330 339 356T284 382ZM482 663Q450 634 425 610T375 562T324 510T267 446Q281 449 289 450T307 451Q341 451 369 439T417 403T449 347T460 276Q460 219 438 163T377 64Q345 29 302 11T212 -8Q173 -8 141 5T87 41T52 98T39 172Q39 247 76 323T195 484Q242 534 291 581T384 663H482Z"  />
<glyph unicode="7" horiz-adv-x="512" d="M559 650L540 565L134 0H30L456 563H214L189 469H119L163 650H559Z"  />
<glyph unicode="8" horiz-adv-x="512" d="M264 304Q238 304 215 293T174 261T146 214T135 157Q135 112 158 87T223 62Q249 62 272 74T312 106T339 154T349 214Q349 256 327 280T264 304ZM335 588Q312 588 292 578T256 549T231 507T222 456Q222 416 242 394T298 371Q321 371 341 382T377 411T401 455T410 508Q410 546 390 567T335 588ZM192 348Q126 382 126 464Q126 506 142 541T187 603T255 644T339 659Q416 659 461 619T506 510Q506 448 472 405T374 339Q445 307 445 213Q445 165 428 125T381 55T308 9T217 -8Q132 -8 85 35T38 154Q38 229 78 279T192 348Z"  />
<glyph unicode="9" horiz-adv-x="512" d="M336 586Q308 586 283 568T238 520T207 449T195 366Q195 321 214 295T269 269Q297 269 322 287T367 336T399 406T411 489Q411 535 391 560T336 586ZM71 -13Q98 11 123 34T175 84T228 139T286 204Q273 201 265 200T246 199Q212 199 184 211T136 247T104 303T93 374Q93 432 112 484T166 575T245 636T341 659Q380 659 412 646T466 610T501 553T514 479Q514 403 476 327T358 166Q334 140 309 114T259 65T211 22T169 -13H71Z"  />
<glyph unicode=":" horiz-adv-x="215" d="M216 424L184 296H58L90 424H216ZM142 128L110 0H-16L16 128H142Z"  />
<glyph unicode=";" horiz-adv-x="214" d="M216 424L184 296H58L90 424H216ZM143 128L111 0L-4 -129H-77L52 0H-16L16 128H143Z"  />
<glyph unicode="&lt;" horiz-adv-x="500" d="M489 493L164 338L489 184V83L56 295V382L489 594V493Z"  />
<glyph unicode="=" horiz-adv-x="512" d="M495 288V215H62V288H495ZM495 444V371H62V444H495Z"  />
<glyph unicode="&gt;" horiz-adv-x="500" d="M57 184L382 338L57 493V593L490 381V295L57 83V184Z"  />
<glyph unicode="?" horiz-adv-x="415" d="M131 202Q143 248 152 276T177 326T216 369T283 423Q318 451 332 471T346 515Q346 543 328 558T278 574Q199 574 176 482H96Q111 571 161 617T297 663Q369 663 411 628T454 531Q454 466 403 415Q395 407 390 403T378 392T357 376T320 348Q296 330 281 316T255 287T237 251T223 202H131ZM217 111L189 0H81L109 111H217Z"  />
<glyph unicode="@" horiz-adv-x="667" d="M375 421Q355 421 338 412T307 387T286 350T278 305Q278 268 298 246T351 223Q370 223 386 232T416 258T436 297T444 343Q444 378 426 399T375 421ZM552 492L514 294Q510 274 509 265T507 250Q507 216 533 216Q544 216 558 225T584 252Q601 275 610 310T620 381Q620 429 603 469T554 538T481 584T387 601Q328 601 278 580T191 523T133 436T112 327Q112 276 130 229T180 146Q218 104 267 85T384 65Q433 65 484 74T578 99L597 29Q497 -9 387 -9Q229 -9 134 83Q85 130 58 194T31 329Q31 402 58 465T132 574T242 648T380 675Q447 675 504 653T604 592T670 499T694 382Q694 336 681 294T644 221T591 170T528 151Q502 151 481 166T453 205Q433 177 401 161T332 145Q302 145 276 157T231 190T201 241T190 304Q190 344 204 380T242 443T298 487T366 503Q399 503 425 490T466 450L474 492H552Z"  />
<glyph unicode="A" horiz-adv-x="641" d="M403 403L401 459Q400 482 400 500T399 533V586Q385 556 376 536T357 497T335 455T305 400L237 277H408L403 403ZM485 669L521 73H599L579 0H317L336 73H417L411 205H196L123 73H210L191 0H-54L-34 73H37L378 669H485Z"  />
<glyph unicode="B" horiz-adv-x="585" d="M221 73Q248 73 268 74T304 78T332 85T356 97Q387 116 405 148T423 218Q423 282 370 303Q356 308 337 310T284 313H233L173 73H221ZM292 385Q336 385 363 390T411 409Q439 426 454 454T469 515Q469 569 425 587Q413 592 396 594T349 596H303L251 385H292ZM334 667Q369 667 395 666T440 662T474 654T503 642Q575 602 575 518Q575 479 559 445T514 388Q497 374 479 366T430 350Q482 333 506 301T530 214Q530 146 493 95T392 20Q374 14 357 10T316 4T260 1T182 0H-28L-8 73H69L200 596H113L133 667H334Z"  />
<glyph unicode="C" horiz-adv-x="592" d="M652 667L601 462H525Q527 475 527 482T528 497Q528 548 498 575T412 603Q308 603 236 495Q198 438 177 368T155 229Q155 150 190 107T289 64Q419 64 477 236H567Q499 -14 280 -14Q169 -14 108 52T46 237Q46 287 57 338T87 436T134 524T196 596Q291 681 409 681Q463 681 499 665T563 613L577 667H652Z"  />
<glyph unicode="D" horiz-adv-x="627" d="M214 73Q251 73 279 76T330 87T371 107T408 138Q432 162 451 196T485 268T508 348T516 429Q516 485 499 523T449 579Q430 588 405 592T339 596H303L173 73H214ZM336 667Q373 667 400 666T448 661T486 652T518 638Q625 582 625 424Q625 368 613 315T580 214T527 127T458 61Q434 44 407 32T347 13T270 3T169 0H-28L-8 73H69L200 596H113L133 667H336Z"  />
<glyph unicode="E" horiz-adv-x="529" d="M553 504H479L502 596H303L251 387H459L440 310H232L173 73H386L414 185H489L443 0H-28L-8 73H69L200 596H113L133 667H593L553 504Z"  />
<glyph unicode="F" d="M553 504H480L503 596H303L251 387H461L443 310H232L173 73H274L255 0H-28L-8 73H69L200 596H113L133 667H594L553 504Z"  />
<glyph unicode="G" horiz-adv-x="633" d="M653 667L602 462H527Q529 473 529 480T530 494Q530 545 498 574T409 603Q355 603 313 576T233 491Q198 435 177 364T156 224Q156 146 194 105T304 64Q336 64 364 71T422 96L463 249H380L399 321H645L626 249H562L511 55Q480 36 453 23T398 2T343 -10T284 -14Q169 -14 108 50T47 234Q47 280 55 326T80 417T119 501T170 573Q267 681 406 681Q461 681 498 665T564 613L578 667H653Z"  />
<glyph unicode="H" horiz-adv-x="680" d="M507 387L559 596H472L491 667H755L735 596H658L527 73H614L594 0H331L351 73H428L489 316H229L168 73H255L236 0H-28L-8 73H69L200 596H113L133 667H395L376 596H299L247 387H507Z"  />
<glyph unicode="I" horiz-adv-x="331" d="M406 667L386 596H306L176 73H265L245 0H-28L-8 73H72L202 596H113L133 667H406Z"  />
<glyph unicode="J" horiz-adv-x="341" d="M424 667L404 596H329L218 152Q206 104 197 71T178 14T158 -24T134 -52Q78 -105 -24 -105Q-33 -105 -43 -105T-70 -102L-51 -27Q-11 -27 14 -21T57 5T87 59T114 152L224 596H138L157 667H424Z"  />
<glyph unicode="K" horiz-adv-x="637" d="M390 667L372 596H299L237 351L518 596H440L458 667H707L688 596H627L400 405L513 73H590L570 0H317L336 73H409L323 344L213 254L168 73H250L231 0H-28L-8 73H69L200 596H113L132 667H390Z"  />
<glyph unicode="L" horiz-adv-x="504" d="M408 667L388 596H304L174 73H379L407 185H483L437 0H-28L-8 73H69L200 596H113L133 667H408Z"  />
<glyph unicode="M" horiz-adv-x="838" d="M368 667L380 417Q383 371 385 340T387 286T388 243T389 199Q389 188 389 177T388 148Q395 165 410 195T446 262T488 340T534 421L676 667H913L893 596H815L685 73H772L752 0H491L511 73H584L646 324Q655 358 663 392T681 461Q683 470 685 477T690 497T700 534T717 600Q699 567 687 545T659 494T617 420T546 294L385 15H304L288 291Q286 327 284 371T281 459T278 539T276 600Q272 585 269 572T263 546Q257 523 252 501T241 455Q232 417 223 379T204 303L146 73H228L209 0H-28L-8 73H69L200 596H113L133 667H368Z"  />
<glyph unicode="N" horiz-adv-x="674" d="M422 0L345 268Q326 335 314 377T294 448T279 502T264 557Q249 492 239 450T222 379T211 335T204 305L146 73H233L214 0H-28L-8 73H69L200 596H113L133 667H330L403 420Q419 364 430 328T448 264T462 210T475 151L532 385L585 596H498L517 667H759L740 596H662L514 0H422Z"  />
<glyph unicode="O" horiz-adv-x="634" d="M400 603Q302 603 231 488Q214 461 200 429T176 362T161 293T155 227Q155 152 188 108T280 64Q367 64 435 160Q455 188 471 222T498 293T516 368T523 442Q523 516 490 559T400 603ZM404 681Q456 681 498 664T570 613T616 533T632 428Q632 387 625 344T603 260T570 182T525 113Q425 -14 274 -14Q221 -14 179 3T108 53T62 132T46 237Q46 280 54 325T79 414T117 497T166 568Q214 622 275 651T404 681Z"  />
<glyph unicode="P" horiz-adv-x="531" d="M278 340Q331 340 360 346T412 369Q438 389 454 424T470 501Q470 554 443 575T347 596H303L240 340H278ZM346 667Q405 667 438 662T497 644Q577 603 577 502Q577 435 544 380T452 296Q420 281 378 275T268 268H221L173 73H274L255 0H-28L-8 73H69L200 596H113L133 667H346Z"  />
<glyph unicode="Q" horiz-adv-x="634" d="M401 602Q301 602 231 488Q214 461 200 429T176 362T161 294T155 228Q155 152 188 109T281 65Q366 65 435 160Q455 188 471 222T498 293T516 368T523 442Q523 515 490 558T401 602ZM477 0L452 50Q411 16 371 1T277 -14Q223 -14 181 3T108 53T62 132T46 237Q46 280 54 325T78 414T116 497T166 568Q213 622 274 651T404 681Q456 681 498 664T570 613T616 534T632 429Q632 346 605 264T529 118L607 0H477Z"  />
<glyph unicode="R" horiz-adv-x="596" d="M301 364Q356 364 385 369T435 389Q463 406 478 437T494 505Q494 568 445 586Q431 592 414 594T363 596H301L243 364H301ZM354 667Q388 667 412 666T456 663T489 656T516 646Q558 627 579 591T601 502Q601 454 581 412T523 341Q504 326 484 318T432 301L477 73H553L533 0H387L338 292H225L171 73H253L233 0H-28L-8 73H69L200 596H113L133 667H354Z"  />
<glyph unicode="S" horiz-adv-x="507" d="M540 667L493 479H431Q433 490 433 496T434 508Q434 553 408 578T334 603Q281 603 248 575T215 502Q215 486 219 474T233 451T263 426T314 395Q358 369 386 349T430 307T453 261T459 206Q459 158 442 118T392 48T316 2T219 -14Q112 -14 62 58L48 0H-16L37 214H101Q99 197 98 188T97 170Q97 121 129 93T218 64Q278 64 315 98T353 187Q353 230 323 257Q317 263 312 267T297 278T274 292T236 314Q200 334 176 353T137 391T116 433T109 482Q109 525 125 561T171 624T241 666T329 681Q426 681 466 619L478 667H540Z"  />
<glyph unicode="T" horiz-adv-x="529" d="M580 485H505L532 596H403L272 73H362L343 0H68L88 73H169L299 596H168L141 485H65L110 667H626L580 485Z"  />
<glyph unicode="U" horiz-adv-x="654" d="M392 667L373 596H295L213 268Q204 230 200 206T196 161Q196 113 225 89T308 64Q389 64 433 124Q449 146 460 177T487 267L569 596H482L501 667H740L720 596H645L563 268Q551 218 542 185T523 130T503 91T477 59Q409 -14 290 -14Q199 -14 146 30T92 149Q92 174 96 203T111 273L192 596H105L125 667H392Z"  />
<glyph unicode="V" horiz-adv-x="629" d="M201 -3L167 596H89L109 667H368L350 596H269L291 105L564 596H477L495 667H734L714 596H650L309 -3H201Z"  />
<glyph unicode="W" horiz-adv-x="844" d="M146 -2L171 596H93L113 667H366L348 596H270L260 379Q258 340 256 307T251 242T246 183T239 124Q256 166 270 200T300 268T331 337T368 415L491 667H590L583 416Q582 378 581 343T577 274T571 203T563 124Q580 164 592 191T617 248Q632 281 647 314T676 380L775 596H691L710 667H945L925 596H857L577 -2H474L481 252Q483 321 487 389T500 539Q490 517 484 503T471 476T458 447T440 407Q429 385 420 365T401 324Q384 286 368 252L248 -2H146Z"  />
<glyph unicode="X" horiz-adv-x="590" d="M284 667L346 424L481 596H394L412 667H659L640 596H575L368 348L448 73H540L520 0H363L293 272L136 73H224L205 0H-46L-26 73H43L272 346L198 596H108L127 667H284Z"  />
<glyph unicode="Y" horiz-adv-x="562" d="M365 667L346 596H273L323 356L487 596H409L427 667H661L642 596H578L347 275L296 73H386L367 0H92L112 73H193L243 275L172 596H95L114 667H365Z"  />
<glyph unicode="Z" horiz-adv-x="489" d="M555 667L538 600L119 73H351L380 185H456L408 0H-31L-14 68L407 596H206L182 504H108L150 667H555Z"  />
<glyph unicode="[" horiz-adv-x="290" d="M367 667L347 586H260L86 -112H180L159 -194H-24L191 667H367Z"  />
<glyph unicode="\" horiz-adv-x="417" d="M188 667L363 -144H294L120 667H188Z"  />
<glyph unicode="]" horiz-adv-x="290" d="M-79 -194L-59 -113H28L202 585H109L129 667H312L98 -194H-79Z"  />
<glyph unicode="^" horiz-adv-x="500" d="M38 350L206 670H340L509 350H401L273 589L146 350H38Z"  />
<glyph unicode="_" horiz-adv-x="500" d="M523 -56V-148H23V-56H523Z"  />
<glyph unicode="`" horiz-adv-x="500" d="M296 685L372 541H300L181 685H296Z"  />
<glyph unicode="a" horiz-adv-x="474" d="M304 250Q281 245 264 242T232 234T207 226T183 216Q148 200 130 177T111 125Q111 98 128 82T174 65Q200 65 224 79T263 118Q267 125 270 131T277 148T284 172T294 210L304 250ZM81 321L113 431Q154 458 191 470T277 482Q346 482 384 454T422 374Q422 356 419 339T408 287L353 68H422L405 0H247L263 68Q235 27 204 9T131 -10Q76 -10 41 23T6 108Q6 159 43 201T147 266Q164 272 180 276T216 285T259 294T318 305L322 323Q326 340 327 348T329 365Q329 411 263 411Q218 411 193 391T150 321H81Z"  />
<glyph unicode="b" horiz-adv-x="519" d="M315 411Q253 411 208 334Q199 317 191 296T176 251T167 204T163 162Q163 116 184 89T241 62Q303 62 346 138Q367 174 379 219T392 307Q392 357 372 384T315 411ZM275 667L211 412Q265 482 342 482Q375 482 403 469T450 431T481 372T492 297Q492 232 469 170T403 61Q337 -10 254 -10Q206 -10 176 9T126 72L104 0H16L167 603H93L109 667H275Z"  />
<glyph unicode="c" horiz-adv-x="448" d="M464 472L425 312H356Q357 319 357 323T357 333Q357 369 338 390T284 411Q224 411 179 342Q157 307 144 260T130 168Q130 116 151 89T213 61Q285 61 319 152H404Q345 -10 199 -10Q118 -10 72 40T25 178Q25 245 51 309T123 418Q189 482 277 482Q319 482 344 468T384 425L395 472H464Z"  />
<glyph unicode="d" horiz-adv-x="534" d="M277 411Q213 411 168 332Q159 315 151 294T137 251T128 207T125 165Q125 117 145 90T202 62Q262 62 308 138Q329 174 341 220T354 306Q354 356 334 383T277 411ZM550 667L400 68H474L457 0H291L306 61Q249 -10 173 -10Q140 -10 113 3T67 41T36 100T25 175Q25 237 44 292T97 390T175 457T268 482Q361 482 390 398L442 603H368L384 667H550Z"  />
<glyph unicode="e" horiz-adv-x="472" d="M344 288Q347 303 348 312T349 333Q349 370 331 390T280 411Q194 411 151 286L344 288ZM134 221Q131 202 130 191T129 167Q129 116 151 89T217 62Q255 62 283 82T338 147H419Q364 -10 207 -10Q122 -10 74 39T26 177Q26 241 46 297T101 394T184 458T287 482Q362 482 405 437T448 313Q448 290 445 271T434 222L134 221Z"  />
<glyph unicode="f" horiz-adv-x="332" d="M356 472L340 407H232L154 68H237L221 0H-29L-12 68H55L133 407H61L78 472H148L157 510Q168 561 180 588T210 634Q230 655 259 666T323 677Q349 677 368 672T411 655L393 575Q376 589 361 595T329 602Q300 602 284 583T257 513L247 472H356Z"  />
<glyph unicode="g" horiz-adv-x="474" d="M171 17Q106 17 68 -4T30 -61Q30 -96 62 -114T154 -133Q216 -133 254 -111T292 -52Q292 -19 261 -1T171 17ZM254 412Q213 412 185 382T156 308Q156 273 176 253T231 233Q273 233 300 262T328 337Q328 372 309 392T254 412ZM487 398H403Q411 384 414 369T418 336Q418 294 400 258T347 198Q322 181 293 173T215 162Q174 148 161 139T148 116Q148 103 165 95Q170 93 173 92T183 90T201 86T234 81Q382 59 382 -47Q382 -82 365 -111T317 -160T243 -192T146 -203Q51 -203 -4 -168T-60 -72Q-60 19 65 52Q46 62 38 72T30 98Q30 124 56 142T142 178Q66 217 66 302Q66 341 80 374T121 431T184 468T263 482Q289 482 310 478T355 463H504L487 398Z"  />
<glyph unicode="h" horiz-adv-x="558" d="M242 407Q275 446 309 464T383 482Q435 482 466 453T497 373Q497 362 497 353T494 333T488 306T478 266L429 68H503L486 0H261L278 68H330L380 270Q386 292 388 308T391 335Q391 396 327 396Q275 396 242 352Q236 344 232 336T223 317T214 292T205 257L158 68H216L200 0H-25L-8 68H59L192 603H119L134 667H307L242 407Z"  />
<glyph unicode="i" horiz-adv-x="292" d="M302 663L277 561H164L189 663H302ZM158 67H231L215 0H-25L-8 67H58L143 407H69L86 472H259L158 67Z"  />
<glyph unicode="j" horiz-adv-x="288" d="M304 663L278 561H165L190 663H304ZM160 68Q148 20 140 -10T124 -60T109 -94T91 -122Q62 -162 16 -183T-89 -204Q-94 -204 -101 -204T-119 -203L-101 -131Q-64 -130 -40 -123T2 -94T32 -35T60 68L145 407H71L87 472H260L160 68Z"  />
<glyph unicode="k" horiz-adv-x="548" d="M200 249L388 407H316L332 472H556L540 407H486L346 292L433 68H495L478 0H354L271 233L178 159L155 68H223L206 0H-25L-8 68H58L192 603H119L134 667H305L200 249Z"  />
<glyph unicode="l" horiz-adv-x="293" d="M158 68H231L214 0H-26L-9 68H58L181 603H108L123 667H296L158 68Z"  />
<glyph unicode="m" horiz-adv-x="799" d="M234 398Q268 443 299 462T370 482Q458 482 478 389Q510 437 545 459T623 482Q675 482 706 452T737 371Q737 361 736 351T733 328T727 299T717 259L670 68H744L727 0H502L519 68H571L626 291Q634 323 634 341Q634 367 618 381T572 396Q523 396 493 351Q485 339 479 322T464 270L414 68H472L456 0H246L263 68H315L367 278Q373 303 375 316T378 341Q378 367 362 381T319 396Q269 396 238 350Q229 336 222 318T207 266L158 68H216L200 0H-25L-8 68H58L143 407H69L86 472H252L234 398Z"  />
<glyph unicode="n" horiz-adv-x="548" d="M234 395Q296 482 377 482Q427 482 457 452T487 373Q487 363 487 355T484 334T477 305T467 261L418 68H492L475 0H251L268 68H319L373 284Q382 318 382 341Q382 367 367 381T324 396Q275 396 241 350Q230 335 223 317T206 261L158 68H216L200 0H-25L-8 68H58L143 407H69L86 472H253L234 395Z"  />
<glyph unicode="o" horiz-adv-x="491" d="M281 410Q220 410 177 335Q156 300 144 255T131 168Q131 117 151 90T209 62Q241 62 266 80T314 137Q334 172 346 218T358 306Q358 356 338 383T281 410ZM281 482Q364 482 413 431T463 294Q463 231 440 170T379 66Q309 -10 206 -10Q123 -10 75 41T26 180Q26 242 49 302T110 405Q144 442 188 462T281 482Z"  />
<glyph unicode="p" horiz-adv-x="537" d="M331 411Q272 411 231 343Q221 326 212 303T196 255T185 206T181 162Q181 116 202 89T259 62Q320 62 363 135Q373 153 381 174T396 219T405 265T409 308Q409 356 388 383T331 411ZM243 472L228 412Q286 482 362 482Q395 482 422 469T468 431T499 373T510 299Q510 237 491 181T438 83T361 15T268 -10Q173 -10 146 72L96 -129H176L159 -197H-80L-63 -129H4L137 407H64L80 472H243Z"  />
<glyph unicode="q" horiz-adv-x="537" d="M276 411Q214 411 170 333Q150 297 138 251T125 164Q125 116 145 89T201 61Q267 61 311 150Q319 167 326 187T339 229T348 271T351 309Q351 357 331 384T276 411ZM171 -197L188 -129H259L306 60Q251 -10 176 -10Q143 -10 115 3T67 41T36 100T25 175Q25 237 44 292T97 390T174 457T266 482Q311 482 341 462T391 398L413 472H568L552 407H485L352 -129H425L408 -197H171Z"  />
<glyph unicode="r" horiz-adv-x="412" d="M229 381Q264 435 296 457T366 480Q388 480 405 473T446 449L410 326H350Q351 336 351 342T352 354Q352 400 317 400Q276 400 245 346T183 171L157 68H240L224 0H-25L-9 68H58L143 407H69L85 472H252L229 381Z"  />
<glyph unicode="s" horiz-adv-x="427" d="M421 472L384 322H318Q320 332 320 337T321 348Q321 379 301 396T244 413Q208 413 186 396T163 352Q163 328 184 312Q188 309 191 307T199 302T215 293T244 277Q261 267 272 260T293 248T308 239T321 229Q365 197 365 140Q365 108 352 81T314 33T258 2T187 -10Q93 -10 61 53L48 0H-18L23 165H89Q87 155 87 150T86 138Q86 102 111 81T178 59Q216 59 240 78T265 129Q265 156 241 173Q236 176 233 178T224 184T207 194T175 212Q141 230 120 245T86 274T68 303T63 339Q63 370 75 396T110 441T164 471T231 482Q311 482 345 428L356 472H421Z"  />
<glyph unicode="t" horiz-adv-x="311" d="M345 472L328 407H220L167 203Q161 179 158 164T152 138T149 122T148 110Q148 91 158 81T187 70Q200 70 214 73T248 86L228 5Q203 -3 184 -6T145 -9Q97 -9 71 14T44 81Q44 89 45 98T48 118T53 144T62 181L120 407H54L70 472H137L173 611H272L237 472H345Z"  />
<glyph unicode="u" horiz-adv-x="542" d="M234 472L168 207Q161 179 158 162T155 133Q155 107 171 92T217 77Q271 77 307 125Q318 140 326 160T344 218L391 407H317L333 472H506L405 68H479L462 0H299L319 79Q286 33 251 12T170 -10Q116 -10 84 22T52 108Q52 118 52 126T55 145T60 170T69 206L119 407H45L61 472H234Z"  />
<glyph unicode="v" horiz-adv-x="484" d="M274 472L258 407H195L207 259Q212 212 214 168T218 98Q229 120 238 138T257 175T278 213T305 259L390 407H322L338 472H538L522 407H466L226 -3H141L99 407H32L48 472H274Z"  />
<glyph unicode="w" horiz-adv-x="708" d="M281 472L264 407H198L196 267Q195 215 193 172T189 100Q203 135 212 158T231 201T252 243T280 301L369 472H469L473 295V203Q473 197 473 192T473 176T473 148T471 97Q476 108 480 118T489 139Q496 157 501 169T513 193T526 222T547 266L615 407H542L558 472H763L747 407H689L486 -3H382L380 173V197Q380 244 381 284T386 376Q371 340 362 319T344 278T323 235T292 173L199 -3H103V407H37L53 472H281Z"  />
<glyph unicode="x" horiz-adv-x="492" d="M219 472L270 313L351 407H287L303 472H507L491 407H437L291 254L358 68H441L424 0H280L218 189L112 68H185L168 0H-51L-34 68H24L197 248L141 407H60L77 472H219Z"  />
<glyph unicode="y" horiz-adv-x="477" d="M268 472L252 407H190L198 284Q201 246 203 217T206 166T208 126T208 94Q223 126 250 175T312 284L383 407H314L331 472H531L515 407H459L219 -8Q201 -40 187 -63T160 -103T136 -132T112 -155Q81 -181 42 -193T-51 -205Q-55 -205 -63 -205T-82 -204L-64 -129Q-56 -130 -49 -130T-39 -130Q14 -130 50 -109T118 -37L135 -11L93 407H27L44 472H268Z"  />
<glyph unicode="z" horiz-adv-x="425" d="M437 472L422 412L108 68H288L314 156H385L342 0H-32L-17 61L299 407H151L126 330H57L99 472H437Z"  />
<glyph unicode="{" horiz-adv-x="290" d="M45 269Q61 272 73 277T95 293T111 319T123 356L166 528Q176 568 189 594T224 637T274 660T346 667Q351 667 358 667T375 666L358 595Q353 596 348 596T341 596Q298 596 278 576T244 504L206 351Q199 322 192 303T174 270T151 247T118 232Q138 218 146 204T154 166Q154 145 146 110L108 -40Q105 -53 103 -66T101 -87Q101 -129 171 -129Q172 -129 175 -129T184 -128L166 -199Q157 -200 148 -200T136 -200Q101 -200 83 -197T48 -184Q13 -163 13 -114Q13 -102 16 -80T25 -38L62 110Q68 135 68 152Q68 188 27 199L45 269Z"  />
<glyph unicode="|" horiz-adv-x="500" d="M324 667V-167H222V667H324Z"  />
<glyph unicode="}" horiz-adv-x="290" d="M242 198Q209 193 192 175T163 111L121 -61Q111 -101 97 -127T62 -170T12 -193T-60 -200Q-64 -200 -71 -200T-89 -199L-71 -128L-55 -129Q-34 -129 -19 -125T8 -110T28 -81T43 -37L81 116Q88 144 95 164T112 198T135 220T168 235Q148 249 140 264T132 302Q132 313 134 325T141 357L178 507Q181 518 183 532T185 554Q185 576 169 586T115 596Q114 596 111 596T102 595L120 667H151Q216 667 244 647T273 582Q273 569 270 546T262 505L225 357Q218 330 218 315Q218 280 259 269L242 198Z"  />
<glyph unicode="~" horiz-adv-x="667" d="M115 242Q123 258 128 268T136 286T143 299T151 310Q194 369 259 369Q279 369 303 363T367 339Q388 330 402 325T426 317T443 313T459 312Q485 312 502 324T540 371L599 337Q580 298 567 279T534 245Q494 214 446 214Q437 214 427 216T401 223T362 236T303 259Q274 271 251 271Q227 271 210 257T172 204L115 242Z"  />
<glyph unicode="&#xA0;" horiz-adv-x="250" />
<glyph unicode="&#xA1;" horiz-adv-x="217" d="M90 361L118 472H226L198 361H90ZM-43 -179L84 279H169L65 -179H-43Z"  />
<glyph unicode="&#xA2;" horiz-adv-x="512" d="M310 516Q273 503 247 473Q232 455 220 432T200 383T186 330T181 277Q181 235 193 211T235 176L310 516ZM197 2L218 101Q151 113 115 161T78 287Q78 326 87 365T113 439T153 503T206 552Q234 572 262 580T326 591L344 673H392L372 586Q421 575 437 534L448 581H517L478 421H409Q410 429 410 433T410 443Q410 503 357 517L281 172Q345 183 372 261H457Q403 108 265 99L244 2H197Z"  />
<glyph unicode="&#xA3;" horiz-adv-x="512" d="M323 298H219Q203 241 175 182T111 73Q128 79 141 83T167 90T191 93T220 94Q228 94 234 94T249 94T270 92T302 90H320Q359 90 376 111T398 187H465Q464 135 457 104T429 49Q408 22 375 11T284 0H-10L-3 30Q35 76 66 143T123 298H55L74 374H143Q145 380 150 397T166 444Q178 482 188 510T210 560T232 598T258 628Q307 677 375 677Q432 677 463 645T494 552Q494 548 494 541T493 526H427Q427 597 372 597Q316 597 284 514Q273 488 264 457T240 374H342L323 298Z"  />
<glyph unicode="&#xA4;" horiz-adv-x="667" d="M355 488Q322 488 293 475T241 441T206 390T193 327Q193 292 205 262T240 210T291 175T355 162Q388 162 417 175T469 210T504 261T517 325Q517 359 504 388T469 440T418 475T355 488ZM166 184Q117 249 117 326Q117 364 128 396T166 466L69 562L115 608L211 512Q248 538 282 550T355 562Q394 562 427 551T497 513L593 608L639 562L543 467Q570 429 581 396T593 325Q593 286 582 254T544 184L641 88L595 42L499 138Q464 112 430 100T356 88Q318 88 285 99T212 138L116 42L71 88L166 184Z"  />
<glyph unicode="&#xA5;" horiz-adv-x="512" d="M345 667L328 598H263L297 356L447 598H379L396 667H614L597 598H537L431 440H528L510 369H384L332 292H463L445 221H307L270 71H360L342 0H68L85 71H166L204 221H66L84 292H214L201 369H74L92 440H189L162 598H92L109 667H345Z"  />
<glyph unicode="&#xA6;" horiz-adv-x="500" d="M324 153V-167H222V153H324ZM324 667V327H222V667H324Z"  />
<glyph unicode="&#xA7;" horiz-adv-x="500" d="M232 354Q194 342 173 323T152 280Q152 271 154 263T162 247T178 230T204 208Q224 192 245 176T276 152Q311 163 332 185T354 231Q354 239 352 245T345 259T330 276T304 298Q277 321 263 332T232 354ZM410 472Q414 488 415 497T416 515Q416 548 395 566T335 584Q293 584 267 562T240 506Q240 494 242 486T253 467T280 442T331 402Q366 375 388 356T422 321T438 291T442 257Q442 165 318 116Q345 90 356 64T368 5Q368 -33 353 -64T311 -119T245 -154T162 -167Q84 -167 40 -132T-4 -33Q-4 -21 -3 -11T1 17H77Q75 3 75 -3T74 -18Q74 -53 97 -72T165 -92Q213 -92 243 -69T273 -10Q273 21 249 44Q244 49 241 52T230 62T208 79T168 111Q136 135 116 153T85 188T69 219T64 253Q64 346 189 389Q163 415 154 437T144 488Q144 525 159 556T200 610T263 646T343 659Q414 659 453 626T492 532Q492 518 490 505T482 472H410Z"  />
<glyph unicode="&#xA8;" horiz-adv-x="500" d="M491 662L466 563H367L391 662H491ZM306 662L282 563H182L207 662H306Z"  />
<glyph unicode="&#xA9;" horiz-adv-x="770" d="M409 637Q348 637 294 613T199 549T135 454T111 338Q111 273 134 217T197 120T292 54T409 30Q470 30 524 54T618 119T681 215T705 334Q705 397 682 452T618 548T524 613T409 637ZM409 680Q480 680 543 653T652 579T726 468T753 333Q753 262 726 199T653 89T543 15T409 -13Q337 -13 274 14T164 89T90 200T63 338Q63 408 90 470T165 579T275 653T409 680ZM553 535V409H501Q496 454 476 473T414 493Q360 493 333 453T305 334Q305 262 332 220T406 178Q492 178 501 279H555Q553 206 516 167T410 127Q325 127 278 182T231 334Q231 431 277 487T405 543Q434 543 456 535T501 509V535H553Z"  />
<glyph unicode="&#xAA;" horiz-adv-x="311" d="M264 528Q202 515 177 499T151 457Q151 442 161 433T189 423Q222 423 241 453Q246 461 249 471T259 507L264 528ZM126 570L146 639Q172 656 196 663T250 671Q294 671 318 654T343 604Q343 593 342 585T334 552L303 425H345L334 380H231L239 412Q219 391 202 383T161 374Q126 374 104 394T81 446Q81 478 104 503T170 542Q180 545 189 547T208 552T234 558T274 565L276 574Q280 587 280 598Q280 624 240 624Q213 624 199 612T174 570H126ZM329 327L317 279H40L52 327H329Z"  />
<glyph unicode="&#xAB;" horiz-adv-x="434" d="M87 0L50 239L203 472H279L136 235L159 0H87ZM249 0L212 239L365 472H441L298 235L321 0H249Z"  />
<glyph unicode="&#xAC;" horiz-adv-x="500" d="M387 172H56V267H489V0H387V172Z"  />
<glyph unicode="&#xAD;" horiz-adv-x="210" d="M220 284L207 230H-3L10 284H220Z"  />
<glyph unicode="&#xAE;" horiz-adv-x="770" d="M409 637Q348 637 294 613T199 549T135 453T111 337Q111 273 134 217T197 120T292 54T409 30Q470 30 524 54T618 119T681 215T705 333Q705 396 682 451T618 548T524 613T409 637ZM409 680Q480 680 543 653T652 579T726 468T753 333Q753 262 726 199T653 89T543 15T409 -13Q337 -13 274 14T164 89T90 200T63 338Q63 408 90 470T165 579T275 653T409 680ZM395 357Q424 357 436 358T459 365Q473 372 481 386T490 421Q490 440 483 454T461 475Q450 480 438 482T394 484H362V357H395ZM552 182H600V135H497L426 306H359V182H405V135H242V182H292V487H242V534H380Q406 534 424 534T455 532T478 528T497 521Q528 508 545 481T562 418Q562 368 530 338Q522 331 515 327T489 315L552 182Z"  />
<glyph unicode="&#xAF;" horiz-adv-x="500" d="M480 635L464 573H192L208 635H480Z"  />
<glyph unicode="&#xB0;" horiz-adv-x="500" d="M325 610Q308 610 294 604T268 587T251 562T244 531Q244 496 267 473T325 450Q358 450 382 473T406 531Q406 564 383 587T325 610ZM326 676Q357 676 384 665T431 634T462 588T474 531Q474 501 462 474T430 427T383 396T324 384Q293 384 266 395T219 427T188 473T176 531Q176 561 188 587T220 633T268 664T326 676Z"  />
<glyph unicode="&#xB1;" horiz-adv-x="512" d="M470 128V51H37V128H470ZM213 414V588H296V414H470V337H296V162H213V337H37V414H213Z"  />
<glyph unicode="&#xB2;" horiz-adv-x="334" d="M326 533L296 426H46L59 480Q178 573 233 632T289 727Q289 746 277 757T241 768Q187 768 168 697H118Q139 822 253 822Q301 822 329 799T357 735Q357 719 352 704T336 671T307 634T262 590Q228 558 197 531T136 483H261L277 533H326Z"  />
<glyph unicode="&#xB3;" horiz-adv-x="334" d="M185 664Q189 663 193 663T198 663Q238 663 263 681T288 730Q288 750 275 762T238 774Q186 774 171 710H118Q127 765 160 793T247 822Q295 822 324 798T353 734Q353 701 335 678T278 637Q326 617 326 562Q326 531 315 505T285 461T238 432T178 421Q124 421 94 446T63 515Q63 521 63 526T66 541H118V524Q118 499 134 485T179 471Q214 471 236 495T258 557Q258 595 223 607Q219 608 216 608T207 609T193 610T170 612L185 664Z"  />
<glyph unicode="&#xB4;" horiz-adv-x="500" d="M523 682L322 545H244L389 682H523Z"  />
<glyph unicode="&#xB5;" horiz-adv-x="500" d="M59 480H161V217Q161 167 168 142T196 97Q227 66 273 66Q297 66 318 76T355 106Q372 128 378 153T385 223V480H487V0H385V70Q365 28 338 9T270 -11Q234 -11 208 5T161 56V-171H59V480Z"  />
<glyph unicode="&#xB6;" horiz-adv-x="521" d="M98 -109L203 316H189Q120 317 81 351T42 446Q42 475 50 503T72 556T107 601T153 635Q182 651 224 659T318 667H631L613 596H536L360 -109H267L443 596H366L190 -109H98Z"  />
<glyph unicode="&#xB7;" horiz-adv-x="215" d="M187 308L155 180H29L61 308H187Z"  />
<glyph unicode="&#xB8;" horiz-adv-x="500" d="M253 0L224 -47Q284 -64 284 -116Q284 -157 255 -184T180 -211Q160 -211 144 -207T103 -192L113 -153Q132 -161 143 -163T167 -166Q191 -166 206 -152T222 -114Q222 -96 209 -85T172 -74H155L200 0H253Z"  />
<glyph unicode="&#xB9;" horiz-adv-x="334" d="M309 820L222 473H284L272 426H90L102 473H155L214 712H146L156 750Q194 750 218 766T259 820H309Z"  />
<glyph unicode="&#xBA;" horiz-adv-x="321" d="M252 624Q234 624 218 613T190 582T171 537T163 484Q163 454 175 438T211 421Q247 421 273 464Q284 484 291 511T299 562Q299 624 252 624ZM253 671Q306 671 337 640T369 555Q369 516 357 483T323 426T272 388T208 374Q155 374 124 405T93 490Q93 528 105 561T139 618T190 657T253 671ZM327 327L315 279H38L50 327H327Z"  />
<glyph unicode="&#xBB;" horiz-adv-x="434" d="M345 472L382 233L230 0H153L296 237L273 472H345ZM183 472L220 233L67 0H-9L134 237L111 472H183Z"  />
<glyph unicode="&#xBC;" horiz-adv-x="795" d="M636 206Q641 226 645 241T653 270T660 297T669 324Q661 313 653 304T637 283Q622 264 609 248T576 208L528 152H623L636 206ZM745 155L733 105H673L659 46H707L695 0H541L552 46H597L611 105H457L469 153L683 394H745L686 155H745ZM707 650L207 0H132L633 650H707ZM310 654L223 307H285L273 260H91L103 307H156L215 545H147L157 583Q195 583 219 599T260 654H310Z"  />
<glyph unicode="&#xBD;" horiz-adv-x="795" d="M721 107L692 0H442L455 54Q574 146 629 205T685 300Q685 319 673 330T637 341Q582 341 564 270H513Q534 395 649 395Q697 395 725 372T753 308Q753 292 748 277T732 244T703 207T658 163Q625 133 592 105T532 57H657L673 107H721ZM706 650L206 0H131L632 650H706ZM309 654L222 307H284L272 260H90L102 307H155L214 545H146L156 583Q194 583 218 599T259 654H309Z"  />
<glyph unicode="&#xBE;" horiz-adv-x="795" d="M636 206Q644 239 652 269T669 324Q652 303 641 289T619 262T599 237T575 208L528 152H622L636 206ZM745 155L732 105H673L658 46H706L695 0H540L552 46H596L611 105H457L469 153L682 394H745L685 155H745ZM707 650L206 0H132L632 650H707ZM186 496H199Q239 496 264 514T289 563Q289 583 276 595T239 607Q187 607 172 543H119Q128 598 161 626T248 655Q296 655 325 631T354 567Q354 534 336 511T279 470Q327 450 327 395Q327 364 316 338T286 294T239 265T179 254Q125 254 95 279T64 348Q64 354 64 359T67 374H119V357Q119 332 135 318T180 304Q215 304 237 328T259 391Q259 445 188 445Q186 445 182 445T171 444L186 496Z"  />
<glyph unicode="&#xBF;" horiz-adv-x="415" d="M294 270Q282 224 273 196T248 146T209 103T142 49Q107 22 93 2T79 -42Q79 -70 97 -85T147 -101Q225 -101 249 -10H329Q314 -99 264 -144T128 -190Q56 -190 14 -155T-29 -59Q-29 7 22 58Q29 65 34 70T47 81T68 97T105 124Q129 142 144 156T170 185T188 221T202 270H294ZM208 361L236 472H344L316 361H208Z"  />
<glyph unicode="&#xC0;" horiz-adv-x="641" d="M403 403L401 459Q400 482 400 500T399 533V586Q385 556 376 536T357 497T335 455T305 400L237 277H408L403 403ZM485 669L521 73H599L579 0H317L336 73H417L411 205H196L123 73H210L191 0H-54L-34 73H37L378 669H485ZM388 876L464 732H392L273 876H388Z"  />
<glyph unicode="&#xC1;" horiz-adv-x="641" d="M403 403L401 459Q400 482 400 500T399 533V586Q385 556 376 536T357 497T335 455T305 400L237 277H408L403 403ZM485 669L521 73H599L579 0H317L336 73H417L411 205H196L123 73H210L191 0H-54L-34 73H37L378 669H485ZM641 872L440 735H362L507 872H641Z"  />
<glyph unicode="&#xC2;" horiz-adv-x="641" d="M403 403L401 459Q400 482 400 500T399 533V586Q385 556 376 536T357 497T335 455T305 400L237 277H408L403 403ZM485 669L521 73H599L579 0H317L336 73H417L411 205H196L123 73H210L191 0H-54L-34 73H37L378 669H485ZM495 874L572 733H492L444 814L346 733H257L407 874H495Z"  />
<glyph unicode="&#xC3;" horiz-adv-x="641" d="M403 403L401 459Q400 482 400 500T399 533V586Q385 556 376 536T357 497T335 455T305 400L237 277H408L403 403ZM485 669L521 73H599L579 0H317L336 73H417L411 205H196L123 73H210L191 0H-54L-34 73H37L378 669H485ZM280 752Q329 857 389 857Q401 857 415 853T450 837Q473 824 483 820T504 816Q530 816 560 859L599 847Q556 743 492 743Q479 743 465 748T427 765Q404 776 393 780T373 785Q343 785 319 741L280 752Z"  />
<glyph unicode="&#xC4;" horiz-adv-x="641" d="M403 403L401 459Q400 482 400 500T399 533V586Q385 556 376 536T357 497T335 455T305 400L237 277H408L403 403ZM485 669L521 73H599L579 0H317L336 73H417L411 205H196L123 73H210L191 0H-54L-34 73H37L378 669H485ZM600 845L575 746H476L500 845H600ZM415 845L391 746H291L316 845H415Z"  />
<glyph unicode="&#xC5;" horiz-adv-x="641" d="M403 403L401 459Q400 482 400 500T399 533V586Q385 556 376 536T357 497T335 455T305 400L237 277H408L403 403ZM485 669L521 73H599L579 0H317L336 73H417L411 205H196L123 73H210L191 0H-54L-34 73H37L378 669H485ZM453 840Q436 840 424 828T411 799Q411 781 423 769T453 757Q470 757 482 769T494 799Q494 816 482 828T453 840ZM453 883Q488 883 512 859T537 799Q537 781 531 766T513 739T486 721T453 714Q417 714 393 739T368 800Q368 817 374 832T392 858T419 876T453 883Z"  />
<glyph unicode="&#xC6;" horiz-adv-x="864" d="M539 596L280 268H457L539 596ZM887 504H814L836 596H638L586 387H794L774 310H567L508 73H720L748 185H824L778 0H309L329 73H409L439 196H222L125 73H213L193 0H-58L-38 73H30L513 667H927L887 504Z"  />
<glyph unicode="&#xC7;" horiz-adv-x="592" d="M652 667L601 462H525Q527 475 527 482T528 497Q528 548 498 575T412 603Q308 603 236 495Q198 438 177 368T155 229Q155 150 190 107T289 64Q419 64 477 236H567Q536 118 470 55T301 -14L278 -52Q346 -68 346 -125Q346 -169 313 -198T228 -227Q208 -227 191 -223T150 -207L161 -161Q181 -168 192 -170T217 -172Q241 -172 256 -158T271 -121Q271 -102 258 -91T221 -79Q219 -79 214 -79T204 -80L245 -12Q148 0 97 64T46 237Q46 287 57 338T87 436T134 524T196 596Q291 681 409 681Q463 681 499 665T563 613L577 667H652Z"  />
<glyph unicode="&#xC8;" horiz-adv-x="529" d="M553 504H479L502 596H303L251 387H459L440 310H232L173 73H386L414 185H489L443 0H-28L-8 73H69L200 596H113L133 667H593L553 504ZM347 876L423 732H351L232 876H347Z"  />
<glyph unicode="&#xC9;" horiz-adv-x="529" d="M553 504H479L502 596H303L251 387H459L440 310H232L173 73H386L414 185H489L443 0H-28L-8 73H69L200 596H113L133 667H593L553 504ZM584 872L383 735H305L450 872H584Z"  />
<glyph unicode="&#xCA;" horiz-adv-x="529" d="M553 504H479L502 596H303L251 387H459L440 310H232L173 73H386L414 185H489L443 0H-28L-8 73H69L200 596H113L133 667H593L553 504ZM446 874L523 733H443L395 814L297 733H208L358 874H446Z"  />
<glyph unicode="&#xCB;" horiz-adv-x="529" d="M553 504H479L502 596H303L251 387H459L440 310H232L173 73H386L414 185H489L443 0H-28L-8 73H69L200 596H113L133 667H593L553 504ZM550 845L525 746H426L450 845H550ZM365 845L341 746H241L266 845H365Z"  />
<glyph unicode="&#xCC;" horiz-adv-x="331" d="M406 667L386 596H306L176 73H265L245 0H-28L-8 73H72L202 596H113L133 667H406ZM230 876L306 732H234L115 876H230Z"  />
<glyph unicode="&#xCD;" horiz-adv-x="331" d="M406 667L386 596H306L176 73H265L245 0H-28L-8 73H72L202 596H113L133 667H406ZM494 872L293 735H215L360 872H494Z"  />
<glyph unicode="&#xCE;" horiz-adv-x="331" d="M406 667L386 596H306L176 73H265L245 0H-28L-8 73H72L202 596H113L133 667H406ZM357 874L434 733H354L306 814L208 733H119L269 874H357Z"  />
<glyph unicode="&#xCF;" horiz-adv-x="331" d="M406 667L386 596H306L176 73H265L245 0H-28L-8 73H72L202 596H113L133 667H406ZM464 845L439 746H340L364 845H464ZM279 845L255 746H155L180 845H279Z"  />
<glyph unicode="&#xD0;" horiz-adv-x="627" d="M214 73Q251 73 279 76T330 87T371 107T408 138Q432 162 451 196T485 268T508 348T516 429Q516 485 499 523T449 579Q430 588 405 592T339 596H303L251 387H393L375 317H234L173 73H214ZM336 667Q373 667 400 666T448 661T486 652T518 638Q625 582 625 424Q625 368 613 315T580 214T527 127T458 61Q434 44 407 32T347 13T270 3T169 0H-28L-8 73H69L130 317H46L63 387H147L200 596H113L133 667H336Z"  />
<glyph unicode="&#xD1;" horiz-adv-x="674" d="M422 0L345 268Q326 335 314 377T294 448T279 502T264 557Q249 492 239 450T222 379T211 335T204 305L146 73H233L214 0H-28L-8 73H69L200 596H113L133 667H330L403 420Q419 364 430 328T448 264T462 210T475 151L532 385L585 596H498L517 667H759L740 596H662L514 0H422ZM291 752Q340 857 400 857Q412 857 426 853T461 837Q484 824 494 820T515 816Q541 816 571 859L610 847Q567 743 503 743Q490 743 476 748T438 765Q415 776 404 780T384 785Q354 785 330 741L291 752Z"  />
<glyph unicode="&#xD2;" horiz-adv-x="634" d="M400 603Q302 603 231 488Q214 461 200 429T176 362T161 293T155 227Q155 152 188 108T280 64Q367 64 435 160Q455 188 471 222T498 293T516 368T523 442Q523 516 490 559T400 603ZM404 681Q456 681 498 664T570 613T616 533T632 428Q632 387 625 344T603 260T570 182T525 113Q425 -14 274 -14Q221 -14 179 3T108 53T62 132T46 237Q46 280 54 325T79 414T117 497T166 568Q214 622 275 651T404 681ZM401 876L477 732H405L286 876H401Z"  />
<glyph unicode="&#xD3;" horiz-adv-x="634" d="M400 603Q302 603 231 488Q214 461 200 429T176 362T161 293T155 227Q155 152 188 108T280 64Q367 64 435 160Q455 188 471 222T498 293T516 368T523 442Q523 516 490 559T400 603ZM404 681Q456 681 498 664T570 613T616 533T632 428Q632 387 625 344T603 260T570 182T525 113Q425 -14 274 -14Q221 -14 179 3T108 53T62 132T46 237Q46 280 54 325T79 414T117 497T166 568Q214 622 275 651T404 681ZM639 872L438 735H360L505 872H639Z"  />
<glyph unicode="&#xD4;" horiz-adv-x="634" d="M400 603Q302 603 231 488Q214 461 200 429T176 362T161 293T155 227Q155 152 188 108T280 64Q367 64 435 160Q455 188 471 222T498 293T516 368T523 442Q523 516 490 559T400 603ZM404 681Q456 681 498 664T570 613T616 533T632 428Q632 387 625 344T603 260T570 182T525 113Q425 -14 274 -14Q221 -14 179 3T108 53T62 132T46 237Q46 280 54 325T79 414T117 497T166 568Q214 622 275 651T404 681ZM497 874L574 733H494L446 814L348 733H259L409 874H497Z"  />
<glyph unicode="&#xD5;" horiz-adv-x="634" d="M400 603Q302 603 231 488Q214 461 200 429T176 362T161 293T155 227Q155 152 188 108T280 64Q367 64 435 160Q455 188 471 222T498 293T516 368T523 442Q523 516 490 559T400 603ZM404 681Q456 681 498 664T570 613T616 533T632 428Q632 387 625 344T603 260T570 182T525 113Q425 -14 274 -14Q221 -14 179 3T108 53T62 132T46 237Q46 280 54 325T79 414T117 497T166 568Q214 622 275 651T404 681ZM282 752Q331 857 391 857Q403 857 417 853T452 837Q475 824 485 820T506 816Q532 816 562 859L601 847Q558 743 494 743Q481 743 467 748T429 765Q406 776 395 780T375 785Q345 785 321 741L282 752Z"  />
<glyph unicode="&#xD6;" horiz-adv-x="634" d="M400 603Q302 603 231 488Q214 461 200 429T176 362T161 293T155 227Q155 152 188 108T280 64Q367 64 435 160Q455 188 471 222T498 293T516 368T523 442Q523 516 490 559T400 603ZM404 681Q456 681 498 664T570 613T616 533T632 428Q632 387 625 344T603 260T570 182T525 113Q425 -14 274 -14Q221 -14 179 3T108 53T62 132T46 237Q46 280 54 325T79 414T117 497T166 568Q214 622 275 651T404 681ZM599 845L574 746H475L499 845H599ZM414 845L390 746H290L315 845H414Z"  />
<glyph unicode="&#xD7;" horiz-adv-x="512" d="M224 329L76 477L131 531L278 383L426 531L480 477L332 330L480 182L426 127L278 275L131 128L77 182L224 329Z"  />
<glyph unicode="&#xD8;" horiz-adv-x="634" d="M506 532Q487 569 462 586T400 603Q352 603 309 574T231 488Q214 461 200 429T176 363T161 295T155 231Q155 227 155 222T156 208L506 532ZM170 140Q204 64 282 64Q366 64 435 160Q455 187 471 221T498 292T516 367T523 442Q523 449 523 453T522 465L170 140ZM-79 0L63 129Q54 159 50 183T46 235Q46 279 54 324T79 413T117 496T166 568Q214 622 275 651T404 681Q518 681 583 598L659 667H748L612 545Q623 515 627 488T632 431Q632 389 625 346T603 261T570 182T525 113Q424 -14 276 -14Q155 -14 92 74L10 0H-79Z"  />
<glyph unicode="&#xD9;" horiz-adv-x="654" d="M392 667L373 596H295L213 268Q204 230 200 206T196 161Q196 113 225 89T308 64Q389 64 433 124Q449 146 460 177T487 267L569 596H482L501 667H740L720 596H645L563 268Q551 218 542 185T523 130T503 91T477 59Q409 -14 290 -14Q199 -14 146 30T92 149Q92 174 96 203T111 273L192 596H105L125 667H392ZM402 876L478 732H406L287 876H402Z"  />
<glyph unicode="&#xDA;" horiz-adv-x="654" d="M392 667L373 596H295L213 268Q204 230 200 206T196 161Q196 113 225 89T308 64Q389 64 433 124Q449 146 460 177T487 267L569 596H482L501 667H740L720 596H645L563 268Q551 218 542 185T523 130T503 91T477 59Q409 -14 290 -14Q199 -14 146 30T92 149Q92 174 96 203T111 273L192 596H105L125 667H392ZM649 872L448 735H370L515 872H649Z"  />
<glyph unicode="&#xDB;" horiz-adv-x="654" d="M392 667L373 596H295L213 268Q204 230 200 206T196 161Q196 113 225 89T308 64Q389 64 433 124Q449 146 460 177T487 267L569 596H482L501 667H740L720 596H645L563 268Q551 218 542 185T523 130T503 91T477 59Q409 -14 290 -14Q199 -14 146 30T92 149Q92 174 96 203T111 273L192 596H105L125 667H392ZM505 874L582 733H502L454 814L356 733H267L417 874H505Z"  />
<glyph unicode="&#xDC;" horiz-adv-x="654" d="M392 667L373 596H295L213 268Q204 230 200 206T196 161Q196 113 225 89T308 64Q389 64 433 124Q449 146 460 177T487 267L569 596H482L501 667H740L720 596H645L563 268Q551 218 542 185T523 130T503 91T477 59Q409 -14 290 -14Q199 -14 146 30T92 149Q92 174 96 203T111 273L192 596H105L125 667H392ZM610 845L585 746H486L510 845H610ZM425 845L401 746H301L326 845H425Z"  />
<glyph unicode="&#xDD;" horiz-adv-x="562" d="M365 667L346 596H273L323 356L487 596H409L427 667H661L642 596H578L347 275L296 73H386L367 0H92L112 73H193L243 275L172 596H95L114 667H365ZM604 872L403 735H325L470 872H604Z"  />
<glyph unicode="&#xDE;" horiz-adv-x="531" d="M258 262Q311 262 341 268T393 291Q419 311 435 346T451 423Q451 475 423 496T327 518H284L220 262H258ZM321 667L302 589H326Q385 589 419 584T477 566Q558 525 558 424Q558 357 525 302T433 218Q401 203 359 197T249 190H202L173 73H274L255 0H-28L-8 73H69L200 596H113L133 667H321Z"  />
<glyph unicode="&#xDF;" horiz-adv-x="508" d="M-42 0L-25 67H40L131 438Q140 477 148 503T163 549T179 582T199 609Q253 672 347 672Q418 672 459 635T501 535Q501 475 468 432T372 369Q467 339 467 226Q467 175 453 132T412 58T350 10T270 -7Q249 -7 232 -4T188 7L206 78Q225 70 236 68T258 65Q279 65 298 77T331 111T354 161T362 223Q362 264 346 290T298 327Q286 331 278 332T246 333L264 404H275Q329 404 363 440T398 532Q398 564 382 582T338 600Q290 600 263 547Q259 539 256 532T250 514T242 486T231 441L123 0H-42Z"  />
<glyph unicode="&#xE0;" horiz-adv-x="474" d="M304 250Q281 245 264 242T232 234T207 226T183 216Q148 200 130 177T111 125Q111 98 128 82T174 65Q200 65 224 79T263 118Q267 125 270 131T277 148T284 172T294 210L304 250ZM81 321L113 431Q154 458 191 470T277 482Q346 482 384 454T422 374Q422 356 419 339T408 287L353 68H422L405 0H247L263 68Q235 27 204 9T131 -10Q76 -10 41 23T6 108Q6 159 43 201T147 266Q164 272 180 276T216 285T259 294T318 305L322 323Q326 340 327 348T329 365Q329 411 263 411Q218 411 193 391T150 321H81ZM292 685L368 541H296L177 685H292Z"  />
<glyph unicode="&#xE1;" horiz-adv-x="474" d="M304 250Q281 245 264 242T232 234T207 226T183 216Q148 200 130 177T111 125Q111 98 128 82T174 65Q200 65 224 79T263 118Q267 125 270 131T277 148T284 172T294 210L304 250ZM81 321L113 431Q154 458 191 470T277 482Q346 482 384 454T422 374Q422 356 419 339T408 287L353 68H422L405 0H247L263 68Q235 27 204 9T131 -10Q76 -10 41 23T6 108Q6 159 43 201T147 266Q164 272 180 276T216 285T259 294T318 305L322 323Q326 340 327 348T329 365Q329 411 263 411Q218 411 193 391T150 321H81ZM503 682L302 545H224L369 682H503Z"  />
<glyph unicode="&#xE2;" horiz-adv-x="474" d="M304 250Q281 245 264 242T232 234T207 226T183 216Q148 200 130 177T111 125Q111 98 128 82T174 65Q200 65 224 79T263 118Q267 125 270 131T277 148T284 172T294 210L304 250ZM81 321L113 431Q154 458 191 470T277 482Q346 482 384 454T422 374Q422 356 419 339T408 287L353 68H422L405 0H247L263 68Q235 27 204 9T131 -10Q76 -10 41 23T6 108Q6 159 43 201T147 266Q164 272 180 276T216 285T259 294T318 305L322 323Q326 340 327 348T329 365Q329 411 263 411Q218 411 193 391T150 321H81ZM374 684L451 543H371L323 624L225 543H136L286 684H374Z"  />
<glyph unicode="&#xE3;" horiz-adv-x="474" d="M304 250Q281 245 264 242T232 234T207 226T183 216Q148 200 130 177T111 125Q111 98 128 82T174 65Q200 65 224 79T263 118Q267 125 270 131T277 148T284 172T294 210L304 250ZM81 321L113 431Q154 458 191 470T277 482Q346 482 384 454T422 374Q422 356 419 339T408 287L353 68H422L405 0H247L263 68Q235 27 204 9T131 -10Q76 -10 41 23T6 108Q6 159 43 201T147 266Q164 272 180 276T216 285T259 294T318 305L322 323Q326 340 327 348T329 365Q329 411 263 411Q218 411 193 391T150 321H81ZM152 566Q201 671 261 671Q273 671 287 667T322 651Q345 638 355 634T376 630Q402 630 432 673L471 661Q428 557 364 557Q351 557 337 562T299 579Q276 590 265 594T245 599Q215 599 191 555L152 566Z"  />
<glyph unicode="&#xE4;" horiz-adv-x="474" d="M304 250Q281 245 264 242T232 234T207 226T183 216Q148 200 130 177T111 125Q111 98 128 82T174 65Q200 65 224 79T263 118Q267 125 270 131T277 148T284 172T294 210L304 250ZM81 321L113 431Q154 458 191 470T277 482Q346 482 384 454T422 374Q422 356 419 339T408 287L353 68H422L405 0H247L263 68Q235 27 204 9T131 -10Q76 -10 41 23T6 108Q6 159 43 201T147 266Q164 272 180 276T216 285T259 294T318 305L322 323Q326 340 327 348T329 365Q329 411 263 411Q218 411 193 391T150 321H81ZM469 662L444 563H345L369 662H469ZM284 662L260 563H160L185 662H284Z"  />
<glyph unicode="&#xE5;" horiz-adv-x="474" d="M304 250Q281 245 264 242T232 234T207 226T183 216Q148 200 130 177T111 125Q111 98 128 82T174 65Q200 65 224 79T263 118Q267 125 270 131T277 148T284 172T294 210L304 250ZM81 321L113 431Q154 458 191 470T277 482Q346 482 384 454T422 374Q422 356 419 339T408 287L353 68H422L405 0H247L263 68Q235 27 204 9T131 -10Q76 -10 41 23T6 108Q6 159 43 201T147 266Q164 272 180 276T216 285T259 294T318 305L322 323Q326 340 327 348T329 365Q329 411 263 411Q218 411 193 391T150 321H81ZM313 655Q296 655 284 643T271 614Q271 596 283 584T313 572Q330 572 342 584T354 614Q354 631 342 643T313 655ZM313 698Q348 698 372 674T397 614Q397 596 391 581T373 554T346 536T313 529Q277 529 253 554T228 615Q228 632 234 647T252 673T279 691T313 698Z"  />
<glyph unicode="&#xE6;" horiz-adv-x="722" d="M593 288Q596 303 597 312T599 333Q599 370 581 390T529 411Q444 411 400 287L593 288ZM290 221Q252 220 228 218T181 208Q148 197 129 175T109 124Q109 98 125 82T168 65Q250 65 283 193L290 221ZM384 221Q380 202 379 191T378 167Q378 116 401 89T467 62Q505 62 533 82T587 147H669Q641 69 588 30T458 -10Q341 -10 307 89Q277 41 234 16T139 -10Q79 -10 43 23T6 112Q6 195 81 239T306 287L313 317Q316 329 317 336T319 348T320 356T321 364Q321 411 257 411Q204 411 176 380Q167 371 161 359T147 321H78L111 431Q156 459 194 470T278 482Q372 482 396 424Q450 482 538 482Q613 482 655 437T698 314Q698 291 695 272T684 223L384 221Z"  />
<glyph unicode="&#xE7;" horiz-adv-x="448" d="M464 472L425 312H356Q357 319 357 323T357 333Q357 369 338 390T284 411Q224 411 179 342Q157 307 144 260T130 168Q130 116 151 89T213 61Q285 61 319 152H404Q353 5 222 -9L199 -47Q259 -64 259 -116Q259 -157 230 -184T155 -211Q135 -211 119 -207T78 -192L88 -153Q107 -161 118 -163T142 -166Q166 -166 181 -152T197 -113Q197 -95 184 -84T147 -73L130 -74L170 -8Q101 2 63 50T25 177Q25 245 51 309T123 418Q189 482 277 482Q319 482 344 468T384 425L395 472H464Z"  />
<glyph unicode="&#xE8;" horiz-adv-x="472" d="M344 288Q347 303 348 312T349 333Q349 370 331 390T280 411Q194 411 151 286L344 288ZM134 221Q131 202 130 191T129 167Q129 116 151 89T217 62Q255 62 283 82T338 147H419Q364 -10 207 -10Q122 -10 74 39T26 177Q26 241 46 297T101 394T184 458T287 482Q362 482 405 437T448 313Q448 290 445 271T434 222L134 221ZM290 685L366 541H294L175 685H290Z"  />
<glyph unicode="&#xE9;" horiz-adv-x="472" d="M344 288Q347 303 348 312T349 333Q349 370 331 390T280 411Q194 411 151 286L344 288ZM134 221Q131 202 130 191T129 167Q129 116 151 89T217 62Q255 62 283 82T338 147H419Q364 -10 207 -10Q122 -10 74 39T26 177Q26 241 46 297T101 394T184 458T287 482Q362 482 405 437T448 313Q448 290 445 271T434 222L134 221ZM510 682L309 545H231L376 682H510Z"  />
<glyph unicode="&#xEA;" horiz-adv-x="472" d="M344 288Q347 303 348 312T349 333Q349 370 331 390T280 411Q194 411 151 286L344 288ZM134 221Q131 202 130 191T129 167Q129 116 151 89T217 62Q255 62 283 82T338 147H419Q364 -10 207 -10Q122 -10 74 39T26 177Q26 241 46 297T101 394T184 458T287 482Q362 482 405 437T448 313Q448 290 445 271T434 222L134 221ZM383 684L460 543H380L332 624L234 543H145L295 684H383Z"  />
<glyph unicode="&#xEB;" horiz-adv-x="472" d="M344 288Q347 303 348 312T349 333Q349 370 331 390T280 411Q194 411 151 286L344 288ZM134 221Q131 202 130 191T129 167Q129 116 151 89T217 62Q255 62 283 82T338 147H419Q364 -10 207 -10Q122 -10 74 39T26 177Q26 241 46 297T101 394T184 458T287 482Q362 482 405 437T448 313Q448 290 445 271T434 222L134 221ZM479 662L454 563H355L379 662H479ZM294 662L270 563H170L195 662H294Z"  />
<glyph unicode="&#xEC;" horiz-adv-x="292" d="M158 67H231L215 0H-25L-8 67H58L143 407H69L86 472H259L158 67ZM193 685L269 541H197L78 685H193Z"  />
<glyph unicode="&#xED;" horiz-adv-x="292" d="M158 67H231L215 0H-25L-8 67H58L143 407H69L86 472H259L158 67ZM420 682L219 545H141L286 682H420Z"  />
<glyph unicode="&#xEE;" horiz-adv-x="292" d="M158 67H231L215 0H-25L-8 67H58L143 407H69L86 472H259L158 67ZM298 684L375 543H295L247 624L149 543H60L210 684H298Z"  />
<glyph unicode="&#xEF;" horiz-adv-x="292" d="M158 67H231L215 0H-25L-8 67H58L143 407H69L86 472H259L158 67ZM402 662L377 563H278L302 662H402ZM217 662L193 563H93L118 662H217Z"  />
<glyph unicode="&#xF0;" horiz-adv-x="491" d="M281 410Q220 410 177 335Q156 300 144 255T131 168Q131 117 151 90T209 62Q241 62 266 80T314 137Q334 172 346 218T358 306Q358 356 338 383T281 410ZM324 671L333 660Q339 652 344 645T354 632Q356 630 362 621L428 665L463 606L397 563Q417 530 430 502T452 447T463 393T467 333Q467 256 448 193T395 85T313 15T207 -10Q123 -10 75 41T26 180Q26 242 49 302T110 405Q143 441 187 461T279 482Q299 482 314 479T348 465Q341 479 330 498T305 539T277 582T248 624L324 671Z"  />
<glyph unicode="&#xF1;" horiz-adv-x="548" d="M234 395Q296 482 377 482Q427 482 457 452T487 373Q487 363 487 355T484 334T477 305T467 261L418 68H492L475 0H251L268 68H319L373 284Q382 318 382 341Q382 367 367 381T324 396Q275 396 241 350Q230 335 223 317T206 261L158 68H216L200 0H-25L-8 68H58L143 407H69L86 472H253L234 395ZM189 566Q238 671 298 671Q310 671 324 667T359 651Q382 638 392 634T413 630Q439 630 469 673L508 661Q465 557 401 557Q388 557 374 562T336 579Q313 590 302 594T282 599Q252 599 228 555L189 566Z"  />
<glyph unicode="&#xF2;" horiz-adv-x="491" d="M281 410Q220 410 177 335Q156 300 144 255T131 168Q131 117 151 90T209 62Q241 62 266 80T314 137Q334 172 346 218T358 306Q358 356 338 383T281 410ZM281 482Q364 482 413 431T463 294Q463 231 440 170T379 66Q309 -10 206 -10Q123 -10 75 41T26 180Q26 242 49 302T110 405Q144 442 188 462T281 482ZM298 685L374 541H302L183 685H298Z"  />
<glyph unicode="&#xF3;" horiz-adv-x="491" d="M281 410Q220 410 177 335Q156 300 144 255T131 168Q131 117 151 90T209 62Q241 62 266 80T314 137Q334 172 346 218T358 306Q358 356 338 383T281 410ZM281 482Q364 482 413 431T463 294Q463 231 440 170T379 66Q309 -10 206 -10Q123 -10 75 41T26 180Q26 242 49 302T110 405Q144 442 188 462T281 482ZM519 682L318 545H240L385 682H519Z"  />
<glyph unicode="&#xF4;" horiz-adv-x="491" d="M281 410Q220 410 177 335Q156 300 144 255T131 168Q131 117 151 90T209 62Q241 62 266 80T314 137Q334 172 346 218T358 306Q358 356 338 383T281 410ZM281 482Q364 482 413 431T463 294Q463 231 440 170T379 66Q309 -10 206 -10Q123 -10 75 41T26 180Q26 242 49 302T110 405Q144 442 188 462T281 482ZM388 684L465 543H385L337 624L239 543H150L300 684H388Z"  />
<glyph unicode="&#xF5;" horiz-adv-x="491" d="M281 410Q220 410 177 335Q156 300 144 255T131 168Q131 117 151 90T209 62Q241 62 266 80T314 137Q334 172 346 218T358 306Q358 356 338 383T281 410ZM281 482Q364 482 413 431T463 294Q463 231 440 170T379 66Q309 -10 206 -10Q123 -10 75 41T26 180Q26 242 49 302T110 405Q144 442 188 462T281 482ZM166 566Q215 671 275 671Q287 671 301 667T336 651Q359 638 369 634T390 630Q416 630 446 673L485 661Q442 557 378 557Q365 557 351 562T313 579Q290 590 279 594T259 599Q229 599 205 555L166 566Z"  />
<glyph unicode="&#xF6;" horiz-adv-x="491" d="M281 410Q220 410 177 335Q156 300 144 255T131 168Q131 117 151 90T209 62Q241 62 266 80T314 137Q334 172 346 218T358 306Q358 356 338 383T281 410ZM281 482Q364 482 413 431T463 294Q463 231 440 170T379 66Q309 -10 206 -10Q123 -10 75 41T26 180Q26 242 49 302T110 405Q144 442 188 462T281 482ZM488 662L463 563H364L388 662H488ZM303 662L279 563H179L204 662H303Z"  />
<glyph unicode="&#xF7;" horiz-adv-x="512" d="M329 561V456H224V561H329ZM329 201V96H224V201H329ZM495 368V291H62V368H495Z"  />
<glyph unicode="&#xF8;" horiz-adv-x="491" d="M348 364Q328 410 281 410Q252 410 226 391T179 340T146 264T132 172L348 364ZM139 113Q150 86 167 74T211 62Q272 62 313 137Q322 152 330 172T344 214T353 254T357 288V301V306L139 113ZM-68 0L41 95Q33 118 30 137T26 180Q26 242 48 302T110 405Q144 443 188 462T282 482Q324 482 359 467T419 424L474 472H550L446 382Q455 359 459 339T463 295Q463 263 457 232T440 170T414 114T379 66Q345 28 302 9T207 -10Q161 -10 127 5T67 52L8 0H-68Z"  />
<glyph unicode="&#xF9;" horiz-adv-x="542" d="M234 472L168 207Q161 179 158 162T155 133Q155 107 171 92T217 77Q271 77 307 125Q318 140 326 160T344 218L391 407H317L333 472H506L405 68H479L462 0H299L319 79Q286 33 251 12T170 -10Q116 -10 84 22T52 108Q52 118 52 126T55 145T60 170T69 206L119 407H45L61 472H234ZM314 685L390 541H318L199 685H314Z"  />
<glyph unicode="&#xFA;" horiz-adv-x="542" d="M234 472L168 207Q161 179 158 162T155 133Q155 107 171 92T217 77Q271 77 307 125Q318 140 326 160T344 218L391 407H317L333 472H506L405 68H479L462 0H299L319 79Q286 33 251 12T170 -10Q116 -10 84 22T52 108Q52 118 52 126T55 145T60 170T69 206L119 407H45L61 472H234ZM525 682L324 545H246L391 682H525Z"  />
<glyph unicode="&#xFB;" horiz-adv-x="542" d="M234 472L168 207Q161 179 158 162T155 133Q155 107 171 92T217 77Q271 77 307 125Q318 140 326 160T344 218L391 407H317L333 472H506L405 68H479L462 0H299L319 79Q286 33 251 12T170 -10Q116 -10 84 22T52 108Q52 118 52 126T55 145T60 170T69 206L119 407H45L61 472H234ZM399 684L476 543H396L348 624L250 543H161L311 684H399Z"  />
<glyph unicode="&#xFC;" horiz-adv-x="542" d="M234 472L168 207Q161 179 158 162T155 133Q155 107 171 92T217 77Q271 77 307 125Q318 140 326 160T344 218L391 407H317L333 472H506L405 68H479L462 0H299L319 79Q286 33 251 12T170 -10Q116 -10 84 22T52 108Q52 118 52 126T55 145T60 170T69 206L119 407H45L61 472H234ZM493 662L468 563H369L393 662H493ZM308 662L284 563H184L209 662H308Z"  />
<glyph unicode="&#xFD;" horiz-adv-x="477" d="M268 472L252 407H190L198 284Q201 246 203 217T206 166T208 126T208 94Q223 126 250 175T312 284L383 407H314L331 472H531L515 407H459L219 -8Q201 -40 187 -63T160 -103T136 -132T112 -155Q81 -181 42 -193T-51 -205Q-55 -205 -63 -205T-82 -204L-64 -129Q-56 -130 -49 -130T-39 -130Q14 -130 50 -109T118 -37L135 -11L93 407H27L44 472H268ZM505 682L304 545H226L371 682H505Z"  />
<glyph unicode="&#xFE;" horiz-adv-x="537" d="M332 411Q272 411 231 343Q221 326 212 303T196 255T185 206T181 162Q181 115 202 88T259 61Q322 61 363 134Q384 171 397 218T410 308Q410 356 389 383T332 411ZM292 667L228 411Q285 482 362 482Q395 482 422 469T468 431T499 372T510 298Q510 236 491 180T438 82T361 15T268 -10Q173 -10 146 72L96 -129H176L159 -197H-80L-63 -129H4L186 603H113L129 667H292Z"  />
<glyph unicode="&#xFF;" horiz-adv-x="477" d="M268 472L252 407H190L198 284Q201 246 203 217T206 166T208 126T208 94Q223 126 250 175T312 284L383 407H314L331 472H531L515 407H459L219 -8Q201 -40 187 -63T160 -103T136 -132T112 -155Q81 -181 42 -193T-51 -205Q-55 -205 -63 -205T-82 -204L-64 -129Q-56 -130 -49 -130T-39 -130Q14 -130 50 -109T118 -37L135 -11L93 407H27L44 472H268ZM477 662L452 563H353L377 662H477ZM292 662L268 563H168L193 662H292Z"  />
<glyph unicode="&#x131;" horiz-adv-x="292" d="M158 67H231L215 0H-25L-8 67H58L143 407H69L86 472H259L158 67Z"  />
<glyph unicode="&#x152;" horiz-adv-x="898" d="M400 602Q302 602 231 487Q214 460 200 428T177 362T162 293T156 227Q156 151 189 108T281 64Q365 64 434 160Q454 188 470 222T497 292T515 367T521 442Q521 515 488 558T400 602ZM922 504H849L872 596H673L621 387H828L809 310H601L542 73H755L783 185H858L812 0H427L445 72Q375 -14 266 -14Q216 -14 176 4T107 54T63 133T47 236Q47 279 55 324T79 413T117 496T167 568Q214 622 274 651T403 681Q466 681 506 658T572 581L594 667H963L922 504Z"  />
<glyph unicode="&#x153;" horiz-adv-x="787" d="M657 288Q661 303 662 313T663 333Q663 370 645 390T594 411Q509 411 465 286L657 288ZM279 410Q219 410 176 335Q166 318 158 297T144 254T135 210T131 168Q131 117 151 90T207 62Q239 62 263 80T310 138Q330 173 342 219T354 307Q354 357 335 383T279 410ZM448 221Q445 202 444 191T443 167Q443 116 466 89T532 62Q570 62 598 82T652 147H733Q677 -10 521 -10Q466 -10 433 7T372 67Q306 -10 205 -10Q122 -10 74 41T26 180Q26 241 48 302T110 405Q143 442 187 462T279 482Q330 482 365 464T426 403Q466 445 507 463T601 482Q676 482 719 437T762 313Q762 290 759 271T748 222L448 221Z"  />
<glyph unicode="&#x160;" horiz-adv-x="507" d="M540 667L493 479H431Q433 490 433 496T434 508Q434 553 408 578T334 603Q281 603 248 575T215 502Q215 486 219 474T233 451T263 426T314 395Q358 369 386 349T430 307T453 261T459 206Q459 158 442 118T392 48T316 2T219 -14Q112 -14 62 58L48 0H-16L37 214H101Q99 197 98 188T97 170Q97 121 129 93T218 64Q278 64 315 98T353 187Q353 230 323 257Q317 263 312 267T297 278T274 292T236 314Q200 334 176 353T137 391T116 433T109 482Q109 525 125 561T171 624T241 666T329 681Q426 681 466 619L478 667H540ZM289 733L211 874H292L340 793L437 874H526L376 733H289Z"  />
<glyph unicode="&#x161;" horiz-adv-x="427" d="M421 472L384 322H318Q320 332 320 337T321 348Q321 379 301 396T244 413Q208 413 186 396T163 352Q163 328 184 312Q188 309 191 307T199 302T215 293T244 277Q261 267 272 260T293 248T308 239T321 229Q365 197 365 140Q365 108 352 81T314 33T258 2T187 -10Q93 -10 61 53L48 0H-18L23 165H89Q87 155 87 150T86 138Q86 102 111 81T178 59Q216 59 240 78T265 129Q265 156 241 173Q236 176 233 178T224 184T207 194T175 212Q141 230 120 245T86 274T68 303T63 339Q63 370 75 396T110 441T164 471T231 482Q311 482 345 428L356 472H421ZM220 543L142 684H223L271 603L368 684H457L307 543H220Z"  />
<glyph unicode="&#x178;" horiz-adv-x="562" d="M365 667L346 596H273L323 356L487 596H409L427 667H661L642 596H578L347 275L296 73H386L367 0H92L112 73H193L243 275L172 596H95L114 667H365ZM564 845L539 746H440L464 845H564ZM379 845L355 746H255L280 845H379Z"  />
<glyph unicode="&#x17D;" horiz-adv-x="489" d="M555 667L538 600L119 73H351L380 185H456L408 0H-31L-14 68L407 596H206L182 504H108L150 667H555ZM299 733L221 874H302L350 793L447 874H536L386 733H299Z"  />
<glyph unicode="&#x17E;" horiz-adv-x="425" d="M437 472L422 412L108 68H288L314 156H385L342 0H-32L-17 61L299 407H151L126 330H57L99 472H437ZM235 543L157 684H238L286 603L383 684H472L322 543H235Z"  />
<glyph unicode="&#x192;" horiz-adv-x="512" d="M159 427H246L288 549Q297 575 304 593T320 626T336 651T356 672Q404 715 477 715Q503 715 523 711T564 695L536 613Q508 641 477 641Q446 641 427 619T387 539L349 427H461L439 363H327L194 -22Q176 -75 161 -102T127 -148Q80 -190 9 -190Q-39 -190 -83 -170L-55 -89Q-38 -104 -24 -110T7 -116Q22 -116 34 -111T56 -94T75 -61T96 -9L224 363H137L159 427Z"  />
<glyph unicode="&#x2C6;" horiz-adv-x="500" d="M391 684L468 543H388L340 624L242 543H153L303 684H391Z"  />
<glyph unicode="&#x2C7;" horiz-adv-x="500" d="M276 543L198 684H279L327 603L424 684H513L363 543H276Z"  />
<glyph unicode="&#x2DA;" horiz-adv-x="500" d="M330 655Q313 655 301 643T288 614Q288 596 300 584T330 572Q347 572 359 584T371 614Q371 631 359 643T330 655ZM330 698Q365 698 389 674T414 614Q414 596 408 581T390 554T363 536T330 529Q294 529 270 554T245 615Q245 632 251 647T269 673T296 691T330 698Z"  />
<glyph unicode="&#x2DC;" horiz-adv-x="500" d="M164 566Q213 671 273 671Q285 671 299 667T334 651Q357 638 367 634T388 630Q414 630 444 673L483 661Q440 557 376 557Q363 557 349 562T311 579Q288 590 277 594T257 599Q227 599 203 555L164 566Z"  />
<glyph unicode="&#x2013;" horiz-adv-x="500" d="M453 284L440 230H55L68 284H453Z"  />
<glyph unicode="&#x2014;" horiz-adv-x="626" d="M637 285L623 229H-3L11 285H637Z"  />
<glyph unicode="&#x2018;" horiz-adv-x="191" d="M86 451L113 558L213 672H282L166 558H224L197 451H86Z"  />
<glyph unicode="&#x2019;" horiz-adv-x="191" d="M263 667L236 560L135 444H67L183 560H125L151 667H263Z"  />
<glyph unicode="&#x201A;" horiz-adv-x="191" d="M124 107L97 0L-4 -115H-72L44 0H-14L12 107H124Z"  />
<glyph unicode="&#x201C;" horiz-adv-x="362" d="M258 451L284 558L385 672H453L337 558H396L369 451H258ZM86 451L113 558L213 672H282L166 558H224L197 451H86Z"  />
<glyph unicode="&#x201D;" horiz-adv-x="362" d="M434 667L407 560L307 444H239L355 560H296L323 667H434ZM263 667L236 560L135 444H67L183 560H125L151 667H263Z"  />
<glyph unicode="&#x201E;" horiz-adv-x="362" d="M295 107L268 0L168 -115H100L216 0H157L184 107H295ZM124 107L97 0L-4 -115H-72L44 0H-14L12 107H124Z"  />
<glyph unicode="&#x2020;" horiz-adv-x="500" d="M401 650L355 467H495L475 387H335L199 -158H102L238 387H98L118 467H258L304 650H401Z"  />
<glyph unicode="&#x2021;" horiz-adv-x="500" d="M401 650L359 479H499L479 399H339L301 249H441L421 169H281L200 -158H102L184 169H44L64 249H204L241 399H101L121 479H261L304 650H401Z"  />
<glyph unicode="&#x2022;" horiz-adv-x="667" d="M360 477Q388 477 412 466T455 436T485 392T496 339Q496 310 485 285T456 241T412 211T358 200Q329 200 304 211T260 240T230 284T219 338Q219 367 230 392T260 436T304 466T360 477Z"  />
<glyph unicode="&#x2026;" horiz-adv-x="644" d="M571 128L540 0H413L445 128H571ZM357 128L325 0H199L231 128H357ZM142 128L110 0H-16L16 128H142Z"  />
<glyph unicode="&#x2030;" horiz-adv-x="972" d="M816 257Q797 257 780 246T749 216T729 172T721 120Q721 88 734 71T772 54Q791 54 807 65T837 95T857 139T865 191Q865 223 852 240T816 257ZM821 316Q874 316 903 284T933 194Q933 152 920 116T885 53T832 11T766 -5Q713 -5 683 27T653 116Q653 158 666 194T701 258T755 300T821 316ZM248 613Q229 613 212 602T182 572T162 528T154 476Q154 444 167 427T205 410Q223 410 240 421T269 451T289 495T297 547Q297 579 284 596T248 613ZM254 672Q306 672 335 640T365 550Q365 508 352 472T317 409T264 367T199 351Q146 351 116 383T86 472Q86 514 99 550T134 614T188 656T254 672ZM506 257Q487 257 470 246T439 216T419 172T411 120Q411 88 424 71T462 54Q481 54 497 65T527 95T547 139T555 191Q555 223 542 240T506 257ZM511 316Q564 316 593 284T623 194Q623 152 610 116T575 53T522 11T456 -5Q403 -5 373 27T343 116Q343 158 356 194T391 258T445 300T511 316ZM660 667L117 0H48L591 667H660Z"  />
<glyph unicode="&#x2039;" horiz-adv-x="272" d="M87 0L50 239L203 472H279L136 235L159 0H87Z"  />
<glyph unicode="&#x203A;" horiz-adv-x="272" d="M183 472L220 233L67 0H-9L134 237L111 472H183Z"  />
<glyph unicode="&#x20AC;" horiz-adv-x="512" d="M154 227L153 219Q152 214 152 210T152 197Q152 134 180 99T260 64Q310 64 353 98T421 189H497Q464 94 396 42T237 -11Q145 -11 95 41T44 188Q44 196 44 206T46 230H-22L17 290H54Q60 320 69 350H12L51 410H90Q114 468 146 513T219 591T304 640T398 657Q443 657 474 644T530 602L541 644H609L560 446H492Q494 460 494 469T495 487Q495 582 395 582Q332 582 282 539T198 410H457L418 350H178Q171 330 169 316L163 290H377L338 230H154V227Z"  />
<glyph unicode="&#x2122;" horiz-adv-x="800" d="M575 667L583 525Q585 498 586 479T588 445T589 415T589 385Q595 396 604 414T625 453T648 493T667 527L749 667H891L879 622H834L762 333H812L800 286H643L655 333H698L732 472Q737 491 742 510T752 549L767 607Q752 580 745 568T729 540Q716 518 704 497T679 454L586 295H535L525 452Q524 463 524 470T523 483T523 496T521 515Q520 531 520 541T519 558T518 570T517 584V607Q505 559 481 460L450 333H497L485 286H342L354 333H399L471 622H421L433 667H575ZM385 559H335L350 622H281L209 333H261L249 286H84L96 333H143L215 622H145L129 559H80L107 667H411L385 559Z"  />

</font>
</defs>
</svg>
