<?xml  version="1.0" encoding="UTF-8"?>
<!DOCTYPE svg PUBLIC "-//W3C//DTD SVG 1.0//EN" "http://www.w3.org/TR/2001/REC-SVG-20010904/DTD/svg10.dtd" >
<svg xmlns="http://www.w3.org/2000/svg" >
<metadata>
<version>1.0</version>
<id><![CDATA[Generis Slab W01 Regular]]></id>
<vendor>Monotype Imaging Inc.</vendor>
<credits>
<name>Fonts.com WebFonts</name>
<URL>http://webfonts.fonts.com</URL>
<role>Home of the Web fonts</role>
</credits>
<license>
<URL>http://webfonts.fonts.com/Legal</URL>
</license>
<copyright><![CDATA[Copyright © 2006 Linotype GmbH, www.linotype.com. All rights reserved. This font software may not be reproduced, modified, disclosed or transferred without the express written approval of Linotype GmbH. Generis is a trademark of Linotype GmbH and may be registered in certain jurisdictions. This typeface is original artwork of Erik Faulhaber. The design may be protected in certain jurisdictions.]]></copyright>
<trademark><![CDATA[Generis is a trademark of Linotype GmbH and may be registered in certain jurisdictions.]]></trademark>
<licensee>
<name></name>
</licensee>
</metadata>
<defs >
<font horiz-adv-x="468" id="c1e370ae-5ed7-4941-886b-657693e00bc7">
<font-face font-family="" panose-1="2 6 5 6 6 5 6 2 2 4" ascent="872" descent="-231" units-per-em="1000" alphabetic="0">
</font-face>
<missing-glyph horiz-adv-x="0" />

<glyph unicode="&#xA;" />
<glyph unicode="&#xD;" horiz-adv-x="0" />
<glyph unicode=" " horiz-adv-x="239" />
<glyph unicode="!" horiz-adv-x="265" d="M160 175H106L91 667H174L160 175ZM190 45Q190 22 174 5T133 -12Q109 -12 92 5T75 45Q75 68 92 85T133 102Q157 102 173 85T190 45Z"  />
<glyph unicode="&quot;" horiz-adv-x="355" d="M205 379V667H267V379H205ZM89 379V667H150V379H89Z"  />
<glyph unicode="#" horiz-adv-x="477" d="M371 429L330 238H393V186H319L280 0H226L266 186H149L109 0H56L95 186H33V238H106L147 429H84V481H158L198 667H251L212 481H328L368 667H422L382 481H444V429H371ZM200 429L160 238H277L318 429H200Z"  />
<glyph unicode="$" horiz-adv-x="477" d="M408 194Q408 162 396 135T364 86T318 52T261 33V-84H213V30Q193 30 171 33T130 42T95 53T72 64V163H131V92Q137 90 148 87T172 81T198 76T224 74Q253 74 274 84T310 110T330 145T337 184Q337 212 318 235T269 279T207 322T144 366T96 417T76 477Q76 506 86 531T116 575T161 607T219 624V739H267V624Q285 622 303 619T338 611T368 602T386 594V495H327V567Q323 569 314 571T293 576T269 580T247 582Q199 582 173 554T147 486Q147 462 166 441T215 399T277 357T340 311T388 258T408 194Z"  />
<glyph unicode="%" horiz-adv-x="954" d="M856 200Q856 163 849 125T825 57T782 7T718 -12Q679 -12 653 7T611 56T589 125T582 200Q582 228 589 262T613 326T655 375T718 395Q757 395 783 376T826 327T849 263T856 200ZM359 0H307L595 655H647L359 0ZM373 472Q373 435 366 397T342 329T299 279T235 260Q196 260 170 279T128 328T106 397T99 472Q99 500 106 534T130 598T172 647T235 667Q274 667 300 648T343 599T366 535T373 472ZM792 200Q792 221 789 247T777 298T754 338T718 355Q695 355 681 338T659 297T648 246T645 200Q645 170 648 140T660 85T683 45T718 29Q739 29 753 45T776 86T788 141T792 200ZM309 472Q309 493 306 519T294 570T271 610T235 627Q212 627 198 610T176 569T165 518T162 472Q162 442 165 412T177 357T200 317T235 301Q256 301 270 317T293 358T305 413T309 472Z"  />
<glyph unicode="&amp;" horiz-adv-x="618" d="M503 0Q474 0 450 18T412 56Q407 50 393 39T358 16T309 -4T248 -12Q194 -12 157 5T95 48T61 107T50 172Q50 208 65 239T102 294T147 336T188 364Q176 379 161 400T131 444T108 492T98 538Q98 561 109 586T140 631T190 665T257 679Q291 679 319 667T368 636T399 591T410 539Q410 507 394 479T354 429T307 390T266 363L426 154Q438 174 449 215T461 304H410V348H575V304H521Q521 247 504 194T460 108Q480 81 500 63T540 44H579V0H503ZM343 539Q343 557 338 574T321 605T294 627T257 636Q236 636 219 627T190 604T172 573T165 539Q165 524 173 504T194 462T219 423T241 395Q255 405 273 419T306 452T332 492T343 539ZM213 330Q196 317 179 301T149 265T128 222T120 172Q120 148 127 123T151 78T191 46T248 33Q272 33 293 39T332 56T363 76T383 96L213 330Z"  />
<glyph unicode="&apos;" horiz-adv-x="239" d="M89 379V667H150V379H89Z"  />
<glyph unicode="(" horiz-adv-x="298" d="M209 -60Q186 -26 162 23T119 127T87 240T75 348Q75 393 88 442T122 540T165 630T209 703H255Q239 678 221 634T186 539T160 438T149 348Q149 304 159 246T185 131T219 22T255 -60H209Z"  />
<glyph unicode=")" horiz-adv-x="298" d="M223 348Q223 298 211 241T180 128T136 23T89 -60H43Q59 -30 78 21T112 130T138 246T149 348Q149 387 139 437T112 539T78 634T43 703H89Q109 673 132 631T176 540T209 443T223 348Z"  />
<glyph unicode="*" horiz-adv-x="358" d="M213 507L292 412L248 379L180 487L111 379L66 412L146 507L50 530L67 583L158 547L151 667H207L201 547L291 583L308 530L213 507Z"  />
<glyph unicode="+" horiz-adv-x="477" d="M269 222V0H208V222H52V280H208V502H269V280H425V222H269Z"  />
<glyph unicode="&#x2c;" horiz-adv-x="239" d="M82 -132H25L97 82H172L82 -132Z"  />
<glyph unicode="-" horiz-adv-x="293" d="M42 275V333H251V275H42Z"  />
<glyph unicode="." horiz-adv-x="239" d="M172 40Q172 18 157 3T119 -12Q96 -12 81 3T66 40Q66 62 81 77T120 93Q143 93 157 78T172 40Z"  />
<glyph unicode="/" horiz-adv-x="239" d="M69 0H16L169 667H223L69 0Z"  />
<glyph unicode="0" horiz-adv-x="477" d="M437 342Q437 278 426 215T391 101T330 20T238 -12Q181 -12 143 19T82 100T50 213T40 342Q40 389 52 445T88 551T149 634T238 667Q291 667 329 635T391 555T426 450T437 342ZM364 342Q364 365 362 394T353 455T338 515T314 568T281 606T238 621Q204 621 180 590T141 515T120 423T113 342Q113 293 119 239T139 140T178 65T238 35Q273 35 297 65T336 141T357 240T364 342Z"  />
<glyph unicode="1" horiz-adv-x="477" d="M65 0V48H224V590L78 512L57 559L243 655H296V48H438V0H65Z"  />
<glyph unicode="2" horiz-adv-x="477" d="M59 0V37Q59 70 79 106T131 181T197 259T264 339T315 421T336 503Q336 552 310 586T234 621Q212 621 189 615T146 600T111 582T88 568L67 617Q71 619 86 627T125 644T177 660T236 667Q275 667 307 655T361 620T396 568T409 503Q409 463 388 421T334 337T263 254T193 176T139 106T117 48H411V0H59Z"  />
<glyph unicode="3" horiz-adv-x="477" d="M416 217Q416 169 399 127T352 54T279 5T185 -13Q158 -13 133 -8T88 3T52 16T30 26L51 76Q58 71 73 64T106 51T146 39T185 34Q222 34 251 49T300 89T331 147T342 217Q342 250 332 277T305 325T264 356T213 368Q194 368 174 365T144 359V397L318 608H69V655H388V618L203 406Q208 407 219 407T236 408Q266 408 298 395T356 357T399 297T416 217Z"  />
<glyph unicode="4" horiz-adv-x="477" d="M354 153V44H432V0H210V44H288V153H20V188Q27 200 38 221T61 268T87 321T111 371T130 412T141 437L229 655H300L212 449Q205 433 187 397T147 321T108 247T81 199H288V393H354V199H450V153H354Z"  />
<glyph unicode="5" horiz-adv-x="477" d="M421 221Q421 181 407 140T364 65T294 10T200 -12Q174 -12 149 -8T104 3T69 16T48 27L69 77Q75 73 89 66T122 52T162 40T201 35Q236 35 263 51T309 94T338 154T348 220Q348 245 340 272T316 321T275 358T217 372Q201 372 185 366T154 352T128 336T113 322H72L82 655H382V608H140L130 376Q133 379 142 385T165 397T196 409T233 414Q275 414 309 398T369 356T407 294T421 221Z"  />
<glyph unicode="6" horiz-adv-x="477" d="M438 210Q438 167 424 127T383 56T320 7T237 -12Q189 -12 152 6T90 56T53 127T40 210Q40 253 51 290T71 349Q77 365 88 386T112 430T140 475T168 515Q170 519 185 539T218 582T252 627T275 655H337L237 520Q229 509 215 487T186 440T159 394T144 363Q149 369 160 377T187 394T220 407T259 413Q295 413 327 398T384 357T423 293T438 210ZM364 210Q364 245 355 274T328 324T288 357T238 369Q220 369 202 362T167 344T140 324T125 307Q122 299 120 288T115 263T112 236T111 210Q111 175 119 144T144 88T184 49T237 34Q268 34 291 48T331 87T355 143T364 210Z"  />
<glyph unicode="7" horiz-adv-x="477" d="M424 619Q420 612 412 592T392 543T369 482T346 419T327 364T315 326L235 0H158L248 314Q253 331 262 357T282 413T305 475T328 533T349 581T363 609H116V509H54V655H424V619H424Z"  />
<glyph unicode="8" horiz-adv-x="477" d="M438 171Q438 138 424 105T383 46T321 4T239 -12Q192 -12 156 3T94 43T55 101T41 171Q41 205 57 233T96 284T144 323T186 348Q169 357 148 373T109 410T78 458T65 517Q65 544 78 570T115 618T170 653T239 667Q279 667 311 655T366 621T401 573T414 517Q414 490 401 466T370 421T330 386T292 360Q308 351 333 335T381 294T421 239T438 171ZM345 514Q345 557 317 589T239 621Q215 621 196 612T163 588T142 554T135 514Q135 491 145 471T171 432T207 400T248 376Q260 383 276 396T308 426T334 466T345 514ZM365 173Q365 200 351 225T316 271T272 308T230 333Q212 322 192 307T154 273T125 228T113 173Q113 143 122 118T148 74T188 45T239 34Q268 34 291 45T330 74T356 118T365 173Z"  />
<glyph unicode="9" horiz-adv-x="477" d="M438 461Q438 440 435 419T428 378T419 342T411 316Q406 302 396 282T373 240T346 196T319 157Q308 142 290 118T254 69T221 24T202 0H137L240 143Q252 159 267 182T297 230T324 275T341 307Q336 302 324 294T296 277T260 263T220 257Q182 257 149 271T92 312T55 376T41 461Q41 497 55 533T96 599T159 648T239 667Q285 667 322 649T385 602T424 536T438 461ZM367 461Q367 489 358 517T333 569T293 606T239 621Q210 621 187 608T148 572T124 521T115 461Q115 428 123 399T148 348T187 313T239 300Q257 300 276 306T313 322T341 342T356 362Q358 369 360 382T363 410T366 439T367 461Z"  />
<glyph unicode=":" horiz-adv-x="239" d="M172 462Q172 440 157 425T119 410Q96 410 81 425T66 462Q66 484 81 499T120 514Q143 514 157 499T172 462ZM172 40Q172 18 157 3T119 -12Q96 -12 81 3T66 40Q66 62 81 77T120 93Q143 93 157 78T172 40Z"  />
<glyph unicode=";" horiz-adv-x="239" d="M172 462Q172 440 157 425T119 410Q96 410 81 425T66 462Q66 484 81 499T120 514Q143 514 157 499T172 462ZM82 -132H25L97 82H172L82 -132Z"  />
<glyph unicode="&lt;" horiz-adv-x="477" d="M48 216V286L425 502V431L113 251L425 71V0L48 216Z"  />
<glyph unicode="=" horiz-adv-x="477" d="M52 315V373H425V315H52ZM52 129V187H425V129H52Z"  />
<glyph unicode="&gt;" horiz-adv-x="477" d="M48 0V71L360 251L48 431V502L425 286V216L48 0Z"  />
<glyph unicode="?" horiz-adv-x="391" d="M344 522Q344 478 320 438T267 356T214 270T190 175H135Q135 231 156 274T204 358T251 437T273 523Q273 569 244 600T170 631Q154 631 136 627T101 617T72 605T53 596L32 645Q36 647 49 652T82 664T124 674T170 679Q209 679 241 667T296 634T331 584T344 522ZM220 45Q220 22 204 5T163 -12Q139 -12 122 5T105 45Q105 68 122 85T163 102Q187 102 203 85T220 45Z"  />
<glyph unicode="@" horiz-adv-x="873" d="M826 322Q826 265 807 208T753 105T669 29T562 0Q543 0 530 7T509 25T496 49T491 74Q485 65 472 53T442 29T403 9T357 0Q325 0 301 13T262 50T238 103T230 167Q230 209 246 261T293 358T366 434T461 465Q482 465 498 458T526 439T545 416T557 394L572 455H632L559 123Q558 119 556 107T554 91Q554 65 561 55T580 45Q619 45 651 72T707 140T744 229T757 322Q757 386 735 442T674 541T580 608T461 633Q392 633 331 597T222 500T148 363T120 205Q120 136 141 67T202 -57T300 -147T431 -182Q466 -182 501 -175T566 -157T617 -137T644 -123L664 -172Q656 -177 634 -187T580 -206T508 -223T425 -231Q341 -231 272 -196T153 -100T76 39T48 205Q48 265 63 323T106 434T172 532T257 609T357 660T467 679Q539 679 604 652T718 576T797 463T826 322ZM538 322Q538 333 533 349T518 382T493 409T456 420Q418 420 389 392T339 325T308 242T297 169Q297 148 301 126T315 86T338 57T372 46Q396 46 417 57T456 84T485 117T502 147L538 322H538Z"  />
<glyph unicode="A" horiz-adv-x="627" d="M419 0V48H479L429 201H177L128 48H188V0H11V48H71L282 667H346L555 48H615V0H419ZM301 587L191 243H416L301 587Z"  />
<glyph unicode="B" horiz-adv-x="559" d="M508 192Q508 150 490 115T441 54T368 14T278 0H48V48H108V619H48V667H290Q328 667 364 657T428 627T473 575T490 500Q490 470 477 445T446 401T406 369T368 352Q386 349 410 338T456 306T493 257T508 192ZM415 500Q415 526 406 548T379 585T338 610T287 619H181V371H287Q311 371 334 381T375 408T404 449T415 500ZM432 192Q432 221 420 245T389 288T343 316T290 326H181V48H290Q321 48 347 60T392 91T421 137T432 192Z"  />
<glyph unicode="C" horiz-adv-x="533" d="M477 27Q453 16 412 2T315 -12Q246 -12 197 19T117 101T72 216T57 348Q57 409 75 468T128 575T209 650T315 679Q344 679 369 675T413 664T446 652T465 643V531H401V612Q397 614 388 617T366 623T341 628T315 631Q271 631 238 605T181 538T145 447T133 348Q133 293 145 237T180 136T237 63T315 34Q328 34 343 36T373 42T397 50T413 58V139H477V27H477Z"  />
<glyph unicode="D" horiz-adv-x="613" d="M556 348Q556 275 534 212T474 101T382 27T267 0H48V48H108V619H48V667H253Q317 667 372 643T468 577T532 476T556 348ZM481 348Q481 405 463 454T414 540T345 598T263 619H181V48H266Q311 48 350 73T419 139T464 235T481 348Z"  />
<glyph unicode="E" horiz-adv-x="529" d="M48 0V48H108V619H48V667H466V531H402V619H181V373H399V325H181V48H414V139H478V0H48Z"  />
<glyph unicode="F" horiz-adv-x="496" d="M390 531V619H181V363H386V315H181V48H247V0H48V48H108V619H48V667H454V531H390Z"  />
<glyph unicode="G" horiz-adv-x="597" d="M501 277V35Q493 30 474 23T430 7T377 -6T321 -12Q247 -12 197 19T115 102T71 217T57 348Q57 407 74 466T124 572T207 649T321 679Q351 679 378 675T428 664T465 652T486 643V522H422V612Q417 614 407 617T383 623T353 628T321 631Q276 631 241 605T182 538T146 447T133 348Q133 289 144 233T179 133T237 62T321 35Q338 35 355 38T387 44T413 52T430 59V277H368V324H556V277H501Z"  />
<glyph unicode="H" horiz-adv-x="637" d="M396 0V48H456V324H181V48H241V0H48V48H108V619H48V667H241V619H181V372H456V619H396V667H589V619H529V48H589V0H396Z"  />
<glyph unicode="I" horiz-adv-x="289" d="M48 0V48H108V619H48V667H241V619H181V48H241V0H48Z"  />
<glyph unicode="J" horiz-adv-x="366" d="M264 619V177Q264 84 221 36T103 -12Q88 -12 73 -10T45 -4T21 2T5 8L26 57Q30 54 38 51T57 44T79 38T99 35Q141 35 166 68T191 163V619H125V667H324V619H264Z"  />
<glyph unicode="K" horiz-adv-x="583" d="M365 0V48H419L182 347L404 619H350V667H531V619H471L258 360L510 48H570V0H365ZM48 0V48H108V619H48V667H235V619H181V48H235V0H48Z"  />
<glyph unicode="L" horiz-adv-x="461" d="M48 0V48H108V619H48V667H247V619H181V48H370V139H434V0H48Z"  />
<glyph unicode="M" horiz-adv-x="792" d="M557 0V48H611V600L417 0H352L162 600V48H216V0H48V48H108V619H48V667H220L396 105L580 667H744V619H684V48H744V0H557Z"  />
<glyph unicode="N" horiz-adv-x="638" d="M536 622V0H472L162 579V48H222V0H48V48H108V619H48V667H195L482 129V622H424V670H596V622H536Z"  />
<glyph unicode="O" horiz-adv-x="598" d="M541 348Q541 290 528 227T485 110T410 23T299 -12Q230 -12 184 22T109 108T69 225T57 348Q57 398 70 456T112 563T187 646T299 679Q367 679 413 647T487 566T528 459T541 348ZM465 348Q465 390 458 439T433 531T382 602T299 631Q249 631 217 602T166 531T140 439T133 348Q133 302 140 248T167 146T218 68T299 36Q347 36 379 68T430 147T457 249T465 348Z"  />
<glyph unicode="P" horiz-adv-x="509" d="M474 488Q474 450 459 416T417 357T354 316T275 301H181V48H247V0H48V48H108V619H48V667H261Q302 667 340 655T408 618T456 561T474 488ZM399 488Q399 517 389 541T359 582T312 609T252 619H181V348H260Q291 348 317 358T361 387T389 432T399 488Z"  />
<glyph unicode="Q" horiz-adv-x="598" d="M378 0Q372 0 352 -6T299 -12Q230 -12 184 22T109 108T69 225T57 348Q57 398 70 456T112 563T187 646T299 679Q367 679 413 647T487 566T528 459T541 348Q541 288 528 235T495 141T457 73T425 40Q434 41 450 42T485 45T522 46T553 47V0H378ZM465 348Q465 390 459 439T434 531T383 602T299 631Q249 631 217 602T166 531T140 439T133 348Q133 302 140 248T167 146T218 68T299 36Q347 36 379 68T430 147T457 249T465 348Z"  />
<glyph unicode="R" horiz-adv-x="560" d="M491 0Q467 0 442 14T404 63L367 160Q360 177 347 204T314 256T272 299T223 317H181V48H235V0H48V48H108V619H48V667H264Q305 667 341 655T406 621T450 568T466 497Q466 452 447 421T401 371T347 342T302 331Q321 326 342 309T381 270T415 222T438 175L474 85Q482 64 493 56T515 48H538V0H491ZM391 494Q391 522 381 545T352 584T309 610T257 619H181V362H245Q273 362 299 370T346 395T379 437T391 494Z"  />
<glyph unicode="S" horiz-adv-x="475" d="M420 179Q420 137 405 102T363 41T297 2T211 -12Q184 -12 158 -8T110 3T72 16T49 27V139H113V58Q119 56 130 52T154 45T183 39T212 36Q248 36 273 47T314 76T337 117T344 166Q344 198 323 225T268 278T198 329T127 382T73 440T51 508Q51 540 64 571T103 626T163 664T241 679Q265 679 288 675T332 665T368 653T390 643V531H326V612Q321 614 312 617T290 623T266 628T241 631Q187 631 157 599T126 520Q126 490 148 464T202 412T273 362T343 309T398 249T420 179Z"  />
<glyph unicode="T" horiz-adv-x="505" d="M413 531V620H284V48H350V0H145V48H211V620H92V531H29V667H476V531H413Z"  />
<glyph unicode="U" horiz-adv-x="602" d="M500 619V237Q500 191 490 147T457 67T398 10T309 -12Q250 -12 211 9T147 64T113 144T102 237V619H42V667H235V619H175V242Q175 205 181 168T202 102T245 55T315 36Q353 36 378 54T419 101T440 167T446 242V619H386V667H560V619H500Z"  />
<glyph unicode="V" horiz-adv-x="576" d="M505 619L321 0H256L71 619H11V667H210V619H150L299 94L450 619H390V667H565V619H505Z"  />
<glyph unicode="W" horiz-adv-x="856" d="M781 619L640 0H575L427 543L281 0H216L74 619H14V667H204V619H150L260 126L406 667H470L617 126L729 619H675V667H841V619H781Z"  />
<glyph unicode="X" horiz-adv-x="585" d="M376 0V48H430L282 302L122 48H176V0H5V48H65L258 343L89 619H29V667H228V619H174L302 407L440 619H386V667H555V619H495L327 367L519 48H579V0H376Z"  />
<glyph unicode="Y" horiz-adv-x="534" d="M468 619L303 291V48H369V0H164V48H230V291L65 619H5V667H199V619H145L278 350L411 619H357V667H528V619H468Z"  />
<glyph unicode="Z" horiz-adv-x="488" d="M44 0V41L356 620H120V531H56V667H436V626L124 47H379V139H443V0H44Z"  />
<glyph unicode="[" horiz-adv-x="298" d="M112 -96V739H261V702H180V-59H261V-96H112Z"  />
<glyph unicode="\" horiz-adv-x="239" d="M169 0L16 667H69L223 0H169Z"  />
<glyph unicode="]" horiz-adv-x="298" d="M38 -96V-59H119V702H38V739H186V-96H38Z"  />
<glyph unicode="^" horiz-adv-x="477" d="M363 379L239 614L114 379H52L205 667H272L425 379H363Z"  />
<glyph unicode="_" horiz-adv-x="500" d="M0 -125V-75H500V-125H0Z"  />
<glyph unicode="`" horiz-adv-x="246" d="M106 570L21 705H91L159 570H106Z"  />
<glyph unicode="a" horiz-adv-x="476" d="M326 0V71Q323 65 312 51T283 23T239 -1T185 -12Q118 -12 77 25T35 129Q35 160 54 185T101 230T163 263T225 283L323 305V344Q323 369 316 392T296 432T264 460T220 470Q204 470 190 467T163 459T143 450T131 444V381H71V469Q77 473 91 480T125 495T171 508T227 514Q263 514 292 501T344 466T378 413T390 347V44H444V0H326ZM323 265L239 247Q225 244 202 235T158 210T121 175T105 131Q105 89 130 61T193 32Q216 32 237 41T276 65T306 96T323 128V265Z"  />
<glyph unicode="b" horiz-adv-x="513" d="M468 264Q468 215 454 166T412 78T343 13T247 -12Q232 -12 209 -10T161 -3T116 5T86 11V665H32V709H156V432Q159 438 169 451T196 479T233 503T277 514Q327 514 363 490T422 429T457 348T468 264ZM395 264Q395 297 388 333T365 399T326 448T270 468Q247 468 227 455T192 426T167 394T156 373V45Q160 43 171 41T195 37T223 34T247 32Q284 32 312 55T358 112T386 187T395 264Z"  />
<glyph unicode="c" horiz-adv-x="412" d="M377 24Q372 21 360 15T330 3T289 -7T239 -12Q188 -12 151 13T91 78T56 167T45 264Q45 303 58 347T97 428T159 489T239 514Q259 514 280 510T319 501T350 490T367 481V387H307V455Q304 456 297 459T279 464T258 468T239 470Q209 470 186 449T148 397T125 329T117 264Q117 228 125 188T150 113T189 56T242 33Q260 33 278 37T312 48T339 60T356 71L377 24H377Z"  />
<glyph unicode="d" horiz-adv-x="513" d="M361 0V71Q358 65 347 51T319 23T281 -1T236 -12Q184 -12 148 12T89 76T56 165T45 264Q45 309 58 353T97 433T157 491T236 514Q259 514 279 504T316 481T342 454T357 432V665H303V709H426V44H480V0H361ZM357 367Q355 374 346 390T321 424T286 455T243 468Q214 468 191 450T152 403T126 338T117 264Q117 225 124 184T146 110T186 56T243 34Q264 34 284 45T320 73T345 105T357 129V367Z"  />
<glyph unicode="e" horiz-adv-x="441" d="M114 245Q114 207 123 170T149 102T189 52T243 33Q262 33 281 37T317 48T346 60T363 71L384 24Q378 20 365 14T334 2T292 -8T240 -12Q185 -12 148 13T88 78T55 167T45 264Q45 301 57 345T93 426T150 489T226 514Q269 514 301 491T356 432T390 352T402 264V245H114ZM333 284Q333 310 328 342T310 403T277 451T226 470Q199 470 179 451T144 403T123 342T116 284H333H333Z"  />
<glyph unicode="f" horiz-adv-x="276" d="M267 663Q262 666 247 671T219 677Q204 677 194 669T178 649T168 623T165 594V502H252V458H165V44H231V0H30V44H96V458H21V502H96V579Q96 603 103 628T126 674T164 708T219 721Q242 721 262 715T288 706L267 663Z"  />
<glyph unicode="g" horiz-adv-x="454" d="M344 460Q348 455 356 446T371 422T385 387T391 341Q391 308 380 275T347 216T293 174T218 157Q207 157 194 153T170 143T152 128T145 111Q145 89 165 76T218 62Q258 62 295 52T362 23T409 -22T427 -82Q427 -110 412 -136T370 -184T305 -218T218 -231Q175 -231 139 -220T77 -190T36 -146T21 -93Q21 -69 35 -48T70 -10T113 16T152 27Q144 28 132 33T109 46T90 67T81 97Q81 110 88 122T107 143T131 159T155 167Q137 172 118 185T83 220T56 272T45 341Q45 372 58 403T95 459T150 499T218 514Q241 514 261 510T291 502H433V460H344ZM321 341Q321 399 294 435T218 471Q194 471 175 461T142 432T122 391T115 341Q115 312 120 287T138 242T169 212T218 200Q247 200 266 212T298 243T315 288T321 341ZM357 -84Q357 -64 347 -47T317 -18T273 0T218 7Q193 7 170 0T128 -20T99 -50T88 -86Q88 -107 97 -125T124 -158T165 -180T218 -188Q247 -188 272 -180T316 -158T346 -124T357 -84Z"  />
<glyph unicode="h" horiz-adv-x="536" d="M332 0V44H380V350Q380 369 375 390T359 428T329 456T283 468Q259 468 238 456T201 428T174 396T162 373V44H210V0H38V44H92V665H38V709H162V432Q165 439 176 453T204 480T243 504T293 514Q335 514 364 499T413 460T441 407T450 348V44H504V0H332Z"  />
<glyph unicode="i" horiz-adv-x="248" d="M177 638Q177 618 162 604T127 589Q107 589 92 603T77 638Q77 658 92 672T127 687Q147 687 162 673T177 638ZM38 0V44H92V458H38V502H162V44H216V0H38Z"  />
<glyph unicode="j" horiz-adv-x="248" d="M182 638Q182 618 167 604T132 589Q112 589 98 603T83 638Q83 658 97 672T132 687Q152 687 167 673T182 638ZM167 -92Q167 -115 162 -140T145 -185T112 -218T60 -231Q34 -231 18 -225T-4 -216L17 -172Q20 -175 32 -181T56 -187Q68 -187 76 -180T89 -162T96 -138T98 -112V458H38V502H167V-92H167Z"  />
<glyph unicode="k" horiz-adv-x="482" d="M283 0V44H340L163 269L330 458H281V502H447V458H392L231 285L429 44H483V0H283ZM38 0V44H92V665H38V709H162V44H210V0H38Z"  />
<glyph unicode="l" horiz-adv-x="248" d="M38 0V44H92V665H38V709H162V44H216V0H38Z"  />
<glyph unicode="m" horiz-adv-x="800" d="M597 0V44H644V345Q644 366 639 387T624 427T596 456T553 468Q528 468 507 457T471 431T448 401T438 377V44H485V0H321V44H368V345Q368 366 364 387T348 427T320 456T277 468Q252 468 232 456T196 428T172 396T162 372V44H209V0H38V44H92V458H38V502H158V431Q160 437 170 450T198 478T238 503T289 514Q326 514 351 503T391 478T414 450T425 432Q429 439 440 453T469 480T510 504T562 514Q602 514 631 499T678 460T705 406T714 345V44H768V0H597Z"  />
<glyph unicode="n" horiz-adv-x="536" d="M332 0V44H380V350Q380 369 375 390T359 428T329 456T283 468Q259 468 238 456T200 427T174 396T162 373V44H210V0H38V44H92V458H38V502H158V431Q161 437 172 450T200 478T241 503T293 514Q335 514 365 499T413 460T441 407T450 348V44H504V0H332Z"  />
<glyph unicode="o" horiz-adv-x="486" d="M441 264Q441 227 432 180T399 90T338 18T243 -12Q186 -12 148 15T87 84T55 173T45 264Q45 298 56 341T92 422T153 487T243 514Q296 514 333 489T395 427T430 345T441 264ZM369 264Q369 291 363 326T343 394T304 448T243 470Q208 470 184 449T145 396T124 328T117 264Q117 232 122 192T142 117T180 57T243 32Q280 32 304 55T343 114T363 190T369 264Z"  />
<glyph unicode="p" horiz-adv-x="513" d="M468 264Q468 217 456 168T419 79T360 14T277 -12Q249 -12 228 -2T191 23T168 51T156 71V-175H216V-219H32V-175H86V458H32V502H152V432Q155 438 165 451T191 479T229 503T277 514Q327 514 363 490T422 429T457 348T468 264ZM395 264Q395 295 388 331T366 397T326 448T269 468Q244 468 225 457T191 429T168 398T156 373V135Q158 127 167 111T191 77T225 46T269 33Q300 33 324 55T363 111T387 186T395 264Z"  />
<glyph unicode="q" horiz-adv-x="513" d="M297 -219V-175H357V71Q355 65 345 52T319 24T282 -1T236 -12Q182 -12 146 16T87 86T55 176T45 264Q45 300 58 344T98 425T165 488T261 514Q282 514 308 511T359 503T401 495T426 489V-175H480V-219H297ZM357 456Q354 457 342 459T316 463T286 468T261 470Q223 470 196 448T152 395T126 327T117 264Q117 234 124 195T146 119T185 59T243 34Q264 34 283 45T318 73T344 106T357 134V456Z"  />
<glyph unicode="r" horiz-adv-x="341" d="M303 448Q298 452 286 457T262 462Q242 462 225 451T194 424T172 392T162 367V44H222V0H38V44H92V458H38V502H158V432Q161 438 169 451T192 479T227 503T274 514Q287 514 302 509T324 499L303 448Z"  />
<glyph unicode="s" horiz-adv-x="396" d="M354 134Q354 104 341 78T307 31T256 0T193 -12Q161 -12 135 -8T89 3T56 15T35 24V112H96V52Q113 45 140 39T193 32Q212 32 228 38T257 57T276 85T283 121Q283 143 266 162T221 198T164 233T106 270T62 313T44 366Q44 396 56 422T90 469T139 502T200 514Q224 514 245 510T282 501T310 490T324 481V393H264V455Q256 459 236 464T200 470Q159 470 136 443T113 379Q113 356 131 338T175 301T233 266T291 229T336 186T354 134Z"  />
<glyph unicode="t" horiz-adv-x="300" d="M287 3Q283 1 274 -1T254 -6T231 -10T208 -12Q178 -12 158 -3T125 20T107 54T101 95V458H17V502H101V638H170V502H266V458H170V94Q170 71 180 52T212 33Q226 33 243 38T266 48L287 3H287Z"  />
<glyph unicode="u" horiz-adv-x="525" d="M374 0V71Q371 66 361 52T333 24T293 -1T243 -12Q202 -12 172 2T123 41T95 95T86 157V458H32V502H156V153Q156 129 162 108T179 70T209 44T251 34Q275 34 296 46T333 74T358 106T370 129V458H316V502H439V44H493V0H374Z"  />
<glyph unicode="v" horiz-adv-x="498" d="M430 458L277 0H221L68 458H14V502H190V458H142L261 89L376 458H328V502H484V458H430Z"  />
<glyph unicode="w" horiz-adv-x="733" d="M662 458L541 0H485L366 395L248 0H193L71 458H17V502H192V458H144L233 107L351 502H407L526 107L611 458H563V502H716V458H662Z"  />
<glyph unicode="x" horiz-adv-x="481" d="M284 0V44H332L227 217L119 44H167V0H8V44H62L203 253L74 458H20V502H206V458H158L254 304L351 458H303V502H460V458H406L278 269L418 44H472V0H284Z"  />
<glyph unicode="y" horiz-adv-x="498" d="M430 458L246 -88Q225 -151 195 -191T124 -231Q110 -231 89 -226T60 -216L81 -172Q86 -176 99 -181T121 -187Q140 -187 160 -164T194 -97L222 -10L68 458H14V502H190V458H142L258 86L376 458H328V502H484V458H430Z"  />
<glyph unicode="z" horiz-adv-x="417" d="M41 0V40L293 458H108V393H47V502H369V462L118 44H315V112H375V0H41Z"  />
<glyph unicode="{" horiz-adv-x="298" d="M227 -96Q180 -96 150 -70T120 11V202Q120 263 107 295T56 330V364Q93 366 106 401T120 497V633Q120 688 150 713T227 739H268V702H248Q215 702 201 679T187 621V473Q187 373 101 348Q145 335 166 306T187 226V23Q187 -12 200 -35T248 -59H268V-96H227Z"  />
<glyph unicode="|" horiz-adv-x="238" d="M89 -42V708H150V-42H89Z"  />
<glyph unicode="}" horiz-adv-x="298" d="M243 330Q206 328 193 296T179 202V11Q179 -44 149 -70T72 -96H30V-59H50Q84 -59 97 -36T111 23V226Q111 277 132 306T197 348Q111 373 111 473V621Q111 656 97 679T50 702H30V739H72Q119 739 149 714T179 633V497Q179 436 192 401T243 364V330H243Z"  />
<glyph unicode="~" horiz-adv-x="477" d="M425 305Q423 284 416 264T397 229T369 204T331 195Q307 195 284 203T238 221T194 239T153 247Q133 247 122 232T106 198H52Q54 219 61 239T80 274T109 298T147 307Q171 307 194 299T240 281T284 263T325 255Q345 255 355 271T371 305H425H425Z"  />
<glyph unicode="&#xA0;" horiz-adv-x="239" />
<glyph unicode="&#xA1;" horiz-adv-x="265" d="M190 457Q190 434 174 418T133 401Q109 401 92 417T75 457Q75 480 92 497T133 514Q157 514 173 497T190 457ZM91 -219L106 295H160L174 -219H91Z"  />
<glyph unicode="&#xA2;" horiz-adv-x="477" d="M407 109Q400 105 388 100T361 90T329 81T293 75V0H245V75Q199 80 167 104T113 166T82 248T72 340Q72 377 84 417T120 492T176 552T251 582V655H299V581Q331 577 359 568T397 551V457H337V524Q334 525 327 527T310 532T290 536T271 538Q239 538 216 518T177 468T154 404T146 340Q146 304 154 265T177 194T217 140T274 119Q292 119 310 123T343 133T369 145T386 155L407 109H407Z"  />
<glyph unicode="&#xA3;" horiz-adv-x="477" d="M404 587Q398 591 386 597T359 608T327 617T291 621Q265 621 247 611T217 585T200 547T194 503Q194 471 200 435T213 365H345V321H222Q226 299 229 272T232 223Q232 198 222 171T197 121T167 79T141 54H417V0H65V47Q77 53 93 70T125 113T150 167T161 223Q161 246 158 272T151 321H65V365H142Q135 398 129 433T123 503Q123 537 134 567T168 619T220 654T290 667Q313 667 334 663T374 654T405 644T425 635L404 587Z"  />
<glyph unicode="&#xA4;" horiz-adv-x="477" d="M376 114L328 174Q309 157 287 148T239 138Q188 138 150 173L102 114L52 154L106 222Q92 246 84 275T76 336Q76 368 84 397T106 450L52 519L102 558L149 499Q168 516 191 525T239 534Q290 534 328 499L376 558L425 519L371 450Q385 426 393 397T401 336Q401 304 393 275T371 222L425 154L376 114ZM347 336Q347 367 339 393T316 439T281 470T239 482Q217 482 198 471T163 440T140 394T131 336Q131 305 139 279T162 233T196 202T239 191Q261 191 280 202T315 232T338 278T347 336Z"  />
<glyph unicode="&#xA5;" horiz-adv-x="477" d="M430 610L297 347H407V303H276V231H407V187H276V48H343V0H135V48H203V187H69V231H203V303H69V347H181L48 610H-8V658H181V610H129L254 355L380 610H327V658H485V610H430Z"  />
<glyph unicode="&#xA6;" horiz-adv-x="239" d="M89 458V708H150V458H89ZM89 -42V208H150V-42H89Z"  />
<glyph unicode="&#xA7;" horiz-adv-x="477" d="M400 119Q400 62 353 25T223 -12Q200 -12 178 -9T136 -2T101 8T80 16V102H139V48Q151 43 174 37T223 31Q274 31 301 53T329 110Q329 124 311 140T266 174T206 209T147 247T101 287T83 327Q83 352 96 372T126 406T161 428T188 438Q177 444 161 453T128 475T101 503T90 537Q90 567 103 591T139 632T191 658T252 667Q300 667 332 657T375 641V555H316V611Q308 615 288 619T252 624Q215 624 188 605T161 546Q161 530 178 515T221 486T277 456T333 425T376 390T394 352Q394 328 383 309T355 275T317 251T276 240Q299 227 321 213T361 184T389 153T400 119ZM322 345Q322 354 314 364T292 383T263 401T232 417Q222 416 209 410T183 393T163 368T154 336Q154 319 179 299T235 260Q248 261 263 269T292 289T313 315T322 345Z"  />
<glyph unicode="&#xA8;" horiz-adv-x="246" d="M255 638Q255 619 242 606T208 592Q188 592 175 605T162 638Q162 657 175 670T208 684Q228 684 241 671T255 638ZM83 638Q83 619 70 606T36 592Q16 592 3 605T-10 638Q-10 657 3 670T36 684Q56 684 69 671T83 638Z"  />
<glyph unicode="&#xA9;" horiz-adv-x="750" d="M720 334Q720 262 695 199T623 89T514 15T375 -12Q299 -12 236 15T127 89T56 199T30 334Q30 404 56 466T128 576T237 651T375 679Q449 679 512 652T622 578T694 469T720 334ZM672 334Q672 395 650 449T588 545T494 610T375 634Q310 634 256 610T162 545T100 450T78 334Q78 273 100 219T162 123T256 57T375 33Q439 33 493 57T588 122T650 218T672 334ZM488 151Q469 143 441 135T376 126Q329 126 296 145T243 194T213 264T203 342Q203 378 215 414T250 478T305 523T376 541Q415 541 442 532T480 518V443H427V492Q419 494 405 497T376 501Q350 501 329 487T294 450T272 399T264 342Q264 310 271 279T293 222T329 181T376 165Q392 165 409 168T434 176V226H488V151H488Z"  />
<glyph unicode="&#xAA;" horiz-adv-x="358" d="M228 358V389Q217 377 195 364T143 351Q97 351 68 374T39 440Q39 459 52 475T85 502T127 521T168 533L226 544V565Q226 592 210 612T166 632Q153 632 140 628T116 619V578H62V638Q79 647 106 657T171 667Q220 667 252 638T284 565V394H319V358H228ZM226 514L180 504Q172 502 158 497T131 483T109 464T99 440Q99 418 113 403T148 387Q161 387 174 392T197 405T215 422T226 439V514Z"  />
<glyph unicode="&#xAB;" horiz-adv-x="366" d="M266 133L156 304L266 470H321L226 304L321 133H266ZM138 133L29 304L138 470H193L98 304L193 133H138Z"  />
<glyph unicode="&#xAC;" horiz-adv-x="477" d="M363 129V315H52V373H425V129H363Z"  />
<glyph unicode="&#xAD;" horiz-adv-x="293" d="M42 275V333H251V275H42Z"  />
<glyph unicode="&#xAE;" horiz-adv-x="750" d="M720 334Q720 262 695 199T623 89T514 15T375 -12Q299 -12 236 15T127 89T56 199T30 334Q30 404 56 466T128 576T237 651T375 679Q449 679 512 652T622 578T694 469T720 334ZM672 334Q672 395 650 449T588 545T494 610T375 634Q310 634 256 610T162 545T100 450T78 334Q78 273 100 219T162 123T256 57T375 33Q439 33 493 57T588 122T650 218T672 334ZM503 140Q486 140 469 149T442 180L417 237Q412 247 404 262T384 291T358 315T329 325H311V180H346V140H212V180H251V501H212V541H356Q383 541 408 534T451 513T481 480T493 436Q493 413 484 396T461 367T431 348T401 337Q413 330 424 320T444 297T461 273T474 250L497 198Q502 187 508 184T519 180H540V140H503ZM432 434Q432 463 409 482T351 501H311V362H343Q379 362 405 380T432 434Z"  />
<glyph unicode="&#xAF;" horiz-adv-x="246" d="M3 614V662H243V614H3Z"  />
<glyph unicode="&#xB0;" horiz-adv-x="400" d="M343 523Q343 492 332 466T302 420T256 390T200 379Q170 379 144 390T99 420T68 465T57 523Q57 554 68 580T98 626T144 656T200 667Q230 667 256 656T301 626T332 581T343 523ZM293 523Q293 565 266 592T200 620Q161 620 134 593T107 523Q107 481 134 454T200 426Q239 426 266 453T293 523Z"  />
<glyph unicode="&#xB1;" horiz-adv-x="477" d="M269 275V107H208V275H52V334H208V502H269V334H425V275H269ZM52 0V59H425V0H52Z"  />
<glyph unicode="&#xB2;" horiz-adv-x="358" d="M55 262V290Q55 311 68 333T102 379T145 425T188 472T221 519T235 563Q235 589 219 607T175 625Q161 625 147 622T120 613T96 601T78 591L58 633Q81 645 112 655T177 666Q233 666 265 637T297 563Q297 541 284 518T252 471T209 424T164 380T127 339T107 303H298V262H55Z"  />
<glyph unicode="&#xB3;" horiz-adv-x="358" d="M301 394Q301 365 290 340T257 295T207 265T143 254Q108 254 79 263T32 280L52 322Q66 314 93 305T143 295Q188 295 212 322T237 394Q237 429 215 451T161 474Q135 474 109 466V501L212 614H59V655H282V623L168 510Q170 510 173 510T178 511Q199 511 220 503T260 480T289 443T301 394Z"  />
<glyph unicode="&#xB4;" horiz-adv-x="246" d="M139 570H86L154 705H224L139 570Z"  />
<glyph unicode="&#xB5;" horiz-adv-x="477" d="M349 0V71Q344 62 335 48T310 21T275 -2T230 -12Q206 -12 188 -5T158 11T139 29T130 44V-219H63V458H9V502H133V153Q133 130 138 109T156 71T185 44T227 34Q251 34 271 45T308 72T333 104T345 129V458H291V502H415V44H469V0H349Z"  />
<glyph unicode="&#xB6;" horiz-adv-x="477" d="M371 -96V611H229V-96H171V337Q137 338 108 350T56 385T22 438T9 504Q9 547 24 578T65 629T127 658T202 667H429V-96H371Z"  />
<glyph unicode="&#xB7;" horiz-adv-x="239" d="M172 304Q172 282 157 267T119 252Q96 252 81 267T66 304Q66 326 81 341T120 356Q143 356 157 341T172 304Z"  />
<glyph unicode="&#xB8;" horiz-adv-x="246" d="M224 -114Q224 -149 192 -167T114 -186Q103 -186 90 -184T64 -179T40 -173T21 -166L37 -131Q42 -134 51 -137T72 -144T95 -149T114 -151Q138 -151 153 -141T169 -117Q169 -83 131 -83Q120 -83 105 -86T83 -91L67 -75L123 0H169L118 -60Q127 -57 137 -55T159 -53Q169 -53 180 -56T201 -67T217 -86T224 -114Z"  />
<glyph unicode="&#xB9;" horiz-adv-x="358" d="M53 262V304H156V600L66 556L45 596L174 655H218V304H310V262H53Z"  />
<glyph unicode="&#xBA;" horiz-adv-x="358" d="M315 517Q315 493 308 464T286 410T244 368T179 351Q139 351 113 368T71 410T49 464T43 517Q43 537 50 563T74 612T117 651T179 667Q217 667 243 652T285 613T308 564T315 517ZM254 517Q254 532 250 551T237 589T214 619T179 631Q159 631 145 619T122 590T109 553T104 517Q104 499 107 477T119 434T142 401T179 387Q201 387 215 400T238 434T250 476T254 517Z"  />
<glyph unicode="&#xBB;" horiz-adv-x="366" d="M229 133H175L268 304L175 470H229L338 304L229 133ZM101 133H47L140 304L47 470H101L210 304L101 133Z"  />
<glyph unicode="&#xBC;" horiz-adv-x="954" d="M773 91V39H825V0H666V39H716V91H537V120Q544 131 556 152T581 196T603 237T616 262L678 393H740L676 264Q672 256 662 239T641 201T618 162T598 130H716V242H773V130H834V91H773ZM359 0H308L596 655H647L359 0ZM106 262V304H209V600L119 556L98 596L227 655H271V304H363V262H106Z"  />
<glyph unicode="&#xBD;" horiz-adv-x="954" d="M600 0V28Q600 49 613 71T647 117T690 163T733 210T766 257T780 301Q780 327 765 345T721 363Q707 363 693 360T666 351T642 339T624 329L604 371Q627 383 657 393T722 404Q778 404 810 375T843 301Q843 279 830 256T798 209T755 162T710 118T672 77T652 41H844V0H600ZM359 0H308L596 655H647L359 0ZM106 262V304H209V600L119 556L98 596L227 655H271V304H363V262H106Z"  />
<glyph unicode="&#xBE;" horiz-adv-x="954" d="M773 91V39H825V0H666V39H716V91H537V120Q544 131 556 152T581 196T603 237T616 262L678 393H740L676 264Q672 256 662 239T641 201T618 162T598 130H716V242H773V130H834V91H773ZM359 0H308L596 655H647L359 0ZM348 394Q348 365 337 340T305 295T255 265T191 254Q156 254 127 263T80 280L100 322Q114 314 141 305T191 295Q236 295 260 322T285 394Q285 429 263 451T209 474Q197 474 183 472T156 466V501L260 614H107V655H329V623L216 510Q218 510 221 510T226 511Q247 511 268 503T307 480T336 443T348 394Z"  />
<glyph unicode="&#xBF;" horiz-adv-x="395" d="M286 457Q286 434 269 418T228 401Q204 401 188 417T171 457Q171 480 187 497T228 514Q252 514 269 497T286 457ZM359 -197Q355 -199 342 -204T309 -216T266 -226T221 -231Q182 -231 150 -219T95 -186T60 -136T47 -74Q47 -30 71 14T124 103T177 196T201 295H256Q256 239 235 192T187 101T140 15T118 -75Q118 -121 147 -152T221 -183Q237 -183 255 -179T289 -169T319 -157T338 -148L359 -197H359Z"  />
<glyph unicode="&#xC0;" horiz-adv-x="627" d="M419 0V48H479L429 201H177L128 48H188V0H11V48H71L282 667H346L555 48H615V0H419ZM301 587L191 243H416L301 587ZM293 723L208 858H278L346 723H293Z"  />
<glyph unicode="&#xC1;" horiz-adv-x="627" d="M419 0V48H479L429 201H177L128 48H188V0H11V48H71L282 667H346L555 48H615V0H419ZM301 587L191 243H416L301 587ZM334 723H281L349 858H419L334 723Z"  />
<glyph unicode="&#xC2;" horiz-adv-x="627" d="M419 0V48H479L429 201H177L128 48H188V0H11V48H71L282 667H346L555 48H615V0H419ZM301 587L191 243H416L301 587ZM373 723L313 827L252 723H196L280 858H349L433 723H373Z"  />
<glyph unicode="&#xC3;" horiz-adv-x="627" d="M419 0V48H479L429 201H177L128 48H188V0H11V48H71L282 667H346L555 48H615V0H419ZM301 587L191 243H416L301 587ZM447 846Q446 828 441 809T425 775T402 750T371 740Q354 740 340 747T314 763T289 779T262 786Q245 786 235 770T222 736H183Q184 755 189 774T204 808T227 832T259 842Q275 842 290 835T318 819T344 803T369 796Q387 796 396 813T408 846H447H447Z"  />
<glyph unicode="&#xC4;" horiz-adv-x="627" d="M419 0V48H479L429 201H177L128 48H188V0H11V48H71L282 667H346L555 48H615V0H419ZM301 587L191 243H416L301 587ZM447 791Q447 772 434 759T400 745Q380 745 367 758T354 791Q354 810 367 823T400 837Q420 837 433 824T447 791ZM275 791Q275 772 262 759T228 745Q208 745 195 758T182 791Q182 810 195 823T228 837Q248 837 261 824T275 791Z"  />
<glyph unicode="&#xC5;" horiz-adv-x="627" d="M419 0V48H479L429 201H177L128 48H188V0H11V48H71L282 667H346L555 48H615V0H419ZM301 587L191 243H416L301 587ZM397 791Q397 756 373 733T315 709Q281 709 257 732T232 791Q232 826 256 849T315 872Q349 872 373 849T397 791ZM368 791Q368 813 352 828T314 844Q290 844 276 829T261 791Q261 769 276 753T314 737Q336 737 352 753T368 791Z"  />
<glyph unicode="&#xC6;" horiz-adv-x="831" d="M419 0V48H479L429 201H177L128 48H188V0H11V48H71L282 667H637V531H573V619H361L445 373H689V325H462L555 48H750V139H814V0H419ZM301 587L191 243H416L301 587Z"  />
<glyph unicode="&#xC7;" horiz-adv-x="533" d="M477 27Q455 16 420 5T337 -10L296 -60Q305 -57 315 -55T336 -53Q346 -53 357 -56T379 -67T395 -86T402 -114Q402 -149 370 -167T291 -186Q280 -186 267 -184T241 -179T217 -173T198 -166L215 -131Q220 -134 229 -137T250 -144T272 -149T291 -151Q315 -151 331 -141T347 -117Q347 -83 308 -83Q297 -83 283 -86T261 -91L244 -75L293 -10Q230 -6 185 26T112 109T70 221T57 348Q57 409 75 468T128 575T209 650T315 679Q344 679 369 675T413 664T446 652T465 643V531H401V612Q397 614 388 617T366 623T341 628T315 631Q271 631 238 605T181 538T145 447T133 348Q133 293 145 237T180 136T237 63T315 34Q328 34 343 36T373 42T397 50T413 58V139H477V27H477Z"  />
<glyph unicode="&#xC8;" horiz-adv-x="529" d="M48 0V48H108V619H48V667H466V531H402V619H181V373H399V325H181V48H414V139H478V0H48ZM245 723L160 858H230L298 723H245Z"  />
<glyph unicode="&#xC9;" horiz-adv-x="529" d="M48 0V48H108V619H48V667H466V531H402V619H181V373H399V325H181V48H414V139H478V0H48ZM286 723H233L301 858H371L286 723Z"  />
<glyph unicode="&#xCA;" horiz-adv-x="529" d="M48 0V48H108V619H48V667H466V531H402V619H181V373H399V325H181V48H414V139H478V0H48ZM326 723L266 827L205 723H149L233 858H302L386 723H326Z"  />
<glyph unicode="&#xCB;" horiz-adv-x="529" d="M48 0V48H108V619H48V667H466V531H402V619H181V373H399V325H181V48H414V139H478V0H48ZM399 791Q399 772 386 759T352 745Q332 745 319 758T306 791Q306 810 319 823T352 837Q372 837 385 824T399 791ZM227 791Q227 772 214 759T180 745Q160 745 147 758T134 791Q134 810 147 823T180 837Q200 837 213 824T227 791Z"  />
<glyph unicode="&#xCC;" horiz-adv-x="289" d="M48 0V48H108V619H48V667H241V619H181V48H241V0H48ZM127 723L42 858H112L180 723H127Z"  />
<glyph unicode="&#xCD;" horiz-adv-x="289" d="M48 0V48H108V619H48V667H241V619H181V48H241V0H48ZM160 723H107L175 858H245L160 723Z"  />
<glyph unicode="&#xCE;" horiz-adv-x="289" d="M48 0V48H108V619H48V667H241V619H181V48H241V0H48ZM203 723L143 827L82 723H26L110 858H179L263 723H203Z"  />
<glyph unicode="&#xCF;" horiz-adv-x="289" d="M48 0V48H108V619H48V667H241V619H181V48H241V0H48ZM278 791Q278 772 265 759T231 745Q211 745 198 758T185 791Q185 810 198 823T231 837Q251 837 264 824T278 791ZM106 791Q106 772 93 759T59 745Q39 745 26 758T13 791Q13 810 26 823T59 837Q79 837 92 824T106 791Z"  />
<glyph unicode="&#xD0;" horiz-adv-x="613" d="M556 348Q556 275 534 212T474 101T382 27T267 0H48V48H108V324H42V372H108V619H48V667H253Q317 667 372 643T468 577T532 476T556 348ZM481 348Q481 405 463 454T414 540T345 598T263 619H181V372H322V324H181V48H266Q311 48 350 73T419 139T464 235T481 348Z"  />
<glyph unicode="&#xD1;" horiz-adv-x="638" d="M536 622V0H472L162 579V48H222V0H48V48H108V619H48V667H195L482 129V622H424V670H596V622H536ZM465 846Q464 828 459 809T443 775T420 750T389 740Q372 740 358 747T332 763T307 779T280 786Q263 786 253 770T240 736H201Q202 755 207 774T222 808T245 832T277 842Q293 842 308 835T336 819T362 803T387 796Q405 796 414 813T426 846H465H465Z"  />
<glyph unicode="&#xD2;" horiz-adv-x="598" d="M541 348Q541 290 528 227T485 110T410 23T299 -12Q230 -12 184 22T109 108T69 225T57 348Q57 398 70 456T112 563T187 646T299 679Q367 679 413 647T487 566T528 459T541 348ZM465 348Q465 390 458 439T433 531T382 602T299 631Q249 631 217 602T166 531T140 439T133 348Q133 302 140 248T167 146T218 68T299 36Q347 36 379 68T430 147T457 249T465 348ZM277 723L192 858H262L330 723H277Z"  />
<glyph unicode="&#xD3;" horiz-adv-x="598" d="M541 348Q541 290 528 227T485 110T410 23T299 -12Q230 -12 184 22T109 108T69 225T57 348Q57 398 70 456T112 563T187 646T299 679Q367 679 413 647T487 566T528 459T541 348ZM465 348Q465 390 458 439T433 531T382 602T299 631Q249 631 217 602T166 531T140 439T133 348Q133 302 140 248T167 146T218 68T299 36Q347 36 379 68T430 147T457 249T465 348ZM316 723H263L331 858H401L316 723Z"  />
<glyph unicode="&#xD4;" horiz-adv-x="598" d="M541 348Q541 290 528 227T485 110T410 23T299 -12Q230 -12 184 22T109 108T69 225T57 348Q57 398 70 456T112 563T187 646T299 679Q367 679 413 647T487 566T528 459T541 348ZM465 348Q465 390 458 439T433 531T382 602T299 631Q249 631 217 602T166 531T140 439T133 348Q133 302 140 248T167 146T218 68T299 36Q347 36 379 68T430 147T457 249T465 348ZM356 723L296 827L235 723H179L263 858H332L416 723H356Z"  />
<glyph unicode="&#xD5;" horiz-adv-x="598" d="M541 348Q541 290 528 227T485 110T410 23T299 -12Q230 -12 184 22T109 108T69 225T57 348Q57 398 70 456T112 563T187 646T299 679Q367 679 413 647T487 566T528 459T541 348ZM465 348Q465 390 458 439T433 531T382 602T299 631Q249 631 217 602T166 531T140 439T133 348Q133 302 140 248T167 146T218 68T299 36Q347 36 379 68T430 147T457 249T465 348ZM430 846Q429 828 424 809T408 775T385 750T354 740Q337 740 323 747T297 763T272 779T245 786Q228 786 218 770T205 736H166Q167 755 172 774T187 808T210 832T242 842Q258 842 273 835T301 819T327 803T352 796Q370 796 379 813T391 846H430H430Z"  />
<glyph unicode="&#xD6;" horiz-adv-x="598" d="M541 348Q541 290 528 227T485 110T410 23T299 -12Q230 -12 184 22T109 108T69 225T57 348Q57 398 70 456T112 563T187 646T299 679Q367 679 413 647T487 566T528 459T541 348ZM465 348Q465 390 458 439T433 531T382 602T299 631Q249 631 217 602T166 531T140 439T133 348Q133 302 140 248T167 146T218 68T299 36Q347 36 379 68T430 147T457 249T465 348ZM430 791Q430 772 417 759T383 745Q363 745 350 758T337 791Q337 810 350 823T383 837Q403 837 416 824T430 791ZM258 791Q258 772 245 759T211 745Q191 745 178 758T165 791Q165 810 178 823T211 837Q231 837 244 824T258 791Z"  />
<glyph unicode="&#xD7;" horiz-adv-x="477" d="M378 0L239 199L99 0L52 37L203 251L52 465L99 502L239 303L378 502L425 465L274 251L425 37L378 0Z"  />
<glyph unicode="&#xD8;" horiz-adv-x="598" d="M491 561Q518 512 529 456T541 348Q541 290 528 227T485 110T410 23T299 -12Q243 -12 203 11T134 73L64 -24L33 3L110 109Q81 162 69 225T57 348Q57 398 70 456T112 563T187 646T299 679Q356 679 396 656T466 597L534 691L565 664L491 561ZM426 546Q407 584 377 607T299 631Q249 631 217 602T166 531T140 439T133 348Q133 309 139 262T159 173L426 546H426ZM465 348Q465 383 461 423T443 501L176 127Q196 87 225 62T299 36Q347 36 379 68T430 147T457 249T465 348Z"  />
<glyph unicode="&#xD9;" horiz-adv-x="602" d="M500 619V237Q500 191 490 147T457 67T398 10T309 -12Q250 -12 211 9T147 64T113 144T102 237V619H42V667H235V619H175V242Q175 205 181 168T202 102T245 55T315 36Q353 36 378 54T419 101T440 167T446 242V619H386V667H560V619H500ZM291 723L206 858H276L344 723H291Z"  />
<glyph unicode="&#xDA;" horiz-adv-x="602" d="M500 619V237Q500 191 490 147T457 67T398 10T309 -12Q250 -12 211 9T147 64T113 144T102 237V619H42V667H235V619H175V242Q175 205 181 168T202 102T245 55T315 36Q353 36 378 54T419 101T440 167T446 242V619H386V667H560V619H500ZM332 723H279L347 858H417L332 723Z"  />
<glyph unicode="&#xDB;" horiz-adv-x="602" d="M500 619V237Q500 191 490 147T457 67T398 10T309 -12Q250 -12 211 9T147 64T113 144T102 237V619H42V667H235V619H175V242Q175 205 181 168T202 102T245 55T315 36Q353 36 378 54T419 101T440 167T446 242V619H386V667H560V619H500ZM372 723L312 827L251 723H195L279 858H348L432 723H372Z"  />
<glyph unicode="&#xDC;" horiz-adv-x="602" d="M500 619V237Q500 191 490 147T457 67T398 10T309 -12Q250 -12 211 9T147 64T113 144T102 237V619H42V667H235V619H175V242Q175 205 181 168T202 102T245 55T315 36Q353 36 378 54T419 101T440 167T446 242V619H386V667H560V619H500ZM446 791Q446 772 433 759T399 745Q379 745 366 758T353 791Q353 810 366 823T399 837Q419 837 432 824T446 791ZM274 791Q274 772 261 759T227 745Q207 745 194 758T181 791Q181 810 194 823T227 837Q247 837 260 824T274 791Z"  />
<glyph unicode="&#xDD;" horiz-adv-x="534" d="M468 619L303 291V48H369V0H164V48H230V291L65 619H5V667H199V619H145L278 350L411 619H357V667H528V619H468ZM299 723H246L314 858H384L299 723Z"  />
<glyph unicode="&#xDE;" horiz-adv-x="509" d="M474 346Q474 308 459 274T417 215T354 175T275 160H181V48H247V0H48V48H108V619H48V667H247V619H181V525H261Q302 525 340 512T408 476T456 419T474 346ZM399 346Q399 375 389 399T359 440T312 467T252 477H181V206H260Q291 206 317 216T361 245T389 290T399 346Z"  />
<glyph unicode="&#xDF;" horiz-adv-x="510" d="M478 131Q478 102 468 76T440 31T394 0T334 -12Q291 -12 261 0T220 21V109H274V51Q280 45 297 39T334 32Q352 32 366 39T389 59T404 88T410 121Q410 154 384 183T325 242T267 303T240 373Q240 397 250 415T275 448T307 476T339 502T364 532T374 570Q374 588 367 607T347 641T314 667T269 677Q241 677 219 663T182 628T159 582T151 535V0H30V44H84V528Q84 566 98 601T138 662T196 705T269 721Q310 721 341 707T394 672T427 623T438 570Q438 548 428 531T403 498T370 470T337 444T312 415T302 383Q302 361 315 342T347 303T390 265T432 226T465 182T478 131Z"  />
<glyph unicode="&#xE0;" horiz-adv-x="476" d="M326 0V71Q323 65 312 51T283 23T239 -1T185 -12Q118 -12 77 25T35 129Q35 160 54 185T101 230T163 263T225 283L323 305V344Q323 369 316 392T296 432T264 460T220 470Q204 470 190 467T163 459T143 450T131 444V381H71V469Q77 473 91 480T125 495T171 508T227 514Q263 514 292 501T344 466T378 413T390 347V44H444V0H326ZM323 265L239 247Q225 244 202 235T158 210T121 175T105 131Q105 89 130 61T193 32Q216 32 237 41T276 65T306 96T323 128V265ZM203 570L118 705H188L256 570H203Z"  />
<glyph unicode="&#xE1;" horiz-adv-x="476" d="M326 0V71Q323 65 312 51T283 23T239 -1T185 -12Q118 -12 77 25T35 129Q35 160 54 185T101 230T163 263T225 283L323 305V344Q323 369 316 392T296 432T264 460T220 470Q204 470 190 467T163 459T143 450T131 444V381H71V469Q77 473 91 480T125 495T171 508T227 514Q263 514 292 501T344 466T378 413T390 347V44H444V0H326ZM323 265L239 247Q225 244 202 235T158 210T121 175T105 131Q105 89 130 61T193 32Q216 32 237 41T276 65T306 96T323 128V265ZM244 570H191L259 705H329L244 570Z"  />
<glyph unicode="&#xE2;" horiz-adv-x="476" d="M326 0V71Q323 65 312 51T283 23T239 -1T185 -12Q118 -12 77 25T35 129Q35 160 54 185T101 230T163 263T225 283L323 305V344Q323 369 316 392T296 432T264 460T220 470Q204 470 190 467T163 459T143 450T131 444V381H71V469Q77 473 91 480T125 495T171 508T227 514Q263 514 292 501T344 466T378 413T390 347V44H444V0H326ZM323 265L239 247Q225 244 202 235T158 210T121 175T105 131Q105 89 130 61T193 32Q216 32 237 41T276 65T306 96T323 128V265ZM283 570L223 674L162 570H106L190 705H259L343 570H283Z"  />
<glyph unicode="&#xE3;" horiz-adv-x="476" d="M326 0V71Q323 65 312 51T283 23T239 -1T185 -12Q118 -12 77 25T35 129Q35 160 54 185T101 230T163 263T225 283L323 305V344Q323 369 316 392T296 432T264 460T220 470Q204 470 190 467T163 459T143 450T131 444V381H71V469Q77 473 91 480T125 495T171 508T227 514Q263 514 292 501T344 466T378 413T390 347V44H444V0H326ZM323 265L239 247Q225 244 202 235T158 210T121 175T105 131Q105 89 130 61T193 32Q216 32 237 41T276 65T306 96T323 128V265ZM356 693Q355 675 350 656T334 622T311 597T280 587Q263 587 249 594T223 610T198 626T171 633Q154 633 144 617T131 583H92Q93 602 98 621T113 655T136 679T168 689Q184 689 199 682T227 666T253 650T278 643Q296 643 305 660T317 693H356H356Z"  />
<glyph unicode="&#xE4;" horiz-adv-x="476" d="M326 0V71Q323 65 312 51T283 23T239 -1T185 -12Q118 -12 77 25T35 129Q35 160 54 185T101 230T163 263T225 283L323 305V344Q323 369 316 392T296 432T264 460T220 470Q204 470 190 467T163 459T143 450T131 444V381H71V469Q77 473 91 480T125 495T171 508T227 514Q263 514 292 501T344 466T378 413T390 347V44H444V0H326ZM323 265L239 247Q225 244 202 235T158 210T121 175T105 131Q105 89 130 61T193 32Q216 32 237 41T276 65T306 96T323 128V265ZM357 638Q357 619 344 606T310 592Q290 592 277 605T264 638Q264 657 277 670T310 684Q330 684 343 671T357 638ZM185 638Q185 619 172 606T138 592Q118 592 105 605T92 638Q92 657 105 670T138 684Q158 684 171 671T185 638Z"  />
<glyph unicode="&#xE5;" horiz-adv-x="476" d="M326 0V71Q323 65 312 51T283 23T239 -1T185 -12Q118 -12 77 25T35 129Q35 160 54 185T101 230T163 263T225 283L323 305V344Q323 369 316 392T296 432T264 460T220 470Q204 470 190 467T163 459T143 450T131 444V381H71V469Q77 473 91 480T125 495T171 508T227 514Q263 514 292 501T344 466T378 413T390 347V44H444V0H326ZM323 265L239 247Q225 244 202 235T158 210T121 175T105 131Q105 89 130 61T193 32Q216 32 237 41T276 65T306 96T323 128V265ZM308 638Q308 603 284 580T226 556Q192 556 168 579T143 638Q143 673 167 696T226 719Q260 719 284 696T308 638ZM279 638Q279 660 263 675T225 691Q201 691 187 676T172 638Q172 616 187 600T225 584Q247 584 263 600T279 638Z"  />
<glyph unicode="&#xE6;" horiz-adv-x="715" d="M389 254V221Q389 178 399 144T427 85T468 47T516 33Q535 33 554 37T590 48T619 60T636 71L657 24Q651 20 639 14T608 2T566 -8T514 -12Q479 -12 452 -2T404 25T369 60T347 96Q342 87 330 69T297 33T249 2T185 -12Q118 -12 77 23T35 125Q35 155 54 179T101 221T163 252T225 271L323 293V344Q323 369 316 392T296 432T264 460T220 470Q204 470 190 467T163 459T143 450T131 444V381H71V469Q77 473 91 480T125 495T171 508T227 514Q282 514 317 488T369 420Q390 461 423 487T500 514Q543 514 575 492T630 435T663 357T675 272V254H389ZM607 292Q607 316 602 347T584 405T551 451T500 470Q473 470 453 452T418 406T397 348T390 292H607H607ZM323 253L239 234Q225 231 202 223T158 201T121 169T105 126Q105 84 130 58T193 32Q216 32 237 41T276 65T306 96T323 128V253Z"  />
<glyph unicode="&#xE7;" horiz-adv-x="412" d="M377 24Q373 21 363 17T339 7T307 -3T266 -10L224 -60Q233 -57 243 -55T264 -53Q274 -53 285 -56T307 -67T323 -86T330 -114Q330 -149 298 -167T219 -186Q208 -186 195 -184T169 -179T145 -173T127 -166L143 -131Q148 -134 157 -137T178 -144T200 -149T219 -151Q243 -151 259 -141T275 -117Q275 -83 236 -83Q225 -83 211 -86T189 -91L173 -75L221 -11Q175 -7 142 19T87 85T55 171T45 264Q45 303 58 347T97 428T159 489T239 514Q259 514 280 510T319 501T350 490T367 481V387H307V455Q304 456 297 459T279 464T258 468T239 470Q209 470 186 449T148 397T125 329T117 264Q117 228 125 188T150 113T189 56T242 33Q259 33 277 37T311 48T339 60T356 71L377 24H377Z"  />
<glyph unicode="&#xE8;" horiz-adv-x="441" d="M114 245Q114 207 123 170T149 102T189 52T243 33Q262 33 281 37T317 48T346 60T363 71L384 24Q378 20 365 14T334 2T292 -8T240 -12Q185 -12 148 13T88 78T55 167T45 264Q45 301 57 345T93 426T150 489T226 514Q269 514 301 491T356 432T390 352T402 264V245H114ZM333 284Q333 310 328 342T310 403T277 451T226 470Q199 470 179 451T144 403T123 342T116 284H333H333ZM209 570L124 705H194L262 570H209Z"  />
<glyph unicode="&#xE9;" horiz-adv-x="441" d="M114 245Q114 207 123 170T149 102T189 52T243 33Q262 33 281 37T317 48T346 60T363 71L384 24Q378 20 365 14T334 2T292 -8T240 -12Q185 -12 148 13T88 78T55 167T45 264Q45 301 57 345T93 426T150 489T226 514Q269 514 301 491T356 432T390 352T402 264V245H114ZM333 284Q333 310 328 342T310 403T277 451T226 470Q199 470 179 451T144 403T123 342T116 284H333H333ZM250 570H197L265 705H335L250 570Z"  />
<glyph unicode="&#xEA;" horiz-adv-x="441" d="M114 245Q114 207 123 170T149 102T189 52T243 33Q262 33 281 37T317 48T346 60T363 71L384 24Q378 20 365 14T334 2T292 -8T240 -12Q185 -12 148 13T88 78T55 167T45 264Q45 301 57 345T93 426T150 489T226 514Q269 514 301 491T356 432T390 352T402 264V245H114ZM333 284Q333 310 328 342T310 403T277 451T226 470Q199 470 179 451T144 403T123 342T116 284H333H333ZM289 570L229 674L168 570H112L196 705H265L349 570H289Z"  />
<glyph unicode="&#xEB;" horiz-adv-x="441" d="M114 245Q114 207 123 170T149 102T189 52T243 33Q262 33 281 37T317 48T346 60T363 71L384 24Q378 20 365 14T334 2T292 -8T240 -12Q185 -12 148 13T88 78T55 167T45 264Q45 301 57 345T93 426T150 489T226 514Q269 514 301 491T356 432T390 352T402 264V245H114ZM333 284Q333 310 328 342T310 403T277 451T226 470Q199 470 179 451T144 403T123 342T116 284H333H333ZM363 638Q363 619 350 606T316 592Q296 592 283 605T270 638Q270 657 283 670T316 684Q336 684 349 671T363 638ZM191 638Q191 619 178 606T144 592Q124 592 111 605T98 638Q98 657 111 670T144 684Q164 684 177 671T191 638Z"  />
<glyph unicode="&#xEC;" horiz-adv-x="248" d="M38 0V44H92V458H38V502H162V44H216V0H38ZM101 570L16 705H86L154 570H101Z"  />
<glyph unicode="&#xED;" horiz-adv-x="248" d="M38 0V44H92V458H38V502H162V44H216V0H38ZM137 570H84L152 705H222L137 570Z"  />
<glyph unicode="&#xEE;" horiz-adv-x="248" d="M38 0V44H92V458H38V502H162V44H216V0H38ZM179 570L119 674L58 570H2L86 705H155L239 570H179Z"  />
<glyph unicode="&#xEF;" horiz-adv-x="248" d="M38 0V44H92V458H38V502H162V44H216V0H38ZM253 638Q253 619 240 606T206 592Q186 592 173 605T160 638Q160 657 173 670T206 684Q226 684 239 671T253 638ZM81 638Q81 619 68 606T34 592Q14 592 1 605T-12 638Q-12 657 1 670T34 684Q54 684 67 671T81 638Z"  />
<glyph unicode="&#xF0;" horiz-adv-x="486" d="M441 264Q441 223 431 175T397 85T336 16T243 -12Q186 -12 148 15T87 84T55 173T45 264Q45 298 56 341T91 422T152 487T243 514Q281 514 305 495T344 457Q343 468 335 489T313 533T285 579T254 614L159 553L134 579L223 636Q218 640 206 647T181 660T154 672T133 681L154 721Q168 717 185 710T218 695T249 679T273 664L363 721L388 696L304 641Q332 615 357 574T401 483T430 377T441 264ZM369 264Q369 291 363 326T343 394T304 448T243 470Q208 470 184 449T145 396T124 328T117 264Q117 232 122 192T142 117T180 57T243 32Q280 32 304 55T343 114T363 190T369 264Z"  />
<glyph unicode="&#xF1;" horiz-adv-x="536" d="M332 0V44H380V350Q380 369 375 390T359 428T329 456T283 468Q259 468 238 456T200 427T174 396T162 373V44H210V0H38V44H92V458H38V502H158V431Q161 437 172 450T200 478T241 503T293 514Q335 514 365 499T413 460T441 407T450 348V44H504V0H332ZM406 693Q405 675 400 656T384 622T361 597T330 587Q313 587 299 594T273 610T248 626T221 633Q204 633 194 617T181 583H142Q143 602 148 621T163 655T186 679T218 689Q234 689 249 682T277 666T303 650T328 643Q346 643 355 660T367 693H406H406Z"  />
<glyph unicode="&#xF2;" horiz-adv-x="486" d="M441 264Q441 227 432 180T399 90T338 18T243 -12Q186 -12 148 15T87 84T55 173T45 264Q45 298 56 341T92 422T153 487T243 514Q296 514 333 489T395 427T430 345T441 264ZM369 264Q369 291 363 326T343 394T304 448T243 470Q208 470 184 449T145 396T124 328T117 264Q117 232 122 192T142 117T180 57T243 32Q280 32 304 55T343 114T363 190T369 264ZM225 570L140 705H210L278 570H225Z"  />
<glyph unicode="&#xF3;" horiz-adv-x="486" d="M441 264Q441 227 432 180T399 90T338 18T243 -12Q186 -12 148 15T87 84T55 173T45 264Q45 298 56 341T92 422T153 487T243 514Q296 514 333 489T395 427T430 345T441 264ZM369 264Q369 291 363 326T343 394T304 448T243 470Q208 470 184 449T145 396T124 328T117 264Q117 232 122 192T142 117T180 57T243 32Q280 32 304 55T343 114T363 190T369 264ZM265 570H212L280 705H350L265 570Z"  />
<glyph unicode="&#xF4;" horiz-adv-x="486" d="M441 264Q441 227 432 180T399 90T338 18T243 -12Q186 -12 148 15T87 84T55 173T45 264Q45 298 56 341T92 422T153 487T243 514Q296 514 333 489T395 427T430 345T441 264ZM369 264Q369 291 363 326T343 394T304 448T243 470Q208 470 184 449T145 396T124 328T117 264Q117 232 122 192T142 117T180 57T243 32Q280 32 304 55T343 114T363 190T369 264ZM305 570L245 674L184 570H128L212 705H281L365 570H305Z"  />
<glyph unicode="&#xF5;" horiz-adv-x="486" d="M441 264Q441 227 432 180T399 90T338 18T243 -12Q186 -12 148 15T87 84T55 173T45 264Q45 298 56 341T92 422T153 487T243 514Q296 514 333 489T395 427T430 345T441 264ZM369 264Q369 291 363 326T343 394T304 448T243 470Q208 470 184 449T145 396T124 328T117 264Q117 232 122 192T142 117T180 57T243 32Q280 32 304 55T343 114T363 190T369 264ZM378 693Q377 675 372 656T356 622T333 597T302 587Q285 587 271 594T245 610T220 626T193 633Q176 633 166 617T153 583H114Q115 602 120 621T135 655T158 679T190 689Q206 689 221 682T249 666T275 650T300 643Q318 643 327 660T339 693H378H378Z"  />
<glyph unicode="&#xF6;" horiz-adv-x="486" d="M441 264Q441 227 432 180T399 90T338 18T243 -12Q186 -12 148 15T87 84T55 173T45 264Q45 298 56 341T92 422T153 487T243 514Q296 514 333 489T395 427T430 345T441 264ZM369 264Q369 291 363 326T343 394T304 448T243 470Q208 470 184 449T145 396T124 328T117 264Q117 232 122 192T142 117T180 57T243 32Q280 32 304 55T343 114T363 190T369 264ZM379 638Q379 619 366 606T332 592Q312 592 299 605T286 638Q286 657 299 670T332 684Q352 684 365 671T379 638ZM207 638Q207 619 194 606T160 592Q140 592 127 605T114 638Q114 657 127 670T160 684Q180 684 193 671T207 638Z"  />
<glyph unicode="&#xF7;" horiz-adv-x="477" d="M200 365V433H276V365H200ZM52 222V280H425V222H52ZM200 69V137H276V69H200Z"  />
<glyph unicode="&#xF8;" horiz-adv-x="486" d="M401 417Q422 380 431 340T441 264Q441 227 432 180T399 90T338 18T243 -12Q198 -12 166 5T110 51L53 -24L22 3L86 86Q63 128 54 175T45 264Q45 298 56 341T92 423T153 487T243 514Q287 514 320 497T376 451L434 526L465 499L401 417ZM337 406Q322 434 300 452T243 470Q208 470 184 449T145 396T124 328T117 264Q117 238 121 206T135 143L337 406H337ZM369 264Q369 284 366 310T353 361L150 97Q164 68 187 50T243 32Q280 32 304 55T343 114T363 190T369 264Z"  />
<glyph unicode="&#xF9;" horiz-adv-x="525" d="M374 0V71Q371 66 361 52T333 24T293 -1T243 -12Q202 -12 172 2T123 41T95 95T86 157V458H32V502H156V153Q156 129 162 108T179 70T209 44T251 34Q275 34 296 46T333 74T358 106T370 129V458H316V502H439V44H493V0H374ZM242 570L157 705H227L295 570H242Z"  />
<glyph unicode="&#xFA;" horiz-adv-x="525" d="M374 0V71Q371 66 361 52T333 24T293 -1T243 -12Q202 -12 172 2T123 41T95 95T86 157V458H32V502H156V153Q156 129 162 108T179 70T209 44T251 34Q275 34 296 46T333 74T358 106T370 129V458H316V502H439V44H493V0H374ZM282 570H229L297 705H367L282 570Z"  />
<glyph unicode="&#xFB;" horiz-adv-x="525" d="M374 0V71Q371 66 361 52T333 24T293 -1T243 -12Q202 -12 172 2T123 41T95 95T86 157V458H32V502H156V153Q156 129 162 108T179 70T209 44T251 34Q275 34 296 46T333 74T358 106T370 129V458H316V502H439V44H493V0H374ZM322 570L262 674L201 570H145L229 705H298L382 570H322Z"  />
<glyph unicode="&#xFC;" horiz-adv-x="525" d="M374 0V71Q371 66 361 52T333 24T293 -1T243 -12Q202 -12 172 2T123 41T95 95T86 157V458H32V502H156V153Q156 129 162 108T179 70T209 44T251 34Q275 34 296 46T333 74T358 106T370 129V458H316V502H439V44H493V0H374ZM396 638Q396 619 383 606T349 592Q329 592 316 605T303 638Q303 657 316 670T349 684Q369 684 382 671T396 638ZM224 638Q224 619 211 606T177 592Q157 592 144 605T131 638Q131 657 144 670T177 684Q197 684 210 671T224 638Z"  />
<glyph unicode="&#xFD;" horiz-adv-x="498" d="M430 458L246 -88Q225 -151 195 -191T124 -231Q110 -231 89 -226T60 -216L81 -172Q86 -176 99 -181T121 -187Q140 -187 160 -164T194 -97L222 -10L68 458H14V502H190V458H142L258 86L376 458H328V502H484V458H430ZM278 570H225L293 705H363L278 570Z"  />
<glyph unicode="&#xFE;" horiz-adv-x="513" d="M468 264Q468 217 456 168T419 79T360 14T277 -12Q249 -12 228 -2T191 23T168 51T156 71V-175H216V-219H32V-175H86V665H32V709H156V432Q159 438 169 451T196 479T233 503T277 514Q327 514 363 490T422 429T457 348T468 264ZM395 264Q395 297 388 333T365 399T326 448T270 468Q247 468 227 455T192 426T167 394T156 373V135Q158 127 167 111T191 77T225 46T269 33Q300 33 324 55T363 111T387 186T395 264Z"  />
<glyph unicode="&#xFF;" horiz-adv-x="498" d="M430 458L246 -88Q225 -151 195 -191T124 -231Q110 -231 89 -226T60 -216L81 -172Q86 -176 99 -181T121 -187Q140 -187 160 -164T194 -97L222 -10L68 458H14V502H190V458H142L258 86L376 458H328V502H484V458H430ZM392 638Q392 619 379 606T345 592Q325 592 312 605T299 638Q299 657 312 670T345 684Q365 684 378 671T392 638ZM220 638Q220 619 207 606T173 592Q153 592 140 605T127 638Q127 657 140 670T173 684Q193 684 206 671T220 638Z"  />
<glyph unicode="&#x131;" horiz-adv-x="248" d="M38 0V44H92V458H38V502H162V44H216V0H38Z"  />
<glyph unicode="&#x152;" horiz-adv-x="867" d="M368 0Q361 -2 340 -7T299 -12Q230 -12 184 22T109 108T69 225T57 348Q57 398 70 456T112 563T187 646T299 679Q322 679 343 675T373 667H801V531H737V619H446Q469 597 486 568T515 506T533 439T541 373H734V325H541Q539 288 531 249T510 172T478 103T437 48H749V139H813V0H368ZM465 348Q465 390 458 439T433 531T382 602T299 631Q249 631 217 602T166 531T140 439T133 348Q133 302 140 248T167 146T218 68T299 36Q347 36 379 68T430 147T457 249T465 348Z"  />
<glyph unicode="&#x153;" horiz-adv-x="763" d="M436 245Q436 207 445 170T470 102T510 52T564 33Q583 33 602 37T638 48T667 60T684 71L705 24Q699 20 686 14T655 2T613 -8T561 -12Q528 -12 502 -2T456 26T422 68T399 120Q390 94 377 70T345 28T301 -1T243 -12Q186 -12 148 15T87 84T55 173T45 264Q45 298 56 341T92 422T153 487T243 514Q276 514 302 503T349 474T384 433T408 384Q418 410 431 433T462 475T501 503T548 514Q591 514 623 491T678 432T711 352T723 264V245H436ZM655 284Q655 310 650 342T632 403T599 451T548 470Q521 470 501 451T466 403T445 342T438 284H655H655ZM369 264Q369 291 363 326T343 394T304 448T243 470Q208 470 184 449T145 396T124 328T117 264Q117 232 122 192T142 117T180 57T243 32Q280 32 304 55T343 114T363 190T369 264Z"  />
<glyph unicode="&#x160;" horiz-adv-x="475" d="M420 179Q420 137 405 102T363 41T297 2T211 -12Q184 -12 158 -8T110 3T72 16T49 27V139H113V58Q119 56 130 52T154 45T183 39T212 36Q248 36 273 47T314 76T337 117T344 166Q344 198 323 225T268 278T198 329T127 382T73 440T51 508Q51 540 64 571T103 626T163 664T241 679Q265 679 288 675T332 665T368 653T390 643V531H326V612Q321 614 312 617T290 623T266 628T241 631Q187 631 157 599T126 520Q126 490 148 464T202 412T273 362T343 309T398 249T420 179ZM275 723H206L122 858H182L242 754L303 858H359L275 723Z"  />
<glyph unicode="&#x161;" horiz-adv-x="396" d="M354 134Q354 104 341 78T307 31T256 0T193 -12Q161 -12 135 -8T89 3T56 15T35 24V112H96V52Q113 45 140 39T193 32Q212 32 228 38T257 57T276 85T283 121Q283 143 266 162T221 198T164 233T106 270T62 313T44 366Q44 396 56 422T90 469T139 502T200 514Q224 514 245 510T282 501T310 490T324 481V393H264V455Q256 459 236 464T200 470Q159 470 136 443T113 379Q113 356 131 338T175 301T233 266T291 229T336 186T354 134ZM232 570H163L79 705H139L199 601L260 705H316L232 570Z"  />
<glyph unicode="&#x178;" horiz-adv-x="534" d="M468 619L303 291V48H369V0H164V48H230V291L65 619H5V667H199V619H145L278 350L411 619H357V667H528V619H468ZM411 791Q411 772 398 759T364 745Q344 745 331 758T318 791Q318 810 331 823T364 837Q384 837 397 824T411 791ZM239 791Q239 772 226 759T192 745Q172 745 159 758T146 791Q146 810 159 823T192 837Q212 837 225 824T239 791Z"  />
<glyph unicode="&#x17D;" horiz-adv-x="488" d="M44 0V41L356 620H120V531H56V667H436V626L124 47H379V139H443V0H44ZM282 723H213L129 858H189L249 754L310 858H366L282 723Z"  />
<glyph unicode="&#x17E;" horiz-adv-x="417" d="M41 0V40L293 458H108V393H47V502H369V462L118 44H315V112H375V0H41ZM243 570H174L90 705H150L210 601L271 705H327L243 570Z"  />
<glyph unicode="&#x192;" horiz-adv-x="477" d="M424 605Q419 609 405 615T377 621Q364 621 353 614T331 594T314 565T303 532L268 364H357V319H257L171 -88Q166 -112 156 -137T128 -184T87 -218T28 -231Q7 -231 -11 -225T-36 -216L-8 -169Q-4 -173 9 -178T33 -184Q46 -184 57 -176T77 -154T92 -126T101 -96L190 319H107V364H200L233 525Q239 552 251 577T282 623T326 655T382 667Q407 667 426 661T451 652L424 605Z"  />
<glyph unicode="&#x2C6;" horiz-adv-x="246" d="M181 570L121 674L60 570H4L88 705H157L241 570H181Z"  />
<glyph unicode="&#x2C7;" horiz-adv-x="246" d="M157 570H88L4 705H64L124 601L185 705H241L157 570Z"  />
<glyph unicode="&#x2DA;" horiz-adv-x="246" d="M205 638Q205 603 181 580T123 556Q89 556 65 579T40 638Q40 673 64 696T123 719Q157 719 181 696T205 638ZM176 638Q176 660 160 675T122 691Q98 691 84 676T69 638Q69 616 84 600T122 584Q144 584 160 600T176 638Z"  />
<glyph unicode="&#x2DC;" horiz-adv-x="246" d="M255 693Q254 675 249 656T233 622T210 597T179 587Q162 587 148 594T122 610T97 626T70 633Q53 633 43 617T30 583H-9Q-8 602 -3 621T12 655T35 679T67 689Q83 689 98 682T126 666T152 650T177 643Q195 643 204 660T216 693H255H255Z"  />
<glyph unicode="&#x2013;" horiz-adv-x="500" d="M0 275V333H500V275H0Z"  />
<glyph unicode="&#x2014;" horiz-adv-x="1000" d="M0 275V333H1000V275H0Z"  />
<glyph unicode="&#x2018;" horiz-adv-x="239" d="M100 513H25L115 727H172L100 513Z"  />
<glyph unicode="&#x2019;" horiz-adv-x="239" d="M82 513H25L97 727H172L82 513Z"  />
<glyph unicode="&#x201A;" horiz-adv-x="239" d="M82 -132H25L97 82H172L82 -132Z"  />
<glyph unicode="&#x201C;" horiz-adv-x="383" d="M244 513H169L259 727H316L244 513ZM100 513H25L115 727H172L100 513Z"  />
<glyph unicode="&#x201D;" horiz-adv-x="383" d="M226 513H169L241 727H316L226 513ZM82 513H25L97 727H172L82 513Z"  />
<glyph unicode="&#x201E;" horiz-adv-x="383" d="M226 -132H169L241 82H316L226 -132ZM82 -132H25L97 82H172L82 -132Z"  />
<glyph unicode="&#x2020;" horiz-adv-x="477" d="M269 443V-165H208V443H52V502H208V667H269V502H425V443H269Z"  />
<glyph unicode="&#x2021;" horiz-adv-x="477" d="M269 0V-165H208V0H52V59H208V443H52V502H208V667H269V502H425V443H269V59H425V0H269Z"  />
<glyph unicode="&#x2022;" horiz-adv-x="477" d="M363 304Q363 278 354 256T327 216T288 190T239 180Q213 180 191 189T151 216T125 255T115 304Q115 330 124 352T151 392T190 418T239 428Q265 428 287 419T327 392T353 353T363 304Z"  />
<glyph unicode="&#x2026;" horiz-adv-x="1000" d="M887 40Q887 18 872 3T834 -12Q811 -12 796 3T781 40Q781 62 796 77T835 93Q858 93 872 78T887 40ZM553 40Q553 18 538 3T500 -12Q477 -12 462 3T447 40Q447 62 462 77T501 93Q524 93 538 78T553 40ZM219 40Q219 18 204 3T166 -12Q143 -12 128 3T113 40Q113 62 128 77T167 93Q190 93 204 78T219 40Z"  />
<glyph unicode="&#x2030;" horiz-adv-x="1193" d="M1130 200Q1130 163 1123 125T1099 57T1057 7T993 -12Q954 -12 928 7T885 56T863 125T856 200Q856 228 863 262T887 326T930 375T993 395Q1032 395 1058 376T1100 327T1123 263T1130 200ZM793 200Q793 163 786 125T762 57T719 7T655 -12Q616 -12 590 7T548 56T526 125T519 200Q519 228 526 262T550 326T592 375T655 395Q694 395 720 376T763 327T786 263T793 200ZM308 0H257L545 655H596L308 0ZM336 472Q336 435 329 397T305 329T263 279T199 260Q160 260 134 279T91 328T69 397T62 472Q62 500 69 534T93 598T136 647T199 667Q238 667 264 648T306 599T329 535T336 472ZM1067 200Q1067 221 1064 247T1052 298T1029 338T993 355Q970 355 956 338T934 297T923 246T920 200Q920 170 923 140T935 85T958 45T993 29Q1014 29 1028 45T1051 86T1063 141T1067 200ZM730 200Q730 221 727 247T715 298T692 338T655 355Q632 355 618 338T596 297T585 246T582 200Q582 170 585 140T597 85T620 45T655 29Q676 29 690 45T713 86T726 141T730 200ZM273 472Q273 493 270 519T258 570T235 610T199 627Q176 627 162 610T140 569T129 518T126 472Q126 442 129 412T141 357T164 317T199 301Q220 301 234 317T257 358T269 413T273 472Z"  />
<glyph unicode="&#x2039;" horiz-adv-x="239" d="M138 133L29 304L138 470H193L99 304L193 133H138Z"  />
<glyph unicode="&#x203A;" horiz-adv-x="239" d="M101 133H47L140 304L47 470H101L210 304L101 133Z"  />
<glyph unicode="&#x20AC;" horiz-adv-x="477" d="M399 592Q394 595 384 600T359 609T328 617T297 621Q270 621 250 603T215 557T192 493T178 422H367L351 378H173Q172 368 172 359T171 342Q171 333 172 324T173 306H350L334 262H176Q180 222 188 182T211 109T247 56T297 35Q323 35 348 45T387 67L408 20Q398 12 367 0T297 -12Q251 -12 218 10T161 69T124 157T104 262H29L45 306H100Q100 315 100 324T99 342Q99 351 99 360T100 378H33L48 422H107Q115 467 130 510T169 589T224 645T297 667Q339 667 374 657T420 639L399 592Z"  />
<glyph unicode="&#x2122;" horiz-adv-x="865" d="M697 267V309H733V587L611 267H570L450 586V309H485V267H366V309H405V625H366V667H485L599 353L719 667H833V625H794V309H833V267H697ZM269 575V626H196V309H239V267H91V309H133V626H68V575H15V667H321V575H269Z"  />
<glyph unicode="&#xE300;" horiz-adv-x="246" d="M106 723L21 858H91L159 723H106Z"  />
<glyph unicode="&#xE301;" horiz-adv-x="246" d="M139 723H86L154 858H224L139 723Z"  />
<glyph unicode="&#xE302;" horiz-adv-x="246" d="M181 723L121 827L60 723H4L88 858H157L241 723H181Z"  />
<glyph unicode="&#xE303;" horiz-adv-x="246" d="M157 723H88L4 858H64L124 754L185 858H241L157 723Z"  />
<glyph unicode="&#xE304;" horiz-adv-x="246" d="M255 846Q254 828 249 809T233 775T210 750T179 740Q162 740 148 747T122 763T97 779T70 786Q53 786 43 770T30 736H-9Q-8 755 -3 774T12 808T35 832T67 842Q83 842 98 835T126 819T152 803T177 796Q195 796 204 813T216 846H255H255Z"  />
<glyph unicode="&#xE305;" horiz-adv-x="246" d="M255 791Q255 772 242 759T208 745Q188 745 175 758T162 791Q162 810 175 823T208 837Q228 837 241 824T255 791ZM83 791Q83 772 70 759T36 745Q16 745 3 758T-10 791Q-10 810 3 823T36 837Q56 837 69 824T83 791Z"  />
<glyph unicode="&#xE308;" horiz-adv-x="246" d="M205 791Q205 756 181 733T123 709Q89 709 65 732T40 791Q40 826 64 849T123 872Q157 872 181 849T205 791ZM176 791Q176 813 160 828T122 844Q98 844 84 829T69 791Q69 769 84 753T122 737Q144 737 160 753T176 791Z"  />

</font>
</defs>
</svg>
