<?xml  version="1.0" encoding="UTF-8"?>
<!DOCTYPE svg PUBLIC "-//W3C//DTD SVG 1.0//EN" "http://www.w3.org/TR/2001/REC-SVG-20010904/DTD/svg10.dtd" >
<svg xmlns="http://www.w3.org/2000/svg" >
<metadata>
<version>1.0</version>
<id><![CDATA[Congress W01 Medium]]></id>
<vendor>Monotype Imaging Inc.</vendor>
<credits>
<name>Fonts.com WebFonts</name>
<URL>http://webfonts.fonts.com</URL>
<role>Home of the Web fonts</role>
</credits>
<license>
<URL>http://webfonts.fonts.com/Legal</URL>
</license>
<copyright><![CDATA[Copyright © 1998, 2004, Linotype Library GmbH, www.linotype.com. All rights reserved. This software may not be reproduced, used, displayed, modified, disclosed or transferred without the express written approval of Linotype Library GmbH.]]></copyright>
<trademark></trademark>
<licensee>
<name></name>
</licensee>
</metadata>
<defs >
<font horiz-adv-x="528" id="df124515-0282-4523-a8c2-675036110c70">
<font-face font-family="" panose-1="2 0 6 3 5 0 0 2 0 4" ascent="914" descent="-254" units-per-em="1000" alphabetic="0">
</font-face>
<missing-glyph horiz-adv-x="0" />

<glyph unicode="&#xA;" />
<glyph unicode="&#xD;" horiz-adv-x="250" />
<glyph unicode=" " horiz-adv-x="250" />
<glyph unicode="!" horiz-adv-x="271" d="M144 107Q201 107 201 58Q201 28 181 11T127 -7Q100 -7 85 5T70 42Q70 71 90 89T144 107ZM102 182V226Q102 265 101 305T96 395T87 510T73 662L198 674Q192 590 188 530T181 422T178 332T177 243V193L102 182Z"  />
<glyph unicode="&quot;" horiz-adv-x="313" d="M198 392L186 667H273L262 392H198ZM52 392L40 667H127L116 392H52Z"  />
<glyph unicode="#" horiz-adv-x="563" d="M234 391L217 275H329L345 391H234ZM369 47H297L319 205H208L185 47H114L136 205H43L53 275H146L162 391H69L79 461H172L194 619H266L244 461H355L377 619H449L427 461H519L510 391H417L401 275H493L484 205H391L369 47Z"  />
<glyph unicode="$" horiz-adv-x="563" d="M254 594Q169 579 169 495Q169 420 254 399V594ZM309 75Q351 82 375 110T399 182Q399 262 309 288V75ZM309 666Q318 665 327 665T354 662Q391 657 415 655T460 653H474Q474 639 474 630Q474 621 474 612T475 592T478 563V543V522H408Q406 557 384 574T309 596V385L359 372Q504 336 504 192Q504 107 454 58T309 1V-93H254V1H242L199 5L150 10L109 13L79 14H65V29V60L63 94L61 123Q60 131 60 135Q60 140 60 148Q60 150 60 154Q60 159 61 164H131Q133 139 139 123T160 96T197 80T254 72V302L206 314Q136 332 98 377T59 487Q59 546 88 589T171 652Q188 658 208 661T254 666V763H309V666Z"  />
<glyph unicode="%" horiz-adv-x="851" d="M650 294Q610 294 593 266T575 174Q575 109 592 81T650 53Q690 53 707 81T725 173Q725 238 708 266T650 294ZM650 354Q690 354 724 339T779 298Q796 278 805 244T815 171Q815 136 806 103T779 49Q759 23 724 8T650 -7Q611 -7 576 8T521 49Q504 70 495 103T485 174Q485 210 494 243T521 298Q541 324 576 339T650 354ZM305 -7L225 2L548 674L629 665L305 -7ZM202 607Q162 607 145 579T127 487Q127 422 144 394T202 366Q242 366 259 394T277 486Q277 551 260 579T202 607ZM201 667Q242 667 276 652T331 611Q348 591 357 557T367 485Q367 450 358 417T331 362Q311 336 277 321T202 306Q163 306 128 321T73 362Q56 383 47 416T37 486Q37 523 46 556T73 611Q93 637 128 652T201 667Z"  />
<glyph unicode="&amp;" horiz-adv-x="658" d="M258 310Q240 302 227 297T203 285T185 273T169 260Q131 224 131 169Q131 121 160 91T235 60Q252 60 267 63T300 75T337 97T384 133Q364 159 352 176T329 207Q319 221 310 235T291 263Q283 276 275 287T258 310ZM305 399Q307 399 309 399T317 404T338 418T377 445Q394 456 404 481T415 533Q415 571 391 594T329 617Q289 617 265 597T241 541Q241 514 259 474T305 399ZM631 276Q613 249 580 210T510 133Q523 117 534 105T560 79T594 47T647 0H510L439 80Q330 -13 217 -13Q177 -13 144 0T87 36T50 91T37 163Q37 216 57 258T114 325Q133 338 153 347T212 368Q193 399 181 422T161 465T150 501T147 535Q147 568 160 594T197 640T254 670T327 681Q412 681 458 643T504 534Q504 468 468 423T348 343Q360 324 372 305T398 267L455 189Q462 197 466 202T477 215T491 234T514 266Q526 282 537 297T561 328L631 276Z"  />
<glyph unicode="&apos;" horiz-adv-x="167" d="M52 392L40 667H127L116 392H52Z"  />
<glyph unicode="(" horiz-adv-x="263" d="M240 755Q193 637 170 520T147 288Q147 171 168 60T235 -170L171 -177Q37 43 37 287Q37 531 171 751L240 755Z"  />
<glyph unicode=")" horiz-adv-x="263" d="M23 -177Q69 -59 92 58T116 289Q116 406 95 518T28 747L92 755Q226 534 226 291Q226 47 92 -173L23 -177Z"  />
<glyph unicode="*" horiz-adv-x="527" d="M225 746H306L297 577L456 634L480 557L317 513L421 380L354 333L263 475L168 335L102 383L209 514L47 561L73 638L231 577L225 746Z"  />
<glyph unicode="+" horiz-adv-x="563" d="M196 300Q158 300 129 300Q100 300 61 298Q62 312 62 322T63 340Q63 347 63 357T61 382Q101 380 132 380Q164 380 196 380H242V422Q242 441 242 457Q242 473 242 489Q242 505 242 521T240 558Q254 557 264 557T282 556Q289 556 299 556T324 558Q322 517 322 485Q322 454 322 422V380H368Q400 380 431 380Q463 380 503 382Q502 368 502 358T501 340Q501 333 501 323T503 298Q464 300 435 300Q406 300 368 300H322V258Q322 226 322 194Q322 163 324 122Q310 123 300 123T282 124Q275 124 265 124T240 122Q241 142 241 158T242 190Q242 206 242 222Q242 239 242 258V300H196Z"  />
<glyph unicode="&#x2c;" horiz-adv-x="244" d="M53 -132Q78 -103 94 -73T122 -7L114 -8H106Q81 -8 68 4T54 39Q54 67 73 85T124 103Q156 103 173 85T191 35Q191 -10 165 -63T94 -164L53 -132Z"  />
<glyph unicode="-" horiz-adv-x="236" d="M160 300Q183 300 198 300Q214 300 236 302Q235 288 235 277Q235 267 235 260Q235 253 235 242Q235 232 236 218Q215 220 201 220Q187 220 160 220H76Q50 220 35 220Q21 220 0 218Q1 232 1 242T2 260Q2 267 2 277T0 302Q22 300 37 300Q53 300 76 300H160Z"  />
<glyph unicode="." horiz-adv-x="244" d="M131 105Q188 105 188 56Q188 26 168 9T114 -9Q87 -9 72 3T57 40Q57 69 77 87T131 105Z"  />
<glyph unicode="/" horiz-adv-x="304" d="M66 -177L-9 -173L216 755L291 750L66 -177Z"  />
<glyph unicode="0" horiz-adv-x="563" d="M282 598Q247 598 219 583T177 539Q169 523 163 505T154 462T149 406T147 334Q147 293 148 262T153 206T163 163T177 128Q191 100 219 85T282 69Q317 69 345 84T387 128Q403 159 410 205T417 329Q417 372 416 404T411 461T401 504T387 539Q373 567 345 582T282 598ZM281 680Q417 680 473 590Q487 567 496 542T512 486T521 416T524 328Q524 238 512 180T473 77Q446 33 397 10T282 -13Q216 -13 167 10T91 77Q77 99 68 124T52 180T43 249T40 334Q40 381 43 418T52 487T67 543T91 590Q118 634 167 657T281 680Z"  />
<glyph unicode="1" horiz-adv-x="563" d="M374 670Q371 638 370 608T368 538V0H269V552Q259 542 248 534T220 517T182 499T130 477L101 550Q176 577 233 609T316 670H374Z"  />
<glyph unicode="2" horiz-adv-x="563" d="M501 151Q498 125 496 108T492 76T489 43T485 0H34V78L275 306Q308 338 330 362T365 406T383 444T389 483Q389 535 360 564T279 593Q222 593 185 565T121 471L39 509Q46 530 53 545T68 574T85 598T105 620Q171 680 281 680Q400 680 455 610Q475 584 485 551T496 480Q496 450 488 421T462 363T416 304T349 240L169 86H353Q376 86 390 88T412 96T426 116T437 151H501Z"  />
<glyph unicode="3" horiz-adv-x="563" d="M146 393Q166 392 173 392Q181 392 190 392Q377 392 377 510Q377 551 350 573T274 596Q251 596 231 592T193 579T156 555T118 518L61 582Q111 633 164 656T285 680Q330 680 366 669T429 636T470 584T484 517Q484 464 458 429T368 364Q442 347 475 309T509 201Q509 101 444 44T264 -13Q190 -13 134 9T27 81L84 150Q131 107 170 89T259 71Q328 71 365 102T402 193Q402 251 367 278Q347 295 316 301T228 308Q205 308 188 308T146 306V393Z"  />
<glyph unicode="4" horiz-adv-x="563" d="M338 550Q329 534 324 527T310 507L133 279Q128 272 124 267T110 251H338V550ZM437 172V0H338V172H51L27 252Q61 301 86 336T131 400T170 452T207 499T250 549T304 611Q314 621 320 628T332 642T341 655T352 670H437V251H527V172H437Z"  />
<glyph unicode="5" horiz-adv-x="563" d="M88 321Q92 331 94 340T97 363T100 395T103 445L111 667H463Q464 643 464 628T465 598T467 569T469 529H400Q399 547 397 557T387 574T368 581T334 583H194L192 484Q191 463 189 441T185 396Q218 412 242 418T299 424Q396 424 448 372T501 222Q501 111 436 49T254 -13Q184 -13 132 7T32 75L90 144Q132 106 169 90T252 73Q320 73 357 109T394 213Q394 276 366 310T284 344Q250 344 222 330T159 282L88 321Z"  />
<glyph unicode="6" horiz-adv-x="563" d="M164 313Q162 311 161 302T157 280T154 255T153 233Q153 69 285 69Q350 69 383 108T416 224Q416 293 389 329T309 366Q278 366 245 354T164 313ZM418 647Q372 605 339 573T280 515T237 464T201 415Q239 431 270 437T333 444Q421 444 470 387T519 227Q519 110 458 49T280 -13Q167 -13 108 47T48 221Q48 282 63 337T112 449T199 563T328 686L418 647Z"  />
<glyph unicode="7" horiz-adv-x="563" d="M519 621Q479 520 442 435T367 275T287 128T197 -17L108 22Q123 43 144 77T189 153T240 245T291 345T341 446T386 542Q391 551 395 560T404 580H199Q176 580 161 578T136 569T121 552T113 524H49Q50 549 51 565T52 596T53 626T55 667H483L519 621Z"  />
<glyph unicode="8" horiz-adv-x="563" d="M274 300Q140 262 140 172Q140 123 176 96T277 69Q346 69 383 94T421 166Q421 208 388 238T274 300ZM296 390Q299 390 306 393T322 402T339 412T353 421Q405 458 405 509Q405 550 372 574T281 598Q229 598 197 575T164 515Q164 477 194 449T296 390ZM381 352Q399 343 411 336T434 323T452 311T468 298Q493 275 507 243T521 175Q521 130 501 91T448 29Q417 9 372 -2T272 -13Q162 -13 102 34T41 168Q41 231 75 272T186 344Q153 362 130 380T92 417T71 459T64 509Q64 548 79 579T124 633T195 668T288 680Q388 680 444 636T501 512Q501 459 474 423T381 352Z"  />
<glyph unicode="9" horiz-adv-x="563" d="M400 354Q401 356 403 365T406 387T409 412T410 434Q410 598 278 598Q213 598 180 559T147 443Q147 374 174 338T254 301Q285 301 318 313T400 354ZM145 20Q191 62 224 94T283 152T327 202T363 252Q324 237 293 230T230 223Q142 223 93 280T44 440Q44 556 106 618T284 680Q396 680 455 620T515 446Q515 385 500 330T451 218T364 104T235 -19L145 20Z"  />
<glyph unicode=":" horiz-adv-x="244" d="M131 105Q188 105 188 56Q188 26 168 9T114 -9Q87 -9 72 3T57 40Q57 69 77 87T131 105ZM131 423Q188 423 188 374Q188 344 168 327T114 309Q87 309 72 321T57 358Q57 387 77 405T131 423Z"  />
<glyph unicode=";" horiz-adv-x="244" d="M53 -132Q78 -103 94 -73T122 -7L114 -8H106Q81 -8 68 4T54 39Q54 67 73 85T124 103Q156 103 173 85T191 35Q191 -10 165 -63T94 -164L53 -132ZM127 423Q184 423 184 374Q184 344 164 327T110 309Q83 309 68 321T53 358Q53 387 73 405T127 423Z"  />
<glyph unicode="&lt;" horiz-adv-x="500" d="M459 573L176 391L459 201V68L41 351V358L459 623V573Z"  />
<glyph unicode="=" horiz-adv-x="563" d="M196 217Q158 217 129 217Q100 217 61 215Q62 229 62 239T63 257Q63 264 63 274T61 299Q101 297 132 297Q164 297 196 297H368Q400 297 431 297Q463 297 503 299Q502 285 502 274Q502 264 502 257Q502 250 502 239Q502 229 503 215Q464 217 435 217Q406 217 368 217H196ZM196 383Q158 383 129 383Q100 383 61 381Q62 395 62 405T63 423Q63 430 63 440T61 465Q101 463 132 463Q164 463 196 463H368Q400 463 431 463Q463 463 503 465Q502 451 502 440Q502 430 502 423Q502 416 502 405Q502 395 503 381Q464 383 435 383Q406 383 368 383H196Z"  />
<glyph unicode="&gt;" horiz-adv-x="500" d="M41 118L324 300L41 490V623L459 341V333L41 68V118Z"  />
<glyph unicode="?" horiz-adv-x="430" d="M200 107Q257 107 257 58Q257 28 237 11T184 -7Q127 -7 127 42Q127 71 147 89T200 107ZM124 188Q111 211 111 235Q111 269 149 315L202 376Q246 427 263 456T281 509Q281 523 276 537T262 561T242 578T219 585Q207 585 195 580T169 562T136 528T92 473L27 525Q59 569 85 598T135 646T182 672T232 680Q263 680 292 666T344 629T379 575T393 511Q393 455 324 385L260 320Q234 293 226 281T218 253Q218 244 221 236T235 213L124 188Z"  />
<glyph unicode="@" horiz-adv-x="742" d="M391 467Q350 467 322 421Q315 409 309 392T298 354T291 312T288 273Q288 241 298 223T328 205Q349 205 371 223T413 269T445 329T458 392Q458 426 440 446T391 467ZM564 512Q560 499 557 487T551 460T543 426T532 380L507 263Q505 258 505 251T504 237Q504 200 535 200Q556 200 575 215T610 255T634 314T643 382Q643 436 625 481T572 558T492 609T390 627Q329 627 277 605T186 543T125 449T103 332Q103 273 123 220T180 125Q221 81 273 60T396 39Q453 39 502 50T604 87L622 38Q566 12 513 0T396 -13Q234 -13 135 86Q87 134 61 198T35 333Q35 407 62 470T137 580T250 653T390 680Q458 680 516 658T616 596T683 502T707 383Q707 336 693 294T655 219T599 169T531 150Q493 150 468 171T443 226V231Q412 186 382 166T316 146Q267 146 238 181T209 276Q209 328 222 373T260 451T317 502T389 521Q445 521 483 476L491 512H564Z"  />
<glyph unicode="A" horiz-adv-x="637" d="M342 478Q332 508 329 527T323 573H319Q318 559 317 549T313 530T307 508T296 478L230 296H402L342 478ZM203 225L154 97Q149 83 148 78T146 68Q146 57 153 53T180 47L177 0H0L3 47Q20 48 32 60T57 104L237 567Q240 575 243 582T250 597Q262 626 267 640T274 667H380Q382 658 382 654T387 641Q390 631 393 622T401 604Q405 595 408 586T414 568L583 97Q595 65 604 56T634 47L631 0H445L448 47Q466 48 473 52T481 67Q481 72 480 76T471 99L427 225H203Z"  />
<glyph unicode="B" horiz-adv-x="616" d="M207 139Q207 114 209 100T222 79T254 70T312 68Q363 68 392 75T441 100Q458 115 467 138T476 190Q476 225 464 252T428 294Q417 301 406 305T378 313T341 317T291 318H207V139ZM259 389Q286 389 304 390T337 395T361 403T382 416Q401 430 411 456T422 512Q422 559 395 579T302 599Q270 599 251 597T223 584T210 556T207 505V389H259ZM340 667Q388 667 421 659T477 634Q502 616 516 585T530 518Q530 485 518 455T486 405Q471 391 453 382T399 364Q451 362 481 353T534 325Q558 305 571 271T584 194Q584 149 568 111T523 46Q508 33 492 25T454 11T405 3T342 0H47L50 47H58Q71 47 79 50T92 61T98 85T100 125V542Q100 566 99 581T93 605T80 617T58 620H47L50 667H340Z"  />
<glyph unicode="C" horiz-adv-x="568" d="M545 93Q497 37 443 12T317 -13Q181 -13 112 73T42 328Q42 504 113 592T326 681Q346 681 372 680T436 673Q462 670 482 669T517 665L519 653L521 627L525 597Q527 579 528 569T530 551T531 538T532 523H459Q451 567 425 585T341 603Q244 603 200 536T156 322Q156 191 199 128T331 64Q354 64 373 68T411 81T449 105T491 144L545 93Z"  />
<glyph unicode="D" horiz-adv-x="666" d="M207 169Q207 134 209 115T222 85T252 72T307 69Q370 69 407 86T468 141Q510 213 510 332Q510 408 494 466T447 557Q408 598 318 598Q282 598 260 595T226 581T211 550T207 496V169ZM100 542Q100 566 99 581T93 605T80 617T58 620H47L50 667H345Q386 667 417 663T474 648T519 620T557 578Q589 533 606 468T624 327Q624 240 602 173T538 66Q502 31 450 16T319 0H47L50 47H58Q71 47 79 50T92 61T98 85T100 125V542Z"  />
<glyph unicode="E" horiz-adv-x="560" d="M493 667Q494 658 494 653Q494 648 496 640Q497 631 498 622T501 604Q503 589 504 580T506 563T507 550Q507 545 507 538H435Q432 559 428 571T416 589T391 597T348 599H262Q228 599 218 589T207 546V383H454L451 312H207V136Q207 115 209 102T218 82T237 72T267 69H366Q392 69 409 72T436 83T452 105T460 144H532Q531 130 531 124Q531 118 529 107L524 74Q522 58 521 48T518 29T517 15T515 0H47L50 47H58Q71 47 79 50T92 61T98 85T100 125V542Q100 566 99 581T93 605T80 617T58 620H47L50 667H493Z"  />
<glyph unicode="F" horiz-adv-x="511" d="M207 310V125Q207 101 208 86T214 62T227 50T249 47H273L270 0H47L50 47H58Q71 47 79 50T92 61T98 85T100 125V542Q100 566 99 581T93 605T80 617T58 620H47L50 667H486Q487 658 487 653T489 640Q490 631 491 622T494 604Q496 589 497 580T499 563T500 550Q500 545 500 538H428Q425 557 421 569T409 588T389 597T357 599H270Q250 599 238 597T219 587T210 567T207 533V381H453L450 310H207Z"  />
<glyph unicode="G" horiz-adv-x="644" d="M559 84Q559 70 559 60Q559 51 560 44T561 28T564 9Q539 9 518 8T476 5T430 -1T373 -10Q352 -13 321 -13Q187 -13 115 76T42 330Q42 500 120 590T344 680Q361 680 383 679T447 674L493 670L531 668L550 667L551 654L554 629L558 599Q560 582 561 572T563 555T564 541Q564 535 564 527H492Q487 548 477 562T451 586T412 599T355 603Q240 603 198 527Q156 452 156 324Q156 202 204 130Q228 95 263 79T352 62Q383 62 404 66T437 79T454 105T459 147V204Q459 226 457 238T448 257T426 266T386 269L389 316H612L609 269H595Q584 269 577 266T566 254T561 230T559 191V84Z"  />
<glyph unicode="H" horiz-adv-x="715" d="M207 315V125Q207 77 215 62T249 47H260L257 0H47L50 47H58Q71 47 79 50T92 61T98 85T100 125V542Q100 566 99 581T93 605T80 617T58 620H47L50 667H260L257 620H249Q236 620 228 617T215 606T209 582T207 542V386H508V542Q508 590 500 605T466 620H455L458 667H668L665 620H657Q644 620 636 617T623 606T617 582T615 542V125Q615 101 616 86T622 62T635 50T657 47H668L665 0H455L458 47H466Q491 47 499 62T508 125V315H207Z"  />
<glyph unicode="I" horiz-adv-x="307" d="M100 542Q100 566 99 581T93 605T80 617T58 620H47L50 667H260L257 620H249Q236 620 228 617T215 606T209 582T207 542V125Q207 101 208 86T214 62T227 50T249 47H260L257 0H47L50 47H58Q71 47 79 50T92 61T98 85T100 125V542Z"  />
<glyph unicode="J" horiz-adv-x="293" d="M36 -162Q54 -126 65 -95T82 -30T90 45T93 144V542Q93 566 92 581T86 605T73 617T51 620H36L39 667H253L250 620H242Q229 620 221 617T208 606T202 582T200 542V154Q200 95 194 48T173 -39T135 -114T78 -182L36 -162Z"  />
<glyph unicode="K" horiz-adv-x="605" d="M524 105Q536 87 544 76T559 59T573 51T592 47L588 0H466L273 321L207 245V125Q207 77 215 62T249 47H264L261 0H47L50 47H58Q71 47 79 50T92 61T98 85T100 125V542Q100 566 99 581T93 605T80 617T58 620H47L50 667H266L263 620H249Q236 620 228 617T215 606T209 582T207 542V345L373 528Q393 550 403 562T419 582T425 592T426 599Q426 620 392 620H385L388 667H571L568 620L345 392L524 105Z"  />
<glyph unicode="L" horiz-adv-x="531" d="M516 144Q515 134 515 128T514 116T512 100T508 74Q503 44 502 30T499 0H47L50 47H58Q71 47 79 50T92 61T98 85T100 125V542Q100 566 99 581T93 605T80 617T58 620H47L50 667H268L265 620H249Q236 620 228 617T215 606T209 582T207 542V145Q207 122 209 107T217 84T233 72T259 69H342Q370 69 387 72T416 83T433 106T443 144H516Z"  />
<glyph unicode="M" horiz-adv-x="889" d="M383 0L382 6Q380 21 378 30T374 50T366 75T353 115L232 447Q216 491 206 571H203Q204 549 204 537T205 519Q205 513 205 511Q205 509 205 506Q205 483 204 459T198 411L164 177Q160 146 158 129T154 103T153 90Q153 86 153 82Q153 65 161 57T191 47L187 0H10L13 47L19 48Q31 50 38 52T49 62T57 85T65 127L130 532Q132 549 133 561T135 583Q135 603 129 610T103 620L107 667H260Q267 635 277 600T301 532L395 283Q409 244 416 210T428 133H431Q432 153 434 169T441 203T453 239T471 283L587 555Q596 577 599 586T602 602Q602 620 571 620L574 667H754Q752 659 752 654T751 641Q751 633 751 620T754 596L814 115Q818 91 820 78T827 59T838 50T857 47L854 0H668L672 47Q695 47 703 54T712 79Q712 82 712 92T709 115L680 379Q678 395 677 416T675 459T673 502T672 540L673 583H670Q664 549 659 523T646 471T628 420T604 359L502 127Q491 103 485 86T474 56T468 29T464 0H383Z"  />
<glyph unicode="N" horiz-adv-x="701" d="M523 0L248 435Q199 514 179 574H175Q182 530 184 497T187 426V125Q187 101 189 86T195 62T208 50T229 47H248L245 0H47L50 47H58Q83 47 91 62T100 125V542Q100 590 92 605T58 620H47L50 667H212Q215 659 217 654T223 642T233 626T250 600Q255 595 258 589T267 575L466 252Q480 229 490 213T505 188Q511 177 516 164T533 125H537Q521 199 521 258V542Q521 590 513 605T479 620H459L462 667H661L658 620H650Q624 620 616 605T608 542V85Q608 70 608 60Q608 51 609 42T611 24T615 0H523Z"  />
<glyph unicode="O" horiz-adv-x="666" d="M333 603Q242 603 199 538T156 333Q156 194 199 129T335 64Q424 64 467 129T510 329Q510 472 468 537T333 603ZM332 680Q624 680 624 329Q624 161 550 74T333 -13Q189 -13 116 74T42 334Q42 505 115 592T332 680Z"  />
<glyph unicode="P" horiz-adv-x="574" d="M291 349Q339 349 366 356T411 380Q427 394 435 418T444 472Q444 504 434 531T407 575Q392 589 372 594T314 599Q276 599 255 598T223 590T210 570T207 532V349H291ZM207 125Q207 77 215 62T249 47H270L267 0H47L50 47H58Q71 47 79 50T92 61T98 85T100 125V542Q100 566 99 581T93 605T80 617T58 620H47L50 667H366Q420 667 455 655T513 614Q534 589 545 554T556 476Q556 278 313 278H207V125Z"  />
<glyph unicode="Q" horiz-adv-x="666" d="M333 603Q242 603 199 538T156 333Q156 194 199 129T335 64Q424 64 467 129T510 329Q510 472 468 537T333 603ZM264 -7Q42 34 42 334Q42 505 115 592T333 680Q477 680 550 593T624 334Q624 37 405 -6Q452 -16 507 -38T612 -90L527 -139L264 -7Z"  />
<glyph unicode="R" horiz-adv-x="629" d="M255 364Q307 364 336 370T388 393Q434 427 434 496Q434 553 407 576T312 599Q278 599 258 597T226 586T211 562T207 521V364H255ZM207 125Q207 101 208 86T214 62T227 50T249 47H262L259 0H47L50 47H58Q71 47 79 50T92 61T98 85T100 125V542Q100 566 99 581T93 605T80 617T58 620H47L50 667H363Q418 667 453 655T509 615Q526 593 536 562T546 496Q546 372 432 321L531 127Q546 99 556 83T574 59T590 49T611 47L608 0H477Q478 6 476 13T469 33T454 63T428 111L411 141L329 297Q310 294 296 293T260 292H207V125Z"  />
<glyph unicode="S" horiz-adv-x="511" d="M381 530Q379 553 373 565T353 587Q337 597 313 602T262 608Q204 608 174 581T143 502Q143 424 228 402L333 374Q407 354 442 309T477 186Q477 92 419 40T256 -13Q244 -13 234 -13T210 -11T176 -8T124 -3L82 0L53 1L39 2V17V49L37 85L35 114Q34 122 34 127Q34 133 34 141Q34 143 34 147Q34 152 35 157H105Q107 130 115 112T139 83T181 67T245 62Q281 62 305 70T345 97Q372 129 372 176Q372 262 278 288L180 313Q110 332 72 379T33 493Q33 538 50 576T97 638Q151 680 252 680Q270 680 286 679T327 675Q368 670 390 668T433 666H448Q448 653 448 644Q448 636 448 629Q448 623 448 617T450 600Q452 578 452 569Q452 561 452 552Q452 546 452 542Q452 538 451 530H381Z"  />
<glyph unicode="T" horiz-adv-x="521" d="M436 534Q437 543 437 548Q437 554 437 558Q437 571 434 579T422 591T397 597T356 599H314V125Q314 101 316 86T322 62T335 50T356 47H367L364 0H154L157 47H165Q178 47 186 50T199 61T205 85T207 125V599H161Q135 599 121 598T98 590T87 570T80 534H10Q11 547 12 565T15 602T17 638T18 667H511Q509 626 508 593T506 534H436Z"  />
<glyph unicode="U" horiz-adv-x="685" d="M595 209Q595 89 529 37Q498 13 450 0T343 -13Q285 -13 238 0T158 37Q90 90 90 209V542Q90 566 89 581T83 605T70 617T48 620H37L40 667H250L247 620H239Q226 620 218 617T205 606T199 582T197 542V228Q197 183 205 152T230 102T275 73T343 64Q423 64 456 101T490 228V542Q490 566 489 581T483 605T470 617T448 620H437L440 667H648L645 620H637Q624 620 616 617T604 605T597 581T595 542V209Z"  />
<glyph unicode="V" horiz-adv-x="595" d="M251 -6Q249 8 247 18T242 40T233 64T220 97L49 557Q41 578 36 590T26 608T14 617T-3 620L0 667H201L197 620Q170 619 162 614T154 592Q154 584 156 576T163 553Q165 546 167 541T171 530L258 285Q266 261 272 241T282 201T291 158T298 109H304Q309 157 318 196T343 273L423 475Q438 514 447 547T457 595Q457 609 450 615T424 620L427 667H612L609 620Q598 618 591 615T577 603T563 578T543 534L380 119Q371 95 366 81T357 55T351 31T345 -2L251 -6Z"  />
<glyph unicode="W" horiz-adv-x="908" d="M512 667Q513 655 514 645T518 622T525 591T538 542L621 279Q629 249 634 229T643 195T648 169T652 144H655Q655 156 659 183T672 242L744 508Q752 537 756 560T761 594Q761 607 754 612T727 620L730 667H905L901 620Q889 618 881 615T867 603T856 581T842 542L715 108Q710 90 707 77T701 51T698 27T697 -2L605 -6Q600 25 589 64T559 156Q554 170 550 183T540 210L488 369Q471 425 463 465T453 542H450Q448 521 446 505T438 467T425 416T402 338L353 182Q342 152 332 119L311 59Q306 46 304 38T300 24T297 12T294 -2L208 -6Q207 3 206 12T201 33T194 64T182 108L78 475Q76 483 73 497T65 526T58 555T53 579Q48 605 42 612T17 620L20 667H211L208 620L200 619Q180 617 172 609T164 581Q164 563 171 534L236 267Q247 219 252 188T258 132H262Q263 145 265 157T271 188T284 236T305 310L388 576Q394 595 397 607T403 628T406 645T408 667H512Z"  />
<glyph unicode="X" horiz-adv-x="613" d="M535 103Q547 85 556 74T573 57T589 49T610 47L606 0H392L396 47Q432 47 432 66Q432 73 429 80T417 100Q414 105 412 108T406 116Q404 121 404 120Q404 120 401 124L301 286L213 163Q161 90 161 68Q161 59 168 54T193 47L189 0H3L6 44L250 343L86 579Q77 591 71 598T59 610T46 616T26 620L30 667H256L253 620Q228 620 219 616T209 597Q209 589 215 576T240 534L319 409L392 516Q435 579 435 598Q435 617 399 620L402 667H584L581 623L369 354L535 103Z"  />
<glyph unicode="Y" horiz-adv-x="530" d="M320 125Q320 101 321 86T327 62T340 50T362 47H373L370 0H156L159 47H171Q184 47 192 50T205 61T211 85T213 125V259Q208 269 203 280T187 309T162 352T125 416Q110 441 98 462T75 504T53 547T29 598Q23 610 16 614T-5 620L-1 667H190L186 620Q162 618 155 614T147 596Q147 585 163 556L246 392Q253 378 257 368T264 350T268 335T269 318H272Q273 328 275 336T280 355T288 378T303 409L370 545Q381 568 385 578T389 594Q389 608 380 613T347 620L351 667H535L532 620Q520 619 514 616T500 605Q498 604 496 599T482 574L467 545L320 269V125Z"  />
<glyph unicode="Z" horiz-adv-x="545" d="M524 145Q523 131 523 125Q523 120 521 109L516 76Q514 58 513 47T510 28T509 14T508 0H20L23 47L370 598H209Q182 598 166 596T139 589T124 573T114 545L112 538H42Q42 547 42 554T44 570T48 594T55 634Q57 645 57 651T59 667H512V628L163 71H338Q371 71 392 74T426 85T445 107T455 145H524Z"  />
<glyph unicode="[" horiz-adv-x="263" d="M232 695H172V-117H232V-169H66Q67 -100 68 -55T70 28T71 102Q71 138 71 187V391Q71 440 71 476Q71 512 70 549T68 632T66 747H232V695Z"  />
<glyph unicode="\" horiz-adv-x="304" d="M88 755L313 -173L238 -177L13 750L88 755Z"  />
<glyph unicode="]" horiz-adv-x="263" d="M30 -117H90V695H30V747H196Q194 704 194 665T192 583T191 494Q191 448 191 391V187Q191 130 191 83Q191 36 192 -5T193 -86T196 -169H30V-117Z"  />
<glyph unicode="^" horiz-adv-x="500" d="M478 282L296 565L106 282H-27L255 700H263L528 282H478Z"  />
<glyph unicode="_" horiz-adv-x="500" d="M484 -90V-148H16V-90H484Z"  />
<glyph unicode="`" horiz-adv-x="500" d="M240 725Q259 694 270 675T291 641T311 611T338 573H255Q219 606 193 630T146 672T111 702T83 725H240Z"  />
<glyph unicode="a" horiz-adv-x="516" d="M230 257Q184 257 158 229T132 150Q132 108 149 84T199 60Q231 60 263 84T316 149Q328 173 333 197T340 257H230ZM70 483Q124 503 165 511T251 520Q343 520 392 480Q405 470 413 460T427 435T434 403T436 360V125Q436 101 438 86T444 62T457 50T478 47H489L486 0L360 -4Q352 18 350 32T347 72Q347 80 347 89Q347 99 349 115Q335 81 324 64T295 30Q272 9 242 -2T178 -13Q109 -13 69 30T29 149Q29 189 42 223T78 280Q101 302 132 312T209 323H340V354Q340 405 318 426T242 447Q197 447 156 438T66 408L70 483Z"  />
<glyph unicode="b" horiz-adv-x="574" d="M177 179Q177 153 183 135T204 100Q221 81 246 71T299 60Q362 60 396 117T430 283Q430 443 347 443Q317 443 286 422T228 365Q222 357 217 350T207 333T194 312T177 283V179ZM177 393Q199 424 213 441T245 472Q302 520 366 520Q406 520 442 500T499 444Q518 412 527 372T536 277Q536 211 520 157T474 66T402 8T308 -13Q285 -13 266 -10T228 2T192 24T152 58Q145 43 134 26T113 0H52Q59 23 63 46T71 94T75 148T77 213V611Q77 648 76 663T71 685Q67 693 57 697T35 702H24L27 747L136 755H181Q180 746 180 731T179 697T178 660T177 624V393Z"  />
<glyph unicode="c" horiz-adv-x="477" d="M460 81Q415 31 368 9T257 -13Q152 -13 95 56T37 252Q37 520 277 520Q284 520 289 520Q294 520 301 520T321 518T355 515Q369 514 388 514T424 513Q425 504 425 499T427 486Q429 477 429 469T432 452Q434 438 435 429T437 414T438 402T439 391L375 389Q367 421 347 434T285 447Q210 447 177 403T143 258Q143 60 272 60Q291 60 307 64T340 76T374 99T412 134L460 81Z"  />
<glyph unicode="d" horiz-adv-x="583" d="M402 308Q402 349 396 371T374 410Q357 427 333 437T282 447Q215 447 179 394T143 240Q143 150 164 110T234 70Q256 70 276 79T317 107T358 158T402 234V308ZM405 125Q385 93 372 76T343 42Q317 16 283 2T213 -13Q129 -13 83 51T37 231Q37 298 53 351T98 442T170 500T267 520Q310 520 340 507T402 459V611Q402 647 401 662T396 685Q392 693 382 697T360 702H349L352 747L459 755H506Q505 746 505 731T504 698T503 661T502 624V125Q502 101 504 86T510 62T523 50T544 47H555L552 0L417 -4Q405 29 405 66V125Z"  />
<glyph unicode="e" horiz-adv-x="508" d="M363 331Q363 461 264 461Q162 461 147 313H363V331ZM145 247Q146 148 175 104T267 60Q309 60 343 79T413 144L471 99Q427 41 375 14T252 -13Q37 -13 37 238Q37 375 96 447T265 520Q365 520 417 463T469 294Q469 286 469 273Q469 261 468 247H145Z"  />
<glyph unicode="f" horiz-adv-x="324" d="M190 450V125Q190 77 198 62T232 47H253L250 0H31L34 47H48Q61 47 69 50T82 61T88 85T90 125V450H16L19 507H90V568Q90 616 109 659T162 731Q191 757 278 757Q296 757 307 757T330 755L322 680Q302 682 288 683T262 685Q239 685 225 680T203 661T193 620T190 552V507H314L311 450H190Z"  />
<glyph unicode="g" horiz-adv-x="527" d="M254 449Q194 449 161 419T128 333Q128 277 161 247T254 216Q314 216 347 246T380 331Q380 388 348 418T254 449ZM508 456L446 436Q466 408 474 386T482 332Q482 278 455 237T376 170Q350 159 321 154T249 148L225 128Q211 117 204 106T196 86Q196 58 252 56L315 55Q366 53 396 44T448 14Q465 -3 474 -29T483 -84Q483 -123 466 -154T418 -208T341 -242T241 -254Q190 -254 149 -244T79 -216T34 -173T18 -115Q18 -83 33 -59T83 -12L129 -47Q118 -61 113 -72T108 -98Q108 -135 147 -158T250 -181Q318 -181 354 -159T391 -94Q391 -25 288 -23L210 -21Q190 -21 174 -14T135 11Q113 28 105 40T97 69Q97 89 104 102T131 129L174 159Q28 195 28 328Q28 371 44 406T89 467T159 506T250 520Q288 520 320 513T384 492Q407 495 422 497T450 500T477 504T515 509L508 456Z"  />
<glyph unicode="h" horiz-adv-x="584" d="M180 125Q180 101 181 86T187 62T200 50T222 47H233L230 0H27L30 47H38Q51 47 59 50T72 61T78 85T80 125V611Q80 634 80 647T79 667T77 677T74 685Q70 693 60 697T38 702H27L30 747L139 755H184Q183 746 183 732T182 699T181 662T180 624V359Q193 378 202 391T218 415T232 433T247 451Q306 520 388 520Q505 520 505 395V125Q505 101 507 86T513 62T526 50T547 47H558L555 0H352L355 47H363Q376 47 384 50T397 61T403 85T405 125V360Q405 404 395 422T361 440Q323 440 276 389T180 243V125Z"  />
<glyph unicode="i" horiz-adv-x="277" d="M144 702Q208 702 208 652Q208 620 187 603T129 585Q69 585 69 633Q69 663 90 682T144 702ZM194 512Q192 499 191 490T190 465V125Q190 101 191 86T197 62T210 50T232 47H243L240 0H33L36 47H48Q61 47 69 50T82 61T88 85T90 125V368Q90 405 89 420T84 443Q76 458 48 460H33L36 504L140 512H194Z"  />
<glyph unicode="j" horiz-adv-x="247" d="M131 702Q195 702 195 652Q195 620 174 603T116 585Q56 585 56 633Q56 663 77 682T131 702ZM26 -221Q43 -201 53 -183T70 -140T78 -82T80 3V368Q80 405 79 420T74 443Q66 458 38 460H21L24 504L131 512H184Q182 499 181 489T180 465V-20Q180 -194 56 -254L26 -221Z"  />
<glyph unicode="k" horiz-adv-x="539" d="M447 116L480 78Q488 69 494 64T506 55T519 50T536 47L534 0H414Q411 7 407 14T391 35T358 73T299 140Q282 160 269 175T243 203T218 228T190 256V267L201 279L264 344Q288 369 304 386T329 414T341 431T345 442Q345 453 338 456T310 460L313 507H516L512 460Q500 459 492 457T477 451T461 440T439 419L302 281L447 116ZM30 747L138 755H184Q183 746 183 731T182 697T181 660T180 623V125Q180 77 188 62T222 47H233L230 0H27L30 47H38Q51 47 59 50T72 61T78 85T80 125V610Q80 648 79 663T74 685Q70 693 60 697T38 702H27L30 747Z"  />
<glyph unicode="l" horiz-adv-x="260" d="M30 747L138 755H184Q183 746 183 731T182 697T181 660T180 623V125Q180 77 188 62T222 47H233L230 0H27L30 47H38Q51 47 59 50T72 61T78 85T80 125V610Q80 648 79 663T74 685Q70 693 60 697T38 702H27L30 747Z"  />
<glyph unicode="m" horiz-adv-x="892" d="M190 125Q190 101 191 86T197 62T210 50T232 47H243L240 0H37L40 47H48Q61 47 69 50T82 61T88 85T90 125V368Q90 398 89 416T84 443T71 456T48 460H37L40 504L141 512H194Q192 499 191 490T190 465V377Q228 452 274 486T384 520Q455 520 480 472Q484 465 486 459T489 443T491 422T492 391V377Q507 407 516 423T540 455Q565 486 601 503T680 520Q710 520 736 511T780 485Q798 468 805 444T812 377V125Q812 101 813 86T819 62T832 50T854 47H865L862 0H659L662 47H670Q683 47 691 50T704 61T710 85T712 125V358Q712 375 712 385T710 403T707 414T701 423Q689 440 661 440Q619 440 580 399T498 268V125Q498 101 499 86T505 62T518 50T540 47H551L548 0H345L348 47H356Q369 47 377 50T390 61T396 85T398 125V350Q398 368 398 379Q398 390 397 396T395 406T393 415Q389 426 378 433T354 440Q318 440 278 396T190 258V125Z"  />
<glyph unicode="n" horiz-adv-x="595" d="M190 125Q190 101 191 86T197 62T210 50T232 47H243L240 0H37L40 47H48Q61 47 69 50T82 61T88 85T90 125V368Q90 398 89 416T84 443T71 456T48 460H37L40 504L141 512H194Q192 499 191 490T190 465V354Q209 385 222 404T244 437T262 459T281 477Q308 500 334 510T393 520Q457 520 492 477Q506 459 511 438T516 377V125Q516 101 517 86T523 62T536 50T558 47H569L566 0H363L366 47H374Q399 47 407 62T416 125V342Q416 361 416 373T415 394T412 408T407 419Q397 440 368 440Q290 440 190 240V125Z"  />
<glyph unicode="o" horiz-adv-x="551" d="M279 447Q241 447 212 431T167 386Q153 361 147 328T140 245Q140 195 148 163T173 108Q190 85 217 73T277 60Q411 60 411 254Q411 354 380 400T279 447ZM280 520Q514 520 514 260Q514 212 505 168T477 89Q423 -13 272 -13Q37 -13 37 250Q37 520 280 520Z"  />
<glyph unicode="p" horiz-adv-x="590" d="M187 195Q187 131 220 96T313 60Q447 60 447 281Q447 358 425 397T361 437Q332 437 300 417T244 363Q238 354 233 345T221 326T206 301T187 265V195ZM187 -90Q187 -122 187 -140T189 -169T194 -185T204 -194Q212 -199 224 -201T257 -205L254 -252Q230 -251 213 -251Q197 -251 182 -251Q162 -251 137 -251T72 -254Q80 -212 83 -175T87 -84V368Q87 405 86 420T81 443Q73 458 45 460H28L31 504L137 512H191Q189 499 188 490T187 465V388Q229 459 273 489T380 520Q425 520 459 503T513 452Q533 418 543 373T553 275Q553 214 539 160T499 67Q473 29 430 8T332 -13Q284 -13 252 0T187 49V-90Z"  />
<glyph unicode="q" horiz-adv-x="564" d="M397 307Q397 377 369 409Q355 426 330 436T277 447Q211 447 177 392T143 228Q143 70 228 70Q250 70 274 81T320 113Q323 116 325 119T334 132T352 161T386 215Q389 219 391 223T397 232V307ZM513 517Q508 492 505 469T501 419T498 359T497 280V-90Q497 -122 497 -140T499 -169T504 -185T513 -194Q521 -199 533 -202T565 -205L562 -252Q538 -251 521 -251Q504 -251 491 -251Q468 -251 445 -251T382 -254Q390 -213 393 -175T397 -84V125Q357 54 312 21T210 -13Q128 -13 83 48T37 219Q37 364 96 442T265 520Q317 520 354 502T420 443Q432 487 456 517H513Z"  />
<glyph unicode="r" horiz-adv-x="405" d="M381 422Q362 424 352 425T332 426Q303 426 277 401T220 319Q211 302 205 288T196 261T192 233T190 201V125Q190 101 191 86T197 62T210 50T232 47H260L257 0H37L40 47H48Q61 47 69 50T82 61T88 85T90 125V368Q90 399 89 417T84 444T72 456T51 460H40L43 504L144 512H193Q192 481 190 440T183 347Q201 401 219 434T263 494Q277 509 292 514T334 520Q351 520 363 519T394 512L381 422Z"  />
<glyph unicode="s" horiz-adv-x="435" d="M324 379Q323 399 320 410T308 429Q297 442 273 449T220 456Q179 456 157 437T135 382Q135 355 153 339T211 312L288 294Q343 280 373 243T403 150Q403 73 354 30T218 -13Q209 -13 196 -12T168 -10T138 -7T110 -3Q95 0 77 2T39 8Q38 20 37 43T32 98Q31 107 31 113Q31 120 31 124Q31 127 31 131Q31 136 32 142L99 143Q100 118 103 104T115 79Q126 67 151 59T205 51Q250 51 275 74T301 136Q301 200 230 217L158 233Q34 263 34 369Q34 442 80 481T215 520Q227 520 237 520T259 518T286 515T324 510Q338 508 351 507T382 505Q383 495 384 474T389 420L390 396V379H324Z"  />
<glyph unicode="t" horiz-adv-x="351" d="M179 450V194Q179 166 179 148T181 117T185 98T191 85Q203 65 230 65Q240 65 248 67T264 74T284 88T311 113L353 72Q289 -7 199 -7Q141 -7 109 22Q92 37 86 60T79 121L81 450H15L19 507H83L89 630L181 650L179 507H334L329 450H179Z"  />
<glyph unicode="u" horiz-adv-x="591" d="M405 368Q405 399 404 416T399 443T387 455T363 460H344L347 504L454 512H509Q507 499 506 490T505 465V125Q505 101 507 86T513 62T526 50T547 47H558L555 0L411 -4Q407 22 406 37T405 71V154Q390 127 380 109T360 78T342 55T323 36Q267 -13 199 -13Q135 -13 104 30Q90 48 85 70T80 131V368Q80 398 79 416T74 443T61 456T38 460H27L30 504L131 512H184Q182 499 181 490T180 465V140Q180 116 181 105T187 86Q192 77 202 72T224 67Q278 67 335 144Q340 151 345 159T359 180T378 211T405 256V368Z"  />
<glyph unicode="v" horiz-adv-x="497" d="M196 -10Q193 10 187 29T166 90L42 406Q36 423 32 433T22 448T10 456T-8 460L-5 507H185L182 460Q142 460 142 439Q142 434 145 421T152 390T162 356T172 327L228 182Q233 166 237 154T243 130T247 106T250 80H254Q256 107 260 125T276 170L338 319Q343 332 349 350T359 385T367 416T370 436Q370 457 335 460L338 507H514L511 460Q491 460 484 455Q477 451 470 434L455 403L321 90Q305 52 298 31T286 -6L196 -10Z"  />
<glyph unicode="w" horiz-adv-x="791" d="M444 507Q446 487 452 463T469 404L542 181Q554 149 559 125T566 75H569Q570 99 573 119T587 174L638 369Q643 388 646 405T650 431Q650 445 644 450T617 460L620 507H792L788 460Q762 457 754 446Q749 442 741 422T717 354L633 83Q624 54 620 38T614 1L510 -3Q508 14 505 23T495 52L483 84L422 260Q417 273 414 284T408 307T402 335T395 374H392Q389 357 387 346T381 323T374 300T362 269L290 77L278 47Q270 27 268 20T263 1L163 -3L162 17Q161 26 151 60L140 101L62 372Q58 379 54 405Q50 422 47 432T38 449T26 457T7 460L10 507H202L199 460H193Q151 460 151 431Q151 418 163 369L206 189Q210 170 213 157T217 133T220 109T222 78H225Q226 94 227 105T232 127T240 153T253 189L327 392Q341 430 348 456T358 505L444 507Z"  />
<glyph unicode="x" horiz-adv-x="502" d="M417 118Q429 103 436 95T447 80T455 70T463 60Q471 54 477 52T498 47L494 0H301L304 41Q320 43 325 46T331 57Q331 65 314 93Q310 98 307 104T299 116L246 199L194 131Q155 80 155 63Q155 45 183 41L180 0H0L3 47Q16 49 23 50T37 56T50 69T70 94L194 254L102 376Q88 393 79 409Q68 424 61 434T47 449T34 457T21 460L24 507H217L214 466Q196 466 190 462T183 448Q183 439 192 426Q195 420 198 415T206 404L261 314L318 399Q326 411 330 418T337 430T340 437T341 444Q341 464 311 466L314 507H494L491 460Q480 458 473 456T458 447T441 431T417 402L312 261L417 118Z"  />
<glyph unicode="y" horiz-adv-x="521" d="M520 460Q504 458 497 456T484 446Q479 441 474 430T465 407L422 286Q408 245 399 219T380 169T361 122T336 62Q301 -21 278 -74T240 -162T213 -217T191 -254H75Q103 -216 136 -160T215 -16Q161 84 118 195T45 428Q39 448 31 454T0 460L3 507H190L187 460Q164 458 156 453T147 434Q147 420 152 398T171 343L265 90L337 305Q343 323 349 343T359 381T367 413T370 432Q370 447 362 453T332 460L335 507H523L520 460Z"  />
<glyph unicode="z" horiz-adv-x="469" d="M451 465Q441 454 433 445T418 427Q408 413 399 401T381 377L151 70H281Q308 70 325 73T354 83T371 105T381 141H442Q441 136 441 133T440 126T438 119T436 107Q434 93 433 85T428 60Q426 50 425 41T422 24L418 -1L416 -11Q393 -4 378 -2T338 0H122Q108 0 98 0Q89 0 81 0T65 -1T45 -3L18 48Q33 65 42 76T66 111Q73 122 80 131T94 151L311 437H191Q168 437 154 436T132 429T118 413T108 385H45Q52 424 60 475Q62 486 63 492T66 510Q79 509 88 509T107 508T128 507Q140 507 158 507H344Q359 507 369 507Q379 507 386 507T401 508T420 510L451 465Z"  />
<glyph unicode="{" horiz-adv-x="500" d="M104 310Q155 313 174 331T193 395Q193 402 193 414Q193 427 192 438L191 508Q191 549 193 578T202 629T219 663T244 686Q253 692 261 695T284 700T321 703T382 704H401V680Q352 680 328 669T291 631Q284 614 281 596T279 554V459Q281 418 278 391T265 346T237 318T190 302V299Q251 288 271 239Q274 231 275 225T278 203T279 160Q279 132 279 83L278 48Q278 18 278 -1T281 -34T288 -56T299 -74Q313 -94 334 -101T401 -109V-132Q360 -131 337 -131T300 -129T279 -127T262 -122Q224 -110 207 -77T189 16Q189 23 189 34Q189 45 189 66T191 121T193 209Q192 252 172 270T104 290V310Z"  />
<glyph unicode="|" horiz-adv-x="500" d="M288 667V-167H212V667H288Z"  />
<glyph unicode="}" horiz-adv-x="500" d="M396 290Q346 288 327 271T307 211Q307 209 307 205Q307 202 307 189T308 147T310 69Q311 53 311 38Q311 24 311 15Q311 -49 290 -83T224 -126Q216 -128 210 -128T191 -130T157 -131T99 -132V-109Q155 -109 181 -93T216 -37Q220 -21 220 -11T221 20L222 184Q219 284 310 299V302Q245 313 227 364Q223 378 222 387T221 419V570Q218 632 192 656T99 680V704H118L159 703Q185 703 204 701T236 695T260 684T278 666Q295 644 302 610T309 510L308 445Q307 433 307 420Q307 408 307 394Q307 349 326 331T396 310V290Z"  />
<glyph unicode="~" horiz-adv-x="667" d="M537 722Q512 674 476 647T402 619Q395 619 389 620T373 623T350 630T318 641Q300 647 288 651T266 657T249 660T232 661Q209 661 194 653T157 618Q151 612 148 608L130 620Q189 724 265 724Q280 724 298 720T351 703Q381 692 398 688T430 684Q479 684 519 734L537 722Z"  />
<glyph unicode="&#xA0;" horiz-adv-x="250" />
<glyph unicode="&#xA1;" horiz-adv-x="271" d="M144 520Q171 520 186 507T201 471Q201 442 181 424T127 406Q70 406 70 455Q70 485 90 502T144 520ZM169 331Q169 280 170 234T174 135T183 14T198 -148L73 -160Q79 -79 83 -20T90 89T93 181T94 271Q94 279 94 291Q94 303 93 321L169 331Z"  />
<glyph unicode="&#xA2;" horiz-adv-x="563" d="M280 536Q229 523 206 480T182 351Q182 263 205 217T280 157V536ZM348 612L394 609Q408 607 428 607T463 606Q465 597 465 592Q465 588 466 580Q468 571 469 563T471 545Q473 531 474 523T476 508T477 496T478 484L414 482Q408 511 391 524T335 540V155Q368 161 393 176T451 227L499 174Q464 134 425 112T335 83V-18H280V80Q182 86 129 155T76 345Q76 591 280 612V712H335V613L348 612Z"  />
<glyph unicode="&#xA3;" horiz-adv-x="563" d="M252 269Q254 251 255 241T256 222Q256 176 242 145T192 84L195 80Q228 91 246 94T289 98Q305 98 320 97T368 90Q391 86 404 85T435 84Q459 84 479 86T525 96L516 3Q484 -5 459 -9T408 -13Q398 -13 391 -13Q385 -13 376 -12T352 -8T309 0Q258 9 220 9Q188 9 161 5T96 -13L70 55Q94 68 110 83T136 116T150 158T155 213Q155 230 154 241T151 269H56L59 348H136L115 417Q109 439 106 460T102 499Q102 540 117 573T159 630T225 667T311 680Q396 680 448 638T530 505L446 467Q426 536 394 567T308 598Q261 598 234 573T206 506Q206 499 206 494T208 483T211 467T217 441L240 348H431L428 269H252Z"  />
<glyph unicode="&#xA4;" horiz-adv-x="667" d="M332 498Q300 498 272 486T223 452T190 403T177 343Q177 311 189 283T222 233T271 200T332 187Q364 187 392 199T441 232T474 280T487 340Q487 373 475 402T442 452T393 486T332 498ZM143 192Q129 214 120 232T104 268T96 301T93 337Q93 375 104 411T141 493L47 587L86 627L181 532Q251 581 332 581Q351 581 368 579T402 570T439 555T482 531L580 628L619 588L521 490Q534 467 543 448T558 412T565 378T568 342Q568 322 566 306T558 272T543 237T520 195L618 98L578 59L482 154Q438 126 405 115T332 104Q293 104 260 115T183 153L88 58L49 98L143 192Z"  />
<glyph unicode="&#xA5;" horiz-adv-x="600" d="M355 268V125Q355 101 356 86T362 62T375 50T397 47H408L405 0H191L194 47H206Q219 47 227 50T240 61T246 85T248 125V258Q243 271 239 278L230 295H86L89 374H184Q160 413 144 441T115 494T91 542T64 597Q58 610 51 614T30 620L34 667H225L221 620Q197 618 190 614T182 596Q182 586 198 555L281 392Q283 390 284 386T290 374H322L324 377L327 385Q330 390 332 396T338 408L405 545Q416 568 420 578T424 594Q424 607 415 612T382 620L386 667H570L567 620Q555 619 549 616T535 605Q533 604 531 599T517 574L502 545L411 374H508L505 295H370L355 268Z"  />
<glyph unicode="&#xA6;" horiz-adv-x="500" d="M288 153V-167H212V153H288ZM288 667V323H212V667H288Z"  />
<glyph unicode="&#xA7;" horiz-adv-x="563" d="M254 368Q208 368 181 344T154 278Q154 234 191 212Q217 196 252 187T321 178Q369 178 398 203T427 269Q427 302 406 322T335 356Q315 361 292 364T254 368ZM435 549Q433 574 427 587T406 609Q386 620 357 626T296 632Q171 632 171 545Q171 507 196 487T285 453Q325 445 351 440T395 429T425 418T448 407Q480 388 499 354T518 279Q518 250 506 221T473 171Q459 158 445 150T403 132Q453 107 475 75T498 -5Q498 -47 480 -82T429 -139Q398 -159 361 -168T270 -178Q256 -178 246 -178T222 -176T191 -173T141 -166Q130 -165 122 -164T103 -162T80 -160T48 -158V-97Q48 -86 48 -62T46 -8H107Q109 -34 114 -47T132 -71Q141 -78 155 -84T188 -94T227 -101T269 -104Q334 -104 368 -80T403 -9Q403 18 390 39T353 71Q346 74 340 76T324 82T295 88T245 98Q150 116 105 158T60 269Q60 298 70 325T101 372Q114 385 129 393T172 410Q122 436 101 466T80 545Q80 585 100 620T154 674Q209 703 291 703Q306 703 321 702T354 699T394 694T446 685Q453 683 465 682T496 678V623Q496 613 496 593T498 549H435Z"  />
<glyph unicode="&#xA8;" horiz-adv-x="500" d="M377 707Q441 707 441 657Q441 625 420 608T362 590Q302 590 302 638Q302 668 323 687T377 707ZM134 707Q198 707 198 657Q198 625 177 608T119 590Q59 590 59 638Q59 668 80 687T134 707Z"  />
<glyph unicode="&#xA9;" horiz-adv-x="804" d="M402 643Q337 643 281 619T182 553T116 455T92 334Q92 271 116 215T182 116T279 49T398 24Q464 24 521 48T620 114T686 212T711 334Q711 398 687 454T620 553T522 619T402 643ZM402 680Q474 680 537 653T647 579T721 469T748 334Q748 261 721 198T646 88T535 14T397 -13Q327 -13 265 14T156 89T82 199T55 334Q55 406 82 469T156 579T267 653T402 680ZM549 405H532Q518 448 489 471T420 495Q368 495 338 451T307 331Q307 256 337 216T423 175Q498 175 554 261V220Q497 146 407 146Q366 146 332 159T272 197T233 254T219 327Q219 369 233 404T272 466T331 506T406 521Q427 521 445 517T488 504Q496 500 500 499T510 498Q517 498 520 501T529 516L531 522L549 524V405Z"  />
<glyph unicode="&#xAA;" horiz-adv-x="327" d="M315 298H29V333H315V298ZM200 542Q152 531 125 510T97 462Q97 447 106 438T131 428Q148 428 164 436T200 465V542ZM307 436Q286 395 249 395Q226 395 216 405T200 442Q168 416 145 406T99 395Q71 395 54 411T36 452Q36 524 200 562V606Q200 652 150 652Q131 652 115 644T98 626Q98 622 102 618Q110 606 110 596Q110 582 101 574T77 565Q63 565 54 575T44 600Q44 615 53 628T78 650T115 666T160 672Q212 672 235 654T259 593V458Q259 436 262 429T273 421Q282 421 296 444L307 436Z"  />
<glyph unicode="&#xAB;" horiz-adv-x="479" d="M246 468Q229 436 216 410T191 354Q173 312 163 288T148 254Q150 250 151 247T155 239Q164 219 173 201T191 163Q200 144 206 130T219 104T231 79T246 52H148Q142 65 131 86T105 133T72 190T33 254Q60 300 79 334T112 394T134 437T148 468H246ZM438 468Q421 436 408 408T383 354L348 272L340 254L348 239Q356 219 365 201T383 163Q392 144 398 130T411 104T423 79T438 52H340Q328 78 299 130T225 254Q254 304 273 339T306 398T327 438T340 468H438Z"  />
<glyph unicode="&#xAC;" horiz-adv-x="500" d="M341 212H33V266H467V0H341V212Z"  />
<glyph unicode="&#xAD;" horiz-adv-x="236" d="M160 300Q183 300 198 300Q214 300 236 302Q235 288 235 277Q235 267 235 260Q235 253 235 242Q235 232 236 218Q215 220 201 220Q187 220 160 220H76Q50 220 35 220Q21 220 0 218Q1 232 1 242T2 260Q2 267 2 277T0 302Q22 300 37 300Q53 300 76 300H160Z"  />
<glyph unicode="&#xAE;" horiz-adv-x="804" d="M402 643Q337 643 281 619T182 553T116 455T92 334Q92 271 116 215T182 116T279 49T398 24Q464 24 521 48T620 114T686 212T711 334Q711 398 687 454T620 553T522 619T402 643ZM402 680Q474 680 537 653T647 579T721 469T748 334Q748 261 721 198T646 88T535 14T397 -13Q327 -13 265 14T156 89T82 199T55 334Q55 406 82 469T156 579T267 653T402 680ZM399 342Q420 342 432 344T452 355Q463 363 469 379T476 416Q476 452 457 471T400 491H355V342H399ZM412 324H355V208Q355 185 361 178T388 170H405V151H230V170H245Q265 170 271 177T278 208V459Q278 482 272 489T245 497H227V516H407Q472 516 503 499Q555 471 555 415Q555 383 540 363T486 325L562 195Q570 181 580 175T607 170V151H511L412 324Z"  />
<glyph unicode="&#xAF;" horiz-adv-x="500" d="M82 614V691H418V614H82Z"  />
<glyph unicode="&#xB0;" horiz-adv-x="329" d="M165 625Q141 625 125 608T108 566Q108 540 124 522T165 504Q188 504 204 521T221 565Q221 590 205 607T165 625ZM164 681Q188 681 209 672T247 647T272 610T281 565Q281 541 272 520T247 482T210 457T165 448Q140 448 119 457T82 482T57 519T48 566Q48 590 57 610T82 647T119 672T164 681Z"  />
<glyph unicode="&#xB1;" horiz-adv-x="563" d="M196 0Q158 0 129 0Q100 0 61 -2Q62 12 62 22T63 40Q63 47 63 57T61 82Q101 80 132 80Q164 80 196 80H368Q400 80 431 80Q463 80 503 82Q502 68 502 57Q502 47 502 40Q502 33 502 22Q502 12 503 -2Q464 0 435 0Q406 0 368 0H196ZM196 300Q158 300 129 300Q100 300 61 298Q62 312 62 322T63 340Q63 347 63 357T61 382Q101 380 132 380Q164 380 196 380H242V422Q242 441 242 457Q242 473 242 489Q242 505 242 521T240 558Q254 557 264 557T282 556Q289 556 299 556T324 558Q322 517 322 485Q322 454 322 422V380H368Q400 380 431 380Q463 380 503 382Q502 368 502 358T501 340Q501 333 501 323T503 298Q464 300 435 300Q406 300 368 300H322V258Q322 226 322 194Q322 163 324 122Q310 123 300 123T282 124Q275 124 265 124T240 122Q241 142 241 158T242 190Q242 206 242 222Q242 239 242 258V300H196Z"  />
<glyph unicode="&#xB2;" horiz-adv-x="372" d="M328 362Q326 345 325 335T322 315T320 294T317 267H27V317L180 453Q201 471 214 485T236 511T247 533T251 555Q251 585 234 601T185 617Q150 617 127 600T87 543L29 568Q49 624 86 649T186 675Q252 675 288 643T325 553Q325 516 303 483T231 409L125 324H232Q246 324 254 325T267 329T275 340T282 362H328Z"  />
<glyph unicode="&#xB3;" horiz-adv-x="372" d="M97 506Q114 505 118 505Q123 505 128 505Q243 505 243 572Q243 595 227 607T181 619Q152 619 131 609T83 571L42 614Q75 646 109 660T188 675Q247 675 282 648T317 576Q317 518 251 486Q332 466 332 389Q332 329 290 294T174 259Q126 259 90 273T21 318L61 363Q90 337 115 326T171 315Q258 315 258 384Q258 420 235 434T153 449Q138 449 126 449Q115 449 97 447V506Z"  />
<glyph unicode="&#xB4;" horiz-adv-x="500" d="M163 573Q179 596 189 611T209 641T230 675T261 725H418Q405 715 391 703T356 673T309 631T246 573H163Z"  />
<glyph unicode="&#xB5;" horiz-adv-x="462" d="M479 35L375 -10Q374 -11 371 -11Q352 -11 341 2T321 46L316 66Q291 41 273 25T240 0T209 -12T176 -15Q134 -15 109 4T67 71Q67 39 67 24T70 -6Q72 -17 74 -26T78 -44L88 -90Q92 -107 94 -119T96 -139Q96 -163 83 -178T46 -193Q24 -193 10 -179T-4 -141Q-4 -131 -2 -114T4 -79Q10 -45 15 -3T25 84T31 174T33 261V457H134V170Q134 126 138 103T154 64Q163 53 177 46T208 39Q237 39 260 54T310 106V457H410V124Q410 77 418 61T450 45Q463 45 479 53V35Z"  />
<glyph unicode="&#xB6;" horiz-adv-x="590" d="M239 639Q210 639 196 635T170 618Q153 602 145 573T136 506Q136 446 161 413T232 379H268V639H239ZM536 -88H409V638H327V-88H185V-60H207Q230 -60 241 -59T258 -52Q261 -49 263 -47T266 -40T267 -26T269 1V347H234Q195 347 175 350T135 363Q94 383 71 421T48 507Q48 559 73 597T142 653Q155 658 164 661T187 665T225 667Q249 667 291 667H543V639H526Q505 639 494 638T476 629T469 606T467 565V-2Q467 -24 468 -35T473 -52T488 -59T516 -60H536V-88Z"  />
<glyph unicode="&#xB7;" horiz-adv-x="244" d="M131 317Q188 317 188 268Q188 238 168 221T114 203Q87 203 72 215T57 252Q57 281 77 299T131 317Z"  />
<glyph unicode="&#xB8;" horiz-adv-x="500" d="M181 -153Q192 -155 198 -156T210 -158T219 -159Q223 -159 229 -159Q264 -159 283 -149T303 -120Q303 -108 295 -100T272 -92Q264 -92 255 -94T234 -104L212 -76Q222 -64 229 -55T241 -36T250 -17T258 8L314 3Q309 -9 306 -16T300 -30T293 -43T282 -60Q293 -56 300 -55T315 -53Q342 -53 360 -71T378 -116Q378 -157 339 -183T239 -209Q221 -209 206 -208T170 -201L181 -153Z"  />
<glyph unicode="&#xB9;" horiz-adv-x="372" d="M248 669Q246 648 245 630T244 588V267H175V589Q164 580 144 571T89 548L68 597Q117 614 155 633T207 669H248Z"  />
<glyph unicode="&#xBA;" horiz-adv-x="328" d="M307 298H21V333H307V298ZM165 653Q129 653 113 625T96 535Q96 471 112 442T164 412Q199 412 215 441T232 535Q232 596 216 624T165 653ZM167 673Q195 673 218 663T259 633T286 589T296 532Q296 469 260 431T164 392Q105 392 69 431T32 533Q32 596 69 634T167 673Z"  />
<glyph unicode="&#xBB;" horiz-adv-x="478" d="M232 52Q249 84 262 110T287 166Q305 208 315 232T330 266L323 281L288 357Q279 376 272 390T259 417T247 441T232 468H330Q336 456 346 436T372 389T405 331T445 266Q416 216 397 182T364 123T344 83T330 52H232ZM40 52Q57 84 70 111T95 165Q106 191 112 207T123 233T131 251T138 266Q103 340 79 390T40 468H138Q144 455 155 434T182 386T215 329T253 266Q227 221 208 187T174 127T152 83T138 52H40Z"  />
<glyph unicode="&#xBC;" horiz-adv-x="880" d="M727 316Q724 311 722 308T715 300L604 166Q601 162 594 155H727V316ZM796 102V0H727V102H547L530 153Q534 158 537 162T546 174T560 192T584 223Q597 241 609 256T636 288T667 322T707 365Q722 381 727 387T737 402H796V155H853V102H796ZM312 -7L245 2L569 674L636 665L312 -7ZM248 669Q246 648 245 630T244 588V267H175V589Q164 580 144 571T89 548L68 597Q117 614 155 633T207 669H248Z"  />
<glyph unicode="&#xBD;" horiz-adv-x="880" d="M837 96Q835 79 834 68T831 48T829 27T826 0H536V50L689 187Q710 206 724 220T746 245T757 267T760 289Q760 318 743 334T694 350Q659 350 636 333T596 277L538 302Q558 357 595 382T695 408Q761 408 797 376T834 287Q834 250 813 217T740 142L634 57H741Q755 57 763 58T776 62T784 74T791 96H837ZM312 -7L245 2L569 674L636 665L312 -7ZM248 669Q246 648 245 630T244 588V267H175V589Q164 580 144 571T89 548L68 597Q117 614 155 633T207 669H248Z"  />
<glyph unicode="&#xBE;" horiz-adv-x="880" d="M727 316Q724 311 722 308T715 300L604 166Q601 162 594 155H727V316ZM796 102V0H727V102H547L530 153Q534 158 547 175T584 223Q597 241 609 256T636 288T667 322T707 365Q722 381 727 387T737 402H796V155H853V102H796ZM312 -7L245 2L568 674L636 665L312 -7ZM97 506Q114 505 118 505Q123 505 128 505Q243 505 243 572Q243 595 227 607T181 619Q152 619 131 609T83 571L42 614Q75 646 109 660T188 675Q247 675 282 648T317 576Q317 518 251 486Q332 466 332 389Q332 329 290 294T174 259Q126 259 90 273T21 318L61 363Q90 337 115 326T171 315Q258 315 258 384Q258 420 235 434T153 449Q138 449 126 449Q115 449 97 447V506Z"  />
<glyph unicode="&#xBF;" horiz-adv-x="430" d="M246 520Q273 520 288 507T303 471Q303 442 283 424T229 406Q172 406 172 455Q172 485 192 502T246 520ZM305 326Q319 302 319 278Q319 243 281 199L228 138Q184 88 167 58T149 5Q149 -10 154 -23T168 -48T188 -65T211 -72Q223 -72 235 -67T261 -49T294 -14T338 41L403 -11Q371 -55 345 -85T294 -133T247 -159T198 -167Q166 -167 137 -153T86 -116T51 -62T37 2Q37 59 106 129L169 194Q182 208 190 217T204 234T210 247T212 261Q212 270 209 278T195 301L305 326Z"  />
<glyph unicode="&#xC0;" horiz-adv-x="637" d="M278 865Q303 835 319 817T348 783T377 753T415 713H325Q280 745 246 769T185 812T139 843T103 865H278ZM342 478Q332 508 329 527T323 573H319Q318 559 317 549T313 530T307 508T296 478L230 296H402L342 478ZM203 225L154 97Q149 83 148 78T146 68Q146 57 153 53T180 47L177 0H0L3 47Q20 48 32 60T57 104L237 567Q240 575 243 582T250 597Q262 626 267 640T274 667H380Q382 658 382 654T387 641Q390 631 393 622T401 604Q405 595 408 586T414 568L583 97Q595 65 604 56T634 47L631 0H445L448 47Q466 48 473 52T481 67Q481 72 480 76T471 99L427 225H203Z"  />
<glyph unicode="&#xC1;" horiz-adv-x="637" d="M233 713Q255 735 270 751T299 782T329 817T370 865H545Q529 855 509 842T462 811T401 769T323 713H233ZM342 478Q332 508 329 527T323 573H319Q318 559 317 549T313 530T307 508T296 478L230 296H402L342 478ZM203 225L154 97Q149 83 148 78T146 68Q146 57 153 53T180 47L177 0H0L3 47Q20 48 32 60T57 104L237 567Q240 575 243 582T250 597Q262 626 267 640T274 667H380Q382 658 382 654T387 641Q390 631 393 622T401 604Q405 595 408 586T414 568L583 97Q595 65 604 56T634 47L631 0H445L448 47Q466 48 473 52T481 67Q481 72 480 76T471 99L427 225H203Z"  />
<glyph unicode="&#xC2;" horiz-adv-x="637" d="M431 717L328 798L226 717H120L194 800Q210 818 226 838T251 869H406Q414 858 431 837T463 800L537 717H431ZM342 478Q332 508 329 527T323 573H319Q318 559 317 549T313 530T307 508T296 478L230 296H402L342 478ZM203 225L154 97Q149 83 148 78T146 68Q146 57 153 53T180 47L177 0H0L3 47Q20 48 32 60T57 104L237 567Q240 575 243 582T250 597Q262 626 267 640T274 667H380Q382 658 382 654T387 641Q390 631 393 622T401 604Q405 595 408 586T414 568L583 97Q595 65 604 56T634 47L631 0H445L448 47Q466 48 473 52T481 67Q481 72 480 76T471 99L427 225H203Z"  />
<glyph unicode="&#xC3;" horiz-adv-x="637" d="M517 856Q508 818 500 796T478 757Q463 738 442 728T397 717Q360 717 324 747L295 770Q274 788 256 788Q237 788 225 773T202 720L141 732Q157 807 186 842T263 878Q283 878 299 871T336 846L363 822Q385 803 404 803Q421 803 432 817T457 871L517 856ZM342 478Q332 508 329 527T323 573H319Q318 559 317 549T313 530T307 508T296 478L230 296H402L342 478ZM203 225L154 97Q149 83 148 78T146 68Q146 57 153 53T180 47L177 0H0L3 47Q20 48 32 60T57 104L237 567Q240 575 243 582T250 597Q262 626 267 640T274 667H380Q382 658 382 654T387 641Q390 631 393 622T401 604Q405 595 408 586T414 568L583 97Q595 65 604 56T634 47L631 0H445L448 47Q466 48 473 52T481 67Q481 72 480 76T471 99L427 225H203Z"  />
<glyph unicode="&#xC4;" horiz-adv-x="637" d="M461 850Q525 850 525 800Q525 769 504 751T447 733Q386 733 386 781Q386 811 407 830T461 850ZM218 850Q282 850 282 800Q282 769 261 751T204 733Q143 733 143 781Q143 811 164 830T218 850ZM342 478Q332 508 329 527T323 573H319Q318 559 317 549T313 530T307 508T296 478L230 296H402L342 478ZM203 225L154 97Q149 83 148 78T146 68Q146 57 153 53T180 47L177 0H0L3 47Q20 48 32 60T57 104L237 567Q240 575 243 582T250 597Q262 626 267 640T274 667H380Q382 658 382 654T387 641Q390 631 393 622T401 604Q405 595 408 586T414 568L583 97Q595 65 604 56T634 47L631 0H445L448 47Q466 48 473 52T481 67Q481 72 480 76T471 99L427 225H203Z"  />
<glyph unicode="&#xC5;" horiz-adv-x="637" d="M327 871Q286 871 286 811Q286 750 327 750Q369 750 369 810Q369 871 327 871ZM330 914Q421 914 421 813Q421 707 325 707Q234 707 234 809Q234 860 258 887T330 914ZM342 478Q332 508 329 527T323 573H319Q318 559 317 549T313 530T307 508T296 478L230 296H402L342 478ZM203 225L154 97Q149 83 148 78T146 68Q146 57 153 53T180 47L177 0H0L3 47Q20 48 32 60T57 104L237 567Q240 575 243 582T250 597Q262 626 267 640T274 667H380Q382 658 382 654T387 641Q390 631 393 622T401 604Q405 595 408 586T414 568L583 97Q595 65 604 56T634 47L631 0H445L448 47Q466 48 473 52T481 67Q481 72 480 76T471 99L427 225H203Z"  />
<glyph unicode="&#xC6;" horiz-adv-x="876" d="M417 534Q417 556 416 569T409 590T396 600T373 603H346Q346 590 345 581T342 562T336 544T327 522L267 383H417V534ZM235 312L164 152Q152 124 145 103T138 73Q138 59 145 54T175 46L172 0H36L17 30Q29 67 39 93T63 152L235 517Q252 553 261 583T270 635Q270 648 266 667H810Q811 657 811 652Q811 648 813 640Q814 633 815 624T818 604Q820 588 821 579T823 563T824 550Q824 545 824 538H752Q749 559 745 571T733 589T708 597T665 599H579Q545 599 535 589T524 546V383H771L768 312H524V136Q524 115 526 102T535 82T554 72T584 69H683Q709 69 726 72T753 83T769 105T777 144H849Q848 130 848 124Q848 118 846 107L841 74Q839 58 838 48T835 29T834 15T832 0H364L367 47H375Q388 47 396 50T409 61T415 85T417 125V312H235Z"  />
<glyph unicode="&#xC7;" horiz-adv-x="568" d="M545 93Q507 46 457 20T347 -12Q340 -29 335 -39T319 -67L342 -66Q373 -66 393 -86T413 -137Q413 -159 403 -177T374 -208T331 -228T275 -236Q253 -236 233 -233T187 -221L206 -173Q226 -178 240 -180T270 -183Q301 -183 319 -171T337 -139Q337 -125 328 -117T305 -109Q287 -109 266 -120L237 -84Q251 -73 263 -54T283 -12Q165 -3 104 83T42 327Q42 504 113 592T326 681Q346 681 372 680T436 673Q462 670 482 669T517 665L519 653L521 627L525 597Q527 579 528 569T530 551T531 538T532 523H459Q451 567 425 585T341 603Q244 603 200 536T156 322Q156 191 199 128T331 64Q354 64 373 68T411 81T449 105T491 144L545 93Z"  />
<glyph unicode="&#xC8;" horiz-adv-x="560" d="M266 865Q291 835 307 817T336 783T365 753T403 713H313Q268 745 234 769T173 812T127 843T91 865H266ZM493 667Q494 658 494 653Q494 648 496 640Q497 631 498 622T501 604Q503 589 504 580T506 563T507 550Q507 545 507 538H435Q432 559 428 571T416 589T391 597T348 599H262Q228 599 218 589T207 546V383H454L451 312H207V136Q207 115 209 102T218 82T237 72T267 69H366Q392 69 409 72T436 83T452 105T460 144H532Q531 130 531 124Q531 118 529 107L524 74Q522 58 521 48T518 29T517 15T515 0H47L50 47H58Q71 47 79 50T92 61T98 85T100 125V542Q100 566 99 581T93 605T80 617T58 620H47L50 667H493Z"  />
<glyph unicode="&#xC9;" horiz-adv-x="560" d="M171 713Q193 735 208 751T237 782T267 817T308 865H483Q467 855 447 842T400 811T339 769T261 713H171ZM493 667Q494 658 494 653Q494 648 496 640Q497 631 498 622T501 604Q503 589 504 580T506 563T507 550Q507 545 507 538H435Q432 559 428 571T416 589T391 597T348 599H262Q228 599 218 589T207 546V383H454L451 312H207V136Q207 115 209 102T218 82T237 72T267 69H366Q392 69 409 72T436 83T452 105T460 144H532Q531 130 531 124Q531 118 529 107L524 74Q522 58 521 48T518 29T517 15T515 0H47L50 47H58Q71 47 79 50T92 61T98 85T100 125V542Q100 566 99 581T93 605T80 617T58 620H47L50 667H493Z"  />
<glyph unicode="&#xCA;" horiz-adv-x="560" d="M390 717L287 798L185 717H79L153 800Q169 818 185 838T210 869H365Q373 858 390 837T422 800L496 717H390ZM493 667Q494 658 494 653Q494 648 496 640Q497 631 498 622T501 604Q503 589 504 580T506 563T507 550Q507 545 507 538H435Q432 559 428 571T416 589T391 597T348 599H262Q228 599 218 589T207 546V383H454L451 312H207V136Q207 115 209 102T218 82T237 72T267 69H366Q392 69 409 72T436 83T452 105T460 144H532Q531 130 531 124Q531 118 529 107L524 74Q522 58 521 48T518 29T517 15T515 0H47L50 47H58Q71 47 79 50T92 61T98 85T100 125V542Q100 566 99 581T93 605T80 617T58 620H47L50 667H493Z"  />
<glyph unicode="&#xCB;" horiz-adv-x="560" d="M414 850Q478 850 478 800Q478 769 457 751T400 733Q339 733 339 781Q339 811 360 830T414 850ZM171 850Q235 850 235 800Q235 769 214 751T157 733Q96 733 96 781Q96 811 117 830T171 850ZM493 667Q494 658 494 653Q494 648 496 640Q497 631 498 622T501 604Q503 589 504 580T506 563T507 550Q507 545 507 538H435Q432 559 428 571T416 589T391 597T348 599H262Q228 599 218 589T207 546V383H454L451 312H207V136Q207 115 209 102T218 82T237 72T267 69H366Q392 69 409 72T436 83T452 105T460 144H532Q531 130 531 124Q531 118 529 107L524 74Q522 58 521 48T518 29T517 15T515 0H47L50 47H58Q71 47 79 50T92 61T98 85T100 125V542Q100 566 99 581T93 605T80 617T58 620H47L50 667H493Z"  />
<glyph unicode="&#xCC;" horiz-adv-x="307" d="M132 865Q157 835 173 817T202 783T231 753T269 713H179Q134 745 100 769T39 812T-7 843T-43 865H132ZM100 542Q100 566 99 581T93 605T80 617T58 620H47L50 667H260L257 620H249Q236 620 228 617T215 606T209 582T207 542V125Q207 101 208 86T214 62T227 50T249 47H260L257 0H47L50 47H58Q71 47 79 50T92 61T98 85T100 125V542Z"  />
<glyph unicode="&#xCD;" horiz-adv-x="307" d="M37 713Q59 735 74 751T103 782T133 817T174 865H349Q333 855 313 842T266 811T205 769T127 713H37ZM100 542Q100 566 99 581T93 605T80 617T58 620H47L50 667H260L257 620H249Q236 620 228 617T215 606T209 582T207 542V125Q207 101 208 86T214 62T227 50T249 47H260L257 0H47L50 47H58Q71 47 79 50T92 61T98 85T100 125V542Z"  />
<glyph unicode="&#xCE;" horiz-adv-x="307" d="M256 717L153 798L51 717H-55L19 800Q35 818 51 838T76 869H231Q239 858 256 837T288 800L362 717H256ZM100 542Q100 566 99 581T93 605T80 617T58 620H47L50 667H260L257 620H249Q236 620 228 617T215 606T209 582T207 542V125Q207 101 208 86T214 62T227 50T249 47H260L257 0H47L50 47H58Q71 47 79 50T92 61T98 85T100 125V542Z"  />
<glyph unicode="&#xCF;" horiz-adv-x="307" d="M255 850Q319 850 319 800Q319 769 298 751T241 733Q180 733 180 781Q180 811 201 830T255 850ZM62 850Q126 850 126 800Q126 769 105 751T48 733Q-13 733 -13 781Q-13 811 8 830T62 850ZM100 542Q100 566 99 581T93 605T80 617T58 620H47L50 667H260L257 620H249Q236 620 228 617T215 606T209 582T207 542V125Q207 101 208 86T214 62T227 50T249 47H260L257 0H47L50 47H58Q71 47 79 50T92 61T98 85T100 125V542Z"  />
<glyph unicode="&#xD0;" horiz-adv-x="666" d="M379 383L375 312H207V169Q207 135 210 115T223 85T253 72T307 69Q370 69 407 86T468 141Q510 211 510 331Q510 407 494 465T447 556Q408 598 318 598Q282 598 260 595T227 581T211 550T207 496V383H379ZM100 542Q100 566 99 581T93 605T80 617T58 620H47L50 667H345Q386 667 417 663T474 648T519 620T557 578Q589 533 606 468T624 327Q624 240 602 173T538 66Q501 31 449 16T319 0H47L50 47H58Q71 47 79 50T92 61T98 85T100 125V312H48L51 383H100V542Z"  />
<glyph unicode="&#xD1;" horiz-adv-x="701" d="M539 856Q530 818 522 796T500 757Q485 738 464 728T419 717Q382 717 346 747L317 770Q296 788 278 788Q259 788 247 773T224 720L163 732Q179 807 208 842T285 878Q305 878 321 871T358 846L385 822Q407 803 426 803Q443 803 454 817T479 871L539 856ZM523 0L248 435Q199 514 179 574H175Q182 530 184 497T187 426V125Q187 101 189 86T195 62T208 50T229 47H248L245 0H47L50 47H58Q83 47 91 62T100 125V542Q100 590 92 605T58 620H47L50 667H212Q215 659 217 654T223 642T233 626T250 600Q255 595 258 589T267 575L466 252Q480 229 490 213T505 188Q511 177 516 164T533 125H537Q521 199 521 258V542Q521 590 513 605T479 620H459L462 667H661L658 620H650Q624 620 616 605T608 542V85Q608 70 608 60Q608 51 609 42T611 24T615 0H523Z"  />
<glyph unicode="&#xD2;" horiz-adv-x="666" d="M312 865Q337 835 353 817T382 783T411 753T449 713H359Q314 745 280 769T219 812T173 843T137 865H312ZM333 603Q242 603 199 538T156 333Q156 194 199 129T335 64Q424 64 467 129T510 329Q510 472 468 537T333 603ZM332 680Q624 680 624 329Q624 161 550 74T333 -13Q189 -13 116 74T42 334Q42 505 115 592T332 680Z"  />
<glyph unicode="&#xD3;" horiz-adv-x="666" d="M217 713Q239 735 254 751T283 782T313 817T354 865H529Q513 855 493 842T446 811T385 769T307 713H217ZM333 603Q242 603 199 538T156 333Q156 194 199 129T335 64Q424 64 467 129T510 329Q510 472 468 537T333 603ZM332 680Q624 680 624 329Q624 161 550 74T333 -13Q189 -13 116 74T42 334Q42 505 115 592T332 680Z"  />
<glyph unicode="&#xD4;" horiz-adv-x="666" d="M436 717L333 798L231 717H125L199 800Q215 818 231 838T256 869H411Q419 858 436 837T468 800L542 717H436ZM333 603Q242 603 199 538T156 333Q156 194 199 129T335 64Q424 64 467 129T510 329Q510 472 468 537T333 603ZM332 680Q624 680 624 329Q624 161 550 74T333 -13Q189 -13 116 74T42 334Q42 505 115 592T332 680Z"  />
<glyph unicode="&#xD5;" horiz-adv-x="666" d="M521 856Q512 818 504 796T482 757Q467 738 446 728T401 717Q364 717 328 747L299 770Q278 788 260 788Q241 788 229 773T206 720L145 732Q161 807 190 842T267 878Q287 878 303 871T340 846L367 822Q389 803 408 803Q425 803 436 817T461 871L521 856ZM333 603Q242 603 199 538T156 333Q156 194 199 129T335 64Q424 64 467 129T510 329Q510 472 468 537T333 603ZM332 680Q624 680 624 329Q624 161 550 74T333 -13Q189 -13 116 74T42 334Q42 505 115 592T332 680Z"  />
<glyph unicode="&#xD6;" horiz-adv-x="666" d="M460 850Q524 850 524 800Q524 769 503 751T446 733Q385 733 385 781Q385 811 406 830T460 850ZM217 850Q281 850 281 800Q281 769 260 751T203 733Q142 733 142 781Q142 811 163 830T217 850ZM333 603Q242 603 199 538T156 333Q156 194 199 129T335 64Q424 64 467 129T510 329Q510 472 468 537T333 603ZM332 680Q624 680 624 329Q624 161 550 74T333 -13Q189 -13 116 74T42 334Q42 505 115 592T332 680Z"  />
<glyph unicode="&#xD7;" horiz-adv-x="563" d="M238 239Q208 209 187 188T143 142Q133 153 127 160T115 173T102 185T84 201Q107 224 131 247T181 296L225 340L183 382Q167 398 157 408T136 428T115 449T86 476Q97 486 104 492T117 504T129 517T145 535Q173 506 193 485T240 438L282 397L326 441Q349 465 373 490T420 538Q430 527 436 520T448 507T461 495T479 479Q462 463 451 452T430 432T409 411T382 384L338 340L380 298Q393 285 403 275T424 255T447 232T477 204Q466 194 459 188T446 176T434 163T418 145Q402 161 391 172T370 194T350 215T323 242L282 283L238 239Z"  />
<glyph unicode="&#xD8;" horiz-adv-x="666" d="M461 546Q437 576 407 589T334 603Q242 603 199 538T156 334Q156 294 159 264T169 202L461 546ZM199 129Q243 64 333 64Q424 64 467 128T510 330Q510 377 506 412T494 478L199 129ZM77 -16L-1 1L92 110Q66 157 54 209T42 333Q42 505 115 592T333 680Q449 680 523 620L577 683L654 667L570 566Q584 541 594 516T611 463T621 404T624 335Q624 162 551 75T333 -13Q210 -13 136 54L77 -16Z"  />
<glyph unicode="&#xD9;" horiz-adv-x="685" d="M322 865Q347 835 363 817T392 783T421 753T459 713H369Q324 745 290 769T229 812T183 843T147 865H322ZM595 209Q595 89 529 37Q498 13 450 0T343 -13Q285 -13 238 0T158 37Q90 90 90 209V542Q90 566 89 581T83 605T70 617T48 620H37L40 667H250L247 620H239Q226 620 218 617T205 606T199 582T197 542V228Q197 183 205 152T230 102T275 73T343 64Q423 64 456 101T490 228V542Q490 566 489 581T483 605T470 617T448 620H437L440 667H648L645 620H637Q624 620 616 617T604 605T597 581T595 542V209Z"  />
<glyph unicode="&#xDA;" horiz-adv-x="685" d="M227 713Q249 735 264 751T293 782T323 817T364 865H539Q523 855 503 842T456 811T395 769T317 713H227ZM595 209Q595 89 529 37Q498 13 450 0T343 -13Q285 -13 238 0T158 37Q90 90 90 209V542Q90 566 89 581T83 605T70 617T48 620H37L40 667H250L247 620H239Q226 620 218 617T205 606T199 582T197 542V228Q197 183 205 152T230 102T275 73T343 64Q423 64 456 101T490 228V542Q490 566 489 581T483 605T470 617T448 620H437L440 667H648L645 620H637Q624 620 616 617T604 605T597 581T595 542V209Z"  />
<glyph unicode="&#xDB;" horiz-adv-x="685" d="M445 717L342 798L240 717H134L208 800Q224 818 240 838T265 869H420Q428 858 445 837T477 800L551 717H445ZM595 209Q595 89 529 37Q498 13 450 0T343 -13Q285 -13 238 0T158 37Q90 90 90 209V542Q90 566 89 581T83 605T70 617T48 620H37L40 667H250L247 620H239Q226 620 218 617T205 606T199 582T197 542V228Q197 183 205 152T230 102T275 73T343 64Q423 64 456 101T490 228V542Q490 566 489 581T483 605T470 617T448 620H437L440 667H648L645 620H637Q624 620 616 617T604 605T597 581T595 542V209Z"  />
<glyph unicode="&#xDC;" horiz-adv-x="685" d="M469 850Q533 850 533 800Q533 769 512 751T455 733Q394 733 394 781Q394 811 415 830T469 850ZM226 850Q290 850 290 800Q290 769 269 751T212 733Q151 733 151 781Q151 811 172 830T226 850ZM595 209Q595 89 529 37Q498 13 450 0T343 -13Q285 -13 238 0T158 37Q90 90 90 209V542Q90 566 89 581T83 605T70 617T48 620H37L40 667H250L247 620H239Q226 620 218 617T205 606T199 582T197 542V228Q197 183 205 152T230 102T275 73T343 64Q423 64 456 101T490 228V542Q490 566 489 581T483 605T470 617T448 620H437L440 667H648L645 620H637Q624 620 616 617T604 605T597 581T595 542V209Z"  />
<glyph unicode="&#xDD;" horiz-adv-x="530" d="M155 713Q177 735 192 751T221 782T251 817T292 865H467Q451 855 431 842T384 811T323 769T245 713H155ZM320 125Q320 101 321 86T327 62T340 50T362 47H373L370 0H156L159 47H171Q184 47 192 50T205 61T211 85T213 125V259Q208 269 203 280T187 309T162 352T125 416Q110 441 98 462T75 504T53 547T29 598Q23 610 16 614T-5 620L-1 667H190L186 620Q162 618 155 614T147 596Q147 585 163 556L246 392Q253 378 257 368T264 350T268 335T269 318H272Q273 328 275 336T280 355T288 378T303 409L370 545Q381 568 385 578T389 594Q389 608 380 613T347 620L351 667H535L532 620Q520 619 514 616T500 605Q498 604 496 599T482 574L467 545L320 269V125Z"  />
<glyph unicode="&#xDE;" horiz-adv-x="574" d="M291 257Q339 257 366 263T411 287Q444 318 444 380Q444 412 434 439T407 482Q392 496 372 501T314 506Q276 506 255 505T223 497T210 477T207 439V257H291ZM207 125Q207 77 215 62T249 47H272L269 0H47L50 47H58Q71 47 79 50T92 61T98 85T100 125V542Q100 566 99 581T93 605T80 617T58 620H47L50 667H207V574H366Q420 574 455 562T513 521Q534 496 545 461T556 384Q556 186 313 186H207V125Z"  />
<glyph unicode="&#xDF;" horiz-adv-x="598" d="M264 82Q313 60 365 60Q468 60 468 174Q468 222 449 248T385 286L332 300Q258 318 258 390Q258 414 267 439T292 482L329 522Q359 555 359 599Q359 637 338 661T282 686Q253 686 232 671T201 627Q198 618 196 607T192 581T191 545T190 493V86Q190 54 191 35T198 -5L31 0L34 47H48Q61 47 69 50T82 61T88 85T90 125V445H21L24 498H45Q67 498 79 511T92 549V571Q92 611 106 645T147 703T209 741T288 755Q327 755 359 744T414 713T449 663T462 599Q462 567 450 542T412 491L385 465Q372 453 365 438T357 409Q357 380 394 371L442 358Q571 326 571 178Q571 140 561 106T530 49Q505 20 461 4T367 -13Q300 -13 239 13L264 82Z"  />
<glyph unicode="&#xE0;" horiz-adv-x="516" d="M248 725Q267 694 278 675T299 641T319 611T346 573H263Q227 606 201 630T154 672T119 702T91 725H248ZM230 257Q184 257 158 229T132 150Q132 108 149 84T199 60Q231 60 263 84T316 149Q328 173 333 197T340 257H230ZM70 483Q124 503 165 511T251 520Q343 520 392 480Q405 470 413 460T427 435T434 403T436 360V125Q436 101 438 86T444 62T457 50T478 47H489L486 0L360 -4Q352 18 350 32T347 72Q347 80 347 89Q347 99 349 115Q335 81 324 64T295 30Q272 9 242 -2T178 -13Q109 -13 69 30T29 149Q29 189 42 223T78 280Q101 302 132 312T209 323H340V354Q340 405 318 426T242 447Q197 447 156 438T66 408L70 483Z"  />
<glyph unicode="&#xE1;" horiz-adv-x="516" d="M171 573Q187 596 197 611T217 641T238 675T269 725H426Q413 715 399 703T364 673T317 631T254 573H171ZM230 257Q184 257 158 229T132 150Q132 108 149 84T199 60Q231 60 263 84T316 149Q328 173 333 197T340 257H230ZM70 483Q124 503 165 511T251 520Q343 520 392 480Q405 470 413 460T427 435T434 403T436 360V125Q436 101 438 86T444 62T457 50T478 47H489L486 0L360 -4Q352 18 350 32T347 72Q347 80 347 89Q347 99 349 115Q335 81 324 64T295 30Q272 9 242 -2T178 -13Q109 -13 69 30T29 149Q29 189 42 223T78 280Q101 302 132 312T209 323H340V354Q340 405 318 426T242 447Q197 447 156 438T66 408L70 483Z"  />
<glyph unicode="&#xE2;" horiz-adv-x="516" d="M361 573L258 654L156 573H50L124 656Q140 674 156 694T181 726H336Q344 714 361 694T393 656L467 573H361ZM230 257Q184 257 158 229T132 150Q132 108 149 84T199 60Q231 60 263 84T316 149Q328 173 333 197T340 257H230ZM70 483Q124 503 165 511T251 520Q343 520 392 480Q405 470 413 460T427 435T434 403T436 360V125Q436 101 438 86T444 62T457 50T478 47H489L486 0L360 -4Q352 18 350 32T347 72Q347 80 347 89Q347 99 349 115Q335 81 324 64T295 30Q272 9 242 -2T178 -13Q109 -13 69 30T29 149Q29 189 42 223T78 280Q101 302 132 312T209 323H340V354Q340 405 318 426T242 447Q197 447 156 438T66 408L70 483Z"  />
<glyph unicode="&#xE3;" horiz-adv-x="516" d="M446 713Q437 675 429 653T407 614Q392 595 371 585T326 574Q289 574 253 604L224 627Q203 645 185 645Q166 645 154 630T131 577L70 589Q86 664 115 699T192 735Q212 735 228 728T265 703L292 679Q314 660 333 660Q350 660 361 674T386 728L446 713ZM230 257Q184 257 158 229T132 150Q132 108 149 84T199 60Q231 60 263 84T316 149Q328 173 333 197T340 257H230ZM70 483Q124 503 165 511T251 520Q343 520 392 480Q405 470 413 460T427 435T434 403T436 360V125Q436 101 438 86T444 62T457 50T478 47H489L486 0L360 -4Q352 18 350 32T347 72Q347 80 347 89Q347 99 349 115Q335 81 324 64T295 30Q272 9 242 -2T178 -13Q109 -13 69 30T29 149Q29 189 42 223T78 280Q101 302 132 312T209 323H340V354Q340 405 318 426T242 447Q197 447 156 438T66 408L70 483Z"  />
<glyph unicode="&#xE4;" horiz-adv-x="516" d="M386 707Q450 707 450 657Q450 625 429 608T371 590Q311 590 311 638Q311 668 332 687T386 707ZM143 707Q207 707 207 657Q207 625 186 608T128 590Q68 590 68 638Q68 668 89 687T143 707ZM230 257Q184 257 158 229T132 150Q132 108 149 84T199 60Q231 60 263 84T316 149Q328 173 333 197T340 257H230ZM70 483Q124 503 165 511T251 520Q343 520 392 480Q405 470 413 460T427 435T434 403T436 360V125Q436 101 438 86T444 62T457 50T478 47H489L486 0L360 -4Q352 18 350 32T347 72Q347 80 347 89Q347 99 349 115Q335 81 324 64T295 30Q272 9 242 -2T178 -13Q109 -13 69 30T29 149Q29 189 42 223T78 280Q101 302 132 312T209 323H340V354Q340 405 318 426T242 447Q197 447 156 438T66 408L70 483Z"  />
<glyph unicode="&#xE5;" horiz-adv-x="516" d="M259 736Q218 736 218 675Q218 614 259 614Q301 614 301 674Q301 736 259 736ZM262 779Q309 779 331 755T353 677Q353 571 257 571Q166 571 166 674Q166 725 190 752T262 779ZM230 257Q184 257 158 229T132 150Q132 108 149 84T199 60Q231 60 263 84T316 149Q328 173 333 197T340 257H230ZM70 483Q124 503 165 511T251 520Q343 520 392 480Q405 470 413 460T427 435T434 403T436 360V125Q436 101 438 86T444 62T457 50T478 47H489L486 0L360 -4Q352 18 350 32T347 72Q347 80 347 89Q347 99 349 115Q335 81 324 64T295 30Q272 9 242 -2T178 -13Q109 -13 69 30T29 149Q29 189 42 223T78 280Q101 302 132 312T209 323H340V354Q340 405 318 426T242 447Q197 447 156 438T66 408L70 483Z"  />
<glyph unicode="&#xE6;" horiz-adv-x="796" d="M256 248Q219 248 197 241T159 218Q133 190 133 144Q133 105 150 82T198 59Q267 59 340 159Q339 177 339 189T338 210T337 227Q337 236 337 248H256ZM653 313Q653 351 648 374T632 416Q618 437 597 448T551 460Q519 460 493 443T453 394Q445 378 442 360T437 313H653ZM434 247Q434 60 558 60Q596 60 630 78T703 137L759 91Q714 37 661 12T535 -13Q473 -13 435 8T365 83Q324 34 279 11T178 -13Q105 -13 67 26T29 142Q29 313 222 313H338Q338 336 337 351T335 377T332 395T327 409Q309 447 243 447Q167 447 61 411L71 488Q100 497 124 503T169 513T210 519T251 521Q309 521 345 507T408 457Q437 489 473 504T558 520Q602 520 641 506T707 466Q735 439 746 399T758 289L757 247H434Z"  />
<glyph unicode="&#xE7;" horiz-adv-x="477" d="M460 81Q425 41 387 20T297 -10Q290 -27 286 -35T270 -60Q281 -56 288 -55T303 -53Q330 -53 348 -71T366 -116Q366 -157 327 -183T227 -209Q208 -209 193 -208T158 -201L169 -153Q191 -158 198 -158T217 -159Q252 -159 271 -149T291 -120Q291 -108 283 -100T260 -92Q244 -92 222 -103L200 -75Q216 -57 225 -43T239 -12Q142 -7 90 62T37 252Q37 520 277 520Q284 520 289 520Q294 520 301 520T321 518T355 515Q369 514 388 514T424 513Q425 504 425 499T427 486L432 452Q434 438 435 429T437 414T438 402T439 391L375 389Q367 421 347 434T285 447Q210 447 177 403T143 258Q143 60 272 60Q310 60 341 76T412 134L460 81Z"  />
<glyph unicode="&#xE8;" horiz-adv-x="508" d="M253 725Q272 694 283 675T304 641T324 611T351 573H268Q232 606 206 630T159 672T124 702T96 725H253ZM363 331Q363 461 264 461Q162 461 147 313H363V331ZM145 247Q146 148 175 104T267 60Q309 60 343 79T413 144L471 99Q427 41 375 14T252 -13Q37 -13 37 238Q37 375 96 447T265 520Q365 520 417 463T469 294Q469 286 469 273Q469 261 468 247H145Z"  />
<glyph unicode="&#xE9;" horiz-adv-x="508" d="M176 573Q192 596 202 611T222 641T243 675T274 725H431Q418 715 404 703T369 673T322 631T259 573H176ZM363 331Q363 461 264 461Q162 461 147 313H363V331ZM145 247Q146 148 175 104T267 60Q309 60 343 79T413 144L471 99Q427 41 375 14T252 -13Q37 -13 37 238Q37 375 96 447T265 520Q365 520 417 463T469 294Q469 286 469 273Q469 261 468 247H145Z"  />
<glyph unicode="&#xEA;" horiz-adv-x="508" d="M366 573L263 654L161 573H55L129 656Q145 674 161 694T186 726H341Q349 714 366 694T398 656L472 573H366ZM363 331Q363 461 264 461Q162 461 147 313H363V331ZM145 247Q146 148 175 104T267 60Q309 60 343 79T413 144L471 99Q427 41 375 14T252 -13Q37 -13 37 238Q37 375 96 447T265 520Q365 520 417 463T469 294Q469 286 469 273Q469 261 468 247H145Z"  />
<glyph unicode="&#xEB;" horiz-adv-x="508" d="M391 707Q455 707 455 657Q455 625 434 608T376 590Q316 590 316 638Q316 668 337 687T391 707ZM148 707Q212 707 212 657Q212 625 191 608T133 590Q73 590 73 638Q73 668 94 687T148 707ZM363 331Q363 461 264 461Q162 461 147 313H363V331ZM145 247Q146 148 175 104T267 60Q309 60 343 79T413 144L471 99Q427 41 375 14T252 -13Q37 -13 37 238Q37 375 96 447T265 520Q365 520 417 463T469 294Q469 286 469 273Q469 261 468 247H145Z"  />
<glyph unicode="&#xEC;" horiz-adv-x="277" d="M128 725Q147 694 158 675T179 641T199 611T226 573H143Q107 606 81 630T34 672T-1 702T-29 725H128ZM194 512Q192 499 191 490T190 465V125Q190 101 191 86T197 62T210 50T232 47H243L240 0H33L36 47H48Q61 47 69 50T82 61T88 85T90 125V368Q90 405 89 420T84 443Q76 458 48 460H33L36 504L140 512H194Z"  />
<glyph unicode="&#xED;" horiz-adv-x="277" d="M51 573Q67 596 77 611T97 641T118 675T149 725H306Q293 715 279 703T244 673T197 631T134 573H51ZM194 512Q192 499 191 490T190 465V125Q190 101 191 86T197 62T210 50T232 47H243L240 0H33L36 47H48Q61 47 69 50T82 61T88 85T90 125V368Q90 405 89 420T84 443Q76 458 48 460H33L36 504L140 512H194Z"  />
<glyph unicode="&#xEE;" horiz-adv-x="277" d="M241 573L138 654L36 573H-70L4 656Q20 674 36 694T61 726H216Q224 714 241 694T273 656L347 573H241ZM194 512Q192 499 191 490T190 465V125Q190 101 191 86T197 62T210 50T232 47H243L240 0H33L36 47H48Q61 47 69 50T82 61T88 85T90 125V368Q90 405 89 420T84 443Q76 458 48 460H33L36 504L140 512H194Z"  />
<glyph unicode="&#xEF;" horiz-adv-x="277" d="M230 707Q294 707 294 657Q294 625 273 608T215 590Q155 590 155 638Q155 668 176 687T230 707ZM37 707Q101 707 101 657Q101 625 80 608T22 590Q-38 590 -38 638Q-38 668 -17 687T37 707ZM194 512Q192 499 191 490T190 465V125Q190 101 191 86T197 62T210 50T232 47H243L240 0H33L36 47H48Q61 47 69 50T82 61T88 85T90 125V368Q90 405 89 420T84 443Q76 458 48 460H33L36 504L140 512H194Z"  />
<glyph unicode="&#xF0;" horiz-adv-x="551" d="M279 447Q241 447 212 431T166 386Q152 361 146 328T140 245Q140 195 148 163T173 108Q190 85 217 73T277 60Q410 60 410 254Q410 354 379 400T279 447ZM474 693V638L397 625Q428 579 450 537T486 451T506 364T513 271Q513 125 454 56T272 -13Q37 -13 37 250Q37 520 278 520Q306 520 326 518T371 508Q356 533 337 562T304 608L132 579V633L267 656Q238 690 218 711T174 750L280 764Q302 743 319 723T361 673L474 693Z"  />
<glyph unicode="&#xF1;" horiz-adv-x="595" d="M486 713Q477 675 469 653T447 614Q432 595 411 585T366 574Q329 574 293 604L264 627Q243 645 225 645Q206 645 194 630T171 577L110 589Q126 664 155 699T232 735Q252 735 268 728T305 703L332 679Q354 660 373 660Q390 660 401 674T426 728L486 713ZM190 125Q190 101 191 86T197 62T210 50T232 47H243L240 0H37L40 47H48Q61 47 69 50T82 61T88 85T90 125V368Q90 398 89 416T84 443T71 456T48 460H37L40 504L141 512H194Q192 499 191 490T190 465V354Q209 385 222 404T244 437T262 459T281 477Q308 500 334 510T393 520Q457 520 492 477Q506 459 511 438T516 377V125Q516 101 517 86T523 62T536 50T558 47H569L566 0H363L366 47H374Q399 47 407 62T416 125V342Q416 361 416 373T415 394T412 408T407 419Q397 440 368 440Q290 440 190 240V125Z"  />
<glyph unicode="&#xF2;" horiz-adv-x="551" d="M265 725Q284 694 295 675T316 641T336 611T363 573H280Q244 606 218 630T171 672T136 702T108 725H265ZM279 447Q241 447 212 431T167 386Q153 361 147 328T140 245Q140 195 148 163T173 108Q190 85 217 73T277 60Q411 60 411 254Q411 354 380 400T279 447ZM280 520Q514 520 514 260Q514 212 505 168T477 89Q423 -13 272 -13Q37 -13 37 250Q37 520 280 520Z"  />
<glyph unicode="&#xF3;" horiz-adv-x="551" d="M188 573Q204 596 214 611T234 641T255 675T286 725H443Q430 715 416 703T381 673T334 631T271 573H188ZM279 447Q241 447 212 431T167 386Q153 361 147 328T140 245Q140 195 148 163T173 108Q190 85 217 73T277 60Q411 60 411 254Q411 354 380 400T279 447ZM280 520Q514 520 514 260Q514 212 505 168T477 89Q423 -13 272 -13Q37 -13 37 250Q37 520 280 520Z"  />
<glyph unicode="&#xF4;" horiz-adv-x="551" d="M378 573L275 654L173 573H67L141 656Q157 674 173 694T198 726H353Q361 714 378 694T410 656L484 573H378ZM279 447Q241 447 212 431T167 386Q153 361 147 328T140 245Q140 195 148 163T173 108Q190 85 217 73T277 60Q411 60 411 254Q411 354 380 400T279 447ZM280 520Q514 520 514 260Q514 212 505 168T477 89Q423 -13 272 -13Q37 -13 37 250Q37 520 280 520Z"  />
<glyph unicode="&#xF5;" horiz-adv-x="551" d="M463 713Q454 675 446 653T424 614Q409 595 388 585T343 574Q306 574 270 604L241 627Q220 645 202 645Q183 645 171 630T148 577L87 589Q103 664 132 699T209 735Q229 735 245 728T282 703L309 679Q331 660 350 660Q367 660 378 674T403 728L463 713ZM279 447Q241 447 212 431T167 386Q153 361 147 328T140 245Q140 195 148 163T173 108Q190 85 217 73T277 60Q411 60 411 254Q411 354 380 400T279 447ZM280 520Q514 520 514 260Q514 212 505 168T477 89Q423 -13 272 -13Q37 -13 37 250Q37 520 280 520Z"  />
<glyph unicode="&#xF6;" horiz-adv-x="551" d="M402 707Q466 707 466 657Q466 625 445 608T387 590Q327 590 327 638Q327 668 348 687T402 707ZM159 707Q223 707 223 657Q223 625 202 608T144 590Q84 590 84 638Q84 668 105 687T159 707ZM279 447Q241 447 212 431T167 386Q153 361 147 328T140 245Q140 195 148 163T173 108Q190 85 217 73T277 60Q411 60 411 254Q411 354 380 400T279 447ZM280 520Q514 520 514 260Q514 212 505 168T477 89Q423 -13 272 -13Q37 -13 37 250Q37 520 280 520Z"  />
<glyph unicode="&#xF7;" horiz-adv-x="563" d="M196 300Q158 300 129 300Q100 300 61 298Q62 312 62 322T63 340Q63 347 63 357T61 382Q101 380 132 380Q164 380 196 380H368Q400 380 431 380Q463 380 503 382Q502 368 502 357Q502 347 502 340Q502 333 502 322Q502 312 503 298Q464 300 435 300Q406 300 368 300H196ZM290 565Q345 565 345 517Q345 489 326 472T274 455Q219 455 219 502Q219 531 238 548T290 565ZM290 225Q345 225 345 177Q345 148 326 132T274 115Q219 115 219 162Q219 191 238 208T290 225Z"  />
<glyph unicode="&#xF8;" horiz-adv-x="551" d="M376 407Q359 426 334 436T279 447Q140 447 140 247Q140 218 143 194T152 152L376 407ZM178 103Q195 83 221 72T278 60Q411 60 411 256Q411 284 409 307T400 355L178 103ZM471 436Q514 371 514 265Q514 160 477 89Q423 -13 274 -13Q175 -13 116 33L63 -27L12 -7L81 72Q58 105 48 147T37 250Q37 520 279 520Q377 520 436 475L488 534L540 514L471 436Z"  />
<glyph unicode="&#xF9;" horiz-adv-x="591" d="M279 725Q298 694 309 675T330 641T350 611T377 573H294Q258 606 232 630T185 672T150 702T122 725H279ZM405 368Q405 399 404 416T399 443T387 455T363 460H344L347 504L454 512H509Q507 499 506 490T505 465V125Q505 101 507 86T513 62T526 50T547 47H558L555 0L411 -4Q407 22 406 37T405 71V154Q390 127 380 109T360 78T342 55T323 36Q267 -13 199 -13Q135 -13 104 30Q90 48 85 70T80 131V368Q80 398 79 416T74 443T61 456T38 460H27L30 504L131 512H184Q182 499 181 490T180 465V140Q180 116 181 105T187 86Q192 77 202 72T224 67Q278 67 335 144Q340 151 345 159T359 180T378 211T405 256V368Z"  />
<glyph unicode="&#xFA;" horiz-adv-x="591" d="M202 573Q218 596 228 611T248 641T269 675T300 725H457Q444 715 430 703T395 673T348 631T285 573H202ZM405 368Q405 399 404 416T399 443T387 455T363 460H344L347 504L454 512H509Q507 499 506 490T505 465V125Q505 101 507 86T513 62T526 50T547 47H558L555 0L411 -4Q407 22 406 37T405 71V154Q390 127 380 109T360 78T342 55T323 36Q267 -13 199 -13Q135 -13 104 30Q90 48 85 70T80 131V368Q80 398 79 416T74 443T61 456T38 460H27L30 504L131 512H184Q182 499 181 490T180 465V140Q180 116 181 105T187 86Q192 77 202 72T224 67Q278 67 335 144Q340 151 345 159T359 180T378 211T405 256V368Z"  />
<glyph unicode="&#xFB;" horiz-adv-x="591" d="M392 573L289 654L187 573H81L155 656Q171 674 187 694T212 726H367Q375 714 392 694T424 656L498 573H392ZM405 368Q405 399 404 416T399 443T387 455T363 460H344L347 504L454 512H509Q507 499 506 490T505 465V125Q505 101 507 86T513 62T526 50T547 47H558L555 0L411 -4Q407 22 406 37T405 71V154Q390 127 380 109T360 78T342 55T323 36Q267 -13 199 -13Q135 -13 104 30Q90 48 85 70T80 131V368Q80 398 79 416T74 443T61 456T38 460H27L30 504L131 512H184Q182 499 181 490T180 465V140Q180 116 181 105T187 86Q192 77 202 72T224 67Q278 67 335 144Q340 151 345 159T359 180T378 211T405 256V368Z"  />
<glyph unicode="&#xFC;" horiz-adv-x="591" d="M413 707Q477 707 477 657Q477 625 456 608T398 590Q338 590 338 638Q338 668 359 687T413 707ZM170 707Q234 707 234 657Q234 625 213 608T155 590Q95 590 95 638Q95 668 116 687T170 707ZM405 368Q405 399 404 416T399 443T387 455T363 460H344L347 504L454 512H509Q507 499 506 490T505 465V125Q505 101 507 86T513 62T526 50T547 47H558L555 0L411 -4Q407 22 406 37T405 71V154Q390 127 380 109T360 78T342 55T323 36Q267 -13 199 -13Q135 -13 104 30Q90 48 85 70T80 131V368Q80 398 79 416T74 443T61 456T38 460H27L30 504L131 512H184Q182 499 181 490T180 465V140Q180 116 181 105T187 86Q192 77 202 72T224 67Q278 67 335 144Q340 151 345 159T359 180T378 211T405 256V368Z"  />
<glyph unicode="&#xFD;" horiz-adv-x="521" d="M187 573Q203 596 213 611T233 641T254 675T285 725H442Q429 715 415 703T380 673T333 631T270 573H187ZM520 460Q504 458 497 456T484 446Q479 441 474 430T465 407L422 286Q408 245 399 219T380 169T361 122T336 62Q301 -21 278 -74T240 -162T213 -217T191 -254H75Q103 -216 136 -160T215 -16Q161 84 118 195T45 428Q39 448 31 454T0 460L3 507H190L187 460Q164 458 156 453T147 434Q147 420 152 398T171 343L265 90L337 305Q343 323 349 343T359 381T367 413T370 432Q370 447 362 453T332 460L335 507H523L520 460Z"  />
<glyph unicode="&#xFE;" horiz-adv-x="580" d="M177 195Q177 131 210 96T303 60Q437 60 437 281Q437 358 415 397T351 437Q322 437 290 417T234 363Q228 354 223 345T211 326T196 301T177 265V195ZM177 -90Q177 -122 177 -140T179 -169T184 -185T194 -194Q202 -199 214 -201T247 -205L244 -252Q220 -251 203 -251Q187 -251 172 -251Q152 -251 127 -251T62 -254Q70 -213 73 -175T77 -84V611Q77 634 77 647T76 667T74 677T71 685Q67 693 57 697T35 702H24L27 747L135 755H181Q180 746 180 731T179 697T178 660T177 624V388Q219 459 263 489T370 520Q415 520 449 503T503 452Q523 418 533 373T543 275Q543 214 529 159T489 66Q463 28 420 8T322 -13Q274 -13 242 0T177 49V-90Z"  />
<glyph unicode="&#xFF;" horiz-adv-x="521" d="M401 707Q465 707 465 657Q465 625 444 608T386 590Q326 590 326 638Q326 668 347 687T401 707ZM158 707Q222 707 222 657Q222 625 201 608T143 590Q83 590 83 638Q83 668 104 687T158 707ZM520 460Q504 458 497 456T484 446Q479 441 474 430T465 407L422 286Q408 245 399 219T380 169T361 122T336 62Q301 -21 278 -74T240 -162T213 -217T191 -254H75Q103 -216 136 -160T215 -16Q161 84 118 195T45 428Q39 448 31 454T0 460L3 507H190L187 460Q164 458 156 453T147 434Q147 420 152 398T171 343L265 90L337 305Q343 323 349 343T359 381T367 413T370 432Q370 447 362 453T332 460L335 507H523L520 460Z"  />
<glyph unicode="&#x152;" horiz-adv-x="893" d="M433 518Q433 543 430 559T419 583T394 594T352 597Q290 597 252 579T193 519Q175 485 166 439T156 336Q156 258 177 199T237 106Q260 87 288 79T357 70Q380 70 394 73T417 86T429 111T433 152V518ZM826 667Q827 658 827 653Q827 648 828 640Q830 630 831 622T834 604Q836 589 837 580T839 564T840 551Q840 546 840 538H768Q765 560 762 568T752 585Q744 594 731 596T681 599H595Q561 599 551 589T540 546V383H787L784 312H540V136Q540 116 542 103T551 83T570 72T600 69H699Q725 69 742 72T769 83T785 105T793 144H865Q865 134 865 128T863 116T861 100T857 74Q852 44 851 30T848 0H539H443Q433 0 422 0Q412 0 400 -1H355Q277 -1 214 25T110 101Q42 184 42 329Q42 427 72 501T161 619Q198 646 235 657T329 668Q337 668 357 668Q377 668 403 667H478H539H826Z"  />
<glyph unicode="&#x153;" horiz-adv-x="881" d="M279 447Q241 447 212 431T166 386Q152 361 146 328T140 245Q140 195 148 163T173 108Q190 85 217 73T277 60Q410 60 410 254Q410 354 379 400T279 447ZM736 313Q737 319 737 324Q737 330 737 332Q737 395 712 428T637 461Q534 461 521 313H736ZM844 99Q800 41 748 14T627 -13Q600 -13 580 -10T540 1T501 23T457 59Q425 21 381 4T272 -13Q37 -13 37 250Q37 520 280 520Q412 520 467 441Q502 483 543 501T640 520Q740 520 791 463T843 294Q843 288 843 275T841 247H518Q520 147 548 104T640 60Q682 60 717 80T786 144L844 99Z"  />
<glyph unicode="&#x160;" horiz-adv-x="511" d="M153 869L255 788L358 869H464L390 786Q382 778 374 768T358 749T344 731T333 717H178Q173 723 166 732T151 750T135 769T121 786L47 869H153ZM381 530Q379 553 373 565T353 587Q337 597 313 602T262 608Q204 608 174 581T143 502Q143 424 228 402L333 374Q407 354 442 309T477 186Q477 92 419 40T256 -13Q244 -13 234 -13T210 -11T176 -8T124 -3L82 0L53 1L39 2V17V49L37 85L35 114Q34 122 34 127Q34 133 34 141Q34 143 34 147Q34 152 35 157H105Q107 130 115 112T139 83T181 67T245 62Q281 62 305 70T345 97Q372 129 372 176Q372 262 278 288L180 313Q110 332 72 379T33 493Q33 538 50 576T97 638Q151 680 252 680Q270 680 286 679T327 675Q368 670 390 668T433 666H448Q448 653 448 644Q448 636 448 629Q448 623 448 617T450 600Q452 578 452 569Q452 561 452 552Q452 546 452 542Q452 538 451 530H381Z"  />
<glyph unicode="&#x161;" horiz-adv-x="435" d="M115 726L217 645L320 726H426L352 643Q344 635 336 625T320 606T306 588T295 573H140Q131 586 113 607T83 643L9 726H115ZM324 379Q323 399 320 410T309 429Q297 442 273 449T220 456Q179 456 157 437T135 382Q135 355 153 339T211 312L289 294Q343 280 373 243T404 150Q404 73 355 30T219 -13Q210 -13 197 -12T168 -10T138 -7T110 -3Q95 0 78 2T39 8Q38 21 37 43T32 98Q31 107 31 113Q31 120 31 124Q31 127 31 131Q31 136 32 142L99 143Q100 118 104 104T116 79Q126 67 151 59T206 51Q251 51 276 74T302 136Q302 167 284 188T230 217L158 233Q34 263 34 369Q34 442 80 481T215 520Q227 520 237 520T259 518T286 515T324 510Q338 508 351 507T383 505Q383 496 383 491Q383 487 384 479L387 444Q389 427 389 414T390 396V379H324Z"  />
<glyph unicode="&#x178;" horiz-adv-x="530" d="M398 850Q462 850 462 800Q462 769 441 751T384 733Q323 733 323 781Q323 811 344 830T398 850ZM155 850Q219 850 219 800Q219 769 198 751T141 733Q80 733 80 781Q80 811 101 830T155 850ZM320 125Q320 101 321 86T327 62T340 50T362 47H373L370 0H156L159 47H171Q184 47 192 50T205 61T211 85T213 125V259Q208 269 203 280T187 309T162 352T125 416Q110 441 98 462T75 504T53 547T29 598Q23 610 16 614T-5 620L-1 667H190L186 620Q162 618 155 614T147 596Q147 585 163 556L246 392Q253 378 257 368T264 350T268 335T269 318H272Q273 328 275 336T280 355T288 378T303 409L370 545Q381 568 385 578T389 594Q389 608 380 613T347 620L351 667H535L532 620Q520 619 514 616T500 605Q498 604 496 599T482 574L467 545L320 269V125Z"  />
<glyph unicode="&#x17D;" horiz-adv-x="545" d="M190 869L292 788L395 869H501L427 786Q419 778 411 768T395 749T381 731T370 717H215Q210 723 203 732T188 750T172 769T158 786L84 869H190ZM524 145Q523 131 523 125Q523 120 521 109L516 76Q514 58 513 47T510 28T509 14T508 0H20L23 47L370 598H209Q182 598 166 596T139 589T124 573T114 545L112 538H42Q42 547 42 554T44 570T48 594T55 634Q57 645 57 651T59 667H512V628L163 71H338Q371 71 392 74T426 85T445 107T455 145H524Z"  />
<glyph unicode="&#x17E;" horiz-adv-x="469" d="M152 726L254 645L357 726H463L389 643Q381 635 373 625T357 606T343 588T332 573H177Q168 586 150 607T120 643L46 726H152ZM451 465Q441 454 433 445T418 427Q408 413 399 401T381 377L151 70H281Q308 70 325 73T354 83T371 105T381 141H442Q441 136 441 133T440 126T438 119T436 107Q434 93 433 85T428 60Q426 50 425 41T422 24L418 -1L416 -11Q393 -4 378 -2T338 0H122Q108 0 98 0Q89 0 81 0T65 -1T45 -3L18 48Q33 65 42 76T66 111Q73 122 80 131T94 151L311 437H191Q168 437 154 436T132 429T118 413T108 385H45Q52 424 60 475Q62 486 63 492T66 510Q79 509 88 509T107 508T128 507Q140 507 158 507H344Q359 507 369 507Q379 507 386 507T401 508T420 510L451 465Z"  />
<glyph unicode="&#x192;" horiz-adv-x="563" d="M334 362L302 197Q289 131 277 81T252 -7T225 -71T195 -118Q136 -189 31 -189Q24 -189 17 -189Q11 -189 0 -187L11 -117Q44 -116 67 -113T108 -100T138 -68T162 -12T183 75T208 203L239 362H111L123 441H252L274 557Q279 581 284 600T296 634T312 663T334 689Q346 702 357 710T383 724T415 732T458 734Q482 734 503 733T547 728L537 653Q508 655 486 656T453 657Q427 657 413 651T390 628Q387 622 385 618T381 605T376 581T368 538L349 441H515L503 362H334Z"  />
<glyph unicode="&#x2C6;" horiz-adv-x="500" d="M353 573L250 654L148 573H42L116 656Q132 674 148 694T173 726H328Q336 714 353 694T385 656L459 573H353Z"  />
<glyph unicode="&#x2DC;" horiz-adv-x="500" d="M438 713Q429 675 421 653T399 614Q384 595 363 585T318 574Q281 574 245 604L216 627Q195 645 177 645Q158 645 146 630T123 577L62 589Q78 664 107 699T184 735Q204 735 220 728T257 703L284 679Q306 660 325 660Q342 660 353 674T378 728L438 713Z"  />
<glyph unicode="&#x2013;" horiz-adv-x="563" d="M350 300Q375 300 392 300Q410 300 426 300Q443 300 461 300T506 302Q505 288 505 278T504 260Q504 253 504 243T506 218Q485 219 468 219T434 220Q417 220 397 220Q377 220 350 220H212Q185 220 165 220Q146 220 129 220Q112 220 95 220T57 218Q58 232 58 242T59 260Q59 267 59 277T57 302Q84 301 102 301T136 300Q153 300 170 300Q187 300 212 300H350Z"  />
<glyph unicode="&#x2014;" horiz-adv-x="709" d="M480 300Q517 300 542 300Q568 300 592 300Q616 300 643 300T709 302Q708 288 708 278T707 260Q707 253 707 243T709 218Q671 219 646 219T598 220Q575 220 548 220Q522 220 480 220H229Q187 220 160 220Q134 220 111 220Q88 220 63 220T0 218Q1 232 1 242T2 260Q2 267 2 277T0 302Q39 301 66 301T117 300Q141 300 166 300Q192 300 229 300H480Z"  />
<glyph unicode="&#x2018;" horiz-adv-x="243" d="M191 723Q166 694 150 664T122 599H130H138Q163 599 176 587T190 552Q190 524 171 506T119 488Q87 488 70 505T53 556Q53 601 79 654T150 755L191 723Z"  />
<glyph unicode="&#x2019;" horiz-adv-x="243" d="M53 520Q78 549 94 579T122 644H107Q54 644 54 691Q54 720 73 737T124 755Q191 755 191 687Q191 642 165 589T94 488L53 520Z"  />
<glyph unicode="&#x201A;" horiz-adv-x="243" d="M53 -132Q78 -103 94 -73T122 -7L114 -8H106Q81 -8 68 4T54 39Q54 67 73 85T124 103Q156 103 173 85T191 35Q191 -10 165 -63T94 -164L53 -132Z"  />
<glyph unicode="&#x201C;" horiz-adv-x="432" d="M191 723Q166 694 150 664T122 599H138Q163 599 176 587T190 552Q190 523 171 506T120 488Q53 488 53 556Q53 601 79 654T150 755L191 723ZM380 724Q355 694 339 664T311 599H319Q351 599 365 588T379 552Q379 523 360 506T309 488Q242 488 242 556Q242 601 268 654T339 755L380 724Z"  />
<glyph unicode="&#x201D;" horiz-adv-x="432" d="M242 520Q267 549 283 579T311 644H296Q243 644 243 691Q243 720 262 737T313 755Q380 755 380 687Q380 642 354 589T283 488L242 520ZM53 520Q78 549 94 579T122 644H107Q54 644 54 691Q54 720 73 737T124 755Q191 755 191 687Q191 642 165 589T94 488L53 520Z"  />
<glyph unicode="&#x201E;" horiz-adv-x="432" d="M242 -132Q267 -103 283 -73T311 -7L303 -8H295Q270 -8 257 4T243 39Q243 67 262 85T313 103Q345 103 362 85T380 35Q380 -10 354 -63T283 -164L242 -132ZM53 -132Q78 -103 94 -73T122 -7L114 -8H106Q81 -8 68 4T54 39Q54 67 73 85T124 103Q156 103 173 85T191 35Q191 -10 165 -63T94 -164L53 -132Z"  />
<glyph unicode="&#x2020;" horiz-adv-x="563" d="M256 -170Q253 -86 249 -12T240 123T230 230T219 302Q226 320 230 333T236 357T240 381T244 410Q232 409 223 409T203 407T182 405T152 402Q129 400 116 399T93 397T77 396T60 394V496Q86 493 131 489T244 480Q244 501 242 531T237 594T230 663T222 730H342Q337 697 333 662T326 593T322 530T320 480Q387 485 432 489T504 496V394L485 396Q466 398 448 399T412 402Q394 404 383 405T362 407T343 408T320 410Q321 394 323 382T327 358T334 333T345 302Q339 275 334 229T324 121T315 -14T308 -170H256Z"  />
<glyph unicode="&#x2021;" horiz-adv-x="563" d="M504 395Q493 396 485 396T468 398T446 400T412 403Q394 404 382 405T359 407T340 408T320 410Q323 385 325 368T330 337T338 310T351 280Q343 263 339 250T331 223T325 192T320 150Q330 151 338 151T357 152T380 154T412 157Q431 159 443 160T464 162T482 163T504 165V64Q475 67 457 69T414 73Q377 76 354 77T320 80Q320 59 321 30T326 -32T333 -100T342 -170H222Q227 -138 231 -103T238 -35T242 29T244 80Q217 78 195 77T150 73Q136 72 126 71T106 69T86 67T60 64V165Q72 164 81 164T100 162T122 160T152 157Q171 155 184 154T207 153T225 152T244 150Q241 174 239 191T234 222T225 250T213 280Q220 297 225 310T233 338T239 369T244 410Q233 409 224 409T205 407T183 405T152 403Q131 401 118 400T96 398T80 397T60 395V496Q89 493 107 491T150 487Q175 485 198 484T244 480Q244 501 242 531T237 595T230 663T222 730H342Q337 697 333 662T326 593T322 530T320 480Q368 484 395 486T439 489T470 492T504 496V395Z"  />
<glyph unicode="&#x2022;" horiz-adv-x="667" d="M337 477Q365 477 389 466T432 436T462 392T473 339Q473 310 462 285T433 241T389 211T335 200Q306 200 281 211T237 240T207 284T196 338Q196 367 207 392T237 436T281 466T337 477Z"  />
<glyph unicode="&#x2026;" horiz-adv-x="732" d="M619 105Q676 105 676 56Q676 26 656 9T602 -9Q575 -9 560 3T545 40Q545 69 565 87T619 105ZM375 105Q432 105 432 56Q432 26 412 9T358 -9Q331 -9 316 3T301 40Q301 69 321 87T375 105ZM131 105Q188 105 188 56Q188 26 168 9T114 -9Q87 -9 72 3T57 40Q57 69 77 87T131 105Z"  />
<glyph unicode="&#x2030;" horiz-adv-x="1238" d="M1037 294Q997 294 980 266T962 174Q962 109 979 81T1037 53Q1077 53 1094 81T1112 173Q1112 238 1095 266T1037 294ZM1037 354Q1077 354 1111 339T1166 298Q1183 278 1192 244T1202 171Q1202 136 1193 103T1166 49Q1146 23 1111 8T1037 -7Q998 -7 963 8T908 49Q891 71 882 104T872 174Q872 210 881 243T908 298Q928 324 963 339T1037 354ZM650 294Q610 294 593 266T575 174Q575 109 592 81T650 53Q690 53 707 81T725 173Q725 238 708 266T650 294ZM650 354Q690 354 724 339T779 298Q796 278 805 244T815 171Q815 136 806 103T779 49Q759 23 724 8T650 -7Q611 -7 576 8T521 49Q504 70 495 103T485 174Q485 210 494 243T521 298Q541 324 576 339T650 354ZM305 -7L225 2L548 674L629 665L305 -7ZM202 607Q162 607 145 579T127 487Q127 422 144 394T202 366Q242 366 259 394T277 486Q277 551 260 579T202 607ZM201 667Q242 667 276 652T331 611Q348 591 357 557T367 485Q367 450 358 417T331 362Q311 336 277 321T202 306Q163 306 128 321T73 362Q56 383 47 416T37 486Q37 523 46 556T73 611Q93 637 128 652T201 667Z"  />
<glyph unicode="&#x2039;" horiz-adv-x="286" d="M246 468Q229 436 216 410T191 355Q182 334 173 313T156 272L148 254Q150 250 151 247T155 239Q164 219 173 201T191 163Q200 143 206 129T219 103T231 79T246 52H148Q136 78 106 131T33 254Q63 305 82 340T115 399T135 438T148 468H246Z"  />
<glyph unicode="&#x203A;" horiz-adv-x="286" d="M40 52Q57 84 70 110T95 166Q113 208 123 232T138 266Q136 270 135 273T131 281L95 357Q86 376 80 390T67 417T55 441T40 468H138Q144 456 154 436T180 389T213 331T253 266Q224 216 205 182T172 123T152 83T138 52H40Z"  />
<glyph unicode="&#x20AC;" horiz-adv-x="532" d="M535 522H464V594Q416 610 365 610Q280 610 230 564T160 439H481L450 368H148Q146 360 146 352T147 335V321H435L403 250H156Q165 208 181 173T223 113T283 75T365 61Q406 61 447 70T530 96L528 15Q488 -2 446 -8T360 -15Q296 -15 245 3T157 56T96 140T62 250H-7L25 321H56V334Q56 342 56 351Q56 360 57 368H-7L25 439H68Q80 494 105 539T169 617T256 666T363 684Q455 684 537 649L535 522Z"  />
<glyph unicode="&#x2122;" horiz-adv-x="1041" d="M692 267L691 273Q690 282 689 287T686 299T681 314T673 337L598 533Q596 539 594 545T589 564Q589 547 588 537T585 512L564 374Q561 356 560 346T558 331T557 323Q557 321 557 319Q557 309 562 306T581 301L578 267H460L463 301L470 302Q476 303 480 304T486 309T490 322T495 346L535 585Q537 593 537 601T538 614Q538 625 535 628T518 633L521 667H623Q628 646 634 627T648 586L707 439Q721 402 725 373Q727 390 731 402T747 439L818 599Q827 618 827 625Q827 630 823 631T808 633L810 667H930Q928 660 928 656Q928 653 928 648Q928 644 928 636T930 622L967 339Q971 318 972 314T975 306Q977 304 981 303T994 301L991 267H868L871 301Q886 301 891 304T896 316Q896 318 896 323T894 338L876 494Q874 517 873 537T871 583Q867 562 859 538T836 481L773 344Q766 329 762 319T756 301T752 285T750 267H692ZM310 582Q311 589 311 592Q311 596 311 600Q311 613 303 616T265 620H243V344Q243 317 247 309T265 301H276L274 267H136L138 301H147Q161 301 165 309T169 344V620H144Q129 620 121 620T108 615T102 604T98 582H47L49 604Q50 616 50 623T51 637Q51 644 51 651T52 667H365Q364 650 364 641T363 622Q363 614 363 606T362 582H310Z"  />

</font>
</defs>
</svg>
