<?xml  version="1.0" encoding="UTF-8"?>
<!DOCTYPE svg PUBLIC "-//W3C//DTD SVG 1.0//EN" "http://www.w3.org/TR/2001/REC-SVG-20010904/DTD/svg10.dtd" >
<svg xmlns="http://www.w3.org/2000/svg" >
<metadata>
<version>1.0</version>
<id><![CDATA[Generis Slab W01 Light]]></id>
<vendor>Monotype Imaging Inc.</vendor>
<credits>
<name>Fonts.com WebFonts</name>
<URL>http://webfonts.fonts.com</URL>
<role>Home of the Web fonts</role>
</credits>
<license>
<URL>http://webfonts.fonts.com/Legal</URL>
</license>
<copyright><![CDATA[Copyright © 2006 Linotype GmbH, www.linotype.com. All rights reserved. This font software may not be reproduced, modified, disclosed or transferred without the express written approval of Linotype GmbH. Generis is a trademark of Linotype GmbH and may be registered in certain jurisdictions. This typeface is original artwork of Erik Faulhaber. The design may be protected in certain jurisdictions.]]></copyright>
<trademark><![CDATA[Generis is a trademark of Linotype GmbH and may be registered in certain jurisdictions.]]></trademark>
<licensee>
<name></name>
</licensee>
</metadata>
<defs >
<font horiz-adv-x="456" id="f08f13e2-a6f1-44fc-a271-0ad8faa69c82">
<font-face font-family="" panose-1="2 6 4 6 6 5 6 2 2 4" ascent="870" descent="-231" units-per-em="1000" alphabetic="0">
</font-face>
<missing-glyph horiz-adv-x="0" />

<glyph unicode="&#xA;" />
<glyph unicode="&#xD;" horiz-adv-x="0" />
<glyph unicode=" " horiz-adv-x="232" />
<glyph unicode="!" horiz-adv-x="261" d="M154 162H107L98 667H163L154 162ZM180 38Q180 18 166 3T130 -12Q109 -12 95 3T80 38Q80 58 94 72T130 87Q151 87 165 73T180 38Z"  />
<glyph unicode="&quot;" horiz-adv-x="336" d="M194 379V667H245V379H194ZM91 379V667H142V379H91Z"  />
<glyph unicode="#" horiz-adv-x="464" d="M358 432L315 235H379V190H306L266 0H219L260 190H143L103 0H56L97 190H34V235H106L149 432H85V477H158L198 667H245L205 477H321L361 667H408L368 477H430V432H358ZM195 432L153 235H270L312 432H195Z"  />
<glyph unicode="$" horiz-adv-x="464" d="M396 190Q396 159 384 132T352 85T306 51T251 33V-84H208V30Q187 30 165 33T124 42T91 53T69 63V160H117V87Q124 84 135 81T161 74T189 69T217 67Q248 67 270 78T308 105T330 142T337 183Q337 212 318 236T269 282T206 325T142 369T94 419T74 480Q74 508 84 532T113 576T157 607T214 624V739H257V624Q275 622 293 619T328 611T357 603T375 595V498H328V572Q323 574 313 577T290 582T264 587T240 589Q188 589 161 560T133 486Q133 461 152 439T201 396T264 353T328 307T376 254T396 190Z"  />
<glyph unicode="%" horiz-adv-x="929" d="M831 200Q831 162 824 125T800 57T759 7T698 -12Q661 -12 636 7T596 56T574 124T567 200Q567 228 574 262T597 325T638 375T698 395Q736 395 761 375T802 326T824 263T831 200ZM342 0H298L586 655H630L342 0ZM361 472Q361 434 354 397T331 329T290 279T229 260Q192 260 167 279T127 328T105 396T98 472Q98 500 105 534T128 597T169 647T229 667Q267 667 292 647T333 598T354 535T361 472ZM778 200Q778 220 774 247T761 300T737 342T698 360Q674 360 659 342T635 298T623 245T620 200Q620 169 624 138T637 81T661 39T698 23Q720 23 735 40T760 83T774 140T778 200ZM309 472Q309 492 305 519T292 572T268 614T229 632Q205 632 190 614T166 570T154 517T150 472Q150 441 154 410T167 353T192 311T229 295Q251 295 266 312T291 355T305 412T309 472Z"  />
<glyph unicode="&amp;" horiz-adv-x="598" d="M495 0Q469 0 446 19T408 61Q403 54 390 42T355 18T306 -3T243 -12Q189 -12 152 5T93 49T60 108T50 171Q50 208 65 239T102 294T148 336T189 365Q177 381 162 402T132 447T108 494T98 540Q98 562 109 587T140 632T188 665T252 679Q283 679 310 668T356 638T386 594T397 541Q397 507 380 479T339 428T291 389T252 364L416 147Q428 169 439 212T450 311H399V348H555V311H501Q501 251 486 197T444 108Q464 79 485 58T524 37H559V0H495ZM344 541Q344 559 338 577T321 610T292 633T252 642Q228 642 210 633T179 609T159 576T152 541Q152 525 161 503T183 460T210 419T233 390Q248 401 267 416T303 450T332 491T344 541ZM208 338Q189 324 171 307T139 268T116 223T107 171Q107 146 115 121T139 74T181 40T243 26Q268 26 290 33T331 50T363 72T384 94L208 338Z"  />
<glyph unicode="&apos;" horiz-adv-x="232" d="M91 379V667H142V379H91Z"  />
<glyph unicode="(" horiz-adv-x="290" d="M208 -60Q185 -26 162 23T121 127T91 240T79 348Q79 393 91 443T123 540T165 630T208 703H244Q228 678 210 634T175 539T149 438T138 348Q138 304 148 246T174 131T208 22T244 -60H208Z"  />
<glyph unicode=")" horiz-adv-x="290" d="M211 348Q211 298 200 241T170 128T128 23T82 -60H46Q62 -30 81 21T115 130T141 246T152 348Q152 387 142 437T115 539T81 634T46 703H82Q102 673 125 631T167 541T198 443T211 348Z"  />
<glyph unicode="*" horiz-adv-x="348" d="M204 507L284 407L247 379L175 489L102 379L64 407L145 507L49 533L64 578L156 542L150 667H198L193 542L284 578L299 533L204 507Z"  />
<glyph unicode="+" horiz-adv-x="464" d="M258 227V0H207V227H50V275H207V502H258V275H414V227H258Z"  />
<glyph unicode="&#x2c;" horiz-adv-x="232" d="M78 -132H30L98 69H160L78 -132Z"  />
<glyph unicode="-" horiz-adv-x="290" d="M42 280V328H248V280H42Z"  />
<glyph unicode="." horiz-adv-x="232" d="M162 34Q162 14 149 1T116 -12Q96 -12 83 1T70 34Q70 54 83 67T117 80Q137 80 149 67T162 34Z"  />
<glyph unicode="/" horiz-adv-x="232" d="M65 0H19L167 667H213L65 0Z"  />
<glyph unicode="0" horiz-adv-x="464" d="M424 342Q424 277 413 214T379 100T319 19T231 -12Q177 -12 141 19T82 100T51 213T41 342Q41 388 52 444T87 550T146 633T231 667Q282 667 319 635T379 555T413 449T424 342ZM365 342Q365 375 359 424T337 518T295 595T231 627Q207 627 188 612T155 573T130 517T113 454T103 393T100 342Q100 293 106 238T128 137T168 59T231 28Q268 28 294 59T335 137T358 239T365 342Z"  />
<glyph unicode="1" horiz-adv-x="464" d="M67 0V41H224V600L76 519L60 560L240 655H281V41H423V0H67Z"  />
<glyph unicode="2" horiz-adv-x="464" d="M61 0V31Q61 64 81 101T132 177T198 258T264 341T315 424T336 506Q336 558 309 592T231 627Q208 627 185 621T142 605T106 588T85 575L69 616Q73 618 87 626T124 643T174 659T232 667Q269 667 299 655T351 620T384 569T396 506Q396 467 375 425T321 340T252 254T182 173T129 100T107 40H396V0H61Z"  />
<glyph unicode="3" horiz-adv-x="464" d="M402 214Q402 166 385 125T338 53T267 5T177 -13Q152 -13 128 -9T85 2T51 15T30 24L45 67Q51 63 65 57T99 44T138 32T177 27Q216 27 247 42T299 84T332 145T343 216Q343 250 333 278T303 328T259 360T206 372Q191 372 172 370T143 364V400L316 615H67V655H373V623L190 406Q196 407 206 407T222 408Q253 408 285 395T343 356T385 295T402 214Z"  />
<glyph unicode="4" horiz-adv-x="464" d="M339 153V37H417V0H208V37H286V153H20V184Q27 195 38 216T62 263T88 316T113 368T133 409T144 434L233 655H290L202 446Q195 429 177 393T138 316T98 241T70 192H286V391H339V192H435V153H339Z"  />
<glyph unicode="5" horiz-adv-x="464" d="M408 219Q408 180 394 139T353 65T286 10T195 -12Q171 -12 148 -8T104 3T70 15T50 25L66 68Q72 64 86 58T119 45T158 33T195 28Q232 28 260 45T308 91T338 152T349 219Q349 245 341 273T316 324T273 362T211 377Q194 377 178 371T146 357T120 341T104 327H71L81 655H371V615H125L116 373Q120 376 129 382T153 396T185 408T223 413Q264 413 298 397T356 354T394 292T408 219Z"  />
<glyph unicode="6" horiz-adv-x="464" d="M425 209Q425 166 411 126T372 56T310 7T231 -12Q185 -12 150 6T90 55T54 126T41 209Q41 254 50 289T68 346Q74 363 85 385T110 430T139 476T167 517Q168 518 175 527T192 550T214 580T237 612T257 638T270 655H323L223 521Q215 510 201 488T171 440T144 393T128 362Q134 368 145 377T172 394T207 409T246 415Q280 415 312 400T370 358T410 293T425 209ZM365 209Q365 245 355 276T327 329T285 364T231 377Q213 377 194 369T157 351T128 329T112 312Q106 295 102 265T98 209Q98 175 107 142T133 84T174 43T231 27Q264 27 289 42T331 83T356 142T365 209Z"  />
<glyph unicode="7" horiz-adv-x="464" d="M410 621Q406 614 398 594T378 545T355 485T333 424T314 369T302 330L223 0H161L247 318Q252 336 261 363T281 420T304 481T327 539T347 586T361 615H107V516H56V655H410V621H410Z"  />
<glyph unicode="8" horiz-adv-x="464" d="M425 169Q425 136 411 104T372 46T311 4T232 -12Q187 -12 152 3T92 43T55 100T42 169Q42 203 58 232T96 285T144 324T186 350Q168 360 147 376T108 413T78 461T66 519Q66 546 79 572T114 620T167 654T232 667Q270 667 301 655T355 622T389 575T401 519Q401 491 389 467T357 422T317 385T279 358Q296 349 321 332T369 291T408 237T425 169ZM345 518Q345 539 338 559T316 594T280 619T232 628Q206 628 186 619T151 594T130 559T122 518Q122 494 132 472T158 432T196 398T239 372Q251 379 269 392T304 425T333 467T345 518ZM366 170Q366 198 352 224T316 272T271 311T226 337Q207 325 185 310T144 274T113 228T100 170Q100 141 109 115T136 70T178 39T232 27Q262 27 287 38T329 69T356 115T366 170Z"  />
<glyph unicode="9" horiz-adv-x="464" d="M425 461Q425 440 423 419T417 379T409 345T402 320Q397 306 387 285T364 242T337 197T310 157Q299 142 281 118T245 69T212 24T193 0H138L241 142Q254 160 270 183T301 230T327 274T344 307Q339 302 327 293T297 276T260 261T219 255Q182 255 150 269T94 311T56 376T42 461Q42 497 56 533T95 600T156 648T233 667Q278 667 313 649T374 602T412 536T425 461ZM368 461Q368 489 359 519T333 573T290 612T233 628Q203 628 179 614T137 577T110 523T101 461Q101 426 110 396T136 342T178 306T233 293Q252 293 272 300T311 316T341 337T356 357Q359 365 361 379T364 408T367 438T368 461Z"  />
<glyph unicode=":" horiz-adv-x="232" d="M162 468Q162 448 149 435T116 422Q96 422 83 435T70 468Q70 488 83 501T117 514Q137 514 149 501T162 468ZM162 34Q162 14 149 1T116 -12Q96 -12 83 1T70 34Q70 54 83 67T117 80Q137 80 149 67T162 34Z"  />
<glyph unicode=";" horiz-adv-x="232" d="M162 468Q162 448 149 435T116 422Q96 422 83 435T70 468Q70 488 83 501T117 514Q137 514 149 501T162 468ZM78 -132H30L98 69H160L78 -132Z"  />
<glyph unicode="&lt;" horiz-adv-x="464" d="M48 221V281L414 502V441L100 251L414 61V0L48 221Z"  />
<glyph unicode="=" horiz-adv-x="464" d="M50 320V368H414V320H50ZM50 134V182H414V134H50Z"  />
<glyph unicode="&gt;" horiz-adv-x="464" d="M48 0V61L362 251L48 441V502L414 281V221L48 0Z"  />
<glyph unicode="?" horiz-adv-x="380" d="M333 523Q333 477 309 435T256 350T203 261T179 162H133Q133 221 155 267T204 354T253 435T275 523Q275 572 245 605T163 638Q148 638 130 635T96 626T67 615T48 606L32 648Q36 650 49 655T81 665T120 675T163 679Q202 679 233 667T287 633T321 584T333 523ZM206 38Q206 18 192 3T156 -12Q135 -12 121 3T106 38Q106 58 120 72T156 87Q177 87 191 73T206 38Z"  />
<glyph unicode="@" horiz-adv-x="873" d="M819 323Q819 267 801 210T749 106T669 30T566 0Q547 0 534 7T514 26T503 51T499 76Q493 67 480 54T448 29T407 9T360 0Q329 0 306 13T266 49T242 102T234 168Q234 210 250 262T297 360T371 437T466 469Q488 469 504 461T533 442T554 419T566 396L581 459H630L555 117Q554 113 552 101T550 87Q550 59 557 49T576 38Q618 38 652 66T711 136T750 229T764 323Q764 388 741 445T677 546T581 614T461 639Q390 639 327 602T217 503T141 364T113 204Q113 135 134 65T196 -61T296 -153T431 -189Q465 -189 500 -182T564 -165T614 -146T640 -132L655 -175Q647 -180 627 -189T575 -207T506 -224T425 -231Q343 -231 275 -195T158 -99T82 40T55 204Q55 295 87 380T176 532T308 639T467 679Q536 679 599 652T712 578T790 465T819 323ZM548 330Q548 342 543 359T527 392T499 419T460 431Q434 431 411 418T369 382T336 331T311 274T296 217T290 168Q290 145 294 123T308 81T333 51T369 39Q395 39 418 50T460 78T492 112T510 143L548 330H548Z"  />
<glyph unicode="A" horiz-adv-x="622" d="M430 0V41H490L436 206H175L121 41H181V0H12V41H72L285 667H338L550 41H610V0H430ZM303 601L187 242H424L303 601Z"  />
<glyph unicode="B" horiz-adv-x="547" d="M495 191Q495 152 478 117T431 56T360 15T270 0H50V41H110V626H50V667H282Q318 667 353 657T415 627T460 576T477 502Q477 472 464 447T433 402T393 369T354 351Q371 348 395 337T442 305T479 257T495 191ZM416 502Q416 530 406 553T377 592T334 617T281 626H168V368H279Q305 368 329 378T373 407T404 450T416 502ZM434 191Q434 221 421 246T387 290T338 319T282 330H168V41H282Q315 41 342 53T390 86T422 134T434 191Z"  />
<glyph unicode="C" horiz-adv-x="523" d="M464 25Q441 14 402 1T310 -12Q242 -12 195 20T117 103T73 218T59 348Q59 410 77 469T128 575T207 650T310 679Q337 679 360 675T402 665T433 654T452 645V535H400V619Q395 621 386 624T363 630T336 635T310 638Q264 638 229 612T169 544T133 451T120 348Q120 292 132 235T168 132T227 56T310 26Q324 26 340 29T370 36T395 44T412 52V135H464V25H464Z"  />
<glyph unicode="D" horiz-adv-x="602" d="M543 348Q543 276 521 213T461 102T370 28T258 0H50V41H110V626H50V667H240Q303 667 358 644T454 578T519 477T543 348ZM483 348Q483 410 463 461T410 549T336 606T251 626H168V41H257Q303 41 344 66T416 134T465 232T483 348Z"  />
<glyph unicode="E" horiz-adv-x="517" d="M50 0V41H110V626H50V667H454V535H402V626H168V369H393V329H168V41H414V135H466V0H50Z"  />
<glyph unicode="F" horiz-adv-x="484" d="M390 535V626H168V358H380V317H168V41H234V0H50V41H110V626H50V667H442V535H390Z"  />
<glyph unicode="G" horiz-adv-x="586" d="M488 284V34Q481 30 463 22T421 7T370 -6T316 -12Q246 -12 197 18T118 99T73 214T59 348Q59 409 76 468T126 574T206 650T316 679Q346 679 372 675T420 665T455 654T475 645V524H422V619Q417 621 406 624T381 630T349 635T316 638Q268 638 232 611T171 542T133 449T120 348Q120 289 131 232T167 129T228 56T316 28Q334 28 352 31T387 38T414 47T431 55V284H371V324H543V284H488Z"  />
<glyph unicode="H" horiz-adv-x="626" d="M398 0V41H458V328H168V41H228V0H50V41H110V626H50V667H228V626H168V368H458V626H398V667H576V626H516V41H576V0H398Z"  />
<glyph unicode="I" horiz-adv-x="278" d="M50 0V41H110V626H50V667H228V626H168V41H228V0H50Z"  />
<glyph unicode="J" horiz-adv-x="350" d="M246 626V173Q246 82 204 35T94 -12Q81 -12 67 -10T41 -5T19 1T5 7L21 49Q25 46 33 43T51 36T73 30T93 27Q133 27 160 61T188 164V626H122V667H306V626H246Z"  />
<glyph unicode="K" horiz-adv-x="564" d="M362 0V41H416L169 346L395 626H341V667H512V626H452L231 355L489 41H549V0H362ZM50 0V41H110V626H50V667H222V626H168V41H222V0H50Z"  />
<glyph unicode="L" horiz-adv-x="447" d="M50 0V41H110V626H50V667H234V626H168V41H368V135H420V0H50Z"  />
<glyph unicode="M" horiz-adv-x="781" d="M559 0V41H613V611L409 0H356L157 611V41H211V0H50V41H110V626H50V667H201L389 83L587 667H731V626H671V41H731V0H559Z"  />
<glyph unicode="N" horiz-adv-x="636" d="M532 630V0H479L157 599V41H217V0H50V41H110V626H50V667H184L486 104V630H426V671H592V630H532Z"  />
<glyph unicode="O" horiz-adv-x="587" d="M528 348Q528 290 515 227T474 110T401 23T294 -12Q227 -12 182 22T110 109T71 225T59 348Q59 399 72 457T113 564T186 646T294 679Q360 679 405 647T477 566T516 459T528 348ZM467 348Q467 392 460 442T433 536T380 609T294 638Q243 638 209 609T156 536T128 441T120 348Q120 301 128 246T156 142T209 62T294 29Q327 29 352 44T397 84T429 143T451 211T463 282T467 348Z"  />
<glyph unicode="P" horiz-adv-x="495" d="M460 490Q460 453 446 420T405 361T343 320T265 305H168V41H234V0H50V41H110V626H50V667H253Q292 667 329 655T395 619T442 563T460 490ZM399 490Q399 552 356 589T242 626H168V344H252Q285 344 312 355T359 386T388 432T399 490Z"  />
<glyph unicode="Q" horiz-adv-x="587" d="M370 0Q364 0 345 -6T294 -12Q227 -12 182 22T110 109T71 225T59 348Q59 399 72 457T113 564T186 646T294 679Q360 679 405 647T477 566T516 459T528 348Q528 288 514 234T481 137T441 67T407 34Q416 35 433 36T470 38T508 39T540 40V0H370ZM467 348Q467 392 460 442T434 536T381 609T294 638Q243 638 209 609T156 536T128 441T120 348Q120 301 128 246T156 142T209 62T294 29Q327 29 352 44T397 84T429 143T451 211T463 282T467 348Z"  />
<glyph unicode="R" horiz-adv-x="544" d="M483 0Q463 0 440 13T402 61L363 162Q356 179 342 206T308 258T263 302T211 320H168V41H222V0H50V41H110V626H50V667H254Q291 667 326 656T389 623T432 570T449 497Q449 451 430 420T383 370T328 342T282 331Q303 326 324 309T364 268T397 220T420 175L459 78Q467 57 478 49T500 41H521V0H483ZM388 496Q388 525 377 549T347 590T302 616T247 626H168V358H233Q263 358 290 366T340 392T375 435T388 496Z"  />
<glyph unicode="S" horiz-adv-x="462" d="M406 173Q406 132 392 99T351 40T287 2T203 -12Q177 -12 152 -8T107 2T72 14T50 25V135H103V52Q109 50 120 46T145 38T174 32T204 29Q243 29 269 41T313 72T337 115T345 165Q345 199 323 228T269 283T198 334T128 386T73 444T51 512Q51 543 64 573T102 627T159 664T234 679Q256 679 278 675T320 666T355 655T376 645V535H323V619Q318 621 308 624T286 630T260 635T234 638Q205 638 182 629T144 604T120 567T111 521Q111 488 133 461T187 408T258 357T329 304T384 244T406 173Z"  />
<glyph unicode="T" horiz-adv-x="490" d="M409 535V627H268V41H334V0H144V41H210V627H82V535H30V667H461V535H409Z"  />
<glyph unicode="U" horiz-adv-x="595" d="M492 626V240Q492 193 482 148T450 68T392 10T305 -12Q248 -12 209 9T147 64T114 144T104 240V626H44V667H222V626H162V242Q162 204 168 166T190 98T234 48T307 29Q348 29 374 47T417 96T439 165T445 242V626H385V667H552V626H492Z"  />
<glyph unicode="V" horiz-adv-x="571" d="M499 626L312 0H258L72 626H12V667H194V626H134L292 75L452 626H392V667H559V626H499Z"  />
<glyph unicode="W" horiz-adv-x="854" d="M779 626L634 0H580L426 566L274 0H220L75 626H15V667H190V626H136L254 100L407 667H460L614 100L736 626H682V667H839V626H779Z"  />
<glyph unicode="X" horiz-adv-x="575" d="M383 0V41H437L280 310L115 41H169V0H6V41H66L259 348L90 626H30V667H211V626H157L294 400L436 626H382V667H545V626H485L316 365L509 41H569V0H383Z"  />
<glyph unicode="Y" horiz-adv-x="527" d="M461 626L292 291V41H358V0H168V41H234V291L66 626H6V667H182V626H128L270 341L411 626H357V667H521V626H461Z"  />
<glyph unicode="Z" horiz-adv-x="479" d="M45 0V36L364 627H109V535H57V667H426V631L106 40H382V135H435V0H45Z"  />
<glyph unicode="[" horiz-adv-x="290" d="M115 -93V736H250V702H169V-59H250V-93H115Z"  />
<glyph unicode="\" horiz-adv-x="232" d="M167 0L19 667H65L213 0H167Z"  />
<glyph unicode="]" horiz-adv-x="290" d="M40 -93V-59H121V702H40V736H176V-93H40Z"  />
<glyph unicode="^" horiz-adv-x="464" d="M362 379L232 623L103 379H50L205 667H259L414 379H362Z"  />
<glyph unicode="_" horiz-adv-x="500" d="M0 -125V-75H500V-125H0Z"  />
<glyph unicode="`" horiz-adv-x="231" d="M104 570L20 705H80L147 570H104Z"  />
<glyph unicode="a" horiz-adv-x="463" d="M327 0V71Q324 65 313 51T283 23T239 -1T183 -12Q119 -12 77 24T35 129Q35 160 54 185T101 229T161 262T222 281L323 304V346Q323 373 316 396T294 438T261 466T216 477Q198 477 183 474T155 465T133 456T121 449V385H71V471Q77 475 90 482T123 497T167 509T219 514Q253 514 282 501T332 466T365 413T377 347V37H431V0H327ZM323 269L233 250Q219 247 196 238T149 213T109 177T92 130Q92 107 99 88T120 55T150 33T186 25Q211 25 233 34T274 58T305 90T323 124V269Z"  />
<glyph unicode="b" horiz-adv-x="500" d="M453 264Q453 218 440 169T399 80T332 14T239 -12Q225 -12 202 -9T156 -3T113 4T87 10V672H33V709H141V431Q144 437 155 450T183 478T221 503T266 514Q315 514 350 490T408 429T442 348T453 264ZM396 264Q396 297 388 334T364 403T323 455T263 476Q238 476 217 463T179 432T152 398T141 377V39Q145 37 157 35T183 31T213 27T239 25Q278 25 307 49T356 108T386 186T396 264Z"  />
<glyph unicode="c" horiz-adv-x="402" d="M366 22Q362 19 350 14T321 3T281 -7T233 -12Q185 -12 150 13T92 77T58 166T47 264Q47 304 60 348T97 429T156 490T233 514Q252 514 272 510T310 501T339 490T355 483V391H306V460Q304 461 296 464T276 470T254 475T233 477Q201 477 177 455T137 401T113 332T104 264Q104 227 113 186T139 109T180 50T234 26Q251 26 269 30T304 40T333 52T351 63L366 22H366Z"  />
<glyph unicode="d" horiz-adv-x="500" d="M362 0V71Q359 66 348 52T320 24T281 -1T235 -12Q185 -12 149 12T91 76T58 165T47 264Q47 309 60 353T98 434T158 492T235 514Q259 514 280 504T317 480T345 452T359 431V672H305V709H413V37H467V0H362ZM359 371Q357 378 347 395T322 430T285 462T238 476Q208 476 184 458T142 409T114 341T104 264Q104 223 112 181T136 105T178 48T238 26Q261 26 282 38T319 67T346 100T359 125V371Z"  />
<glyph unicode="e" horiz-adv-x="430" d="M102 248Q102 208 111 169T137 98T179 46T234 26Q253 26 273 30T310 41T339 53T356 63L371 22Q365 19 353 13T323 2T283 -8T233 -12Q182 -12 147 13T89 78T57 167T47 264Q47 302 59 345T94 426T149 489T220 514Q261 514 292 492T345 434T378 354T389 264V248H102ZM335 280Q335 307 330 341T311 406T275 456T220 477Q191 477 170 457T133 406T111 341T103 280H335H335Z"  />
<glyph unicode="f" horiz-adv-x="258" d="M256 670Q251 673 236 678T209 684Q193 684 182 676T164 654T154 626T151 595V502H239V465H151V37H217V0H30V37H96V465H19V502H96V583Q96 607 102 631T123 676T158 708T209 721Q231 721 249 716T272 708L256 670Z"  />
<glyph unicode="g" horiz-adv-x="444" d="M329 466Q333 461 341 452T358 427T373 391T379 343Q379 311 368 279T336 220T284 178T212 161Q200 161 186 157T161 146T141 130T133 111Q133 87 155 73T212 58Q249 58 285 48T351 20T397 -25T415 -84Q415 -112 401 -138T360 -185T296 -218T212 -231Q171 -231 136 -220T76 -190T37 -146T23 -92Q23 -67 37 -45T72 -7T115 20T153 31Q145 32 133 37T110 50T91 71T83 102Q83 115 90 126T108 146T131 161T155 170Q138 174 119 187T84 222T58 274T47 343Q47 374 59 404T94 459T147 499T212 514Q234 514 253 510T282 502H421V466H329ZM323 343Q323 403 293 440T212 477Q186 477 166 466T132 436T111 393T103 343Q103 314 108 288T126 242T160 210T212 198Q243 198 264 210T298 243T317 289T323 343ZM359 -85Q359 -63 348 -45T316 -14T270 6T212 13Q186 13 162 6T119 -15T89 -46T77 -85Q77 -107 86 -126T113 -161T156 -185T212 -194Q242 -194 269 -186T316 -162T347 -128T359 -85Z"  />
<glyph unicode="h" horiz-adv-x="522" d="M333 0V37H381V349Q381 369 376 391T358 432T325 463T276 476Q250 476 228 463T188 434T160 401T147 377V37H195V0H39V37H93V672H39V709H147V431Q150 438 161 452T190 479T231 503T282 514Q322 514 351 500T398 462T426 409T435 351V37H489V0H333Z"  />
<glyph unicode="i" horiz-adv-x="234" d="M162 638Q162 621 150 609T120 596Q103 596 91 608T78 638Q78 655 90 667T120 680Q137 680 149 668T162 638ZM39 0V37H93V465H39V502H147V37H201V0H39Z"  />
<glyph unicode="j" horiz-adv-x="234" d="M166 638Q166 621 154 609T124 596Q107 596 95 608T82 638Q82 655 94 667T124 680Q141 680 153 668T166 638ZM151 -101Q151 -122 147 -145T132 -187T103 -218T54 -231Q31 -231 17 -226T-2 -218L14 -180Q17 -183 29 -188T52 -194Q65 -194 73 -187T87 -168T94 -142T97 -116V465H37V502H151V-101H151Z"  />
<glyph unicode="k" horiz-adv-x="458" d="M276 0V37H335L148 270L318 465H269V502H425V465H370L204 282L407 37H461V0H276ZM39 0V37H93V672H39V709H147V37H195V0H39Z"  />
<glyph unicode="l" horiz-adv-x="234" d="M39 0V37H93V672H39V709H147V37H201V0H39Z"  />
<glyph unicode="m" horiz-adv-x="786" d="M597 0V37H645V343Q645 365 640 388T623 431T592 463T546 476Q519 476 497 465T458 438T433 407T423 382V37H471V0H321V37H369V343Q369 365 364 388T348 431T317 463T270 476Q243 476 221 464T183 434T158 401T147 376V37H195V0H39V37H93V465H39V502H144V430Q146 436 156 450T184 478T225 503T275 514Q312 514 337 503T377 477T400 449T410 431Q414 438 425 452T454 480T495 504T549 514Q588 514 616 500T663 462T690 408T699 347V37H753V0H597Z"  />
<glyph unicode="n" horiz-adv-x="522" d="M333 0V37H381V349Q381 369 376 391T358 432T325 463T276 476Q249 476 227 463T187 433T160 400T147 377V37H195V0H39V37H93V465H39V502H144V430Q147 436 158 449T186 477T228 503T282 514Q323 514 352 499T399 461T426 408T435 350V37H489V0H333Z"  />
<glyph unicode="o" horiz-adv-x="475" d="M428 264Q428 227 419 179T387 89T329 17T238 -12Q183 -12 147 15T88 83T57 172T47 264Q47 297 57 340T91 422T151 487T238 514Q290 514 326 489T385 425T418 344T428 264ZM371 264Q371 291 365 327T343 397T303 454T238 477Q201 477 176 455T134 399T111 329T104 264Q104 231 110 190T131 112T172 50T238 25Q277 25 303 50T344 111T365 189T371 264Z"  />
<glyph unicode="p" horiz-adv-x="500" d="M453 264Q453 216 441 167T404 78T345 13T265 -12Q236 -12 215 -1T178 24T153 51T141 71V-182H201V-219H33V-182H87V465H33V502H138V431Q141 436 151 449T177 477T216 503T265 514Q314 514 349 490T408 429T442 348T453 264ZM396 264Q396 297 389 334T365 402T323 455T262 476Q235 476 214 464T178 435T153 402T141 377V131Q144 123 153 106T178 70T215 39T262 25Q294 25 319 47T361 105T387 182T396 264Z"  />
<glyph unicode="q" horiz-adv-x="500" d="M299 -219V-182H359V71Q357 65 347 52T321 24T282 -1T235 -12Q181 -12 145 17T87 88T56 178T47 264Q47 300 59 343T97 425T162 488T256 514Q277 514 302 511T350 503T390 494T413 489V-182H467V-219H299ZM359 461Q356 462 344 464T315 470T283 475T256 477Q215 477 186 455T139 399T113 329T104 264Q104 233 111 192T135 114T176 52T238 26Q260 26 281 38T318 66T345 101T359 130V461Z"  />
<glyph unicode="r" horiz-adv-x="323" d="M290 456Q286 460 274 465T251 470Q230 470 212 458T180 430T157 397T147 371V37H207V0H39V37H93V465H39V502H144V431Q147 437 155 450T178 478T212 503T259 514Q271 514 285 510T306 501L290 456Z"  />
<glyph unicode="s" horiz-adv-x="385" d="M341 130Q341 101 329 75T295 30T245 -1T187 -12Q157 -12 133 -8T89 2T58 13T38 22V108H87V46Q106 38 133 32T187 25Q228 25 256 52T284 121Q284 145 266 165T222 202T164 236T107 273T62 315T44 370Q44 398 56 424T88 470T136 502T194 514Q217 514 237 510T272 501T298 491T311 483V397H262V460Q253 464 232 470T194 477Q150 477 125 448T100 379Q100 354 118 334T162 297T220 262T278 226T323 183T341 130Z"  />
<glyph unicode="t" horiz-adv-x="286" d="M271 1Q268 0 260 -2T241 -6T219 -10T199 -12Q171 -12 153 -4T123 19T106 51T101 90V465H17V502H101V638H156V502H252V465H156V91Q156 66 166 46T200 26Q214 26 232 31T256 40L271 1H271Z"  />
<glyph unicode="u" horiz-adv-x="511" d="M373 0V71Q370 66 360 53T332 25T291 0T240 -12Q201 -12 172 2T124 39T96 93T87 155V465H33V502H141V153Q141 127 147 104T167 63T199 36T244 26Q270 26 292 39T331 69T358 102T369 125V465H315V502H424V37H478V0H373Z"  />
<glyph unicode="v" horiz-adv-x="483" d="M415 465L265 0H217L69 465H15V502H174V465H126L249 73L369 465H321V502H469V465H415Z"  />
<glyph unicode="w" horiz-adv-x="721" d="M649 465L531 0H483L361 413L238 0H190L72 465H18V502H177V465H129L223 89L345 502H393L515 89L605 465H557V502H703V465H649Z"  />
<glyph unicode="x" horiz-adv-x="465" d="M286 0V37H334L223 224L111 37H159V0H9V37H63L202 256L75 465H21V502H189V465H141L242 299L344 465H296V502H444V465H390L264 267L402 37H456V0H286Z"  />
<glyph unicode="y" horiz-adv-x="483" d="M415 465L232 -98Q212 -160 183 -195T116 -231Q104 -231 86 -227T60 -218L76 -180Q81 -183 93 -188T115 -194Q135 -194 154 -173T186 -110L216 -12L69 465H15V502H174V465H126L246 69L369 465H321V502H469V465H415Z"  />
<glyph unicode="z" horiz-adv-x="404" d="M42 0V34L297 465H97V397H48V502H356V468L101 37H313V108H362V0H42Z"  />
<glyph unicode="{" horiz-adv-x="290" d="M228 -93Q181 -93 151 -67T121 14V202Q121 263 108 295T57 330V364Q94 366 107 401T121 497V630Q121 685 151 710T228 736H257V702H237Q204 702 190 679T176 621V473Q176 373 90 348Q134 335 155 306T176 226V23Q176 -12 189 -35T237 -59H257V-93H228Z"  />
<glyph unicode="|" horiz-adv-x="232" d="M91 -42V708H142V-42H91Z"  />
<glyph unicode="}" horiz-adv-x="290" d="M233 330Q196 328 183 296T169 202V14Q169 -41 139 -67T62 -93H34V-59H54Q88 -59 101 -36T115 23V226Q115 277 136 306T201 348Q115 373 115 473V621Q115 656 101 679T54 702H34V736H62Q109 736 139 711T169 630V497Q169 436 182 401T233 364V330H233Z"  />
<glyph unicode="~" horiz-adv-x="464" d="M414 300Q412 280 406 262T388 231T361 209T324 200Q300 200 277 208T232 226T188 244T145 252Q124 252 114 236T98 202H50Q54 241 77 271T141 302Q165 302 188 294T233 276T276 258T319 250Q340 250 351 266T367 300H414H414Z"  />
<glyph unicode="&#xA0;" horiz-adv-x="232" />
<glyph unicode="&#xA1;" horiz-adv-x="261" d="M180 464Q180 444 166 430T130 415Q109 415 95 429T80 464Q80 484 94 499T130 514Q151 514 165 499T180 464ZM98 -219L107 308H154L163 -219H98Z"  />
<glyph unicode="&#xA2;" horiz-adv-x="464" d="M395 108Q388 104 376 99T349 90T317 81T283 76V0H240V76Q197 81 166 105T113 165T82 246T72 340Q72 377 84 417T119 492T174 551T246 580V655H289V580Q320 577 347 568T384 551V459H334V528Q332 529 324 532T306 537T284 541T264 543Q231 543 206 523T165 472T140 406T131 340Q131 302 139 262T164 189T206 135T265 114Q283 114 301 118T334 127T361 138T379 148L395 108H395Z"  />
<glyph unicode="&#xA3;" horiz-adv-x="464" d="M395 595Q383 603 352 615T285 627Q257 627 238 617T206 589T187 551T181 506Q181 472 187 436T202 362H332V323H209Q214 299 217 272T220 221Q220 195 209 167T183 113T152 69T126 43H404V0H65V39Q77 45 94 63T126 107T151 162T162 221Q162 246 159 272T151 323H65V362H143Q136 397 130 434T123 506Q123 540 134 569T166 620T217 654T284 667Q305 667 324 664T361 655T391 644T411 636L395 595Z"  />
<glyph unicode="&#xA4;" horiz-adv-x="464" d="M373 114L324 177Q283 138 232 138Q182 138 141 177L92 114L50 145L106 217Q91 242 83 272T74 336Q74 370 82 400T106 455L50 527L92 558L141 495Q182 534 232 534Q283 534 324 495L373 558L414 527L358 455Q373 430 381 400T390 336Q390 302 382 272T358 217L414 145L373 114ZM344 336Q344 368 335 396T311 444T276 477T232 489Q209 489 189 477T153 445T130 396T121 336Q121 304 129 276T153 228T188 195T232 183Q255 183 275 195T311 227T335 276T344 336Z"  />
<glyph unicode="&#xA5;" horiz-adv-x="464" d="M418 615L280 342H392V303H261V231H392V192H261V41H328V0H137V41H204V192H70V231H204V303H70V342H185L46 615H-9V656H164V615H110L243 348L376 615H322V656H473V615H418Z"  />
<glyph unicode="&#xA6;" horiz-adv-x="232" d="M91 458V708H142V458H91ZM91 -42V208H142V-42H91Z"  />
<glyph unicode="&#xA7;" horiz-adv-x="464" d="M388 115Q388 58 342 23T215 -12Q193 -12 171 -9T131 -2T98 6T77 13V98H126V42Q140 37 164 31T215 25Q271 25 301 48T331 108Q331 123 313 140T267 175T207 213T147 251T101 291T82 331Q82 357 95 377T126 410T161 431T186 441Q177 446 161 455T128 477T101 506T89 541Q89 569 102 592T136 632T186 658T245 667Q293 667 324 658T365 643V558H316V616Q311 618 303 620T284 625T264 628T245 630Q206 630 177 610T147 548Q147 531 164 516T208 485T264 455T321 423T364 389T382 351Q382 328 371 308T343 274T304 250T262 238Q286 224 308 210T349 181T377 150T388 115ZM325 345Q325 355 317 365T294 386T263 405T228 422Q217 422 202 416T174 398T151 372T141 338Q141 320 166 299T226 257Q241 257 258 265T290 285T315 312T325 345Z"  />
<glyph unicode="&#xA8;" horiz-adv-x="231" d="M238 638Q238 621 226 609T196 597Q179 597 167 609T155 638Q155 655 167 666T196 678Q213 678 225 667T238 638ZM75 638Q75 621 63 609T34 597Q17 597 5 609T-7 638Q-7 655 5 666T34 678Q51 678 63 667T75 638Z"  />
<glyph unicode="&#xA9;" horiz-adv-x="750" d="M720 334Q720 262 695 199T623 89T514 15T375 -12Q299 -12 236 15T127 89T56 199T30 334Q30 404 56 466T128 576T237 651T375 679Q449 679 512 652T622 578T694 469T720 334ZM676 334Q676 396 654 451T591 547T496 613T375 638Q310 638 255 614T159 548T97 451T74 334Q74 272 96 217T159 120T254 54T375 29Q440 29 495 53T591 119T653 216T676 334ZM482 150Q463 142 437 135T375 127Q329 127 297 146T245 197T215 266T206 343Q206 380 218 415T252 479T305 524T375 542Q412 542 437 533T474 519V446H428V496Q420 498 405 502T375 506Q348 506 326 492T289 454T265 402T257 343Q257 310 265 278T288 219T325 177T375 161Q391 161 409 165T435 173V224H482V150H482Z"  />
<glyph unicode="&#xAA;" horiz-adv-x="348" d="M229 358V389Q218 377 195 364T141 351Q97 351 69 374T40 439Q40 458 53 474T85 501T126 520T166 532L227 544V565Q227 594 210 615T163 637Q149 637 135 633T107 623V580H63V639Q76 647 103 657T165 667Q213 667 243 638T274 565V388H309V358H229ZM227 517L175 506Q167 504 153 499T124 485T100 465T89 439Q89 416 104 399T143 381Q158 381 171 386T196 400T215 419T227 437V517Z"  />
<glyph unicode="&#xAB;" horiz-adv-x="344" d="M245 133L143 304L245 470H292L200 304L292 133H245ZM133 133L32 304L133 470H180L88 304L180 133H133Z"  />
<glyph unicode="&#xAC;" horiz-adv-x="464" d="M362 134V320H50V368H414V134H362Z"  />
<glyph unicode="&#xAD;" horiz-adv-x="290" d="M42 280V328H248V280H42Z"  />
<glyph unicode="&#xAE;" horiz-adv-x="750" d="M720 334Q720 262 695 199T623 89T514 15T375 -12Q299 -12 236 15T127 89T56 199T30 334Q30 404 56 466T128 576T237 651T375 679Q449 679 512 652T622 578T694 469T720 334ZM676 334Q676 396 654 451T591 547T496 613T375 638Q310 638 255 614T159 548T97 451T74 334Q74 272 96 217T159 120T254 54T375 29Q440 29 495 53T591 119T653 216T676 334ZM504 141Q490 141 472 150T445 181L420 240Q415 250 406 265T385 294T358 318T327 328H306V177H341V141H217V177H256V506H217V542H355Q380 542 404 535T446 515T476 482T487 437Q487 414 478 397T454 368T424 349T394 338Q406 331 417 321T439 298T456 274T468 252L493 195Q498 184 504 181T515 177H534V141H504ZM436 436Q436 467 411 486T350 506H306V361H340Q359 361 376 366T406 380T428 404T436 436Z"  />
<glyph unicode="&#xAF;" horiz-adv-x="231" d="M-1 618V658H232V618H-1Z"  />
<glyph unicode="&#xB0;" horiz-adv-x="400" d="M342 523Q342 491 331 465T301 420T256 390T200 379Q170 379 145 389T100 419T69 465T58 523Q58 554 69 580T99 626T144 656T200 667Q230 667 255 657T300 627T331 581T342 523ZM297 523Q297 568 269 596T200 625Q159 625 131 597T103 523Q103 478 131 450T200 421Q241 421 269 449T297 523Z"  />
<glyph unicode="&#xB1;" horiz-adv-x="464" d="M258 275V97H207V275H50V324H207V502H258V324H414V275H258ZM50 0V49H414V0H50Z"  />
<glyph unicode="&#xB2;" horiz-adv-x="348" d="M56 262V286Q56 306 69 329T102 375T145 424T188 473T221 520T235 565Q235 593 219 611T173 630Q159 630 145 627T117 618T93 607T76 597L60 633Q85 646 113 656T174 666Q227 666 257 637T287 565Q287 544 274 521T242 473T199 424T155 378T119 335T99 298H287V262H56Z"  />
<glyph unicode="&#xB3;" horiz-adv-x="348" d="M290 393Q290 363 279 338T247 294T199 265T137 254Q104 254 76 263T33 278L48 315Q60 307 87 299T137 290Q186 290 212 318T238 393Q238 430 215 453T156 477Q146 477 133 476T108 471V503L212 619H58V655H270V627L158 510H167Q188 510 210 502T249 479T278 442T290 393Z"  />
<glyph unicode="&#xB4;" horiz-adv-x="231" d="M126 570H84L150 705H211L126 570Z"  />
<glyph unicode="&#xB5;" horiz-adv-x="464" d="M350 0V71Q345 62 335 48T309 21T272 -2T224 -12Q197 -12 178 -5T146 11T126 30T116 46V-219H64V465H10V502H119V153Q119 128 125 105T144 65T176 37T221 26Q246 26 268 38T307 66T334 99T346 125V465H292V502H401V37H455V0H350Z"  />
<glyph unicode="&#xB6;" horiz-adv-x="464" d="M370 -96V619H220V-96H170V337Q135 338 105 351T54 386T20 438T7 504Q7 547 21 577T61 628T121 657T195 667H420V-96H370Z"  />
<glyph unicode="&#xB7;" horiz-adv-x="232" d="M162 304Q162 284 149 271T116 258Q96 258 83 271T70 304Q70 324 83 337T117 350Q137 350 149 337T162 304Z"  />
<glyph unicode="&#xB8;" horiz-adv-x="231" d="M214 -115Q214 -149 183 -167T106 -186Q95 -186 82 -184T57 -180T34 -174T17 -167L30 -135Q34 -138 43 -141T64 -148T86 -153T106 -155Q131 -155 147 -144T164 -118Q164 -81 123 -81Q112 -81 97 -84T76 -89L63 -74L117 0H156L106 -61Q124 -54 148 -54Q158 -54 169 -57T191 -68T207 -87T214 -115Z"  />
<glyph unicode="&#xB9;" horiz-adv-x="348" d="M54 262V299H157V607L63 561L48 596L172 655H207V299H299V262H54Z"  />
<glyph unicode="&#xBA;" horiz-adv-x="348" d="M305 517Q305 492 298 463T276 409T235 368T174 351Q136 351 111 367T71 409T50 463T43 517Q43 536 50 562T73 611T113 650T174 667Q211 667 236 652T276 613T298 564T305 517ZM254 517Q254 533 250 553T237 592T212 623T174 636Q153 636 138 624T113 593T99 554T94 517Q94 498 97 475T110 431T134 396T174 382Q197 382 212 396T237 430T250 474T254 517Z"  />
<glyph unicode="&#xBB;" horiz-adv-x="344" d="M212 133H165L255 304L165 470H212L312 304L212 133ZM100 133H53L144 304L53 470H100L200 304L100 133Z"  />
<glyph unicode="&#xBC;" horiz-adv-x="929" d="M740 90V34H791V0H643V34H693V90H518V116Q525 126 537 148T563 193T586 235T599 260L659 393H711L648 263Q644 254 634 236T612 197T589 156T569 124H693V240H740V124H801V90H740ZM343 0H299L587 655H631L343 0ZM109 262V299H212V607L119 561L104 596L227 655H262V299H355V262H109Z"  />
<glyph unicode="&#xBD;" horiz-adv-x="929" d="M582 0V24Q582 44 595 67T628 113T671 162T714 211T747 258T761 303Q761 331 745 349T699 368Q685 368 671 365T643 356T619 345T602 335L586 371Q611 384 639 394T700 404Q753 404 783 375T813 303Q813 281 800 258T768 211T725 162T681 116T645 73T625 36H813V0H582ZM343 0H299L587 655H631L343 0ZM109 262V299H212V607L119 561L104 596L227 655H262V299H355V262H109Z"  />
<glyph unicode="&#xBE;" horiz-adv-x="929" d="M740 90V34H791V0H643V34H693V90H518V116Q525 126 537 148T563 193T586 235T599 260L659 393H711L648 263Q644 254 634 236T612 197T589 156T569 124H693V240H740V124H801V90H740ZM343 0H299L587 655H631L343 0ZM340 393Q340 363 329 338T297 294T249 265T187 254Q154 254 126 263T83 278L98 315Q110 307 137 299T187 290Q236 290 261 318T287 393Q287 430 264 453T205 477Q195 477 182 476T158 471V503L262 619H108V655H320V627L208 510H217Q238 510 260 502T299 479T328 442T340 393Z"  />
<glyph unicode="&#xBF;" horiz-adv-x="382" d="M274 464Q274 444 260 430T224 415Q203 415 189 429T174 464Q174 484 188 499T224 514Q245 514 259 499T274 464ZM348 -200Q344 -202 331 -207T299 -218T260 -227T217 -231Q178 -231 147 -219T93 -185T59 -136T47 -75Q47 -29 71 16T124 109T177 205T201 308H247Q247 249 225 200T176 105T127 17T105 -75Q105 -124 135 -157T217 -190Q232 -190 250 -187T284 -178T313 -167T332 -158L348 -200H348Z"  />
<glyph unicode="&#xC0;" horiz-adv-x="622" d="M430 0V41H490L436 206H175L121 41H181V0H12V41H72L285 667H338L550 41H610V0H430ZM303 601L187 242H424L303 601ZM296 723L212 858H272L339 723H296Z"  />
<glyph unicode="&#xC1;" horiz-adv-x="622" d="M430 0V41H490L436 206H175L121 41H181V0H12V41H72L285 667H338L550 41H610V0H430ZM303 601L187 242H424L303 601ZM326 723H284L350 858H411L326 723Z"  />
<glyph unicode="&#xC2;" horiz-adv-x="622" d="M430 0V41H490L436 206H175L121 41H181V0H12V41H72L285 667H338L550 41H610V0H430ZM303 601L187 242H424L303 601ZM376 723L312 831L247 723H200L284 858H343L427 723H376Z"  />
<glyph unicode="&#xC3;" horiz-adv-x="622" d="M430 0V41H490L436 206H175L121 41H181V0H12V41H72L285 667H338L550 41H610V0H430ZM303 601L187 242H424L303 601ZM441 844Q440 827 435 809T420 777T397 753T368 744Q351 744 337 751T311 767T286 783T260 791Q242 791 231 773T218 738H184Q185 756 190 774T205 806T227 829T258 838Q274 838 288 831T316 815T342 799T367 791Q386 791 396 809T408 844H441H441Z"  />
<glyph unicode="&#xC4;" horiz-adv-x="622" d="M430 0V41H490L436 206H175L121 41H181V0H12V41H72L285 667H338L550 41H610V0H430ZM303 601L187 242H424L303 601ZM435 791Q435 774 423 762T393 750Q376 750 364 762T352 791Q352 808 364 819T393 831Q410 831 422 820T435 791ZM272 791Q272 774 260 762T231 750Q214 750 202 762T190 791Q190 808 202 819T231 831Q248 831 260 820T272 791Z"  />
<glyph unicode="&#xC5;" horiz-adv-x="622" d="M430 0V41H490L436 206H175L121 41H181V0H12V41H72L285 667H338L550 41H610V0H430ZM303 601L187 242H424L303 601ZM391 791Q391 758 368 735T312 712Q279 712 256 735T232 791Q232 824 256 847T312 870Q345 870 368 847T391 791ZM365 791Q365 813 349 829T311 845Q286 845 272 829T258 791Q258 769 273 753T311 737Q333 737 349 753T365 791Z"  />
<glyph unicode="&#xC6;" horiz-adv-x="824" d="M430 0V41H490L436 206H175L121 41H181V0H12V41H72L285 667H630V535H577V626H351L438 369H678V329H453L550 41H754V135H807V0H430ZM303 601L187 242H424L303 601Z"  />
<glyph unicode="&#xC7;" horiz-adv-x="523" d="M464 25Q443 15 411 4T333 -10L293 -61Q311 -54 335 -54Q345 -54 356 -57T378 -68T394 -87T401 -115Q401 -149 370 -167T293 -186Q282 -186 269 -184T244 -180T221 -174T204 -167L217 -135Q221 -138 230 -141T251 -148T273 -153T293 -155Q318 -155 334 -144T351 -118Q351 -81 310 -81Q299 -81 284 -84T263 -89L250 -74L296 -11Q232 -8 187 25T114 108T72 222T59 348Q59 410 77 469T128 575T207 650T310 679Q337 679 360 675T402 665T433 654T452 645V535H400V619Q395 621 386 624T363 630T336 635T310 638Q264 638 229 612T169 544T133 451T120 348Q120 292 132 235T168 132T227 56T310 26Q324 26 340 29T370 36T395 44T412 52V135H464V25H464Z"  />
<glyph unicode="&#xC8;" horiz-adv-x="517" d="M50 0V41H110V626H50V667H454V535H402V626H168V369H393V329H168V41H414V135H466V0H50ZM246 723L162 858H222L289 723H246Z"  />
<glyph unicode="&#xC9;" horiz-adv-x="517" d="M50 0V41H110V626H50V667H454V535H402V626H168V369H393V329H168V41H414V135H466V0H50ZM276 723H234L300 858H361L276 723Z"  />
<glyph unicode="&#xCA;" horiz-adv-x="517" d="M50 0V41H110V626H50V667H454V535H402V626H168V369H393V329H168V41H414V135H466V0H50ZM325 723L261 831L196 723H149L233 858H292L376 723H325Z"  />
<glyph unicode="&#xCB;" horiz-adv-x="517" d="M50 0V41H110V626H50V667H454V535H402V626H168V369H393V329H168V41H414V135H466V0H50ZM385 791Q385 774 373 762T343 750Q326 750 314 762T302 791Q302 808 314 819T343 831Q360 831 372 820T385 791ZM222 791Q222 774 210 762T181 750Q164 750 152 762T140 791Q140 808 152 819T181 831Q198 831 210 820T222 791Z"  />
<glyph unicode="&#xCC;" horiz-adv-x="278" d="M50 0V41H110V626H50V667H228V626H168V41H228V0H50ZM128 723L44 858H104L171 723H128Z"  />
<glyph unicode="&#xCD;" horiz-adv-x="278" d="M50 0V41H110V626H50V667H228V626H168V41H228V0H50ZM148 723H106L172 858H233L148 723Z"  />
<glyph unicode="&#xCE;" horiz-adv-x="278" d="M50 0V41H110V626H50V667H228V626H168V41H228V0H50ZM202 723L138 831L73 723H26L110 858H169L253 723H202Z"  />
<glyph unicode="&#xCF;" horiz-adv-x="278" d="M50 0V41H110V626H50V667H228V626H168V41H228V0H50ZM262 791Q262 774 250 762T220 750Q203 750 191 762T179 791Q179 808 191 819T220 831Q237 831 249 820T262 791ZM99 791Q99 774 87 762T58 750Q41 750 29 762T17 791Q17 808 29 819T58 831Q75 831 87 820T99 791Z"  />
<glyph unicode="&#xD0;" horiz-adv-x="602" d="M543 348Q543 276 521 213T461 102T370 28T258 0H50V41H110V328H44V368H110V626H50V667H240Q303 667 358 644T454 578T519 477T543 348ZM483 348Q483 410 463 461T410 549T336 606T251 626H168V368H311V328H168V41H257Q303 41 344 66T416 134T465 232T483 348Z"  />
<glyph unicode="&#xD1;" horiz-adv-x="636" d="M532 630V0H479L157 599V41H217V0H50V41H110V626H50V667H184L486 104V630H426V671H592V630H532ZM462 844Q461 827 456 809T441 777T418 753T389 744Q372 744 358 751T332 767T307 783T281 791Q263 791 252 773T239 738H205Q206 756 211 774T226 806T248 829T279 838Q295 838 309 831T337 815T363 799T388 791Q407 791 417 809T429 844H462H462Z"  />
<glyph unicode="&#xD2;" horiz-adv-x="587" d="M528 348Q528 290 515 227T474 110T401 23T294 -12Q227 -12 182 22T110 109T71 225T59 348Q59 399 72 457T113 564T186 646T294 679Q360 679 405 647T477 566T516 459T528 348ZM467 348Q467 392 460 442T433 536T380 609T294 638Q243 638 209 609T156 536T128 441T120 348Q120 301 128 246T156 142T209 62T294 29Q327 29 352 44T397 84T429 143T451 211T463 282T467 348ZM277 723L193 858H253L320 723H277Z"  />
<glyph unicode="&#xD3;" horiz-adv-x="587" d="M528 348Q528 290 515 227T474 110T401 23T294 -12Q227 -12 182 22T110 109T71 225T59 348Q59 399 72 457T113 564T186 646T294 679Q360 679 405 647T477 566T516 459T528 348ZM467 348Q467 392 460 442T433 536T380 609T294 638Q243 638 209 609T156 536T128 441T120 348Q120 301 128 246T156 142T209 62T294 29Q327 29 352 44T397 84T429 143T451 211T463 282T467 348ZM306 723H264L330 858H391L306 723Z"  />
<glyph unicode="&#xD4;" horiz-adv-x="587" d="M528 348Q528 290 515 227T474 110T401 23T294 -12Q227 -12 182 22T110 109T71 225T59 348Q59 399 72 457T113 564T186 646T294 679Q360 679 405 647T477 566T516 459T528 348ZM467 348Q467 392 460 442T433 536T380 609T294 638Q243 638 209 609T156 536T128 441T120 348Q120 301 128 246T156 142T209 62T294 29Q327 29 352 44T397 84T429 143T451 211T463 282T467 348ZM355 723L291 831L226 723H179L263 858H322L406 723H355Z"  />
<glyph unicode="&#xD5;" horiz-adv-x="587" d="M528 348Q528 290 515 227T474 110T401 23T294 -12Q227 -12 182 22T110 109T71 225T59 348Q59 399 72 457T113 564T186 646T294 679Q360 679 405 647T477 566T516 459T528 348ZM467 348Q467 392 460 442T433 536T380 609T294 638Q243 638 209 609T156 536T128 441T120 348Q120 301 128 246T156 142T209 62T294 29Q327 29 352 44T397 84T429 143T451 211T463 282T467 348ZM421 844Q420 827 415 809T400 777T377 753T348 744Q331 744 317 751T291 767T266 783T240 791Q222 791 211 773T198 738H164Q165 756 170 774T185 806T207 829T238 838Q254 838 268 831T296 815T322 799T347 791Q366 791 376 809T388 844H421H421Z"  />
<glyph unicode="&#xD6;" horiz-adv-x="587" d="M528 348Q528 290 515 227T474 110T401 23T294 -12Q227 -12 182 22T110 109T71 225T59 348Q59 399 72 457T113 564T186 646T294 679Q360 679 405 647T477 566T516 459T528 348ZM467 348Q467 392 460 442T433 536T380 609T294 638Q243 638 209 609T156 536T128 441T120 348Q120 301 128 246T156 142T209 62T294 29Q327 29 352 44T397 84T429 143T451 211T463 282T467 348ZM415 791Q415 774 403 762T373 750Q356 750 344 762T332 791Q332 808 344 819T373 831Q390 831 402 820T415 791ZM252 791Q252 774 240 762T211 750Q194 750 182 762T170 791Q170 808 182 819T211 831Q228 831 240 820T252 791Z"  />
<glyph unicode="&#xD7;" horiz-adv-x="464" d="M374 0L232 207L91 0L50 30L203 251L50 472L90 502L232 295L374 502L414 472L261 251L414 30L374 0Z"  />
<glyph unicode="&#xD8;" horiz-adv-x="587" d="M478 563Q505 514 516 457T528 348Q528 290 515 227T474 110T401 23T294 -12Q239 -12 199 12T131 75L62 -24L35 -1L111 108Q83 162 71 225T59 348Q59 399 72 457T113 564T186 646T294 679Q350 679 389 656T457 594L525 691L552 668L478 563ZM425 553Q405 591 374 614T294 638Q243 638 209 609T156 536T128 441T120 348Q120 306 126 255T149 159L425 553H425ZM467 348Q467 386 461 430T441 515L165 120Q185 79 216 54T294 29Q327 29 352 44T397 84T429 143T451 211T463 282T467 348Z"  />
<glyph unicode="&#xD9;" horiz-adv-x="595" d="M492 626V240Q492 193 482 148T450 68T392 10T305 -12Q248 -12 209 9T147 64T114 144T104 240V626H44V667H222V626H162V242Q162 204 168 166T190 98T234 48T307 29Q348 29 374 47T417 96T439 165T445 242V626H385V667H552V626H492ZM290 723L206 858H266L333 723H290Z"  />
<glyph unicode="&#xDA;" horiz-adv-x="595" d="M492 626V240Q492 193 482 148T450 68T392 10T305 -12Q248 -12 209 9T147 64T114 144T104 240V626H44V667H222V626H162V242Q162 204 168 166T190 98T234 48T307 29Q348 29 374 47T417 96T439 165T445 242V626H385V667H552V626H492ZM320 723H278L344 858H405L320 723Z"  />
<glyph unicode="&#xDB;" horiz-adv-x="595" d="M492 626V240Q492 193 482 148T450 68T392 10T305 -12Q248 -12 209 9T147 64T114 144T104 240V626H44V667H222V626H162V242Q162 204 168 166T190 98T234 48T307 29Q348 29 374 47T417 96T439 165T445 242V626H385V667H552V626H492ZM370 723L306 831L241 723H194L278 858H337L421 723H370Z"  />
<glyph unicode="&#xDC;" horiz-adv-x="595" d="M492 626V240Q492 193 482 148T450 68T392 10T305 -12Q248 -12 209 9T147 64T114 144T104 240V626H44V667H222V626H162V242Q162 204 168 166T190 98T234 48T307 29Q348 29 374 47T417 96T439 165T445 242V626H385V667H552V626H492ZM431 791Q431 774 419 762T389 750Q372 750 360 762T348 791Q348 808 360 819T389 831Q406 831 418 820T431 791ZM268 791Q268 774 256 762T227 750Q210 750 198 762T186 791Q186 808 198 819T227 831Q244 831 256 820T268 791Z"  />
<glyph unicode="&#xDD;" horiz-adv-x="527" d="M461 626L292 291V41H358V0H168V41H234V291L66 626H6V667H182V626H128L270 341L411 626H357V667H521V626H461ZM289 723H247L313 858H374L289 723Z"  />
<glyph unicode="&#xDE;" horiz-adv-x="495" d="M460 347Q460 310 446 277T405 218T343 177T265 162H168V41H234V0H50V41H110V626H50V667H234V626H168V524H253Q292 524 329 512T395 476T442 420T460 347ZM399 347Q399 409 356 446T242 484H168V202H252Q285 202 312 213T359 243T388 289T399 347Z"  />
<glyph unicode="&#xDF;" horiz-adv-x="498" d="M466 127Q466 99 456 74T428 29T384 -1T327 -12Q281 -12 253 0T213 21V106H260V47Q266 40 285 33T327 25Q346 25 361 33T388 54T404 84T410 119Q410 143 397 164T365 204T322 243T280 282T247 325T234 373Q234 397 244 415T270 449T304 478T337 506T363 537T374 574Q374 592 367 611T346 646T312 673T264 684Q234 684 211 670T172 633T148 585T139 537V0H32V37H86V530Q86 567 100 602T138 663T194 705T264 721Q304 721 334 707T384 672T414 624T425 574Q425 540 403 516T355 472T306 430T284 381Q284 357 297 337T331 299T375 262T419 223T452 179T466 127Z"  />
<glyph unicode="&#xE0;" horiz-adv-x="463" d="M327 0V71Q324 65 313 51T283 23T239 -1T183 -12Q119 -12 77 24T35 129Q35 160 54 185T101 229T161 262T222 281L323 304V346Q323 373 316 396T294 438T261 466T216 477Q198 477 183 474T155 465T133 456T121 449V385H71V471Q77 475 90 482T123 497T167 509T219 514Q253 514 282 501T332 466T365 413T377 347V37H431V0H327ZM323 269L233 250Q219 247 196 238T149 213T109 177T92 130Q92 107 99 88T120 55T150 33T186 25Q211 25 233 34T274 58T305 90T323 124V269ZM202 570L118 705H178L245 570H202Z"  />
<glyph unicode="&#xE1;" horiz-adv-x="463" d="M327 0V71Q324 65 313 51T283 23T239 -1T183 -12Q119 -12 77 24T35 129Q35 160 54 185T101 229T161 262T222 281L323 304V346Q323 373 316 396T294 438T261 466T216 477Q198 477 183 474T155 465T133 456T121 449V385H71V471Q77 475 90 482T123 497T167 509T219 514Q253 514 282 501T332 466T365 413T377 347V37H431V0H327ZM323 269L233 250Q219 247 196 238T149 213T109 177T92 130Q92 107 99 88T120 55T150 33T186 25Q211 25 233 34T274 58T305 90T323 124V269ZM232 570H190L256 705H317L232 570Z"  />
<glyph unicode="&#xE2;" horiz-adv-x="463" d="M327 0V71Q324 65 313 51T283 23T239 -1T183 -12Q119 -12 77 24T35 129Q35 160 54 185T101 229T161 262T222 281L323 304V346Q323 373 316 396T294 438T261 466T216 477Q198 477 183 474T155 465T133 456T121 449V385H71V471Q77 475 90 482T123 497T167 509T219 514Q253 514 282 501T332 466T365 413T377 347V37H431V0H327ZM323 269L233 250Q219 247 196 238T149 213T109 177T92 130Q92 107 99 88T120 55T150 33T186 25Q211 25 233 34T274 58T305 90T323 124V269ZM280 570L216 678L151 570H104L188 705H247L331 570H280Z"  />
<glyph unicode="&#xE3;" horiz-adv-x="463" d="M327 0V71Q324 65 313 51T283 23T239 -1T183 -12Q119 -12 77 24T35 129Q35 160 54 185T101 229T161 262T222 281L323 304V346Q323 373 316 396T294 438T261 466T216 477Q198 477 183 474T155 465T133 456T121 449V385H71V471Q77 475 90 482T123 497T167 509T219 514Q253 514 282 501T332 466T365 413T377 347V37H431V0H327ZM323 269L233 250Q219 247 196 238T149 213T109 177T92 130Q92 107 99 88T120 55T150 33T186 25Q211 25 233 34T274 58T305 90T323 124V269ZM345 691Q344 674 339 656T324 624T301 600T272 591Q255 591 241 598T215 614T190 630T164 638Q146 638 135 620T122 585H88Q89 603 94 621T109 653T131 676T162 685Q178 685 192 678T220 662T246 646T271 638Q290 638 300 656T312 691H345H345Z"  />
<glyph unicode="&#xE4;" horiz-adv-x="463" d="M327 0V71Q324 65 313 51T283 23T239 -1T183 -12Q119 -12 77 24T35 129Q35 160 54 185T101 229T161 262T222 281L323 304V346Q323 373 316 396T294 438T261 466T216 477Q198 477 183 474T155 465T133 456T121 449V385H71V471Q77 475 90 482T123 497T167 509T219 514Q253 514 282 501T332 466T365 413T377 347V37H431V0H327ZM323 269L233 250Q219 247 196 238T149 213T109 177T92 130Q92 107 99 88T120 55T150 33T186 25Q211 25 233 34T274 58T305 90T323 124V269ZM339 638Q339 621 327 609T297 597Q280 597 268 609T256 638Q256 655 268 666T297 678Q314 678 326 667T339 638ZM176 638Q176 621 164 609T135 597Q118 597 106 609T94 638Q94 655 106 666T135 678Q152 678 164 667T176 638Z"  />
<glyph unicode="&#xE5;" horiz-adv-x="463" d="M327 0V71Q324 65 313 51T283 23T239 -1T183 -12Q119 -12 77 24T35 129Q35 160 54 185T101 229T161 262T222 281L323 304V346Q323 373 316 396T294 438T261 466T216 477Q198 477 183 474T155 465T133 456T121 449V385H71V471Q77 475 90 482T123 497T167 509T219 514Q253 514 282 501T332 466T365 413T377 347V37H431V0H327ZM323 269L233 250Q219 247 196 238T149 213T109 177T92 130Q92 107 99 88T120 55T150 33T186 25Q211 25 233 34T274 58T305 90T323 124V269ZM297 638Q297 605 274 582T218 559Q185 559 162 582T138 638Q138 671 162 694T218 717Q251 717 274 694T297 638ZM271 638Q271 660 255 676T217 692Q192 692 178 676T164 638Q164 616 179 600T217 584Q239 584 255 600T271 638Z"  />
<glyph unicode="&#xE6;" horiz-adv-x="704" d="M376 257V222Q376 176 387 140T416 79T457 40T507 26Q526 26 546 30T583 41T612 53T629 63L644 22Q633 15 597 2T507 -12Q475 -12 449 -2T402 25T368 61T346 98Q341 88 328 70T295 33T247 2T183 -12Q119 -12 77 22T35 124Q35 154 54 178T101 221T162 251T222 269L323 291V346Q323 373 316 396T294 438T261 466T216 477Q198 477 183 474T155 465T133 456T121 449V385H71V471Q77 475 90 482T123 497T167 509T219 514Q276 514 311 486T362 414Q383 458 416 486T493 514Q534 514 565 493T618 437T651 359T662 273V257H376ZM608 290Q608 315 603 347T584 409T548 457T493 477Q464 477 443 458T407 411T385 350T377 290H608H608ZM323 256L233 237Q219 234 196 226T149 203T109 170T92 124Q92 79 120 52T186 25Q211 25 233 34T274 58T305 90T323 124V256Z"  />
<glyph unicode="&#xE7;" horiz-adv-x="402" d="M366 22Q359 17 330 6T259 -10L218 -61Q236 -54 260 -54Q270 -54 281 -57T303 -68T319 -87T326 -115Q326 -149 295 -167T218 -186Q207 -186 194 -184T169 -180T146 -174T129 -167L142 -135Q146 -138 155 -141T176 -148T198 -153T218 -155Q243 -155 259 -144T276 -118Q276 -81 235 -81Q224 -81 209 -84T188 -89L175 -74L221 -12Q177 -9 144 17T90 82T58 169T47 264Q47 304 60 348T97 429T156 490T233 514Q252 514 272 510T310 501T339 490T355 483V391H306V460Q304 461 296 464T276 470T254 475T233 477Q201 477 177 455T137 401T113 332T104 264Q104 227 113 186T139 109T180 50T234 26Q251 26 269 30T304 40T333 52T351 63L366 22H366Z"  />
<glyph unicode="&#xE8;" horiz-adv-x="430" d="M102 248Q102 208 111 169T137 98T179 46T234 26Q253 26 273 30T310 41T339 53T356 63L371 22Q365 19 353 13T323 2T283 -8T233 -12Q182 -12 147 13T89 78T57 167T47 264Q47 302 59 345T94 426T149 489T220 514Q261 514 292 492T345 434T378 354T389 264V248H102ZM335 280Q335 307 330 341T311 406T275 456T220 477Q191 477 170 457T133 406T111 341T103 280H335H335ZM211 570L127 705H187L254 570H211Z"  />
<glyph unicode="&#xE9;" horiz-adv-x="430" d="M102 248Q102 208 111 169T137 98T179 46T234 26Q253 26 273 30T310 41T339 53T356 63L371 22Q365 19 353 13T323 2T283 -8T233 -12Q182 -12 147 13T89 78T57 167T47 264Q47 302 59 345T94 426T149 489T220 514Q261 514 292 492T345 434T378 354T389 264V248H102ZM335 280Q335 307 330 341T311 406T275 456T220 477Q191 477 170 457T133 406T111 341T103 280H335H335ZM239 570H197L263 705H324L239 570Z"  />
<glyph unicode="&#xEA;" horiz-adv-x="430" d="M102 248Q102 208 111 169T137 98T179 46T234 26Q253 26 273 30T310 41T339 53T356 63L371 22Q365 19 353 13T323 2T283 -8T233 -12Q182 -12 147 13T89 78T57 167T47 264Q47 302 59 345T94 426T149 489T220 514Q261 514 292 492T345 434T378 354T389 264V248H102ZM335 280Q335 307 330 341T311 406T275 456T220 477Q191 477 170 457T133 406T111 341T103 280H335H335ZM289 570L225 678L160 570H113L197 705H256L340 570H289Z"  />
<glyph unicode="&#xEB;" horiz-adv-x="430" d="M102 248Q102 208 111 169T137 98T179 46T234 26Q253 26 273 30T310 41T339 53T356 63L371 22Q365 19 353 13T323 2T283 -8T233 -12Q182 -12 147 13T89 78T57 167T47 264Q47 302 59 345T94 426T149 489T220 514Q261 514 292 492T345 434T378 354T389 264V248H102ZM335 280Q335 307 330 341T311 406T275 456T220 477Q191 477 170 457T133 406T111 341T103 280H335H335ZM349 638Q349 621 337 609T307 597Q290 597 278 609T266 638Q266 655 278 666T307 678Q324 678 336 667T349 638ZM186 638Q186 621 174 609T145 597Q128 597 116 609T104 638Q104 655 116 666T145 678Q162 678 174 667T186 638Z"  />
<glyph unicode="&#xEC;" horiz-adv-x="234" d="M39 0V37H93V465H39V502H147V37H201V0H39ZM103 570L19 705H79L146 570H103Z"  />
<glyph unicode="&#xED;" horiz-adv-x="234" d="M39 0V37H93V465H39V502H147V37H201V0H39ZM116 570H74L140 705H201L116 570Z"  />
<glyph unicode="&#xEE;" horiz-adv-x="234" d="M39 0V37H93V465H39V502H147V37H201V0H39ZM173 570L109 678L44 570H-3L81 705H140L224 570H173Z"  />
<glyph unicode="&#xEF;" horiz-adv-x="234" d="M39 0V37H93V465H39V502H147V37H201V0H39ZM237 638Q237 621 225 609T195 597Q178 597 166 609T154 638Q154 655 166 666T195 678Q212 678 224 667T237 638ZM74 638Q74 621 62 609T33 597Q16 597 4 609T-8 638Q-8 655 4 666T33 678Q50 678 62 667T74 638Z"  />
<glyph unicode="&#xF0;" horiz-adv-x="475" d="M428 264Q428 221 418 173T386 83T327 15T238 -12Q183 -12 147 15T88 83T57 172T47 264Q47 297 57 340T91 422T150 487T238 514Q259 514 276 508T306 493T329 472T347 451Q346 462 337 484T315 532T284 582T250 621L154 557L131 581L221 640Q216 644 204 651T177 665T148 678T126 687L141 721Q155 717 173 710T208 694T240 678T263 663L353 721L376 698L291 642Q319 617 343 577T387 487T417 380T428 264ZM371 264Q371 291 365 327T343 397T303 454T238 477Q201 477 176 455T134 399T111 329T104 264Q104 231 110 190T131 112T172 50T238 25Q277 25 303 50T344 111T365 189T371 264Z"  />
<glyph unicode="&#xF1;" horiz-adv-x="522" d="M333 0V37H381V349Q381 369 376 391T358 432T325 463T276 476Q249 476 227 463T187 433T160 400T147 377V37H195V0H39V37H93V465H39V502H144V430Q147 436 158 449T186 477T228 503T282 514Q323 514 352 499T399 461T426 408T435 350V37H489V0H333ZM396 691Q395 674 390 656T375 624T352 600T323 591Q306 591 292 598T266 614T241 630T215 638Q197 638 186 620T173 585H139Q140 603 145 621T160 653T182 676T213 685Q229 685 243 678T271 662T297 646T322 638Q341 638 351 656T363 691H396H396Z"  />
<glyph unicode="&#xF2;" horiz-adv-x="475" d="M428 264Q428 227 419 179T387 89T329 17T238 -12Q183 -12 147 15T88 83T57 172T47 264Q47 297 57 340T91 422T151 487T238 514Q290 514 326 489T385 425T418 344T428 264ZM371 264Q371 291 365 327T343 397T303 454T238 477Q201 477 176 455T134 399T111 329T104 264Q104 231 110 190T131 112T172 50T238 25Q277 25 303 50T344 111T365 189T371 264ZM225 570L141 705H201L268 570H225Z"  />
<glyph unicode="&#xF3;" horiz-adv-x="475" d="M428 264Q428 227 419 179T387 89T329 17T238 -12Q183 -12 147 15T88 83T57 172T47 264Q47 297 57 340T91 422T151 487T238 514Q290 514 326 489T385 425T418 344T428 264ZM371 264Q371 291 365 327T343 397T303 454T238 477Q201 477 176 455T134 399T111 329T104 264Q104 231 110 190T131 112T172 50T238 25Q277 25 303 50T344 111T365 189T371 264ZM253 570H211L277 705H338L253 570Z"  />
<glyph unicode="&#xF4;" horiz-adv-x="475" d="M428 264Q428 227 419 179T387 89T329 17T238 -12Q183 -12 147 15T88 83T57 172T47 264Q47 297 57 340T91 422T151 487T238 514Q290 514 326 489T385 425T418 344T428 264ZM371 264Q371 291 365 327T343 397T303 454T238 477Q201 477 176 455T134 399T111 329T104 264Q104 231 110 190T131 112T172 50T238 25Q277 25 303 50T344 111T365 189T371 264ZM303 570L239 678L174 570H127L211 705H270L354 570H303Z"  />
<glyph unicode="&#xF5;" horiz-adv-x="475" d="M428 264Q428 227 419 179T387 89T329 17T238 -12Q183 -12 147 15T88 83T57 172T47 264Q47 297 57 340T91 422T151 487T238 514Q290 514 326 489T385 425T418 344T428 264ZM371 264Q371 291 365 327T343 397T303 454T238 477Q201 477 176 455T134 399T111 329T104 264Q104 231 110 190T131 112T172 50T238 25Q277 25 303 50T344 111T365 189T371 264ZM369 691Q368 674 363 656T348 624T325 600T296 591Q279 591 265 598T239 614T214 630T188 638Q170 638 159 620T146 585H112Q113 603 118 621T133 653T155 676T186 685Q202 685 216 678T244 662T270 646T295 638Q314 638 324 656T336 691H369H369Z"  />
<glyph unicode="&#xF6;" horiz-adv-x="475" d="M428 264Q428 227 419 179T387 89T329 17T238 -12Q183 -12 147 15T88 83T57 172T47 264Q47 297 57 340T91 422T151 487T238 514Q290 514 326 489T385 425T418 344T428 264ZM371 264Q371 291 365 327T343 397T303 454T238 477Q201 477 176 455T134 399T111 329T104 264Q104 231 110 190T131 112T172 50T238 25Q277 25 303 50T344 111T365 189T371 264ZM363 638Q363 621 351 609T321 597Q304 597 292 609T280 638Q280 655 292 666T321 678Q338 678 350 667T363 638ZM200 638Q200 621 188 609T159 597Q142 597 130 609T118 638Q118 655 130 666T159 678Q176 678 188 667T200 638Z"  />
<glyph unicode="&#xF7;" horiz-adv-x="464" d="M198 365V424H264V365H198ZM50 227V275H414V227H50ZM198 78V137H264V78H198Z"  />
<glyph unicode="&#xF8;" horiz-adv-x="475" d="M389 418Q410 380 419 340T428 264Q428 227 419 179T388 89T330 17T238 -12Q194 -12 163 6T108 54L50 -24L23 -1L87 85Q65 127 56 174T47 264Q47 297 57 340T91 422T150 487T238 514Q281 514 312 496T367 449L425 526L452 503L389 418ZM336 411Q320 440 297 458T238 477Q201 477 176 455T134 399T111 329T104 264Q104 235 109 199T125 130L336 411H336ZM371 264Q371 286 367 315T352 374L140 92Q155 63 179 44T238 25Q277 25 303 50T344 111T365 189T371 264Z"  />
<glyph unicode="&#xF9;" horiz-adv-x="511" d="M373 0V71Q370 66 360 53T332 25T291 0T240 -12Q201 -12 172 2T124 39T96 93T87 155V465H33V502H141V153Q141 127 147 104T167 63T199 36T244 26Q270 26 292 39T331 69T358 102T369 125V465H315V502H424V37H478V0H373ZM240 570L156 705H216L283 570H240Z"  />
<glyph unicode="&#xFA;" horiz-adv-x="511" d="M373 0V71Q370 66 360 53T332 25T291 0T240 -12Q201 -12 172 2T124 39T96 93T87 155V465H33V502H141V153Q141 127 147 104T167 63T199 36T244 26Q270 26 292 39T331 69T358 102T369 125V465H315V502H424V37H478V0H373ZM269 570H227L293 705H354L269 570Z"  />
<glyph unicode="&#xFB;" horiz-adv-x="511" d="M373 0V71Q370 66 360 53T332 25T291 0T240 -12Q201 -12 172 2T124 39T96 93T87 155V465H33V502H141V153Q141 127 147 104T167 63T199 36T244 26Q270 26 292 39T331 69T358 102T369 125V465H315V502H424V37H478V0H373ZM319 570L255 678L190 570H143L227 705H286L370 570H319Z"  />
<glyph unicode="&#xFC;" horiz-adv-x="511" d="M373 0V71Q370 66 360 53T332 25T291 0T240 -12Q201 -12 172 2T124 39T96 93T87 155V465H33V502H141V153Q141 127 147 104T167 63T199 36T244 26Q270 26 292 39T331 69T358 102T369 125V465H315V502H424V37H478V0H373ZM378 638Q378 621 366 609T336 597Q319 597 307 609T295 638Q295 655 307 666T336 678Q353 678 365 667T378 638ZM215 638Q215 621 203 609T174 597Q157 597 145 609T133 638Q133 655 145 666T174 678Q191 678 203 667T215 638Z"  />
<glyph unicode="&#xFD;" horiz-adv-x="483" d="M415 465L232 -98Q212 -160 183 -195T116 -231Q104 -231 86 -227T60 -218L76 -180Q81 -183 93 -188T115 -194Q135 -194 154 -173T186 -110L216 -12L69 465H15V502H174V465H126L246 69L369 465H321V502H469V465H415ZM265 570H223L289 705H350L265 570Z"  />
<glyph unicode="&#xFE;" horiz-adv-x="500" d="M453 264Q453 216 441 167T404 78T345 13T265 -12Q236 -12 215 -1T178 24T153 51T141 71V-182H201V-219H33V-182H87V672H33V709H141V431Q144 437 155 450T183 478T221 503T266 514Q315 514 350 490T408 429T442 348T453 264ZM396 264Q396 297 388 334T364 403T323 455T263 476Q238 476 217 463T179 432T152 398T141 377V131Q144 123 153 106T178 70T215 39T262 25Q294 25 319 47T361 105T387 182T396 264Z"  />
<glyph unicode="&#xFF;" horiz-adv-x="483" d="M415 465L232 -98Q212 -160 183 -195T116 -231Q104 -231 86 -227T60 -218L76 -180Q81 -183 93 -188T115 -194Q135 -194 154 -173T186 -110L216 -12L69 465H15V502H174V465H126L246 69L369 465H321V502H469V465H415ZM375 638Q375 621 363 609T333 597Q316 597 304 609T292 638Q292 655 304 666T333 678Q350 678 362 667T375 638ZM212 638Q212 621 200 609T171 597Q154 597 142 609T130 638Q130 655 142 666T171 678Q188 678 200 667T212 638Z"  />
<glyph unicode="&#x131;" horiz-adv-x="234" d="M39 0V37H93V465H39V502H147V37H201V0H39Z"  />
<glyph unicode="&#x152;" horiz-adv-x="854" d="M360 0Q353 -2 333 -7T294 -12Q227 -12 182 22T110 109T71 225T59 348Q59 399 72 457T113 564T186 646T294 679Q314 679 335 675T365 667H789V535H737V626H429Q453 603 471 573T501 508T519 438T528 369H728V329H528Q526 291 518 250T496 169T463 97T420 41H749V135H801V0H360ZM467 348Q467 392 460 442T433 536T380 609T294 638Q243 638 209 609T156 536T128 441T120 348Q120 301 128 246T156 142T209 62T294 29Q327 29 352 44T397 84T429 143T451 211T463 282T467 348Z"  />
<glyph unicode="&#x153;" horiz-adv-x="753" d="M425 248Q425 208 434 169T460 98T501 46T556 26Q575 26 595 30T632 41T661 53T678 63L694 22Q688 19 676 13T645 2T605 -8T555 -12Q522 -12 496 -1T451 29T417 75T395 132Q386 104 373 78T341 32T297 0T238 -12Q183 -12 147 15T88 83T57 172T47 264Q47 297 57 340T91 422T150 487T238 514Q272 514 299 502T346 471T380 426T403 374Q412 402 425 427T456 471T495 502T543 514Q584 514 615 492T668 434T701 354T712 264V248H425ZM657 280Q657 307 652 341T633 406T597 456T542 477Q513 477 492 457T456 406T434 341T426 280H657H657ZM371 264Q371 291 365 327T343 397T303 454T238 477Q201 477 176 455T134 399T111 329T104 264Q104 231 110 190T131 112T172 50T238 25Q277 25 303 50T344 111T365 189T371 264Z"  />
<glyph unicode="&#x160;" horiz-adv-x="462" d="M406 173Q406 132 392 99T351 40T287 2T203 -12Q177 -12 152 -8T107 2T72 14T50 25V135H103V52Q109 50 120 46T145 38T174 32T204 29Q243 29 269 41T313 72T337 115T345 165Q345 199 323 228T269 283T198 334T128 386T73 444T51 512Q51 543 64 573T102 627T159 664T234 679Q256 679 278 675T320 666T355 655T376 645V535H323V619Q318 621 308 624T286 630T260 635T234 638Q205 638 182 629T144 604T120 567T111 521Q111 488 133 461T187 408T258 357T329 304T384 244T406 173ZM264 723H205L121 858H171L236 750L300 858H348L264 723Z"  />
<glyph unicode="&#x161;" horiz-adv-x="385" d="M341 130Q341 101 329 75T295 30T245 -1T187 -12Q157 -12 133 -8T89 2T58 13T38 22V108H87V46Q106 38 133 32T187 25Q228 25 256 52T284 121Q284 145 266 165T222 202T164 236T107 273T62 315T44 370Q44 398 56 424T88 470T136 502T194 514Q217 514 237 510T272 501T298 491T311 483V397H262V460Q253 464 232 470T194 477Q150 477 125 448T100 379Q100 354 118 334T162 297T220 262T278 226T323 183T341 130ZM220 570H161L77 705H127L192 597L256 705H304L220 570Z"  />
<glyph unicode="&#x178;" horiz-adv-x="527" d="M461 626L292 291V41H358V0H168V41H234V291L66 626H6V667H182V626H128L270 341L411 626H357V667H521V626H461ZM398 791Q398 774 386 762T356 750Q339 750 327 762T315 791Q315 808 327 819T356 831Q373 831 385 820T398 791ZM235 791Q235 774 223 762T194 750Q177 750 165 762T153 791Q153 808 165 819T194 831Q211 831 223 820T235 791Z"  />
<glyph unicode="&#x17D;" horiz-adv-x="479" d="M45 0V36L364 627H109V535H57V667H426V631L106 40H382V135H435V0H45ZM270 723H211L127 858H177L242 750L306 858H354L270 723Z"  />
<glyph unicode="&#x17E;" horiz-adv-x="404" d="M42 0V34L297 465H97V397H48V502H356V468L101 37H313V108H362V0H42ZM231 570H172L88 705H138L203 597L267 705H315L231 570Z"  />
<glyph unicode="&#x192;" horiz-adv-x="464" d="M412 613Q407 616 395 621T369 627Q355 627 343 619T320 596T301 565T289 528L253 361H341V322H244L157 -93Q152 -117 143 -141T117 -186T78 -218T23 -231Q5 -231 -11 -226T-32 -218L-9 -177Q-5 -180 7 -185T29 -191Q43 -191 55 -182T76 -158T93 -126T103 -92L191 322H108V361H200L235 529Q241 557 253 582T283 626T324 656T375 667Q398 667 414 662T436 654L412 613Z"  />
<glyph unicode="&#x2C6;" horiz-adv-x="231" d="M178 570L114 678L49 570H2L86 705H145L229 570H178Z"  />
<glyph unicode="&#x2C7;" horiz-adv-x="231" d="M145 570H86L2 705H52L117 597L181 705H229L145 570Z"  />
<glyph unicode="&#x2DA;" horiz-adv-x="231" d="M195 638Q195 605 172 582T116 559Q83 559 60 582T36 638Q36 671 60 694T116 717Q149 717 172 694T195 638ZM169 638Q169 660 153 676T115 692Q90 692 76 676T62 638Q62 616 77 600T115 584Q137 584 153 600T169 638Z"  />
<glyph unicode="&#x2DC;" horiz-adv-x="231" d="M244 691Q243 674 238 656T223 624T200 600T171 591Q154 591 140 598T114 614T89 630T63 638Q45 638 34 620T21 585H-13Q-12 603 -7 621T8 653T30 676T61 685Q77 685 91 678T119 662T145 646T170 638Q189 638 199 656T211 691H244H244Z"  />
<glyph unicode="&#x2013;" horiz-adv-x="500" d="M0 280V328H500V280H0Z"  />
<glyph unicode="&#x2014;" horiz-adv-x="1000" d="M0 280V328H1000V280H0Z"  />
<glyph unicode="&#x2018;" horiz-adv-x="232" d="M92 526H30L112 727H160L92 526Z"  />
<glyph unicode="&#x2019;" horiz-adv-x="232" d="M78 526H30L98 727H160L78 526Z"  />
<glyph unicode="&#x201A;" horiz-adv-x="232" d="M78 -132H30L98 69H160L78 -132Z"  />
<glyph unicode="&#x201C;" horiz-adv-x="365" d="M225 526H163L246 727H294L225 526ZM92 526H30L112 727H160L92 526Z"  />
<glyph unicode="&#x201D;" horiz-adv-x="365" d="M211 526H163L231 727H294L211 526ZM78 526H30L98 727H160L78 526Z"  />
<glyph unicode="&#x201E;" horiz-adv-x="365" d="M211 -132H163L231 69H294L211 -132ZM78 -132H30L98 69H160L78 -132Z"  />
<glyph unicode="&#x2020;" horiz-adv-x="464" d="M258 453V-165H207V453H50V502H207V667H258V502H414V453H258Z"  />
<glyph unicode="&#x2021;" horiz-adv-x="464" d="M258 0V-165H207V0H50V49H207V453H50V502H207V667H258V502H414V453H258V49H414V0H258Z"  />
<glyph unicode="&#x2022;" horiz-adv-x="464" d="M350 304Q350 280 341 259T315 221T278 196T232 186Q208 186 187 195T149 221T124 258T114 304Q114 328 123 349T149 387T186 412T232 422Q256 422 277 413T315 387T340 350T350 304Z"  />
<glyph unicode="&#x2026;" horiz-adv-x="1000" d="M880 34Q880 14 867 1T834 -12Q814 -12 801 1T788 34Q788 54 801 67T835 80Q855 80 867 67T880 34ZM546 34Q546 14 533 1T500 -12Q480 -12 467 1T454 34Q454 54 467 67T501 80Q521 80 533 67T546 34ZM212 34Q212 14 199 1T166 -12Q146 -12 133 1T120 34Q120 54 133 67T167 80Q187 80 199 67T212 34Z"  />
<glyph unicode="&#x2030;" horiz-adv-x="1161" d="M1098 200Q1098 162 1091 125T1068 57T1027 7T966 -12Q929 -12 904 7T864 56T842 124T835 200Q835 228 842 262T865 325T906 375T966 395Q1004 395 1029 375T1070 326T1091 263T1098 200ZM770 200Q770 162 763 125T740 57T699 7T638 -12Q601 -12 576 7T536 56T514 124T507 200Q507 228 514 262T537 325T578 375T638 395Q676 395 701 375T742 326T763 263T770 200ZM293 0H249L537 655H581L293 0ZM326 472Q326 434 319 397T295 329T254 279T193 260Q156 260 131 279T91 328T70 396T63 472Q63 500 70 534T92 597T133 647T193 667Q231 667 256 647T297 598T319 535T326 472ZM1046 200Q1046 220 1042 247T1029 300T1005 342T966 360Q942 360 927 342T903 298T891 245T887 200Q887 169 891 138T904 81T929 39T966 23Q988 23 1003 40T1028 83T1042 140T1046 200ZM718 200Q718 220 714 247T701 300T677 342T638 360Q614 360 599 342T575 298T563 245T559 200Q559 169 563 138T576 81T601 39T638 23Q660 23 675 40T700 83T714 140T718 200ZM274 472Q274 492 270 519T257 572T232 614T193 632Q169 632 154 614T130 570T118 517T115 472Q115 441 119 410T132 353T156 311T193 295Q215 295 230 312T256 355T270 412T274 472Z"  />
<glyph unicode="&#x2039;" horiz-adv-x="232" d="M133 133L32 304L133 470H180L89 304L180 133H133Z"  />
<glyph unicode="&#x203A;" horiz-adv-x="232" d="M100 133H53L144 304L53 470H100L200 304L100 133Z"  />
<glyph unicode="&#x20AC;" horiz-adv-x="464" d="M392 601Q387 604 377 608T352 617T321 624T290 627Q260 627 239 608T202 557T178 489T164 417H357L343 378H160Q159 368 159 359T158 342Q158 333 159 324T160 306H343L329 267H162Q165 227 174 185T198 108T235 51T290 28Q316 28 341 37T380 58L395 17Q385 9 355 -1T290 -12Q245 -12 213 11T158 72T122 161T103 267H28L42 306H101Q101 315 101 324T100 342Q100 351 100 360T101 378H34L47 417H107Q114 461 128 505T165 586T219 644T290 667Q309 667 327 664T362 657T389 649T407 641L392 601Z"  />
<glyph unicode="&#x2122;" horiz-adv-x="844" d="M687 267V304H723V595L597 267H558L435 595V304H470V267H356V304H395V631H356V667H461L583 337L710 667H812V631H773V304H812V267H687ZM264 579V631H184V304H227V267H91V304H133V631H62V579H15V667H310V579H264Z"  />
<glyph unicode="&#xE300;" horiz-adv-x="231" d="M104 723L20 858H80L147 723H104Z"  />
<glyph unicode="&#xE301;" horiz-adv-x="231" d="M126 723H84L150 858H211L126 723Z"  />
<glyph unicode="&#xE302;" horiz-adv-x="231" d="M178 723L114 831L49 723H2L86 858H145L229 723H178Z"  />
<glyph unicode="&#xE303;" horiz-adv-x="231" d="M145 723H86L2 858H52L117 750L181 858H229L145 723Z"  />
<glyph unicode="&#xE304;" horiz-adv-x="231" d="M244 844Q243 827 238 809T223 777T200 753T171 744Q154 744 140 751T114 767T89 783T63 791Q45 791 34 773T21 738H-13Q-12 756 -7 774T8 806T30 829T61 838Q77 838 91 831T119 815T145 799T170 791Q189 791 199 809T211 844H244H244Z"  />
<glyph unicode="&#xE305;" horiz-adv-x="231" d="M238 791Q238 774 226 762T196 750Q179 750 167 762T155 791Q155 808 167 819T196 831Q213 831 225 820T238 791ZM75 791Q75 774 63 762T34 750Q17 750 5 762T-7 791Q-7 808 5 819T34 831Q51 831 63 820T75 791Z"  />
<glyph unicode="&#xE308;" horiz-adv-x="231" d="M195 791Q195 758 172 735T116 712Q83 712 60 735T36 791Q36 824 60 847T116 870Q149 870 172 847T195 791ZM169 791Q169 813 153 829T115 845Q90 845 76 829T62 791Q62 769 77 753T115 737Q137 737 153 753T169 791Z"  />

</font>
</defs>
</svg>
